<svg xmlns="http://www.w3.org/2000/svg" width="24" height="24" viewBox="0 -960 960 960"><path d="M202.87-71.87q-37.783 0-64.392-26.608-26.609-26.609-26.609-64.392v-449.326q-18.239-12.434-29.12-31.489-10.88-19.054-10.88-43.011V-797.13q0-37.783 26.61-64.392 26.608-26.609 64.391-26.609h634.26q37.783 0 64.392 26.609 26.609 26.609 26.609 64.392v110.434q0 23.957-10.881 43.011-10.88 19.055-29.119 31.489v449.326q0 37.783-26.609 64.392Q794.913-71.87 757.13-71.87H202.87zm0-523.826v433.066h554.5v-433.066h-554.5zm-40-91h634.5V-797.13h-634.5v110.434zm193.065 292.435h248.369v-86.217H355.935v86.217zm124.304 14.978z"/></svg>