<svg xmlns="http://www.w3.org/2000/svg" width="20" height="20" viewBox="0 -960 960 960"><path d="M480-259.463q-64.154 0-124.693 22.597-60.539 22.596-113.886 66.298v-3.778q1.539 1.154 3.077 1.731 1.539.577 3.462.577h463.311q1.923 0 3.269-.577t2.885-1.731v4.654q-50.77-43.962-111.862-66.866Q544.471-259.463 480-259.463zm-260.769 41.425q54.457-44.249 122.24-66.817 67.782-22.568 138.501-22.568 70.72 0 138.522 22.068 67.802 22.068 122.275 67.317v-463.23q0-4.616-3.846-8.463-3.847-3.846-8.462-3.846H231.539q-4.615 0-8.462 3.846-3.846 3.847-3.846 8.463v463.23zm260.415-155.193q-54.492 0-92.453-38.315-37.962-38.315-37.962-92.808 0-54.492 38.315-92.453 38.315-37.962 92.808-37.962 54.492 0 92.453 38.315 37.962 38.315 37.962 92.808 0 54.492-38.315 92.453-38.315 37.962-92.808 37.962zm.413-47.961q34.207 0 58.478-24.329 24.271-24.33 24.271-58.538 0-34.207-24.329-58.478-24.33-24.271-58.538-24.271-34.207 0-58.478 24.329-24.271 24.33-24.271 58.538 0 34.207 24.329 58.478 24.33 24.271 58.538 24.271zM231.448-124.078q-24.346 0-42.262-17.916-17.915-17.916-17.915-42.262v-497.103q0-24.347 17.915-42.262 17.916-17.916 42.353-17.916h91.424v-100.616h49.499v100.616h216.614v-100.616h47.961v100.616h91.424q25.137 0 42.703 17.916 17.565 17.915 17.565 42.262v497.103q0 24.346-17.565 42.262-17.566 17.916-42.612 17.916H231.448zM480-502zm.5 329.962h236.925-476.004H480.5z"/></svg>