<svg xmlns="http://www.w3.org/2000/svg" width="24" height="24" viewBox="0 -960 960 960"><path d="M241.913-152.587q-50.478 0-86.435-34.761-35.956-34.761-36.913-85.239H32.587v-443.826q0-37.783 26.609-64.391 26.608-26.609 64.391-26.609h560V-651h117.609l126.217 168.37v210.043h-84.065q-.957 50.478-36.913 85.239-35.957 34.761-86.435 34.761t-86.435-34.761q-35.956-34.761-36.913-85.239h-231.63q-.957 50.239-36.794 85.12-35.837 34.88-86.315 34.88zm0-83.826q17 0 28.5-11.5t11.5-28.5q0-17-11.5-28.5t-28.5-11.5q-17 0-28.5 11.5t-11.5 28.5q0 17 11.5 28.5t28.5 11.5zM123.587-363.587h33.196q17-16.326 38.282-26.37Q216.348-400 241.913-400q25.565 0 46.962 10.014 21.396 10.013 37.929 26.399h265.783v-352.826h-469v352.826zM720-236.413q17 0 28.5-11.5t11.5-28.5q0-17-11.5-28.5t-28.5-11.5q-17 0-28.5 11.5t-11.5 28.5q0 17 11.5 28.5t28.5 11.5zM683.587-440h162.109l-90-120h-72.109v120zm-325.5-100z"/></svg>