<svg xmlns="http://www.w3.org/2000/svg" width="24" height="24" viewBox="0 -960 960 960"><path d="M256.294-108.078q-28.384 0-48.3-19.916-19.916-19.916-19.916-48.265v-449.905q0-28.349 19.916-48.265t48.385-19.916h75.737v-10.001q0-61.345 43.315-104.461 43.315-43.115 104.615-43.115t104.691 43.211q43.391 43.211 43.391 104.365v10.001h75.564q28.398 0 48.314 19.916t19.916 48.265v449.905q0 28.349-19.916 48.265t-48.3 19.916H256.294zm.053-55.96h447.306q4.616 0 8.462-3.847 3.847-3.846 3.847-8.462v-449.729q0-4.616-3.847-8.462-3.846-3.847-8.462-3.847h-75.577v91.924q0 11.654-8.211 19.865-8.211 8.211-19.865 8.211-11.654 0-19.769-8.211-8.115-8.211-8.115-19.865v-91.924h-184.04v91.924q0 11.654-8.211 19.865-8.211 8.211-19.865 8.211-11.654 0-19.769-8.211-8.115-8.211-8.115-19.865v-91.924h-75.769q-4.616 0-8.462 3.847-3.847 3.846-3.847 8.462v449.729q0 4.616 3.847 8.462 3.846 3.847 8.462 3.847zm131.729-530.307h184.04v-10.001q0-38.423-26.8-65.019-26.801-26.597-65.27-26.597-38.469 0-65.22 26.667-26.75 26.667-26.75 64.949v10.001zM244.038-164.038v-474.347 474.347z"/></svg>