<svg xmlns="http://www.w3.org/2000/svg" width="24" height="24" viewBox="0 -960 960 960"><path d="M294.834-121.538q-24.52 0-41.369-16.785-16.85-16.785-16.85-41.305 0-24.519 16.785-41.369 16.785-16.849 41.304-16.849 24.52 0 41.37 16.785 16.849 16.785 16.849 41.304 0 24.52-16.785 41.369-16.785 16.85-41.304 16.85zm369.846 0q-24.519 0-41.369-16.785t-16.85-41.305q0-24.519 16.785-41.369 16.785-16.849 41.305-16.849 24.519 0 41.369 16.785 16.849 16.785 16.849 41.304 0 24.52-16.785 41.369-16.784 16.85-41.304 16.85zM236.462-739.385l106.769 224.616h262.308q6.923 0 12.307-3.462 5.385-3.461 9.231-9.615l104.615-190q4.616-8.462.769-15-3.846-6.539-13.076-6.539H236.462zm-18.221-36.923h512.567q25.692 0 38.538 20.993 12.847 20.992 1.462 42.853L658.962-508.461q-8.077 14.115-21.953 22.365-13.876 8.25-29.778 8.25h-282L276-387.384q-6.154 9.23-.385 19.999 5.77 10.77 17.308 10.77h429.846v36.923H294.874q-34.297 0-51.067-28.394-16.769-28.394-.884-57.299l60.154-106.48-145.774-306.289h-71.15v-36.923h94.616l37.472 78.769zm124.99 261.539h276.923-276.923z"/></svg>