<svg xmlns="http://www.w3.org/2000/svg" width="24" height="24" viewBox="0 -960 960 960"><path d="M831.845-395.654L564.538-128.655q-10.563 10.538-23.141 15.558-12.579 5.019-25.839 5.019-13.058 0-25.5-5.019-12.442-5.02-22.788-15.558L128.04-468.001q-9.923-9.346-14.943-21.825-5.019-12.48-5.019-26.251v-267.191q0-28.32 20.006-48.487t48.648-20.167h267.999q13.487 0 26.131 5.229t22.253 14.848l338.73 338.846q10.197 10.62 15.079 23.355 4.882 12.734 4.882 25.363 0 13.296-4.886 25.732-4.886 12.435-15.075 22.895zM525.309-167.885l266.998-267.499q3.847-3.654 3.847-8.943t-3.847-9.135L449.093-795.577H176.732q-5.385 0-9.039 3.462-3.655 3.462-3.655 8.847v266.914q0 2.501.77 4.808.769 2.308 2.692 4.039l339.73 339.622q3.847 3.847 9.039 3.847 5.193 0 9.04-3.847zM263.822-648.847q19.966 0 33.899-13.866 13.932-13.867 13.932-33.676 0-19.97-13.876-33.982-13.877-14.013-33.7-14.013-20.128 0-34.044 13.933-13.917 13.932-13.917 33.836 0 19.903 13.87 33.836 13.871 13.932 33.836 13.932zm217.447 169.616z"/></svg>