<?xml version="1.0" encoding="utf-8"?>
<!-- Generator: Adobe Illustrator 25.0.1, SVG Export Plug-In . SVG Version: 6.00 Build 0)  -->
<svg version="1.1" id="Layer_1" xmlns="http://www.w3.org/2000/svg" xmlns:xlink="http://www.w3.org/1999/xlink" x="0px" y="0px"
	 viewBox="0 0 24 24" style="enable-background:new 0 0 24 24;" xml:space="preserve">
<style type="text/css">
	.st0{fill:#4285F4;}
	.st1{fill:#FFFFFF;}
</style>
<g>
	<path class="st0" d="M20.2,21.1H3.9c-0.5,0-1-0.4-1-1V3.8c0-0.5,0.4-1,1-1h16.3c0.5,0,1,0.4,1,1v16.3
		C21.2,20.8,20.8,21.1,20.2,21.1z"/>
	<path class="st1" d="M18,8.6H6c-0.5,0-1-0.4-1-1V7c0-0.5,0.4-1,1-1h12c0.5,0,1,0.4,1,1v0.7C18.9,8.2,18.5,8.6,18,8.6z"/>
	<path class="st1" d="M18,13.4H6c-0.5,0-1-0.4-1-1v-0.7c0-0.5,0.4-1,1-1h12c0.5,0,1,0.4,1,1v0.7C18.9,12.9,18.5,13.4,18,13.4z"/>
	<path class="st1" d="M16.2,18H7.9c-0.5,0-1-0.4-1-1v-0.7c0-0.5,0.4-1,1-1h8.3c0.5,0,1,0.4,1,1V17C17.1,17.6,16.7,18,16.2,18z"/>
</g>
</svg>
