<?xml version="1.0" encoding="utf-8"?>
<!-- Generator: Adobe Illustrator 25.0.1, SVG Export Plug-In . SVG Version: 6.00 Build 0)  -->
<svg version="1.1" id="Layer_1" xmlns="http://www.w3.org/2000/svg" xmlns:xlink="http://www.w3.org/1999/xlink" x="0px" y="0px"
	 viewBox="0 0 24.1 24.1" style="enable-background:new 0 0 24.1 24.1;" xml:space="preserve">
<style type="text/css">
	.st0{fill:#E3B060;}
	.st1{fill:#FFC765;}
</style>
<g id="Structure-Back">
	<path class="st0" d="M4,4.8h17c0.3,0,0.5,0.2,0.5,0.5v7.8c0,0.3-0.2,0.5-0.5,0.5H4c-0.3,0-0.5-0.2-0.5-0.5V5.3C3.5,5,3.7,4.8,4,4.8
		z"/>
</g>
<g id="Structure">
	<path class="st1" d="M1.4,18.8V7.6c0-0.2,0-0.3,0.1-0.4l0.4-0.8c0.2-0.3,0.5-0.5,0.8-0.5h6c0.3,0,0.6,0.2,0.8,0.4l0.2,0.3
		C9.9,6.9,10.2,7,10.5,7h11.1c0.5,0,0.9,0.4,0.9,0.9v10.8c0,0.5-0.4,0.9-0.9,0.9l0,0H2.4C1.8,19.7,1.4,19.3,1.4,18.8L1.4,18.8z"/>
</g>
</svg>
