<?xml version="1.0" encoding="utf-8"?>
<!-- Generator: Adobe Illustrator 25.0.1, SVG Export Plug-In . SVG Version: 6.00 Build 0)  -->
<svg version="1.1" id="Layer_1" xmlns="http://www.w3.org/2000/svg" xmlns:xlink="http://www.w3.org/1999/xlink" x="0px" y="0px"
	 viewBox="0 0 24 24" style="enable-background:new 0 0 24 24;" xml:space="preserve">
<style type="text/css">
	.st0{opacity:0.56;fill:#BFBFBF;enable-background:new    ;}
</style>
<path class="st0" d="M19.6,19.6c-0.1,0.1-0.2,0.1-0.3,0.1c-0.1,0-0.2,0-0.3-0.1l-1.7-1.7l-2.1-2.1L12.4,13l-8-8
	c-0.2-0.2-0.2-0.4,0-0.6c0.1-0.1,0.2-0.1,0.3-0.1c0.1,0,0.2,0,0.2,0.1l1.1,1l10.4,10.4l1.6,1.6l0.3,0.3l1.3,1.3v0.1
	C19.7,19.2,19.7,19.4,19.6,19.6z M16.7,5.4H6.6l6.7,6.7l0.2-0.3l1.4,1.8l3.3,3.3V6.8C18.2,6.1,17.5,5.4,16.7,5.4z M17.1,18.3H6.8
	c-0.8,0-1.4-0.6-1.4-1.4V6.6l6.9,6.9L11,15.1l-1.8-2.2l-2.5,3.2H15C15,16.1,17.1,18.3,17.1,18.3z"/>
</svg>
