<?xml version="1.0" encoding="utf-8"?>
<!-- Generator: Adobe Illustrator 25.0.1, SVG Export Plug-In . SVG Version: 6.00 Build 0)  -->
<svg version="1.1" id="Layer_1" xmlns="http://www.w3.org/2000/svg" xmlns:xlink="http://www.w3.org/1999/xlink" x="0px" y="0px"
	 viewBox="0 0 24 24" style="enable-background:new 0 0 24 24;" xml:space="preserve">
<style type="text/css">
	.st0{fill:#D93025;}
</style>
<path class="st0" d="M13,10.1c-0.2-0.3-0.5-0.4-0.9-0.4h-0.5v4.7H12c0.5,0,0.8-0.1,1-0.4c0.2-0.2,0.3-0.7,0.3-1.3v-1.2
	C13.2,10.8,13.2,10.3,13,10.1z M13,10.1c-0.2-0.3-0.5-0.4-0.9-0.4h-0.5v4.7H12c0.5,0,0.8-0.1,1-0.4c0.2-0.2,0.3-0.7,0.3-1.3v-1.2
	C13.2,10.8,13.2,10.3,13,10.1z M20.1,2.8H3.9c-0.6,0-1,0.5-1,1v16.3c0,0.6,0.5,1,1,1h16.3c0.6,0,1-0.4,1-1V3.8
	C21.1,3.2,20.6,2.8,20.1,2.8z M8.5,12.4c-0.4,0.4-1,0.6-1.7,0.6H5.9v2.5H4.5v-7h2.4c0.7,0,1.2,0.2,1.7,0.7c0.4,0.4,0.6,1,0.6,1.7
	C9.2,11.5,8.9,12,8.5,12.4z M14.7,12.5c0,0.9-0.2,1.7-0.7,2.2s-1.2,0.8-2,0.8h-1.8v-7H12c0.8,0,1.5,0.3,2,0.8s0.7,1.2,0.8,2.1v1.1
	H14.7z M19.6,9.7h-2.5v1.8h2.2v1.2h-2.2v2.9h-1.4v-7h3.9V9.7z M12,9.7h-0.5v4.7h0.4c0.5,0,0.8-0.1,1-0.4c0.2-0.2,0.3-0.7,0.3-1.3
	v-1.2c0-0.7-0.1-1.1-0.3-1.4C12.8,9.8,12.5,9.7,12,9.7z M6.9,9.7h-1v2.2h1c0.3,0,0.5-0.1,0.6-0.3s0.2-0.4,0.2-0.8
	c0-0.4-0.1-0.6-0.2-0.8C7.3,9.8,7.1,9.7,6.9,9.7z"/>
</svg>
