<?xml version="1.0" encoding="utf-8"?>
<!-- Generator: Adobe Illustrator 25.0.1, SVG Export Plug-In . SVG Version: 6.00 Build 0)  -->
<svg version="1.1" id="Layer_1" xmlns="http://www.w3.org/2000/svg" xmlns:xlink="http://www.w3.org/1999/xlink" x="0px" y="0px"
	 viewBox="0 0 24.1 24.1" style="enable-background:new 0 0 24.1 24.1;" xml:space="preserve">
<style type="text/css">
	.st0{fill:#223025;}
</style>
<path class="st0" d="M20.9,2.8H4.6c-0.6,0-1,0.5-1,1v16.3c0,0.6,0.5,1,1,1h16.3c0.6,0,1-0.4,1-1V3.8C21.9,3.2,21.4,2.8,20.9,2.8z
	 M13.7,18.3c-0.3,0.3-0.6,0.4-1.1,0.4c-0.5,0-0.8-0.1-1.1-0.4c-0.3-0.3-0.4-0.6-0.4-1c0-0.4,0.2-0.8,0.4-1c0.3-0.3,0.6-0.4,1.1-0.4
	c0.4,0,0.8,0.1,1.1,0.4c0.3,0.3,0.4,0.6,0.4,1C14.2,17.7,14,18.1,13.7,18.3z M16.6,10c-0.2,0.5-0.7,1-1.2,1.6l-0.8,0.7
	c-0.5,0.5-0.7,1-0.8,1.6l0,0.6h-2.4c0-0.9,0.1-1.6,0.3-2.1c0.2-0.5,0.6-1,1.2-1.5c0.6-0.5,0.9-0.9,1.1-1.2c0.2-0.3,0.3-0.6,0.3-1
	c0-1.1-0.5-1.6-1.5-1.6c-0.5,0-0.8,0.1-1.1,0.4c-0.3,0.3-0.4,0.7-0.4,1.2H8.6c0-1.2,0.4-2.1,1.2-2.8c0.8-0.7,1.8-1,3.1-1
	c1.3,0,2.3,0.3,3.1,1C16.6,6.4,17,7.3,17,8.5C17,9,16.9,9.5,16.6,10z M12.7,9.7h0.1c0,0,0,0,0.1,0C12.9,9.7,12.8,9.7,12.7,9.7z"/>
</svg>
