<svg xmlns="http://www.w3.org/2000/svg"><symbol id="orange" viewBox="0 -960 960 960"><path d="M480-160q-100.077 0-170.039-69.961Q240-299.923 240-400q0-82.462 49.731-146.962 49.73-64.5 129.73-85.115-20-4.231-39.384-12.962-19.385-8.73-33.616-22.961-26.846-26.846-34.807-63.5-7.962-36.654-6.808-74.424 36.231-1.153 71.731 6.424 35.5 7.576 62.346 32.884 23 20.693 32.731 49.308 9.731 28.615 11.961 59.846 12.231-29.461 29.577-55.808 17.347-26.346 40.347-49.346 5.615-5.615 14.154-5.615 8.538 0 14.153 5.615 5.616 5.616 5.616 14.154 0 8.539-5.616 14.154-21.23 21.231-37.461 45.808-16.231 24.577-26.539 52.269 88 13.385 145.077 80.346Q720-488.923 720-400q0 100.077-69.961 170.039Q580.077-160 480-160zm0-40q83 0 141.5-58.5T680-400q0-83-58.5-141.5T480-600q-83 0-141.5 58.5T280-400q0 83 58.5 141.5T480-200zm0-200z"/></symbol><symbol id="person" viewBox="0 -960 960 960"><path d="M480-504.615q-49.5 0-84.75-35.25T360-624.615q0-49.501 35.25-84.751 35.25-35.25 84.75-35.25t84.75 35.25Q600-674.116 600-624.615q0 49.5-35.25 84.75T480-504.615zM200-215.384v-65.847q0-24.769 14.423-46.346 14.423-21.577 38.808-33.5 56.615-27.154 113.307-40.731Q423.231-415.385 480-415.385q56.769 0 113.462 13.577 56.692 13.577 113.307 40.731 24.385 11.923 38.808 33.5Q760-306 760-281.231v65.847H200zm40-40.001h480v-25.846q0-13.307-8.577-25-8.577-11.692-23.731-19.769-49.384-23.923-101.836-36.654Q533.405-375.385 480-375.385q-53.405 0-105.856 12.731Q321.692-349.923 272.308-326q-15.154 8.077-23.731 19.769-8.577 11.693-8.577 25v25.846zm240-289.23q33 0 56.5-23.5t23.5-56.5q0-33-23.5-56.5t-56.5-23.5q-33 0-56.5 23.5t-23.5 56.5q0 33 23.5 56.5t56.5 23.5zm0-80zm0 369.23z"/></symbol><symbol id="money" viewBox="0 0 24 24"><path fill="none" d="M0 0h24v24H0V0z"/><path d="M12 2C6.48 2 2 6.48 2 12s4.48 10 10 10 10-4.48 10-10S17.52 2 12 2zm1.41 16.09v.58c0 .73-.6 1.33-1.33 1.33h-.01c-.73 0-1.33-.6-1.33-1.33v-.6c-1.33-.28-2.51-1.01-3.01-2.24-.23-.55.2-1.16.8-1.16h.24c.37 0 .67.25.81.6.29.75 1.05 1.27 2.51 1.27 1.96 0 2.4-.98 2.4-1.59 0-.83-.44-1.61-2.67-2.14-2.48-.6-4.18-1.62-4.18-3.67 0-1.72 1.39-2.84 3.11-3.21v-.6c0-.73.6-1.33 1.33-1.33h.01c.73 0 1.33.6 1.33 1.33v.62c1.38.34 2.25 1.2 2.63 2.26.2.55-.22 1.13-.81 1.13h-.26c-.37 0-.67-.26-.77-.62-.23-.76-.86-1.25-2.12-1.25-1.5 0-2.4.68-2.4 1.64 0 .84.65 1.39 2.67 1.91s4.18 1.39 4.18 3.91c-.02 1.83-1.39 2.83-3.13 3.16z"/></symbol><symbol id="print3" viewBox="0 0 24 24"><path fill="none" d="M0 0h24v24H0V0z"/><path d="M19 8H5c-1.66 0-3 1.34-3 3v4c0 1.1.9 2 2 2h2v2c0 1.1.9 2 2 2h8c1.1 0 2-.9 2-2v-2h2c1.1 0 2-.9 2-2v-4c0-1.66-1.34-3-3-3zm-4 11H9c-.55 0-1-.45-1-1v-4h8v4c0 .55-.45 1-1 1zm4-7c-.55 0-1-.45-1-1s.45-1 1-1 1 .45 1 1-.45 1-1 1zm-2-9H7c-.55 0-1 .45-1 1v2c0 .55.45 1 1 1h10c.55 0 1-.45 1-1V4c0-.55-.45-1-1-1z"/></symbol><symbol id="more" viewBox="0 0 24 24"><path fill="none" d="M0 0h24v24H0V0z"/><path d="M12 8c1.1 0 2-.9 2-2s-.9-2-2-2-2 .9-2 2 .9 2 2 2zm0 2c-1.1 0-2 .9-2 2s.9 2 2 2 2-.9 2-2-.9-2-2-2zm0 6c-1.1 0-2 .9-2 2s.9 2 2 2 2-.9 2-2-.9-2-2-2z"/></symbol><symbol id="person-b" viewBox="0 0 512 512"><style>.st0,.st1{fill:none;stroke:#000;stroke-width:32}.st0{stroke-linecap:round;stroke-linejoin:round}.st1{stroke-miterlimit:10}</style><path d="M256 304c-87 0-175.3 48-191.6 138.6-2 10.9 4.2 21.4 15.6 21.4h352c11.4 0 17.6-10.5 15.6-21.4C431.3 352 343 304 256 304zm88-160c-3.9 52.9-44 96-88 96s-84.1-43.1-88-96c-4-55 35-96 88-96s92 42 88 96z"/><path d="M344 144c-3.9 52.9-44 96-88 96s-84.1-43.1-88-96c-4-55 35-96 88-96s92 42 88 96z" class="st0"/><path d="M256 304c-87 0-175.3 48-191.6 138.6-2 10.9 4.2 21.4 15.6 21.4h352c11.4 0 17.6-10.5 15.6-21.4C431.3 352 343 304 256 304z" class="st1"/></symbol><symbol id="provider" viewBox="0 -960 960 960"><path d="M260.001-100.001v-161.23q-57-52-88.5-119.193-31.5-67.192-31.5-139.854 0-141.55 99.167-240.635Q338.334-859.999 480-859.999q116.538 0 208.422 69.654t119.346 180.73l46.736 184.583q4.494 17.108-6.352 31.069-10.846 13.962-28.923 13.962h-79.23v127.692q0 29.827-21.241 51.067-21.24 21.241-51.067 21.241h-87.692v80H520V-240h147.691q5.385 0 8.847-3.462 3.462-3.462 3.462-8.847V-440h108l-38-155q-23-91.385-98.385-148.192Q576.231-800 480-800q-116 0-198 81.112t-82 197.273q0 59.901 24.5 113.812 24.5 53.911 69.5 95.842L320-288v187.999h-59.999zm233.999-350zm-45.153 81.539h62.306l4.462-43.461q11.846-3 22.192-8.731 10.347-5.731 17.655-14.193l39.076 18.077 31.153-52.999-34.615-25.769q4.308-12.231 4.308-24.462t-4.308-24.462l34.615-25.769-31.153-52.999-39.076 18.077q-7.308-8.462-17.655-14.193-10.346-5.731-22.192-8.731l-4.462-43.461h-62.306l-4.462 43.461q-11.846 3-22.192 8.731-10.347 5.731-17.655 14.193l-39.076-18.077-31.153 52.999 34.615 25.769q-4.308 12.231-4.308 24.462t4.308 24.462l-34.615 25.769 31.153 52.999 39.076-18.077q7.308 8.462 17.655 14.193 10.346 5.731 22.192 8.731l4.462 43.461zm31.13-84.23q-28.054 0-47.67-19.638-19.615-19.638-19.615-47.693 0-28.054 19.638-47.67 19.638-19.615 47.693-19.615 28.054 0 47.67 19.638 19.615 19.638 19.615 47.693 0 28.054-19.638 47.67-19.638 19.615-47.693 19.615z"/></symbol><symbol id="print" viewBox="0 0 24 24"><path fill="none" d="M0 0h24v24H0V0z"/><path d="M19 8H5c-1.66 0-3 1.34-3 3v4c0 1.1.9 2 2 2h2v2c0 1.1.9 2 2 2h8c1.1 0 2-.9 2-2v-2h2c1.1 0 2-.9 2-2v-4c0-1.66-1.34-3-3-3zm-4 11H9c-.55 0-1-.45-1-1v-4h8v4c0 .55-.45 1-1 1zm4-7c-.55 0-1-.45-1-1s.45-1 1-1 1 .45 1 1-.45 1-1 1zm-2-9H7c-.55 0-1 .45-1 1v2c0 .55.45 1 1 1h10c.55 0 1-.45 1-1V4c0-.55-.45-1-1-1z"/></symbol><symbol id="question" viewBox="0 0 24 24"><path fill="none" d="M0 0h24v24H0z"/><path d="M11 18h2v-2h-2v2zm1-16C6.48 2 2 6.48 2 12s4.48 10 10 10 10-4.48 10-10S17.52 2 12 2zm0 18c-4.41 0-8-3.59-8-8s3.59-8 8-8 8 3.59 8 8-3.59 8-8 8zm0-14c-2.21 0-4 1.79-4 4h2c0-1.1.9-2 2-2s2 .9 2 2c0 2-3 1.75-3 5h2c0-2.25 3-2.5 3-5 0-2.21-1.79-4-4-4z"/></symbol><symbol id="sale" viewBox="0 -960 960 960"><path d="M264.615-120Q237-120 218.5-138.5 200-157 200-184.615v-430.77Q200-643 218.5-661.5 237-680 264.615-680H340v-20q0-58.308 40.846-99.154T480-840q58.308 0 99.154 40.846T620-700v20h75.385Q723-680 741.5-661.5 760-643 760-615.385v430.77Q760-157 741.5-138.5 723-120 695.385-120h-430.77zm0-40h430.77q9.23 0 16.923-7.692Q720-175.385 720-184.615v-430.77q0-9.23-7.692-16.923Q704.615-640 695.385-640H620v100q0 8.538-5.731 14.269Q608.539-520 600-520t-14.269-5.731Q580-531.462 580-540v-100H380v100q0 8.538-5.731 14.269Q368.539-520 360-520t-14.269-5.731Q340-531.462 340-540v-100h-75.385q-9.23 0-16.923 7.692Q240-624.615 240-615.385v430.77q0 9.23 7.692 16.923Q255.385-160 264.615-160zM380-680h200v-20q0-42.231-28.885-71.115Q522.231-800 480-800q-42.231 0-71.115 28.885Q380-742.231 380-700v20zM240-160v-480 480z"/></symbol><symbol id="right" viewBox="0 -960 960 960"><path d="M400-280v-400l200 200-200 200z"/></symbol><symbol id="refresh" viewBox="0 0 24 24"><path fill="none" d="M0 0h24v24H0V0z"/><path d="M17.65 6.35a7.95 7.95 0 0 0-6.48-2.31c-3.67.37-6.69 3.35-7.1 7.02C3.52 15.91 7.27 20 12 20a7.98 7.98 0 0 0 7.21-4.56c.32-.67-.16-1.44-.9-1.44-.37 0-.72.2-.88.53a5.994 5.994 0 0 1-6.8 3.31c-2.22-.49-4.01-2.3-4.48-4.52A6.002 6.002 0 0 1 12 6c1.66 0 3.14.69 4.22 1.78l-1.51 1.51c-.63.63-.19 1.71.7 1.71H19c.55 0 1-.45 1-1V6.41c0-.89-1.08-1.34-1.71-.71l-.64.65z"/></symbol><symbol id="purchase" viewBox="0 -960 960 960"><path d="M292.308-115.384q-25.308 0-42.654-17.347-17.347-17.346-17.347-42.654 0-25.307 17.347-42.653 17.346-17.347 42.654-17.347 25.307 0 42.654 17.347 17.346 17.346 17.346 42.653 0 25.308-17.346 42.654-17.347 17.347-42.654 17.347zm375.384 0q-25.307 0-42.654-17.347-17.346-17.346-17.346-42.654 0-25.307 17.346-42.653 17.347-17.347 42.654-17.347 25.308 0 42.654 17.347 17.347 17.346 17.347 42.653 0 25.308-17.347 42.654-17.346 17.347-42.654 17.347zM235.231-740L342-515.385h265.385q6.923 0 12.307-3.461 5.385-3.462 9.231-9.615l104.615-190.001q4.616-8.461.77-14.999Q730.462-740 721.231-740h-486zm-19.539-40h520.77q26.077 0 39.231 21.269 13.153 21.269 1.384 43.808L662.769-506.615q-8.692 14.615-22.577 22.923-13.884 8.308-30.5 8.308H324l-48.615 89.23q-6.154 9.231-.385 20t17.308 10.769h435.385v40.001H292.308q-35 0-52.231-29.5-17.231-29.501-.846-59.27l60.153-107.231L152.307-820H80v-40h97.692l38 80zM342-515.385h280-280z"/></symbol><symbol id="restart" viewBox="0 0 24 24"><path fill="none" d="M0 0h24v24H0V0z"/><path d="M12 5V2L8 6l4 4V7c3.31 0 6 2.69 6 6 0 2.97-2.17 5.43-5 5.91v2.02c3.95-.49 7-3.85 7-7.93 0-4.42-3.58-8-8-8zm-6 8c0-1.65.67-3.15 1.76-4.24L6.34 7.34A8.014 8.014 0 0 0 4 13c0 4.08 3.05 7.44 7 7.93v-2.02c-2.83-.48-5-2.94-5-5.91z"/></symbol><symbol id="search" viewBox="0 0 24 24"><path fill="none" d="M0 0h24v24H0V0z"/><path d="M15.5 14h-.79l-.28-.27a6.5 6.5 0 0 0 1.48-5.34c-.47-2.78-2.79-5-5.59-5.34a6.505 6.505 0 0 0-7.27 7.27c.34 2.8 2.56 5.12 5.34 5.59a6.5 6.5 0 0 0 5.34-1.48l.27.28v.79l4.25 4.25c.41.41 1.08.41 1.49 0 .41-.41.41-1.08 0-1.49L15.5 14zm-6 0C7.01 14 5 11.99 5 9.5S7.01 5 9.5 5 14 7.01 14 9.5 11.99 14 9.5 14z"/></symbol><symbol id="save" viewBox="0 0 24 24"><path fill="none" d="M0 0h24v24H0V0z"/><path d="M17.59 3.59c-.38-.38-.89-.59-1.42-.59H5a2 2 0 0 0-2 2v14c0 1.1.9 2 2 2h14c1.1 0 2-.9 2-2V7.83c0-.53-.21-1.04-.59-1.41l-2.82-2.83zM12 19c-1.66 0-3-1.34-3-3s1.34-3 3-3 3 1.34 3 3-1.34 3-3 3zm1-10H7c-1.1 0-2-.9-2-2s.9-2 2-2h6c1.1 0 2 .9 2 2s-.9 2-2 2z"/></symbol><symbol id="service-b" viewBox="0 0 24 24"><path fill="none" d="M0 0h24v24H0V0z"/><path d="M12 2L4 5v6.09c0 5.05 3.41 9.76 8 10.91 4.59-1.15 8-5.86 8-10.91V5l-8-3zm-1.06 13.54L7.4 12l1.41-1.41 2.12 2.12 4.24-4.24 1.41 1.41-5.64 5.66z"/></symbol><symbol id="timelapse" viewBox="0 0 24 24"><path fill="none" d="M0 0h24v24H0V0z"/><path d="M16.24 7.76A5.974 5.974 0 0 0 12 6v6l-4.24 4.24c2.34 2.34 6.14 2.34 8.49 0a5.99 5.99 0 0 0-.01-8.48zM12 2C6.48 2 2 6.48 2 12s4.48 10 10 10 10-4.48 10-10S17.52 2 12 2zm0 18c-4.42 0-8-3.58-8-8s3.58-8 8-8 8 3.58 8 8-3.58 8-8 8z"/></symbol><symbol id="sub-right" viewBox="0 0 24 24"><path fill="none" d="M0 0h24v24H0V0z"/><path d="M19 15l-6 6-1.42-1.42L15.17 16H4V4h2v10h9.17l-3.59-3.58L13 9l6 6z"/></symbol><symbol id="unlock" viewBox="0 0 24 24"><path fill="none" d="M0 0h24v24H0z"/><path d="M12 17c1.1 0 2-.9 2-2s-.9-2-2-2-2 .9-2 2 .9 2 2 2zm6-9h-1V6c0-2.76-2.24-5-5-5S7 3.24 7 6h1.9c0-1.71 1.39-3.1 3.1-3.1 1.71 0 3.1 1.39 3.1 3.1v2H6c-1.1 0-2 .9-2 2v10c0 1.1.9 2 2 2h12c1.1 0 2-.9 2-2V10c0-1.1-.9-2-2-2zm0 12H6V10h12v10z"/></symbol><symbol id="shipper" viewBox="0 -960 960 960"><path d="M233.755-177.694q-46.832 0-79.524-32.756t-32.692-79.551H53.847v-417.69q0-30.308 21-51.308t51.307-21h544.615v152.308h106.152l129.232 173.077v164.613h-72.307q0 46.795-32.783 79.551t-79.615 32.756q-46.832 0-79.524-32.756-32.693-32.756-32.693-79.551H346.153q0 46.923-32.783 79.615-32.782 32.692-79.615 32.692zm.091-59.998q22 0 37.154-15.154 15.154-15.154 15.154-37.155 0-22-15.154-37.154-15.154-15.154-37.154-15.154-22.001 0-37.155 15.154t-15.154 37.154q0 22.001 15.154 37.155t37.155 15.154zm-120-112.307h28.923q12.768-22.231 36.884-37.27 24.116-15.039 54.193-15.039 29.308 0 53.808 14.847 24.5 14.846 37.269 37.462H610.77V-720H126.154q-4.615 0-8.462 3.846-3.846 3.847-3.846 8.463v357.692zm607.693 112.307q22 0 37.154-15.154 15.154-15.154 15.154-37.155 0-22-15.154-37.154-15.154-15.154-37.154-15.154-22.001 0-37.155 15.154t-15.154 37.154q0 22.001 15.154 37.155t37.155 15.154zm-50.77-192.307H850L746.153-567.693h-75.384v137.694zM362.308-535z"/></symbol><symbol id="update" viewBox="0 0 24 24"><path fill="none" d="M0 0h24v24H0z"/><path d="M16 18v2H8v-2h8zM11 7.99V16h2V7.99h3L12 4 8 7.99h3z"/></symbol><symbol id="upload-o" viewBox="0 0 24 24"><path fill="none" d="M0 0h24v24H0V0z"/><path d="M9 16h6v-6h4l-7-7-7 7h4v6zm3-10.17L14.17 8H13v6h-2V8H9.83L12 5.83zM5 18h14v2H5z"/></symbol><symbol id="up" viewBox="0 0 24 24"><path fill="none" d="M0 0h24v24H0V0z"/><path d="M13 19V7.83l4.88 4.88c.39.39 1.03.39 1.42 0a.996.996 0 0 0 0-1.41l-6.59-6.59a.996.996 0 0 0-1.41 0l-6.6 6.58a.996.996 0 1 0 1.41 1.41L11 7.83V19c0 .55.45 1 1 1s1-.45 1-1z"/></symbol><symbol id="warning" viewBox="0 0 24 24"><path d="M4.47 21h15.06c1.54 0 2.5-1.67 1.73-3L13.73 4.99c-.77-1.33-2.69-1.33-3.46 0L2.74 18c-.77 1.33.19 3 1.73 3zM12 14c-.55 0-1-.45-1-1v-2c0-.55.45-1 1-1s1 .45 1 1v2c0 .55-.45 1-1 1zm1 4h-2v-2h2v2z"/></symbol><symbol id="add" viewBox="0 0 24 24"><path fill="none" d="M0 0h24v24H0V0z"/><path d="M18 13h-5v5c0 .55-.45 1-1 1s-1-.45-1-1v-5H6c-.55 0-1-.45-1-1s.45-1 1-1h5V6c0-.55.45-1 1-1s1 .45 1 1v5h5c.55 0 1 .45 1 1s-.45 1-1 1z"/></symbol><symbol id="account" viewBox="0 -960 960 960"><path d="M260-280v-320h40v320h-40zm200 0v-320h40v320h-40zM141.538-160v-40h676.924v40H141.538zM660-280v-320h40v320h-40zM141.538-680v-33.846L480-875.385l338.462 161.539V-680H141.538zm105.693-40h465.538-465.538zm0 0h465.538L480-830 247.231-720z"/></symbol><symbol id="admin" viewBox="0 -960 960 960"><path d="M480-492.309q-57.749 0-98.874-41.124-41.125-41.125-41.125-98.874 0-57.75 41.125-98.874 41.125-41.125 98.874-41.125 57.749 0 98.874 41.125 41.125 41.124 41.125 98.874 0 57.749-41.125 98.874-41.125 41.124-98.874 41.124zM180.001-187.694v-88.922q0-29.384 15.962-54.422 15.961-25.038 42.653-38.5 59.308-29.077 119.654-43.615T480-427.691q61.384 0 121.73 14.538 60.346 14.538 119.654 43.615 26.692 13.462 42.653 38.5 15.962 25.038 15.962 54.422v88.922H180.001zM240-247.693h480v-28.923q0-12.154-7.039-22.5-7.038-10.346-19.115-16.885-51.692-25.461-105.418-38.577Q534.702-367.693 480-367.693t-108.428 13.115q-53.726 13.116-105.418 38.577-12.077 6.539-19.115 16.885Q240-288.77 240-276.616v28.923zm240-304.614q33 0 56.5-23.5t23.5-56.5q0-33-23.5-56.5t-56.5-23.5q-33 0-56.5 23.5t-23.5 56.5q0 33 23.5 56.5t56.5 23.5zm0-80zm0 384.614z"/></symbol><symbol id="worker" viewBox="0 0 24 24"><path fill="none" d="M0 0h24v24H0z"/><path d="M18 3l-3 3V3H9C6.24 3 4 5.24 4 8h5v3h6V8l3 3h2V3h-2zM9 13v7c0 .55.45 1 1 1h4c.55 0 1-.45 1-1v-7H9z"/></symbol><symbol id="settings" viewBox="0 -960 960 960"><path d="M405.384-120l-14.461-115.692q-19.154-5.769-41.423-18.154-22.269-12.385-37.885-26.538L204.923-235l-74.616-130 92.231-69.539q-1.769-10.846-2.923-22.346-1.154-11.5-1.154-22.346 0-10.077 1.154-21.192t2.923-25.038L130.307-595l74.616-128.462 105.923 44.616q17.923-14.923 38.769-26.923 20.846-12 40.539-18.539L405.384-840h149.232l14.461 116.461q23 8.077 40.654 18.539 17.654 10.461 36.346 26.154l109-44.616L829.693-595l-95.308 71.846q3.308 12.385 3.692 22.731.385 10.346.385 20.423 0 9.308-.769 19.654-.77 10.346-3.539 25.038L827.923-365l-74.615 130-107.231-46.154q-18.692 15.693-37.615 26.923-18.923 11.231-39.385 17.77L554.616-120H405.384zM440-160h78.231L533-268.308q30.231-8 54.423-21.961 24.192-13.962 49.269-38.269L736.462-286l39.769-68-87.539-65.769q5-17.077 6.616-31.423 1.615-14.346 1.615-28.808 0-15.231-1.615-28.808-1.616-13.577-6.616-29.884L777.769-606 738-674l-102.077 42.769q-18.154-19.923-47.731-37.346t-55.961-23.115L520-800h-79.769l-12.462 107.538q-30.231 6.462-55.577 20.808-25.346 14.346-50.423 39.423L222-674l-39.769 68L269-541.231q-5 13.462-7 29.231-2 15.769-2 32.769Q260-464 262-449q2 15 6.231 29.231l-86 65.769L222-286l99-42q23.538 23.769 48.885 38.115 25.346 14.347 57.115 22.347L440-160zm38.923-220q41.846 0 70.923-29.077 29.077-29.077 29.077-70.923 0-41.846-29.077-70.923Q520.769-580 478.923-580q-42.077 0-71.039 29.077-28.961 29.077-28.961 70.923 0 41.846 28.961 70.923Q436.846-380 478.923-380zM480-480z"/></symbol><symbol id="back" viewBox="0 0 24 24"><path fill="none" d="M0 0h24v24H0V0z"/><path d="M19 11H7.83l4.88-4.88c.39-.39.39-1.03 0-1.42a.996.996 0 0 0-1.41 0l-6.59 6.59a.996.996 0 0 0 0 1.41l6.59 6.59a.996.996 0 1 0 1.41-1.41L7.83 13H19c.55 0 1-.45 1-1s-.45-1-1-1z"/></symbol><symbol id="bike" viewBox="0 -960 960 960"><path d="M604.615-744.615q-25.307 0-42.653-17.347-17.347-17.346-17.347-42.653 0-25.308 17.347-42.654 17.346-17.347 42.653-17.347 25.308 0 42.654 17.347 17.347 17.346 17.347 42.654 0 25.307-17.347 42.653-17.346 17.347-42.654 17.347zm-195.692 200L500-449.538V-220h-40v-197.692L321.231-522.769q-10.154-8.154-14.385-17.928-4.231-9.774-4.231-23.308t4.731-22.957q4.731-9.423 13.885-18.577l116.615-116.615q9.154-9.154 20.962-13.885 11.807-4.73 25.192-4.73t25.192 4.73q11.808 4.731 20.962 13.885l76 76q26.231 26.231 61.077 43.5T744-581.539V-540q-53-3.846-94.769-24.038-41.77-20.193-75.385-53.808L528-663.692 408.923-544.615zm-193.538 89.23q74.538 0 124.961 50.423T390.769-280q0 74.539-50.423 124.962t-124.961 50.423q-74.539 0-124.962-50.423T40-280q0-74.539 50.423-124.962t124.962-50.423zm0 315.385q58.538 0 99.269-40.731 40.731-40.731 40.731-99.269 0-58.538-40.731-99.269Q273.923-420 215.385-420q-58.539 0-99.27 40.731-40.73 40.731-40.73 99.269 0 58.538 40.73 99.269Q156.846-140 215.385-140zm529.23-315.385q74.539 0 124.962 50.423T920-280q0 74.539-50.423 124.962t-124.962 50.423q-74.538 0-124.961-50.423T569.231-280q0-74.539 50.423-124.962t124.961-50.423zm0 315.385q58.539 0 99.27-40.731 40.73-40.731 40.73-99.269 0-58.538-40.73-99.269Q803.154-420 744.615-420q-58.538 0-99.269 40.731-40.731 40.731-40.731 99.269 0 58.538 40.731 99.269Q686.077-140 744.615-140z"/></symbol><symbol id="add-filled" viewBox="0 0 24 24"><path fill="none" d="M0 0h24v24H0z"/><path d="M19 3H5a2 2 0 0 0-2 2v14a2 2 0 0 0 2 2h14c1.1 0 2-.9 2-2V5c0-1.1-.9-2-2-2zm-2 10h-4v4h-2v-4H7v-2h4V7h2v4h4v2z"/></symbol><symbol id="cancel" viewBox="0 0 24 24"><path fill="none" d="M0 0h24v24H0V0z" opacity=".87"/><path d="M12 2C6.47 2 2 6.47 2 12s4.47 10 10 10 10-4.47 10-10S17.53 2 12 2zm4.3 14.3a.996.996 0 0 1-1.41 0L12 13.41 9.11 16.3a.996.996 0 1 1-1.41-1.41L10.59 12 7.7 9.11A.996.996 0 1 1 9.11 7.7L12 10.59l2.89-2.89a.996.996 0 1 1 1.41 1.41L13.41 12l2.89 2.89c.38.38.38 1.02 0 1.41z"/></symbol><symbol id="check" viewBox="0 0 24 24"><path fill="none" d="M0 0h24v24H0V0z"/><path d="M9 16.17L5.53 12.7a.996.996 0 1 0-1.41 1.41l4.18 4.18c.39.39 1.02.39 1.41 0L20.29 7.71a.996.996 0 1 0-1.41-1.41L9 16.17z"/></symbol><symbol id="block" viewBox="0 0 24 24"><path fill="none" d="M0 0h24v24H0z"/><path d="M12 2C6.48 2 2 6.48 2 12s4.48 10 10 10 10-4.48 10-10S17.52 2 12 2zm5 11H7v-2h10v2z"/></symbol><symbol id="check-outline" viewBox="0 0 24 24"><path fill="none" d="M0 0h24v24H0V0z"/><path d="M18 19H6c-.55 0-1-.45-1-1V6c0-.55.45-1 1-1h12c.55 0 1 .45 1 1v12c0 .55-.45 1-1 1zm1-16H5c-1.1 0-2 .9-2 2v14c0 1.1.9 2 2 2h14c1.1 0 2-.9 2-2V5c0-1.1-.9-2-2-2z"/></symbol><symbol id="bolt" viewBox="0 -960 960 960"><path d="M420.038-226.962l212.539-254.769H470.846l29.616-231.423-190.539 274.5h140.231l-30.116 211.692zM368-126.346l40-275.385H239.23L536.5-830.193H552l-39.23 311.539h198.654L384-126.346h-16zM471.5-470.5z"/></symbol><symbol id="check-w" viewBox="0 0 24 24"><style>.st0{fill:none}.st1{fill:#fff}</style><path d="M0 0h24v24H0V0z" class="st0"/><path d="M10.3 17.8c-.5.5-1.4.5-1.9 0L3.5 13c-.5-.5-.5-1.4 0-1.9s1.4-.5 1.9 0L9.3 15l9.3-9.3c.5-.5 1.4-.5 1.9 0s.5 1.4 0 1.9L10.3 17.8z" class="st1"/></symbol><symbol id="web" viewBox="0 0 24 24"><path d="M19 4H5a2 2 0 0 0-2 2v12a2 2 0 0 0 2 2h14c1.1 0 2-.9 2-2V6a2 2 0 0 0-2-2zm-1 14H6c-.55 0-1-.45-1-1V8h14v9c0 .55-.45 1-1 1z"/></symbol><symbol id="checkfilled" viewBox="0 0 24 24"><path fill="none" d="M0 0h24v24H0V0z"/><path d="M19 3H5c-1.1 0-2 .9-2 2v14c0 1.1.9 2 2 2h14c1.1 0 2-.9 2-2V5c0-1.1-.9-2-2-2zm-8.29 13.29a.996.996 0 0 1-1.41 0L5.71 12.7a.996.996 0 1 1 1.41-1.41L10 14.17l6.88-6.88a.996.996 0 1 1 1.41 1.41l-7.58 7.59z"/></symbol><symbol id="close" viewBox="0 0 24 24"><path fill="none" d="M0 0h24v24H0V0z"/><path d="M18.3 5.71a.996.996 0 0 0-1.41 0L12 10.59 7.11 5.7A.996.996 0 1 0 5.7 7.11L10.59 12 5.7 16.89a.996.996 0 1 0 1.41 1.41L12 13.41l4.89 4.89a.996.996 0 1 0 1.41-1.41L13.41 12l4.89-4.89c.38-.38.38-1.02 0-1.4z"/></symbol><symbol id="check-round" viewBox="0 0 24 24"><path fill="none" d="M0 0h24v24H0V0z"/><path d="M12 2C6.48 2 2 6.48 2 12s4.48 10 10 10 10-4.48 10-10S17.52 2 12 2zM9.29 16.29L5.7 12.7a.996.996 0 1 1 1.41-1.41L10 14.17l6.88-6.88a.996.996 0 1 1 1.41 1.41l-7.59 7.59a.996.996 0 0 1-1.41 0z"/></symbol><symbol id="copy" viewBox="0 0 24 24"><path fill="none" d="M0 0h24v24H0V0z"/><path d="M15 1H4c-1.1 0-2 .9-2 2v13c0 .55.45 1 1 1s1-.45 1-1V4c0-.55.45-1 1-1h10c.55 0 1-.45 1-1s-.45-1-1-1zm.59 4.59l4.83 4.83c.37.37.58.88.58 1.41V21c0 1.1-.9 2-2 2H7.99C6.89 23 6 22.1 6 21l.01-14c0-1.1.89-2 1.99-2h6.17c.53 0 1.04.21 1.42.59zM15 12h4.5L14 6.5V11c0 .55.45 1 1 1z"/></symbol><symbol id="cloud" viewBox="0 0 24 24"><path fill="none" d="M0 0h24v24H0z"/><path d="M19.35 10.04A7.49 7.49 0 0 0 12 4C9.11 4 6.6 5.64 5.35 8.04A5.994 5.994 0 0 0 0 14c0 3.31 2.69 6 6 6h13c2.76 0 5-2.24 5-5 0-2.64-2.05-4.78-4.65-4.96zM19 18H6c-2.21 0-4-1.79-4-4s1.79-4 4-4h.71C7.37 7.69 9.48 6 12 6c3.04 0 5.5 2.46 5.5 5.5v.5H19c1.66 0 3 1.34 3 3s-1.34 3-3 3z"/></symbol><symbol id="down" viewBox="0 0 24 24"><path fill="none" d="M0 0h24v24H0V0z"/><path d="M11 5v11.17l-4.88-4.88c-.39-.39-1.03-.39-1.42 0a.996.996 0 0 0 0 1.41l6.59 6.59c.39.39 1.02.39 1.41 0l6.59-6.59a.996.996 0 1 0-1.41-1.41L13 16.17V5c0-.55-.45-1-1-1s-1 .45-1 1z"/></symbol><symbol id="customer" viewBox="0 -960 960 960"><path d="M103.846-215.384v-65.847q0-27.846 14.423-47.884 14.423-20.039 38.765-32.029 52.043-24.779 103.35-39.51 51.308-14.731 123.462-14.731t123.462 14.731q51.307 14.731 103.35 39.51 24.342 11.99 38.765 32.029 14.423 20.038 14.423 47.884v65.847h-560zm640 0v-67.693q0-34.769-14.074-65.64-14.075-30.871-39.926-52.976 29.462 6 56.769 16.654 27.308 10.654 54.001 23.962 26 13.077 40.769 33.469 14.769 20.393 14.769 44.531v67.693H743.846zm-360-289.231q-49.5 0-84.75-35.25t-35.25-84.75q0-49.501 35.25-84.751 35.25-35.25 84.75-35.25t84.75 35.25q35.25 35.25 35.25 84.751 0 49.5-35.25 84.75t-84.75 35.25zm290.77-120q0 49.5-35.25 84.75t-84.75 35.25q-2.539 0-6.462-.577-3.923-.577-6.462-1.269 20.325-24.895 31.239-55.235 10.915-30.34 10.915-63.015 0-32.674-11.423-62.443t-30.731-55.616q3.231-1.153 6.462-1.5 3.231-.346 6.462-.346 49.5 0 84.75 35.25t35.25 84.751zm-530.77 369.23h480v-25.846q0-14.077-7.038-24.615-7.039-10.539-25.27-20.154-44.769-23.923-94.384-36.654-49.616-12.731-113.308-12.731-63.692 0-113.308 12.731-49.615 12.731-94.384 36.654-18.231 9.615-25.27 20.154-7.038 10.538-7.038 24.615v25.846zm240-289.23q33 0 56.5-23.5t23.5-56.5q0-33-23.5-56.5t-56.5-23.5q-33 0-56.5 23.5t-23.5 56.5q0 33 23.5 56.5t56.5 23.5zm0 289.23zm0-369.23z"/></symbol><symbol id="desktop" viewBox="0 0 24 24"><path fill="none" d="M0 0h24v24H0z"/><path d="M21 2H3c-1.1 0-2 .9-2 2v12c0 1.1.9 2 2 2h7v2H8v2h8v-2h-2v-2h7c1.1 0 2-.9 2-2V4c0-1.1-.9-2-2-2zm0 14H3V4h18v12z"/></symbol><symbol id="date" viewBox="0 0 24 24"><path fill="none" d="M0 0h24v24H0V0z"/><path d="M20 3h-1V2c0-.55-.45-1-1-1s-1 .45-1 1v1H7V2c0-.55-.45-1-1-1s-1 .45-1 1v1H4c-1.1 0-2 .9-2 2v16c0 1.1.9 2 2 2h16c1.1 0 2-.9 2-2V5c0-1.1-.9-2-2-2zm-1 18H5c-.55 0-1-.45-1-1V8h16v12c0 .55-.45 1-1 1z"/></symbol><symbol id="delete" viewBox="0 0 24 24"><path fill="none" d="M0 0h24v24H0z"/><path d="M6 19c0 1.1.9 2 2 2h8c1.1 0 2-.9 2-2V7H6v12zM19 4h-3.5l-1-1h-5l-1 1H5v2h14V4z"/></symbol><symbol id="delete-o" viewBox="0 0 24 24"><path fill="none" d="M0 0h24v24H0z"/><path d="M15 2h-3.5l-1-1h-5l-1 1H1v2h14zm1 7c-.7 0-1.37.1-2 .29V5H2v12c0 1.1.9 2 2 2h5.68A6.999 6.999 0 0 0 23 16c0-3.87-3.13-7-7-7zm-7 7c0 .34.03.67.08 1H4V7h8v3.26c-1.81 1.27-3 3.36-3 5.74zm7 5c-2.76 0-5-2.24-5-5s2.24-5 5-5 5 2.24 5 5-2.24 5-5 5z"/><path d="M16.5 12H15v5l3.6 2.1.8-1.2-2.9-1.7z"/></symbol><symbol id="download-o" viewBox="0 0 24 24"><path fill="none" d="M0 0h24v24H0V0z"/><path d="M19 9h-4V3H9v6H5l7 7 7-7zm-8 2V5h2v6h1.17L12 13.17 9.83 11H11zm-6 7h14v2H5z"/></symbol><symbol id="downs" viewBox="0 0 24 24"><path fill="none" d="M0 0h24v24H0V0z"/><path d="M8.71 11.71l2.59 2.59c.39.39 1.02.39 1.41 0l2.59-2.59c.63-.63.18-1.71-.71-1.71H9.41c-.89 0-1.33 1.08-.7 1.71z"/></symbol><symbol id="edit" viewBox="0 0 24 24"><path fill="none" d="M0 0h24v24H0V0z"/><path d="M3 17.46v3.04c0 .28.22.5.5.5h3.04c.13 0 .26-.05.35-.15L17.81 9.94l-3.75-3.75L3.15 17.1c-.1.1-.15.22-.15.36zM20.71 7.04a.996.996 0 0 0 0-1.41l-2.34-2.34a.996.996 0 0 0-1.41 0l-1.83 1.83 3.75 3.75 1.83-1.83z"/></symbol><symbol id="download" viewBox="0 0 24 24"><path fill="none" d="M0 0h24v24H0z"/><path d="M5 20h14v-2H5v2zM19 9h-4V3H9v6H5l7 7 7-7z"/></symbol><symbol id="error" viewBox="0 0 24 24"><path d="M12 2C6.48 2 2 6.48 2 12s4.48 10 10 10 10-4.48 10-10S17.52 2 12 2zm0 11c-.55 0-1-.45-1-1V8c0-.55.45-1 1-1s1 .45 1 1v4c0 .55-.45 1-1 1zm1 4h-2v-2h2v2z"/></symbol><symbol id="filter-cancel" viewBox="0 0 24 24"><path d="M17 11h-3.5l-2 2H17c.5 0 1-.5 1-1s-.5-1-1-1zM6 12c0 .5.5 1 1 1h1.7l2-2H7c-.5 0-1 .5-1 1zm14-6h-1.5l-2 2H20c.5 0 1-.5 1-1s-.5-1-1-1zM3 7c0 .5.5 1 1 1h9.7l2-2H4c-.5 0-1 .5-1 1zm10 9h-2c-.5 0-1 .5-1 1s.5 1 1 1h2c.5 0 1-.5 1-1s-.5-1-1-1z"/><path d="M2.9 18.1c.4.4 1 .4 1.4 0L20 2.4c.4-.4.4-1 0-1.4s-1-.4-1.4 0L2.9 16.7c-.3.3-.3 1 0 1.4z"/></symbol><symbol id="eye" viewBox="0 0 24 24"><path fill="none" d="M0 0h24v24H0V0z"/><path d="M12 4.5C7 4.5 2.73 7.61 1 12c1.73 4.39 6 7.5 11 7.5s9.27-3.11 11-7.5c-1.73-4.39-6-7.5-11-7.5zM12 17c-2.76 0-5-2.24-5-5s2.24-5 5-5 5 2.24 5 5-2.24 5-5 5zm0-8c-1.66 0-3 1.34-3 3s1.34 3 3 3 3-1.34 3-3-1.34-3-3-3z"/></symbol><symbol id="eye-no" viewBox="0 0 24 24"><path fill="none" d="M0 0h24v24H0V0zm0 0h24v24H0V0zm0 0h24v24H0V0zm0 0h24v24H0V0z"/><path d="M12 6.5c2.76 0 5 2.24 5 5 0 .51-.1 1-.24 1.46l3.06 3.06c1.39-1.23 2.49-2.77 3.18-4.53C21.27 7.11 17 4 12 4c-1.27 0-2.49.2-3.64.57l2.17 2.17c.47-.14.96-.24 1.47-.24zM2.71 3.16a.996.996 0 0 0 0 1.41l1.97 1.97A11.892 11.892 0 0 0 1 11.5C2.73 15.89 7 19 12 19c1.52 0 2.97-.3 4.31-.82l2.72 2.72a.996.996 0 1 0 1.41-1.41L4.13 3.16c-.39-.39-1.03-.39-1.42 0zM12 16.5c-2.76 0-5-2.24-5-5 0-.77.18-1.5.49-2.14l1.57 1.57c-.03.18-.06.37-.06.57 0 1.66 1.34 3 3 3 .2 0 .38-.03.57-.07L14.14 16c-.65.32-1.37.5-2.14.5zm2.97-5.33a2.97 2.97 0 0 0-2.64-2.64l2.64 2.64z"/></symbol><symbol id="filter" viewBox="0 0 24 24"><path fill="none" d="M0 0h24v24H0V0z"/><path d="M11 18h2c.55 0 1-.45 1-1s-.45-1-1-1h-2c-.55 0-1 .45-1 1s.45 1 1 1zM3 7c0 .55.45 1 1 1h16c.55 0 1-.45 1-1s-.45-1-1-1H4c-.55 0-1 .45-1 1zm4 6h10c.55 0 1-.45 1-1s-.45-1-1-1H7c-.55 0-1 .45-1 1s.45 1 1 1z"/></symbol><symbol id="grid" viewBox="0 0 24 24"><path fill="none" d="M0 0h24v24H0z"/><path d="M3 3v8h8V3H3zm6 6H5V5h4v4zm-6 4v8h8v-8H3zm6 6H5v-4h4v4zm4-16v8h8V3h-8zm6 6h-4V5h4v4zm-6 4v8h8v-8h-8zm6 6h-4v-4h4v4z"/></symbol><symbol id="folder-o" viewBox="0 0 24 24"><path fill="none" d="M0 0h24v24H0V0z"/><path d="M9.17 6l2 2H20v10H4V6h5.17M10 4H4c-1.1 0-1.99.9-1.99 2L2 18c0 1.1.9 2 2 2h16c1.1 0 2-.9 2-2V8c0-1.1-.9-2-2-2h-8l-2-2z"/></symbol><symbol id="investor" viewBox="0 -960 960 960"><path d="M527.693-130.001v-59.998H725.54L527.693-387.846v-84.306l240 240v-197.847h59.998v299.998H527.693zm-275.384-160v-40h-120v-59.998H360q4.616 0 8.462-3.847 3.847-3.846 3.847-8.462v-115.384q0-4.616-3.847-8.462-3.846-3.847-8.462-3.847H204.616q-30.308 0-51.308-21-20.999-20.999-20.999-51.307v-115.384q0-30.308 20.999-51.307 21-21 51.308-21h47.693v-40h59.998v40h120v59.998H204.616q-4.616 0-8.462 3.847-3.847 3.846-3.847 8.462v115.384q0 4.616 3.847 8.462 3.846 3.847 8.462 3.847H360q30.307 0 51.307 21 21 20.999 21 51.307v115.384q0 30.308-21 51.307-21 21-51.307 21h-47.693v40h-59.998z"/></symbol><symbol id="history" viewBox="0 0 24 24"><path fill="none" d="M0 0h24v24H0z"/><path d="M12 2C6.5 2 2 6.5 2 12s4.5 10 10 10 10-4.5 10-10S17.5 2 12 2zm4.2 14.2L11 13V7h1.5v5.2l4.5 2.7-.8 1.3z"/></symbol><symbol id="left" viewBox="0 0 24 24"><path fill="none" d="M0 0h24v24H0V0z" opacity=".87"/><path d="M16.62 2.99a1.25 1.25 0 0 0-1.77 0L6.54 11.3a.996.996 0 0 0 0 1.41l8.31 8.31c.49.49 1.28.49 1.77 0s.49-1.28 0-1.77L9.38 12l7.25-7.25c.48-.48.48-1.28-.01-1.76z"/></symbol><symbol id="key" viewBox="0 0 24 24"><path fill="none" d="M0 0h24v24H0V0z"/><path d="M12.65 10a5.998 5.998 0 0 0-6.88-3.88c-2.29.46-4.15 2.29-4.63 4.58A6.006 6.006 0 0 0 7 18a5.99 5.99 0 0 0 5.65-4H17v2c0 1.1.9 2 2 2s2-.9 2-2v-2c1.1 0 2-.9 2-2s-.9-2-2-2h-8.35zM7 14c-1.1 0-2-.9-2-2s.9-2 2-2 2 .9 2 2-.9 2-2 2z"/></symbol><symbol id="late" viewBox="0 0 24 24"><path d="M12 2C6.5 2 2 6.5 2 12s4.5 10 10 10 10-4.5 10-10S17.5 2 12 2zm3.55 13.8l-4.08-2.51c-.3-.18-.48-.5-.48-.85V7.75a.77.77 0 0 1 .76-.75c.41 0 .75.34.75.75v4.45l3.84 2.31c.36.22.48.69.26 1.05-.22.35-.69.46-1.05.24z"/></symbol><symbol id="logout" viewBox="0 0 24 24"><path fill="none" d="M0 0h24v24H0V0z"/><path d="M10.79 16.29c.39.39 1.02.39 1.41 0l3.59-3.59a.996.996 0 0 0 0-1.41L12.2 7.7a.996.996 0 1 0-1.41 1.41L12.67 11H4c-.55 0-1 .45-1 1s.45 1 1 1h8.67l-1.88 1.88c-.39.39-.38 1.03 0 1.41zM19 3H5a2 2 0 0 0-2 2v3c0 .55.45 1 1 1s1-.45 1-1V6c0-.55.45-1 1-1h12c.55 0 1 .45 1 1v12c0 .55-.45 1-1 1H6c-.55 0-1-.45-1-1v-2c0-.55-.45-1-1-1s-1 .45-1 1v3c0 1.1.9 2 2 2h14c1.1 0 2-.9 2-2V5c0-1.1-.9-2-2-2z"/></symbol><symbol id="list" viewBox="0 0 24 24"><path fill="none" d="M0 0h24v24H0z"/><path d="M3 13h2v-2H3v2zm0 4h2v-2H3v2zm0-8h2V7H3v2zm4 4h14v-2H7v2zm0 4h14v-2H7v2zM7 7v2h14V7H7z"/></symbol><symbol id="menu" viewBox="0 0 24 24"><path fill="none" d="M0 0h24v24H0V0z"/><path d="M4 18h16c.55 0 1-.45 1-1s-.45-1-1-1H4c-.55 0-1 .45-1 1s.45 1 1 1zm0-5h16c.55 0 1-.45 1-1s-.45-1-1-1H4c-.55 0-1 .45-1 1s.45 1 1 1zM3 7c0 .55.45 1 1 1h16c.55 0 1-.45 1-1s-.45-1-1-1H4c-.55 0-1 .45-1 1z"/></symbol><symbol id="mobile" viewBox="0 0 24 24"><path fill="none" d="M0 0h24v24H0z"/><path d="M17 1.01L7 1c-1.1 0-2 .9-2 2v18c0 1.1.9 2 2 2h10c1.1 0 2-.9 2-2V3c0-1.1-.9-1.99-2-1.99zM17 19H7V5h10v14z"/></symbol></svg>