<svg xmlns="http://www.w3.org/2000/svg"><symbol id="account" viewBox="0 -960 960 960"><path d="M200-280v-280h80v280h-80zm240 0v-280h80v280h-80zM80-120v-80h800v80H80zm600-160v-280h80v280h-80zM80-640v-80l400-200 400 200v80H80zm178-80h444-444zm0 0h444L480-830 258-720z"/></symbol><symbol id="addfilled" viewBox="0 0 24 24"><path fill="none" d="M0 0h24v24H0z"/><path d="M19 3H5a2 2 0 0 0-2 2v14a2 2 0 0 0 2 2h14c1.1 0 2-.9 2-2V5c0-1.1-.9-2-2-2zm-2 10h-4v4h-2v-4H7v-2h4V7h2v4h4v2z"/></symbol><symbol id="add-filled" viewBox="0 0 24 24"><path fill="none" d="M0 0h24v24H0z"/><path d="M19 3H5a2 2 0 0 0-2 2v14a2 2 0 0 0 2 2h14c1.1 0 2-.9 2-2V5c0-1.1-.9-2-2-2zm-2 10h-4v4h-2v-4H7v-2h4V7h2v4h4v2z"/></symbol><symbol id="add" viewBox="0 0 24 24"><path fill="none" d="M0 0h24v24H0V0z"/><path d="M18 13h-5v5c0 .55-.45 1-1 1s-1-.45-1-1v-5H6c-.55 0-1-.45-1-1s.45-1 1-1h5V6c0-.55.45-1 1-1s1 .45 1 1v5h5c.55 0 1 .45 1 1s-.45 1-1 1z"/></symbol><symbol id="admin" viewBox="0 -960 960 960"><path d="M480-492.309q-57.749 0-98.874-41.124-41.125-41.125-41.125-98.874 0-57.75 41.125-98.874 41.125-41.125 98.874-41.125 57.749 0 98.874 41.125 41.125 41.124 41.125 98.874 0 57.749-41.125 98.874-41.125 41.124-98.874 41.124zM180.001-187.694v-88.922q0-29.384 15.962-54.422 15.961-25.038 42.653-38.5 59.308-29.077 119.654-43.615T480-427.691q61.384 0 121.73 14.538 60.346 14.538 119.654 43.615 26.692 13.462 42.653 38.5 15.962 25.038 15.962 54.422v88.922H180.001zM240-247.693h480v-28.923q0-12.154-7.039-22.5-7.038-10.346-19.115-16.885-51.692-25.461-105.418-38.577Q534.702-367.693 480-367.693t-108.428 13.115q-53.726 13.116-105.418 38.577-12.077 6.539-19.115 16.885Q240-288.77 240-276.616v28.923zm240-304.614q33 0 56.5-23.5t23.5-56.5q0-33-23.5-56.5t-56.5-23.5q-33 0-56.5 23.5t-23.5 56.5q0 33 23.5 56.5t56.5 23.5zm0-80zm0 384.614z"/></symbol><symbol id="area" viewBox="0 -960 960 960"><path d="M202.87-111.869q-37.783 0-64.392-26.609-26.609-26.609-26.609-64.392v-554.26q0-37.783 26.609-64.392 26.609-26.609 64.392-26.609h554.26q37.783 0 64.392 26.609 26.609 26.609 26.609 64.392v554.26q0 37.783-26.609 64.392-26.609 26.609-64.392 26.609H202.87zm0-91.001h554.26v-554.26H202.87v554.26zm0 0v-554.26 554.26z"/></symbol><symbol id="back" viewBox="0 0 24 24"><path fill="none" d="M0 0h24v24H0V0z"/><path d="M19 11H7.83l4.88-4.88c.39-.39.39-1.03 0-1.42a.996.996 0 0 0-1.41 0l-6.59 6.59a.996.996 0 0 0 0 1.41l6.59 6.59a.996.996 0 1 0 1.41-1.41L7.83 13H19c.55 0 1-.45 1-1s-.45-1-1-1z"/></symbol><symbol id="bank" viewBox="0 -960 960 960"><path d="M200-280v-280h80v280h-80zm240 0v-280h80v280h-80zM80-120v-80h800v80H80zm600-160v-280h80v280h-80zM80-640v-80l400-200 400 200v80H80zm178-80h444-444zm0 0h444L480-830 258-720z"/></symbol><symbol id="bolt" viewBox="0 -960 960 960"><path d="M420.038-226.962l212.539-254.769H470.846l29.616-231.423-190.539 274.5h140.231l-30.116 211.692zM368-126.346l40-275.385H239.23L536.5-830.193H552l-39.23 311.539h198.654L384-126.346h-16zM471.5-470.5z"/></symbol><symbol id="block" viewBox="0 0 24 24"><path fill="none" d="M0 0h24v24H0z"/><path d="M12 2C6.48 2 2 6.48 2 12s4.48 10 10 10 10-4.48 10-10S17.52 2 12 2zm5 11H7v-2h10v2z"/></symbol><symbol id="bike" viewBox="0 -960 960 960"><path d="M604.615-744.615q-25.307 0-42.653-17.347-17.347-17.346-17.347-42.653 0-25.308 17.347-42.654 17.346-17.347 42.653-17.347 25.308 0 42.654 17.347 17.347 17.346 17.347 42.654 0 25.307-17.347 42.653-17.346 17.347-42.654 17.347zm-195.692 200L500-449.538V-220h-40v-197.692L321.231-522.769q-10.154-8.154-14.385-17.928-4.231-9.774-4.231-23.308t4.731-22.957q4.731-9.423 13.885-18.577l116.615-116.615q9.154-9.154 20.962-13.885 11.807-4.73 25.192-4.73t25.192 4.73q11.808 4.731 20.962 13.885l76 76q26.231 26.231 61.077 43.5T744-581.539V-540q-53-3.846-94.769-24.038-41.77-20.193-75.385-53.808L528-663.692 408.923-544.615zm-193.538 89.23q74.538 0 124.961 50.423T390.769-280q0 74.539-50.423 124.962t-124.961 50.423q-74.539 0-124.962-50.423T40-280q0-74.539 50.423-124.962t124.962-50.423zm0 315.385q58.538 0 99.269-40.731 40.731-40.731 40.731-99.269 0-58.538-40.731-99.269Q273.923-420 215.385-420q-58.539 0-99.27 40.731-40.73 40.731-40.73 99.269 0 58.538 40.73 99.269Q156.846-140 215.385-140zm529.23-315.385q74.539 0 124.962 50.423T920-280q0 74.539-50.423 124.962t-124.962 50.423q-74.538 0-124.961-50.423T569.231-280q0-74.539 50.423-124.962t124.961-50.423zm0 315.385q58.539 0 99.27-40.731 40.73-40.731 40.73-99.269 0-58.538-40.73-99.269Q803.154-420 744.615-420q-58.538 0-99.269 40.731-40.731 40.731-40.731 99.269 0 58.538 40.731 99.269Q686.077-140 744.615-140z"/></symbol><symbol id="cancel" viewBox="0 0 24 24"><path fill="none" d="M0 0h24v24H0V0z" opacity=".87"/><path d="M12 2C6.47 2 2 6.47 2 12s4.47 10 10 10 10-4.47 10-10S17.53 2 12 2zm4.3 14.3a.996.996 0 0 1-1.41 0L12 13.41 9.11 16.3a.996.996 0 1 1-1.41-1.41L10.59 12 7.7 9.11A.996.996 0 1 1 9.11 7.7L12 10.59l2.89-2.89a.996.996 0 1 1 1.41 1.41L13.41 12l2.89 2.89c.38.38.38 1.02 0 1.41z"/></symbol><symbol id="bill" viewBox="0 -960 960 960"><path d="M120-80v-800l60 60 60-60 60 60 60-60 60 60 60-60 60 60 60-60 60 60 60-60 60 60 60-60v800l-60-60-60 60-60-60-60 60-60-60-60 60-60-60-60 60-60-60-60 60-60-60-60 60zm120-200h480v-80H240v80zm0-160h480v-80H240v80zm0-160h480v-80H240v80z"/></symbol><symbol id="check-round" viewBox="0 0 24 24"><path fill="none" d="M0 0h24v24H0V0z"/><path d="M12 2C6.48 2 2 6.48 2 12s4.48 10 10 10 10-4.48 10-10S17.52 2 12 2zM9.29 16.29L5.7 12.7a.996.996 0 1 1 1.41-1.41L10 14.17l6.88-6.88a.996.996 0 1 1 1.41 1.41l-7.59 7.59a.996.996 0 0 1-1.41 0z"/></symbol><symbol id="check" viewBox="0 0 24 24"><path fill="none" d="M0 0h24v24H0V0z"/><path d="M9 16.17L5.53 12.7a.996.996 0 1 0-1.41 1.41l4.18 4.18c.39.39 1.02.39 1.41 0L20.29 7.71a.996.996 0 1 0-1.41-1.41L9 16.17z"/></symbol><symbol id="box" viewBox="0 -960 960 960"><path d="M202.87-71.87q-37.783 0-64.392-26.608-26.609-26.609-26.609-64.392v-449.326q-18.239-12.434-29.12-31.489-10.88-19.054-10.88-43.011V-797.13q0-37.783 26.61-64.392 26.608-26.609 64.391-26.609h634.26q37.783 0 64.392 26.609 26.609 26.609 26.609 64.392v110.434q0 23.957-10.881 43.011-10.88 19.055-29.119 31.489v449.326q0 37.783-26.609 64.392Q794.913-71.87 757.13-71.87H202.87zm0-523.826v433.066h554.5v-433.066h-554.5zm-40-91h634.5V-797.13h-634.5v110.434zm193.065 292.435h248.369v-86.217H355.935v86.217zm124.304 14.978z"/></symbol><symbol id="cash" viewBox="0 -960 960 960"><path d="M120-160q-33 0-56.5-23.5T40-240v-440h80v440h680v80H120zm160-160q-33 0-56.5-23.5T200-400v-320q0-33 23.5-56.5T280-800h560q33 0 56.5 23.5T920-720v320q0 33-23.5 56.5T840-320H280zm80-80q0-33-23.5-56.5T280-480v80h80zm400 0h80v-80q-33 0-56.5 23.5T760-400zm-200-40q50 0 85-35t35-85q0-50-35-85t-85-35q-50 0-85 35t-35 85q0 50 35 85t85 35zM280-640q33 0 56.5-23.5T360-720h-80v80zm560 0v-80h-80q0 33 23.5 56.5T840-640z"/></symbol><symbol id="checkfilled" viewBox="0 0 24 24"><path fill="none" d="M0 0h24v24H0V0z"/><path d="M19 3H5c-1.1 0-2 .9-2 2v14c0 1.1.9 2 2 2h14c1.1 0 2-.9 2-2V5c0-1.1-.9-2-2-2zm-8.29 13.29a.996.996 0 0 1-1.41 0L5.71 12.7a.996.996 0 1 1 1.41-1.41L10 14.17l6.88-6.88a.996.996 0 1 1 1.41 1.41l-7.58 7.59z"/></symbol><symbol id="check-outline" viewBox="0 0 24 24"><path fill="none" d="M0 0h24v24H0V0z"/><path d="M18 19H6c-.55 0-1-.45-1-1V6c0-.55.45-1 1-1h12c.55 0 1 .45 1 1v12c0 .55-.45 1-1 1zm1-16H5c-1.1 0-2 .9-2 2v14c0 1.1.9 2 2 2h14c1.1 0 2-.9 2-2V5c0-1.1-.9-2-2-2z"/></symbol><symbol id="check-w" viewBox="0 0 24 24"><style>.st0{fill:none}.st1{fill:#fff}</style><path d="M0 0h24v24H0V0z" class="st0"/><path d="M10.3 17.8c-.5.5-1.4.5-1.9 0L3.5 13c-.5-.5-.5-1.4 0-1.9s1.4-.5 1.9 0L9.3 15l9.3-9.3c.5-.5 1.4-.5 1.9 0s.5 1.4 0 1.9L10.3 17.8z" class="st1"/></symbol><symbol id="cloud" viewBox="0 0 24 24"><path fill="none" d="M0 0h24v24H0z"/><path d="M19.35 10.04A7.49 7.49 0 0 0 12 4C9.11 4 6.6 5.64 5.35 8.04A5.994 5.994 0 0 0 0 14c0 3.31 2.69 6 6 6h13c2.76 0 5-2.24 5-5 0-2.64-2.05-4.78-4.65-4.96zM19 18H6c-2.21 0-4-1.79-4-4s1.79-4 4-4h.71C7.37 7.69 9.48 6 12 6c3.04 0 5.5 2.46 5.5 5.5v.5H19c1.66 0 3 1.34 3 3s-1.34 3-3 3z"/></symbol><symbol id="copy" viewBox="0 0 24 24"><path fill="none" d="M0 0h24v24H0V0z"/><path d="M15 1H4c-1.1 0-2 .9-2 2v13c0 .55.45 1 1 1s1-.45 1-1V4c0-.55.45-1 1-1h10c.55 0 1-.45 1-1s-.45-1-1-1zm.59 4.59l4.83 4.83c.37.37.58.88.58 1.41V21c0 1.1-.9 2-2 2H7.99C6.89 23 6 22.1 6 21l.01-14c0-1.1.89-2 1.99-2h6.17c.53 0 1.04.21 1.42.59zM15 12h4.5L14 6.5V11c0 .55.45 1 1 1z"/></symbol><symbol id="close" viewBox="0 0 24 24"><path fill="none" d="M0 0h24v24H0V0z"/><path d="M18.3 5.71a.996.996 0 0 0-1.41 0L12 10.59 7.11 5.7A.996.996 0 1 0 5.7 7.11L10.59 12 5.7 16.89a.996.996 0 1 0 1.41 1.41L12 13.41l4.89 4.89a.996.996 0 1 0 1.41-1.41L13.41 12l4.89-4.89c.38-.38.38-1.02 0-1.4z"/></symbol><symbol id="customer" viewBox="0 -960 960 960"><path d="M32.587-147.804v-120.609q0-36.224 18.742-66.589 18.743-30.365 49.801-46.346 62.718-31.239 127.664-46.978 64.947-15.739 131.923-15.739 67.435 0 132.392 15.619 64.956 15.62 127.195 46.859 31.059 15.947 49.802 46.245 18.742 30.299 18.742 66.916v120.622H32.587zm739.848 0v-127.892q0-44.956-24.261-86.652-24.261-41.695-69.978-74.282 48.369 6.478 91.456 20.619t81.131 34.424q36.956 20 56.793 47.204 19.837 27.204 19.837 59.405v127.174H772.435zM360.717-484.065q-67.913 0-115.989-48.076-48.076-48.077-48.076-115.99t48.076-115.989q48.076-48.076 115.989-48.076 67.913 0 115.99 48.076 48.076 48.076 48.076 115.989 0 67.913-48.076 115.99-48.077 48.076-115.99 48.076zm411.718-164.068q0 67.676-48.183 115.872t-115.844 48.196q-11.277 0-28.038-2.62-16.761-2.619-28.718-6.098 27.479-32.478 42.098-72.399 14.62-39.921 14.62-82.913t-14.62-82.949Q579.131-771 551.652-803.479q14.239-5.239 28.239-6.978 14-1.739 28.366-1.739 67.723 0 115.951 48.194 48.227 48.193 48.227 115.869zM123.587-238.804h474.261v-28.413q0-10.768-5.5-19.578-5.5-8.81-14.5-13.705Q525.283-326.543 471-339.804q-54.283-13.261-110.283-13.261-55.521 0-110.282 13.261-54.761 13.261-106.848 39.304-9 4.895-14.5 13.705t-5.5 19.578v28.413zm237.092-332.675q31.604 0 54.147-22.505 22.544-22.505 22.544-54.109 0-31.603-22.506-54.146-22.505-22.544-54.109-22.544-31.603 0-54.146 22.506-22.544 22.505-22.544 54.108 0 31.604 22.506 54.147 22.505 22.543 54.108 22.543zm.038 332.675zm0-409.327z"/></symbol><symbol id="date" viewBox="0 0 24 24"><path fill="none" d="M0 0h24v24H0V0z"/><path d="M20 3h-1V2c0-.55-.45-1-1-1s-1 .45-1 1v1H7V2c0-.55-.45-1-1-1s-1 .45-1 1v1H4c-1.1 0-2 .9-2 2v16c0 1.1.9 2 2 2h16c1.1 0 2-.9 2-2V5c0-1.1-.9-2-2-2zm-1 18H5c-.55 0-1-.45-1-1V8h16v12c0 .55-.45 1-1 1z"/></symbol><symbol id="downs" viewBox="0 0 24 24"><path fill="none" d="M0 0h24v24H0V0z"/><path d="M8.71 11.71l2.59 2.59c.39.39 1.02.39 1.41 0l2.59-2.59c.63-.63.18-1.71-.71-1.71H9.41c-.89 0-1.33 1.08-.7 1.71z"/></symbol><symbol id="download-o" viewBox="0 0 24 24"><path fill="none" d="M0 0h24v24H0V0z"/><path d="M19 9h-4V3H9v6H5l7 7 7-7zm-8 2V5h2v6h1.17L12 13.17 9.83 11H11zm-6 7h14v2H5z"/></symbol><symbol id="download" viewBox="0 0 24 24"><path fill="none" d="M0 0h24v24H0z"/><path d="M5 20h14v-2H5v2zM19 9h-4V3H9v6H5l7 7 7-7z"/></symbol><symbol id="desktop" viewBox="0 0 24 24"><path fill="none" d="M0 0h24v24H0z"/><path d="M21 2H3c-1.1 0-2 .9-2 2v12c0 1.1.9 2 2 2h7v2H8v2h8v-2h-2v-2h7c1.1 0 2-.9 2-2V4c0-1.1-.9-2-2-2zm0 14H3V4h18v12z"/></symbol><symbol id="down" viewBox="0 0 24 24"><path fill="none" d="M0 0h24v24H0V0z"/><path d="M11 5v11.17l-4.88-4.88c-.39-.39-1.03-.39-1.42 0a.996.996 0 0 0 0 1.41l6.59 6.59c.39.39 1.02.39 1.41 0l6.59-6.59a.996.996 0 1 0-1.41-1.41L13 16.17V5c0-.55-.45-1-1-1s-1 .45-1 1z"/></symbol><symbol id="edit" viewBox="0 0 24 24"><path fill="none" d="M0 0h24v24H0V0z"/><path d="M3 17.46v3.04c0 .28.22.5.5.5h3.04c.13 0 .26-.05.35-.15L17.81 9.94l-3.75-3.75L3.15 17.1c-.1.1-.15.22-.15.36zM20.71 7.04a.996.996 0 0 0 0-1.41l-2.34-2.34a.996.996 0 0 0-1.41 0l-1.83 1.83 3.75 3.75 1.83-1.83z"/></symbol><symbol id="delete" viewBox="0 0 24 24"><path fill="none" d="M0 0h24v24H0z"/><path d="M6 19c0 1.1.9 2 2 2h8c1.1 0 2-.9 2-2V7H6v12zM19 4h-3.5l-1-1h-5l-1 1H5v2h14V4z"/></symbol><symbol id="error" viewBox="0 0 24 24"><path d="M12 2C6.48 2 2 6.48 2 12s4.48 10 10 10 10-4.48 10-10S17.52 2 12 2zm0 11c-.55 0-1-.45-1-1V8c0-.55.45-1 1-1s1 .45 1 1v4c0 .55-.45 1-1 1zm1 4h-2v-2h2v2z"/></symbol><symbol id="eye-no" viewBox="0 0 24 24"><path fill="none" d="M0 0h24v24H0V0zm0 0h24v24H0V0zm0 0h24v24H0V0zm0 0h24v24H0V0z"/><path d="M12 6.5c2.76 0 5 2.24 5 5 0 .51-.1 1-.24 1.46l3.06 3.06c1.39-1.23 2.49-2.77 3.18-4.53C21.27 7.11 17 4 12 4c-1.27 0-2.49.2-3.64.57l2.17 2.17c.47-.14.96-.24 1.47-.24zM2.71 3.16a.996.996 0 0 0 0 1.41l1.97 1.97A11.892 11.892 0 0 0 1 11.5C2.73 15.89 7 19 12 19c1.52 0 2.97-.3 4.31-.82l2.72 2.72a.996.996 0 1 0 1.41-1.41L4.13 3.16c-.39-.39-1.03-.39-1.42 0zM12 16.5c-2.76 0-5-2.24-5-5 0-.77.18-1.5.49-2.14l1.57 1.57c-.03.18-.06.37-.06.57 0 1.66 1.34 3 3 3 .2 0 .38-.03.57-.07L14.14 16c-.65.32-1.37.5-2.14.5zm2.97-5.33a2.97 2.97 0 0 0-2.64-2.64l2.64 2.64z"/></symbol><symbol id="delete-o" viewBox="0 0 24 24"><path fill="none" d="M0 0h24v24H0z"/><path d="M15 2h-3.5l-1-1h-5l-1 1H1v2h14zm1 7c-.7 0-1.37.1-2 .29V5H2v12c0 1.1.9 2 2 2h5.68A6.999 6.999 0 0 0 23 16c0-3.87-3.13-7-7-7zm-7 7c0 .34.03.67.08 1H4V7h8v3.26c-1.81 1.27-3 3.36-3 5.74zm7 5c-2.76 0-5-2.24-5-5s2.24-5 5-5 5 2.24 5 5-2.24 5-5 5z"/><path d="M16.5 12H15v5l3.6 2.1.8-1.2-2.9-1.7z"/></symbol><symbol id="eye" viewBox="0 0 24 24"><path fill="none" d="M0 0h24v24H0V0z"/><path d="M12 4.5C7 4.5 2.73 7.61 1 12c1.73 4.39 6 7.5 11 7.5s9.27-3.11 11-7.5c-1.73-4.39-6-7.5-11-7.5zM12 17c-2.76 0-5-2.24-5-5s2.24-5 5-5 5 2.24 5 5-2.24 5-5 5zm0-8c-1.66 0-3 1.34-3 3s1.34 3 3 3 3-1.34 3-3-1.34-3-3-3z"/></symbol><symbol id="filter" viewBox="0 0 24 24"><path fill="none" d="M0 0h24v24H0V0z"/><path d="M11 18h2c.55 0 1-.45 1-1s-.45-1-1-1h-2c-.55 0-1 .45-1 1s.45 1 1 1zM3 7c0 .55.45 1 1 1h16c.55 0 1-.45 1-1s-.45-1-1-1H4c-.55 0-1 .45-1 1zm4 6h10c.55 0 1-.45 1-1s-.45-1-1-1H7c-.55 0-1 .45-1 1s.45 1 1 1z"/></symbol><symbol id="folder-o" viewBox="0 0 24 24"><path fill="none" d="M0 0h24v24H0V0z"/><path d="M9.17 6l2 2H20v10H4V6h5.17M10 4H4c-1.1 0-1.99.9-1.99 2L2 18c0 1.1.9 2 2 2h16c1.1 0 2-.9 2-2V8c0-1.1-.9-2-2-2h-8l-2-2z"/></symbol><symbol id="history" viewBox="0 0 24 24"><path fill="none" d="M0 0h24v24H0z"/><path d="M12 2C6.5 2 2 6.5 2 12s4.5 10 10 10 10-4.5 10-10S17.5 2 12 2zm4.2 14.2L11 13V7h1.5v5.2l4.5 2.7-.8 1.3z"/></symbol><symbol id="filter-cancel" viewBox="0 0 24 24"><path d="M17 11h-3.5l-2 2H17c.5 0 1-.5 1-1s-.5-1-1-1zM6 12c0 .5.5 1 1 1h1.7l2-2H7c-.5 0-1 .5-1 1zm14-6h-1.5l-2 2H20c.5 0 1-.5 1-1s-.5-1-1-1zM3 7c0 .5.5 1 1 1h9.7l2-2H4c-.5 0-1 .5-1 1zm10 9h-2c-.5 0-1 .5-1 1s.5 1 1 1h2c.5 0 1-.5 1-1s-.5-1-1-1z"/><path d="M2.9 18.1c.4.4 1 .4 1.4 0L20 2.4c.4-.4.4-1 0-1.4s-1-.4-1.4 0L2.9 16.7c-.3.3-.3 1 0 1.4z"/></symbol><symbol id="grid" viewBox="0 0 24 24"><path fill="none" d="M0 0h24v24H0z"/><path d="M3 3v8h8V3H3zm6 6H5V5h4v4zm-6 4v8h8v-8H3zm6 6H5v-4h4v4zm4-16v8h8V3h-8zm6 6h-4V5h4v4zm-6 4v8h8v-8h-8zm6 6h-4v-4h4v4z"/></symbol><symbol id="investor" viewBox="0 -960 960 960"><path d="M468.077-162.308q7.846 0 16.077-3.538 8.231-3.539 13.307-8.615l311.847-311.847q15.077-15.077 23.269-30.846 8.192-15.769 8.192-34.615 0-19.077-8.192-37.039-8.192-17.961-23.269-32.807l-150-150q-14.847-15.077-30.5-22.116-15.654-7.038-34.731-7.038-18.846 0-35 7.038-16.154 7.039-30.462 22.116l-34.846 34.846 74 74.23q11.924 11.693 17.77 26.616t5.846 30.308q0 31.23-20.423 51.653-20.423 20.424-51.654 20.424-15.385 0-30.039-4.693-14.654-4.692-26.346-16.384l-76.538-76.308-172.693 172.692q-6.077 6.077-9.115 13.808-3.039 7.731-3.039 15.577 0 14.154 9.077 23.346t23.231 9.192q7.846 0 16.077-3.538 8.231-3.539 13.308-8.616L390-535.231l28.308 28.308-126.539 126.769q-6.077 6.077-9.115 13.808-3.039 7.731-3.039 15.577 0 13.384 9.462 22.846 9.461 9.461 22.846 9.461 7.846 0 16.077-3.538 8.231-3.539 13.308-8.615l136-135.77 28.307 28.308-135.769 136q-5.307 5.077-8.731 13.308-3.423 8.231-3.423 16.077 0 13.384 9.462 22.846 9.461 9.461 22.846 9.461 7.846 0 15.577-3.038 7.731-3.039 13.808-9.115l136-135.77L583.692-360l-136 136q-6.077 6.077-9.115 14.577-3.038 8.5-3.038 15.577 0 14.154 9.961 22.846 9.962 8.692 22.577 8.692zm-.231 40.001q-30.846 0-52.808-22.577-21.961-22.577-19.269-55.731-34 .384-56.615-20.308-22.616-20.692-21.462-57.769-37.077.384-58.423-21.192-21.346-21.577-19.423-56.885-33.385.384-55.846-18.769-22.462-19.154-22.462-53.308 0-15.385 5.962-30.808 5.961-15.423 17.654-27.115L386.385-687.77l103.307 103.308q5.077 5.308 12.539 8.731 7.461 3.423 16.846 3.423 12.846 0 22.692-8.961 9.846-8.962 9.846-23.346 0-9.385-3.423-16.847-3.423-7.461-8.73-12.538L401.846-771.615Q387-786.692 370.962-793.731q-16.039-7.038-35.116-7.038-18.846 0-34.231 7.038-15.384 7.039-30.461 22.116l-121.769 122q-12.847 12.846-20.77 30.615t-8.384 36.692q-.462 13.539 2.307 26.039 2.77 12.5 8.77 23.5L101-502.461Q90.923-518.538 85.23-539.5q-5.692-20.962-5.23-42.808.461-27.231 10.923-52.192 10.461-24.962 29.923-44.423l121-121q20.923-20.693 44.269-30.77 23.347-10.076 50.5-10.076 27.154 0 50.116 10.076 22.961 10.077 43.654 30.77l34.846 34.846 34.846-34.846q20.923-20.693 43.884-30.77 22.962-10.076 50.116-10.076t50.5 10.076q23.346 10.077 44.038 30.77l149.001 149q20.692 20.692 31.923 46.461 11.23 25.77 11.23 52.924 0 27.153-11.23 50.115-11.231 22.962-31.923 43.654L525.769-146.154Q513.308-133.692 498.654-128q-14.654 5.693-30.808 5.693zm-128.23-504.616z"/></symbol><symbol id="key" viewBox="0 0 24 24"><path fill="none" d="M0 0h24v24H0V0z"/><path d="M12.65 10a5.998 5.998 0 0 0-6.88-3.88c-2.29.46-4.15 2.29-4.63 4.58A6.006 6.006 0 0 0 7 18a5.99 5.99 0 0 0 5.65-4H17v2c0 1.1.9 2 2 2s2-.9 2-2v-2c1.1 0 2-.9 2-2s-.9-2-2-2h-8.35zM7 14c-1.1 0-2-.9-2-2s.9-2 2-2 2 .9 2 2-.9 2-2 2z"/></symbol><symbol id="inventory" viewBox="0 -960 960 960"><path d="M666-440L440-666l226-226 226 226-226 226zm-546-80v-320h320v320H120zm400 400v-320h320v320H520zm-400 0v-320h320v320H120zm80-480h160v-160H200v160zm467 48l113-113-113-113-113 113 113 113zm-67 352h160v-160H600v160zm-400 0h160v-160H200v160zm160-400zm194-65zM360-360zm240 0z"/></symbol><symbol id="late" viewBox="0 0 24 24"><path d="M12 2C6.5 2 2 6.5 2 12s4.5 10 10 10 10-4.5 10-10S17.5 2 12 2zm3.55 13.8l-4.08-2.51c-.3-.18-.48-.5-.48-.85V7.75a.77.77 0 0 1 .76-.75c.41 0 .75.34.75.75v4.45l3.84 2.31c.36.22.48.69.26 1.05-.22.35-.69.46-1.05.24z"/></symbol><symbol id="list" viewBox="0 0 24 24"><path fill="none" d="M0 0h24v24H0z"/><path d="M3 13h2v-2H3v2zm0 4h2v-2H3v2zm0-8h2V7H3v2zm4 4h14v-2H7v2zm0 4h14v-2H7v2zM7 7v2h14V7H7z"/></symbol><symbol id="left" viewBox="0 0 24 24"><path fill="none" d="M0 0h24v24H0V0z" opacity=".87"/><path d="M16.62 2.99a1.25 1.25 0 0 0-1.77 0L6.54 11.3a.996.996 0 0 0 0 1.41l8.31 8.31c.49.49 1.28.49 1.77 0s.49-1.28 0-1.77L9.38 12l7.25-7.25c.48-.48.48-1.28-.01-1.76z"/></symbol><symbol id="logout" viewBox="0 -960 960 960"><path d="M200-120q-33 0-56.5-23.5T120-200v-560q0-33 23.5-56.5T200-840h280v80H200v560h280v80H200zm440-160l-55-58 102-102H360v-80h327L585-622l55-58 200 200-200 200z"/></symbol><symbol id="menu" viewBox="0 0 24 24"><path fill="none" d="M0 0h24v24H0V0z"/><path d="M4 18h16c.55 0 1-.45 1-1s-.45-1-1-1H4c-.55 0-1 .45-1 1s.45 1 1 1zm0-5h16c.55 0 1-.45 1-1s-.45-1-1-1H4c-.55 0-1 .45-1 1s.45 1 1 1zM3 7c0 .55.45 1 1 1h16c.55 0 1-.45 1-1s-.45-1-1-1H4c-.55 0-1 .45-1 1z"/></symbol><symbol id="mobile" viewBox="0 0 24 24"><path fill="none" d="M0 0h24v24H0z"/><path d="M17 1.01L7 1c-1.1 0-2 .9-2 2v18c0 1.1.9 2 2 2h10c1.1 0 2-.9 2-2V3c0-1.1-.9-1.99-2-1.99zM17 19H7V5h10v14z"/></symbol><symbol id="more" viewBox="0 0 24 24"><path fill="none" d="M0 0h24v24H0V0z"/><path d="M12 8c1.1 0 2-.9 2-2s-.9-2-2-2-2 .9-2 2 .9 2 2 2zm0 2c-1.1 0-2 .9-2 2s.9 2 2 2 2-.9 2-2-.9-2-2-2zm0 6c-1.1 0-2 .9-2 2s.9 2 2 2 2-.9 2-2-.9-2-2-2z"/></symbol><symbol id="money" viewBox="0 0 24 24"><path fill="none" d="M0 0h24v24H0V0z"/><path d="M12 2C6.48 2 2 6.48 2 12s4.48 10 10 10 10-4.48 10-10S17.52 2 12 2zm1.41 16.09v.58c0 .73-.6 1.33-1.33 1.33h-.01c-.73 0-1.33-.6-1.33-1.33v-.6c-1.33-.28-2.51-1.01-3.01-2.24-.23-.55.2-1.16.8-1.16h.24c.37 0 .67.25.81.6.29.75 1.05 1.27 2.51 1.27 1.96 0 2.4-.98 2.4-1.59 0-.83-.44-1.61-2.67-2.14-2.48-.6-4.18-1.62-4.18-3.67 0-1.72 1.39-2.84 3.11-3.21v-.6c0-.73.6-1.33 1.33-1.33h.01c.73 0 1.33.6 1.33 1.33v.62c1.38.34 2.25 1.2 2.63 2.26.2.55-.22 1.13-.81 1.13h-.26c-.37 0-.67-.26-.77-.62-.23-.76-.86-1.25-2.12-1.25-1.5 0-2.4.68-2.4 1.64 0 .84.65 1.39 2.67 1.91s4.18 1.39 4.18 3.91c-.02 1.83-1.39 2.83-3.13 3.16z"/></symbol><symbol id="orange" viewBox="0 -960 960 960"><path d="M480-115.217q-118.913 0-201.848-82.935Q195.217-281.087 195.217-400q0-93.283 54.065-167.902 54.066-74.62 142.392-102.772-29.566-8.587-51.196-29.207-21.631-20.62-33.044-47.576-25.108-27.739-32.217-64.75-7.108-37.011-2.826-75.402 38.391-4.282 75.402 2.826 37.011 7.109 64.75 32.217 36.152 17.5 58.609 50.805 22.457 33.304 27.131 75.826 13.239-31.239 31.5-58.978 18.26-27.739 41.5-50.978 12.434-12.435 31.108-12.435t31.109 12.435q12.435 12.434 12.435 31.108T633.5-773.674q-21.761 21.761-38.163 47.902-16.402 26.142-24.641 55.902 87.522 29.435 140.804 103.533Q764.783-492.239 764.783-400q0 118.913-82.935 201.848Q598.913-115.217 480-115.217zm0-91.001q80.37 0 137.076-56.706Q673.782-319.63 673.782-400q0-80.37-56.706-137.076Q560.37-593.782 480-593.782q-80.37 0-137.076 56.706Q286.218-480.37 286.218-400q0 80.37 56.706 137.076Q399.63-206.218 480-206.218zM480-400z"/></symbol><symbol id="other" viewBox="0 -960 960 960"><path d="M434.5-71.87v-192.347q0-54.326-15.685-82.641-15.685-28.316-45.119-55.033l64.652-64.652q11.043 10.282 21.326 21.826 10.283 11.543 20.326 24.108 13.522-17.804 27.304-31.945 13.783-14.142 29.5-27.902 41.826-35.718 72.348-82.435 30.522-46.718 32.283-151.196l-62.761 62.761-64.652-63.652 173.391-173.153 173.153 173.153-63.653 63.652-63.761-62.761q-3.434 136.783-44.478 198-41.043 61.218-90.935 104.239-34.869 30.435-53.554 58.653-18.685 28.217-18.685 88.978v192.348h-91zM235.565-622q-4.239-19.761-6.098-43.761-1.859-24-2.619-48.565l-63.761 63-63.892-63.652 173.392-173.153 173.152 173.153-64.652 63.652-62.761-62q0 19.087 1.88 36.75 1.881 17.663 4.12 32.707L235.565-622zm91.022 177.196q-21.435-21.478-40.652-49.598-19.218-28.119-33.218-66.25l89.196-22.109q9.522 23.892 21.924 41.337 12.402 17.446 27.163 31.968l-64.413 64.652z"/></symbol><symbol id="print3" viewBox="0 0 24 24"><path fill="none" d="M0 0h24v24H0V0z"/><path d="M19 8H5c-1.66 0-3 1.34-3 3v4c0 1.1.9 2 2 2h2v2c0 1.1.9 2 2 2h8c1.1 0 2-.9 2-2v-2h2c1.1 0 2-.9 2-2v-4c0-1.66-1.34-3-3-3zm-4 11H9c-.55 0-1-.45-1-1v-4h8v4c0 .55-.45 1-1 1zm4-7c-.55 0-1-.45-1-1s.45-1 1-1 1 .45 1 1-.45 1-1 1zm-2-9H7c-.55 0-1 .45-1 1v2c0 .55.45 1 1 1h10c.55 0 1-.45 1-1V4c0-.55-.45-1-1-1z"/></symbol><symbol id="person" viewBox="0 -960 960 960"><path d="M480-504.615q-49.5 0-84.75-35.25T360-624.615q0-49.501 35.25-84.751 35.25-35.25 84.75-35.25t84.75 35.25Q600-674.116 600-624.615q0 49.5-35.25 84.75T480-504.615zM200-215.384v-65.847q0-24.769 14.423-46.346 14.423-21.577 38.808-33.5 56.615-27.154 113.307-40.731Q423.231-415.385 480-415.385q56.769 0 113.462 13.577 56.692 13.577 113.307 40.731 24.385 11.923 38.808 33.5Q760-306 760-281.231v65.847H200zm40-40.001h480v-25.846q0-13.307-8.577-25-8.577-11.692-23.731-19.769-49.384-23.923-101.836-36.654Q533.405-375.385 480-375.385q-53.405 0-105.856 12.731Q321.692-349.923 272.308-326q-15.154 8.077-23.731 19.769-8.577 11.693-8.577 25v25.846zm240-289.23q33 0 56.5-23.5t23.5-56.5q0-33-23.5-56.5t-56.5-23.5q-33 0-56.5 23.5t-23.5 56.5q0 33 23.5 56.5t56.5 23.5zm0-80zm0 369.23z"/></symbol><symbol id="person-b" viewBox="0 0 512 512"><style>.st0,.st1{fill:none;stroke:#000;stroke-width:32}.st0{stroke-linecap:round;stroke-linejoin:round}.st1{stroke-miterlimit:10}</style><path d="M256 304c-87 0-175.3 48-191.6 138.6-2 10.9 4.2 21.4 15.6 21.4h352c11.4 0 17.6-10.5 15.6-21.4C431.3 352 343 304 256 304zm88-160c-3.9 52.9-44 96-88 96s-84.1-43.1-88-96c-4-55 35-96 88-96s92 42 88 96z"/><path d="M344 144c-3.9 52.9-44 96-88 96s-84.1-43.1-88-96c-4-55 35-96 88-96s92 42 88 96z" class="st0"/><path d="M256 304c-87 0-175.3 48-191.6 138.6-2 10.9 4.2 21.4 15.6 21.4h352c11.4 0 17.6-10.5 15.6-21.4C431.3 352 343 304 256 304z" class="st1"/></symbol><symbol id="provider" viewBox="0 -960 960 960"><path d="M241.913-152.587q-50.478 0-86.435-34.761-35.956-34.761-36.913-85.239H32.587v-443.826q0-37.783 26.609-64.391 26.608-26.609 64.391-26.609h560V-651h117.609l126.217 168.37v210.043h-84.065q-.957 50.478-36.913 85.239-35.957 34.761-86.435 34.761t-86.435-34.761q-35.956-34.761-36.913-85.239h-231.63q-.957 50.239-36.794 85.12-35.837 34.88-86.315 34.88zm0-83.826q17 0 28.5-11.5t11.5-28.5q0-17-11.5-28.5t-28.5-11.5q-17 0-28.5 11.5t-11.5 28.5q0 17 11.5 28.5t28.5 11.5zM123.587-363.587h33.196q17-16.326 38.282-26.37Q216.348-400 241.913-400q25.565 0 46.962 10.014 21.396 10.013 37.929 26.399h265.783v-352.826h-469v352.826zM720-236.413q17 0 28.5-11.5t11.5-28.5q0-17-11.5-28.5t-28.5-11.5q-17 0-28.5 11.5t-11.5 28.5q0 17 11.5 28.5t28.5 11.5zM683.587-440h162.109l-90-120h-72.109v120zm-325.5-100z"/></symbol><symbol id="profiel" viewBox="0 -960 960 960"><path d="M234-276q51-39 114-61.5T480-360q69 0 132 22.5T726-276q35-41 54.5-93T800-480q0-133-93.5-226.5T480-800q-133 0-226.5 93.5T160-480q0 59 19.5 111t54.5 93zm246-164q-59 0-99.5-40.5T340-580q0-59 40.5-99.5T480-720q59 0 99.5 40.5T620-580q0 59-40.5 99.5T480-440zm0 360q-83 0-156-31.5T197-197q-54-54-85.5-127T80-480q0-83 31.5-156T197-763q54-54 127-85.5T480-880q83 0 156 31.5T763-763q54 54 85.5 127T880-480q0 83-31.5 156T763-197q-54 54-127 85.5T480-80zm0-80q53 0 100-15.5t86-44.5q-39-29-86-44.5T480-280q-53 0-100 15.5T294-220q39 29 86 44.5T480-160zm0-360q26 0 43-17t17-43q0-26-17-43t-43-17q-26 0-43 17t-17 43q0 26 17 43t43 17zm0-60zm0 360z"/></symbol><symbol id="print" viewBox="0 0 24 24"><path fill="none" d="M0 0h24v24H0V0z"/><path d="M19 8H5c-1.66 0-3 1.34-3 3v4c0 1.1.9 2 2 2h2v2c0 1.1.9 2 2 2h8c1.1 0 2-.9 2-2v-2h2c1.1 0 2-.9 2-2v-4c0-1.66-1.34-3-3-3zm-4 11H9c-.55 0-1-.45-1-1v-4h8v4c0 .55-.45 1-1 1zm4-7c-.55 0-1-.45-1-1s.45-1 1-1 1 .45 1 1-.45 1-1 1zm-2-9H7c-.55 0-1 .45-1 1v2c0 .55.45 1 1 1h10c.55 0 1-.45 1-1V4c0-.55-.45-1-1-1z"/></symbol><symbol id="receive" viewBox="0 -960 960 960"><path d="M160-120v-80h640v80H160zm320-160L280-480l56-56 104 104v-408h80v408l104-104 56 56-200 200z"/></symbol><symbol id="purchase" viewBox="0 -960 960 960"><path d="M280-76.413q-33 0-56.5-23.5t-23.5-56.5q0-33 23.5-56.5t56.5-23.5q33 0 56.5 23.5t23.5 56.5q0 33-23.5 56.5t-56.5 23.5zm400 0q-33 0-56.5-23.5t-23.5-56.5q0-33 23.5-56.5t56.5-23.5q33 0 56.5 23.5t23.5 56.5q0 33-23.5 56.5t-56.5 23.5zm-428.022-640l90.5 189h279.044l103.782-189H251.978zm-41.826-87.174h580.913q27.213 0 41.411 24.087t1.046 48.913l-136.5 246.674q-11.478 20.717-30.803 32.315Q646.894-440 623.913-440H328.065l-41.847 76.413h477.369v87.174H280q-47.63 0-71.587-41.413t-1.761-82.087L259.935-496 117.848-796.413H36.413v-87.174h135.739l38 80zm132.326 276.174h279.044-279.044z"/></symbol><symbol id="question" viewBox="0 0 24 24"><path fill="none" d="M0 0h24v24H0z"/><path d="M11 18h2v-2h-2v2zm1-16C6.48 2 2 6.48 2 12s4.48 10 10 10 10-4.48 10-10S17.52 2 12 2zm0 18c-4.41 0-8-3.59-8-8s3.59-8 8-8 8 3.59 8 8-3.59 8-8 8zm0-14c-2.21 0-4 1.79-4 4h2c0-1.1.9-2 2-2s2 .9 2 2c0 2-3 1.75-3 5h2c0-2.25 3-2.5 3-5 0-2.21-1.79-4-4-4z"/></symbol><symbol id="restart" viewBox="0 0 24 24"><path fill="none" d="M0 0h24v24H0V0z"/><path d="M12 5V2L8 6l4 4V7c3.31 0 6 2.69 6 6 0 2.97-2.17 5.43-5 5.91v2.02c3.95-.49 7-3.85 7-7.93 0-4.42-3.58-8-8-8zm-6 8c0-1.65.67-3.15 1.76-4.24L6.34 7.34A8.014 8.014 0 0 0 4 13c0 4.08 3.05 7.44 7 7.93v-2.02c-2.83-.48-5-2.94-5-5.91z"/></symbol><symbol id="refresh" viewBox="0 0 24 24"><path fill="none" d="M0 0h24v24H0V0z"/><path d="M17.65 6.35a7.95 7.95 0 0 0-6.48-2.31c-3.67.37-6.69 3.35-7.1 7.02C3.52 15.91 7.27 20 12 20a7.98 7.98 0 0 0 7.21-4.56c.32-.67-.16-1.44-.9-1.44-.37 0-.72.2-.88.53a5.994 5.994 0 0 1-6.8 3.31c-2.22-.49-4.01-2.3-4.48-4.52A6.002 6.002 0 0 1 12 6c1.66 0 3.14.69 4.22 1.78l-1.51 1.51c-.63.63-.19 1.71.7 1.71H19c.55 0 1-.45 1-1V6.41c0-.89-1.08-1.34-1.71-.71l-.64.65z"/></symbol><symbol id="right" viewBox="0 -960 960 960"><path d="M400-280v-400l200 200-200 200z"/></symbol><symbol id="report" viewBox="0 -960 960 960"><path d="M640-160v-280h160v280H640zm-240 0v-640h160v640H400zm-240 0v-440h160v440H160z"/></symbol><symbol id="send" viewBox="0 -960 960 960"><path d="M280-160v-80h400v80H280zm160-160v-327L336-544l-56-56 200-200 200 200-56 56-104-103v327h-80z"/></symbol><symbol id="search" viewBox="0 0 24 24"><path fill="none" d="M0 0h24v24H0V0z"/><path d="M15.5 14h-.79l-.28-.27a6.5 6.5 0 0 0 1.48-5.34c-.47-2.78-2.79-5-5.59-5.34a6.505 6.505 0 0 0-7.27 7.27c.34 2.8 2.56 5.12 5.34 5.59a6.5 6.5 0 0 0 5.34-1.48l.27.28v.79l4.25 4.25c.41.41 1.08.41 1.49 0 .41-.41.41-1.08 0-1.49L15.5 14zm-6 0C7.01 14 5 11.99 5 9.5S7.01 5 9.5 5 14 7.01 14 9.5 11.99 14 9.5 14z"/></symbol><symbol id="sale" viewBox="0 -960 960 960"><path d="M442.087-200h73.826v-48.565q49.522-9 85.761-39T637.913-378q0-42.717-24.239-78.315t-96.957-61.598q-59.76-20-82.282-35t-22.522-40.283q0-24.565 17.902-38.728t50.75-14.163q31.522 0 49.881 15.5 18.358 15.5 26.358 39.217l67.348-27.434q-11.478-36.913-40.619-63.033-29.142-26.12-65.62-29.598V-760h-73.826v48.565q-50.957 11.478-78.478 44.957Q338.087-633 338.087-592q0 47.957 28.337 77.674 28.337 29.717 90.446 51.674 59.891 21.565 83.554 39.087 23.663 17.522 23.663 45.565 0 32.043-22.304 47.065-22.305 15.022-55.783 15.022-33 0-58.022-20.381-25.021-20.38-36.782-62.336l-69.348 27.434q13.522 49.674 43.978 79.892 30.457 30.217 76.261 40.739V-200zM480-71.87q-84.913 0-159.348-32.097-74.435-32.098-129.511-87.174-55.076-55.076-87.174-129.511Q71.869-395.087 71.869-480q0-84.913 32.098-159.348 32.098-74.435 87.174-129.511 55.076-55.076 129.511-87.174Q395.087-888.131 480-888.131q84.913 0 159.348 32.098 74.435 32.098 129.511 87.174 55.076 55.076 87.174 129.511Q888.131-564.913 888.131-480q0 84.913-32.098 159.348-32.098 74.435-87.174 129.511-55.076 55.076-129.511 87.174Q564.913-71.869 480-71.869zm0-91q133.043 0 225.087-92.043Q797.13-346.957 797.13-480t-92.043-225.087Q613.043-797.13 480-797.13t-225.087 92.043Q162.87-613.043 162.87-480t92.043 225.087Q346.957-162.87 480-162.87zM480-480z"/></symbol><symbol id="settings" viewBox="0 -960 960 960"><path d="M370-80l-16-128q-13-5-24.5-12T307-235l-119 50L78-375l103-78q-1-7-1-13.5v-27q0-6.5 1-13.5L78-585l110-190 119 50q11-8 23-15t24-12l16-128h220l16 128q13 5 24.5 12t22.5 15l119-50 110 190-103 78q1 7 1 13.5v27q0 6.5-2 13.5l103 78-110 190-118-50q-11 8-23 15t-24 12L590-80H370zm70-80h79l14-106q31-8 57.5-23.5T639-327l99 41 39-68-86-65q5-14 7-29.5t2-31.5q0-16-2-31.5t-7-29.5l86-65-39-68-99 42q-22-23-48.5-38.5T533-694l-13-106h-79l-14 106q-31 8-57.5 23.5T321-633l-99-41-39 68 86 64q-5 15-7 30t-2 32q0 16 2 31t7 30l-86 65 39 68 99-42q22 23 48.5 38.5T427-266l13 106zm42-180q58 0 99-41t41-99q0-58-41-99t-99-41q-59 0-99.5 41T342-480q0 58 40.5 99t99.5 41zm-2-140z"/></symbol><symbol id="save" viewBox="0 0 24 24"><path fill="none" d="M0 0h24v24H0V0z"/><path d="M17.59 3.59c-.38-.38-.89-.59-1.42-.59H5a2 2 0 0 0-2 2v14c0 1.1.9 2 2 2h14c1.1 0 2-.9 2-2V7.83c0-.53-.21-1.04-.59-1.41l-2.82-2.83zM12 19c-1.66 0-3-1.34-3-3s1.34-3 3-3 3 1.34 3 3-1.34 3-3 3zm1-10H7c-1.1 0-2-.9-2-2s.9-2 2-2h6c1.1 0 2 .9 2 2s-.9 2-2 2z"/></symbol><symbol id="service-b" viewBox="0 0 24 24"><path fill="none" d="M0 0h24v24H0V0z"/><path d="M12 2L4 5v6.09c0 5.05 3.41 9.76 8 10.91 4.59-1.15 8-5.86 8-10.91V5l-8-3zm-1.06 13.54L7.4 12l1.41-1.41 2.12 2.12 4.24-4.24 1.41 1.41-5.64 5.66z"/></symbol><symbol id="shipper" viewBox="0 -960 960 960"><path d="M233.755-177.694q-46.832 0-79.524-32.756t-32.692-79.551H53.847v-417.69q0-30.308 21-51.308t51.307-21h544.615v152.308h106.152l129.232 173.077v164.613h-72.307q0 46.795-32.783 79.551t-79.615 32.756q-46.832 0-79.524-32.756-32.693-32.756-32.693-79.551H346.153q0 46.923-32.783 79.615-32.782 32.692-79.615 32.692zm.091-59.998q22 0 37.154-15.154 15.154-15.154 15.154-37.155 0-22-15.154-37.154-15.154-15.154-37.154-15.154-22.001 0-37.155 15.154t-15.154 37.154q0 22.001 15.154 37.155t37.155 15.154zm-120-112.307h28.923q12.768-22.231 36.884-37.27 24.116-15.039 54.193-15.039 29.308 0 53.808 14.847 24.5 14.846 37.269 37.462H610.77V-720H126.154q-4.615 0-8.462 3.846-3.846 3.847-3.846 8.463v357.692zm607.693 112.307q22 0 37.154-15.154 15.154-15.154 15.154-37.155 0-22-15.154-37.154-15.154-15.154-37.154-15.154-22.001 0-37.155 15.154t-15.154 37.154q0 22.001 15.154 37.155t37.155 15.154zm-50.77-192.307H850L746.153-567.693h-75.384v137.694zM362.308-535z"/></symbol><symbol id="unit" viewBox="0 -960 960 960"><path d="M224.615-120q-26.846 0-45.731-18.884Q160-157.769 160-184.615v-444.846q-17.231-7.154-28.616-23.116Q120-668.538 120-689.231v-86.154q0-26.846 18.884-45.731Q157.769-840 184.615-840h590.77q26.846 0 45.731 18.884Q840-802.231 840-775.385v86.154q0 20.693-11.384 36.654-11.385 15.962-28.616 23.116v444.846q0 26.846-18.884 45.731Q762.231-120 735.385-120h-510.77zM200-624.615v436.154q0 12.307 8.846 20.384T230.769-160h504.616q10.769 0 17.692-6.923T760-184.615v-440H200zm-15.385-40h590.77q10.769 0 17.692-6.924Q800-678.462 800-689.231v-86.154q0-10.769-6.923-17.692T775.385-800h-590.77q-10.769 0-17.692 6.923T160-775.385v86.154q0 10.769 6.923 17.692 6.923 6.924 17.692 6.924zm190.77 219.231h209.23V-480h-209.23v34.616zM480-392.308z"/></symbol><symbol id="sub-right" viewBox="0 0 24 24"><path fill="none" d="M0 0h24v24H0V0z"/><path d="M19 15l-6 6-1.42-1.42L15.17 16H4V4h2v10h9.17l-3.59-3.58L13 9l6 6z"/></symbol><symbol id="timelapse" viewBox="0 0 24 24"><path fill="none" d="M0 0h24v24H0V0z"/><path d="M16.24 7.76A5.974 5.974 0 0 0 12 6v6l-4.24 4.24c2.34 2.34 6.14 2.34 8.49 0a5.99 5.99 0 0 0-.01-8.48zM12 2C6.48 2 2 6.48 2 12s4.48 10 10 10 10-4.48 10-10S17.52 2 12 2zm0 18c-4.42 0-8-3.58-8-8s3.58-8 8-8 8 3.58 8 8-3.58 8-8 8z"/></symbol><symbol id="up" viewBox="0 0 24 24"><path fill="none" d="M0 0h24v24H0V0z"/><path d="M13 19V7.83l4.88 4.88c.39.39 1.03.39 1.42 0a.996.996 0 0 0 0-1.41l-6.59-6.59a.996.996 0 0 0-1.41 0l-6.6 6.58a.996.996 0 1 0 1.41 1.41L11 7.83V19c0 .55.45 1 1 1s1-.45 1-1z"/></symbol><symbol id="unlock" viewBox="0 0 24 24"><path fill="none" d="M0 0h24v24H0z"/><path d="M12 17c1.1 0 2-.9 2-2s-.9-2-2-2-2 .9-2 2 .9 2 2 2zm6-9h-1V6c0-2.76-2.24-5-5-5S7 3.24 7 6h1.9c0-1.71 1.39-3.1 3.1-3.1 1.71 0 3.1 1.39 3.1 3.1v2H6c-1.1 0-2 .9-2 2v10c0 1.1.9 2 2 2h12c1.1 0 2-.9 2-2V10c0-1.1-.9-2-2-2zm0 12H6V10h12v10z"/></symbol><symbol id="upload-o" viewBox="0 0 24 24"><path fill="none" d="M0 0h24v24H0V0z"/><path d="M9 16h6v-6h4l-7-7-7 7h4v6zm3-10.17L14.17 8H13v6h-2V8H9.83L12 5.83zM5 18h14v2H5z"/></symbol><symbol id="web" viewBox="0 0 24 24"><path d="M19 4H5a2 2 0 0 0-2 2v12a2 2 0 0 0 2 2h14c1.1 0 2-.9 2-2V6a2 2 0 0 0-2-2zm-1 14H6c-.55 0-1-.45-1-1V8h14v9c0 .55-.45 1-1 1z"/></symbol><symbol id="update" viewBox="0 0 24 24"><path fill="none" d="M0 0h24v24H0z"/><path d="M16 18v2H8v-2h8zM11 7.99V16h2V7.99h3L12 4 8 7.99h3z"/></symbol><symbol id="warning" viewBox="0 0 24 24"><path d="M4.47 21h15.06c1.54 0 2.5-1.67 1.73-3L13.73 4.99c-.77-1.33-2.69-1.33-3.46 0L2.74 18c-.77 1.33.19 3 1.73 3zM12 14c-.55 0-1-.45-1-1v-2c0-.55.45-1 1-1s1 .45 1 1v2c0 .55-.45 1-1 1zm1 4h-2v-2h2v2z"/></symbol><symbol id="worker" viewBox="0 0 24 24"><path fill="none" d="M0 0h24v24H0z"/><path d="M18 3l-3 3V3H9C6.24 3 4 5.24 4 8h5v3h6V8l3 3h2V3h-2zM9 13v7c0 .55.45 1 1 1h4c.55 0 1-.45 1-1v-7H9z"/></symbol></svg>