<svg xmlns="http://www.w3.org/2000/svg"><symbol id="check-round" viewBox="0 0 24 24"><path fill="none" d="M0 0h24v24H0V0z"/><path d="M12 2C6.48 2 2 6.48 2 12s4.48 10 10 10 10-4.48 10-10S17.52 2 12 2zM9.29 16.29L5.7 12.7a.996.996 0 1 1 1.41-1.41L10 14.17l6.88-6.88a.996.996 0 1 1 1.41 1.41l-7.59 7.59a.996.996 0 0 1-1.41 0z"/></symbol><symbol id="checkfilled" viewBox="0 0 24 24"><path fill="none" d="M0 0h24v24H0V0z"/><path d="M19 3H5c-1.1 0-2 .9-2 2v14c0 1.1.9 2 2 2h14c1.1 0 2-.9 2-2V5c0-1.1-.9-2-2-2zm-8.29 13.29a.996.996 0 0 1-1.41 0L5.71 12.7a.996.996 0 1 1 1.41-1.41L10 14.17l6.88-6.88a.996.996 0 1 1 1.41 1.41l-7.58 7.59z"/></symbol><symbol id="code" viewBox="0 0 24 24"><path fill="none" d="M0 0h24v24H0V0z"/><path d="M8.7 15.9L4.8 12l3.9-3.9a.984.984 0 0 0 0-1.4.984.984 0 0 0-1.4 0l-4.59 4.59a.996.996 0 0 0 0 1.41l4.59 4.6c.39.39 1.01.39 1.4 0a.984.984 0 0 0 0-1.4zm6.6 0l3.9-3.9-3.9-3.9a.984.984 0 0 1 0-1.4.984.984 0 0 1 1.4 0l4.59 4.59c.39.39.39 1.02 0 1.41l-4.59 4.6a.984.984 0 0 1-1.4 0 .984.984 0 0 1 0-1.4z"/></symbol><symbol id="change-schedule" viewBox="0 0 24 24"><path fill="none" d="M0 0h24v24H0z"/><path d="M11 8.75v3.68c0 .35.19.68.49.86l3.12 1.85c.36.21.82.09 1.03-.26.21-.36.1-.82-.26-1.03l-2.87-1.71v-3.4c-.01-.4-.35-.74-.76-.74s-.75.34-.75.75zm10 .75V4.21c0-.45-.54-.67-.85-.35l-1.78 1.78a9.01 9.01 0 0 0-7.21-2.6c-4.19.38-7.64 3.75-8.1 7.94a9 9 0 0 0 17.87 2.14c.07-.6-.4-1.12-1-1.12-.5 0-.92.37-.98.86-.43 3.49-3.44 6.19-7.05 6.14-3.71-.05-6.84-3.18-6.9-6.9C4.94 8.2 8.11 5 12 5c1.93 0 3.68.79 4.95 2.05l-2.09 2.09c-.32.32-.1.86.35.86h5.29c.28 0 .5-.22.5-.5z"/></symbol><symbol id="change" viewBox="0 0 24 24"><path fill="none" d="M0 0h24v24H0V0z"/><path d="M22 12c0-5.52-4.48-10-10-10S2 6.48 2 12s4.48 10 10 10 10-4.48 10-10zm-7-5.5l3.15 3.15c.2.2.2.51 0 .71L15 13.5V11h-4V9h4V6.5zm-6 11l-3.15-3.15c-.2-.2-.2-.51 0-.71L9 10.5V13h4v2H9v2.5z"/></symbol><symbol id="date" viewBox="0 0 24 24"><path fill="none" d="M0 0h24v24H0V0z"/><path d="M20 3h-1V2c0-.55-.45-1-1-1s-1 .45-1 1v1H7V2c0-.55-.45-1-1-1s-1 .45-1 1v1H4c-1.1 0-2 .9-2 2v16c0 1.1.9 2 2 2h16c1.1 0 2-.9 2-2V5c0-1.1-.9-2-2-2zm-1 18H5c-.55 0-1-.45-1-1V8h16v12c0 .55-.45 1-1 1z"/></symbol><symbol id="gps-off" viewBox="0 0 24 24"><path fill="none" d="M0 0h24v24H0V0z"/><path d="M22 13c.55 0 1-.45 1-1s-.45-1-1-1h-1.06A8.994 8.994 0 0 0 13 3.06V2c0-.55-.45-1-1-1s-1 .45-1 1v1.06c-.98.11-1.91.38-2.77.78l1.53 1.53a6.995 6.995 0 0 1 8.87 8.87l1.53 1.53c.4-.86.67-1.79.78-2.77H22zm-1.56 5.88L5.12 3.56a.996.996 0 1 0-1.41 1.41L5.04 6.3A9.061 9.061 0 0 0 3.06 11H2c-.55 0-1 .45-1 1s.45 1 1 1h1.06A8.994 8.994 0 0 0 11 20.94V22c0 .55.45 1 1 1s1-.45 1-1v-1.06c1.77-.2 3.38-.91 4.69-1.98l1.33 1.33c.39.39 1.02.39 1.41 0 .4-.39.4-1.02.01-1.41zM12 19A6.995 6.995 0 0 1 6.46 7.73l9.81 9.81A6.972 6.972 0 0 1 12 19z"/></symbol><symbol id="error" viewBox="0 0 24 24"><path d="M12 2C6.48 2 2 6.48 2 12s4.48 10 10 10 10-4.48 10-10S17.52 2 12 2zm0 11c-.55 0-1-.45-1-1V8c0-.55.45-1 1-1s1 .45 1 1v4c0 .55-.45 1-1 1zm1 4h-2v-2h2v2z"/></symbol><symbol id="history" viewBox="0 0 24 24"><path fill="none" d="M0 0h24v24H0z"/><path d="M4 19V8h16v3.29c.72.22 1.4.54 2 .97V8c0-1.11-.89-2-2-2h-4V4c0-1.11-.89-2-2-2h-4c-1.11 0-2 .89-2 2v2H4c-1.11 0-1.99.89-1.99 2L2 19c0 1.11.89 2 2 2h7.68c-.3-.62-.5-1.29-.6-2H4zm6-15h4v2h-4V4z"/><path d="M18 13c-2.76 0-5 2.24-5 5s2.24 5 5 5 5-2.24 5-5-2.24-5-5-5zm1.65 7.35L17.5 18.2V15h1v2.79l1.85 1.85-.7.71z"/></symbol><symbol id="late" viewBox="0 0 24 24"><path fill="none" d="M0 0h24v24H0V0z"/><path d="M6 4v3.17c0 .53.21 1.04.59 1.42L10 12l-3.42 3.42c-.37.38-.58.89-.58 1.42V20c0 1.1.9 2 2 2h8c1.1 0 2-.9 2-2v-3.16c0-.53-.21-1.04-.58-1.41L14 12l3.41-3.4c.38-.38.59-.89.59-1.42V4c0-1.1-.9-2-2-2H8c-1.1 0-2 .9-2 2z"/></symbol><symbol id="key" viewBox="0 0 24 24"><path fill="none" d="M0 0h24v24H0V0z"/><path d="M12.65 10a5.998 5.998 0 0 0-6.88-3.88c-2.29.46-4.15 2.29-4.63 4.58A6.006 6.006 0 0 0 7 18a5.99 5.99 0 0 0 5.65-4H17v2c0 1.1.9 2 2 2s2-.9 2-2v-2c1.1 0 2-.9 2-2s-.9-2-2-2h-8.35zM7 14c-1.1 0-2-.9-2-2s.9-2 2-2 2 .9 2 2-.9 2-2 2z"/></symbol><symbol id="list" viewBox="0 0 24 24"><path fill="none" d="M0 0h24v24H0V0z" opacity=".87"/><path d="M4 14h2c.55 0 1-.45 1-1v-2c0-.55-.45-1-1-1H4c-.55 0-1 .45-1 1v2c0 .55.45 1 1 1zm0 5h2c.55 0 1-.45 1-1v-2c0-.55-.45-1-1-1H4c-.55 0-1 .45-1 1v2c0 .55.45 1 1 1zM4 9h2c.55 0 1-.45 1-1V6c0-.55-.45-1-1-1H4c-.55 0-1 .45-1 1v2c0 .55.45 1 1 1zm5 5h10c.55 0 1-.45 1-1v-2c0-.55-.45-1-1-1H9c-.55 0-1 .45-1 1v2c0 .55.45 1 1 1zm0 5h10c.55 0 1-.45 1-1v-2c0-.55-.45-1-1-1H9c-.55 0-1 .45-1 1v2c0 .55.45 1 1 1zM8 6v2c0 .55.45 1 1 1h10c.55 0 1-.45 1-1V6c0-.55-.45-1-1-1H9c-.55 0-1 .45-1 1z"/></symbol><symbol id="in-progress" viewBox="0 0 24 24"><style>.st0{fill:none}</style><path d="M5.5 8.5v7c0 1.1-.9 2-2 2s-2-.9-2-2v-7c0-1.1.9-2 2-2s2 .9 2 2zm17.1 6l-7.4 2.8c-.4.1-.9.1-1.3 0l-6.4-1.8v-9h1.6c.2 0 .5 0 .7.1l6.9 2.6c.5.2.8.6.8 1.1 0 .7-.6 1.2-1.2 1.2h-2.6c-.2 0-.3-.1-.4-.1l-1.1-.4c-.2-.1-.5 0-.6.3-.1.2 0 .5.3.6l1.5.5c.1.1.2.1.3.1h6.8c1.1 0 2 .9 2.1 2z" class="st0"/><path d="M20.5 12.5h-6.8c-.1 0-.2 0-.3-.1l-1.5-.5c-.3-.1-.4-.4-.3-.6.1-.3.4-.4.6-.3l1.1.4c.1 0 .2.1.4.1h2.6c.6 0 1.2-.5 1.2-1.2 0-.5-.3-.9-.8-1.1L9.8 6.6c-.2-.1-.5-.1-.7-.1H7.5v9l6.4 1.8c.4.1.9.1 1.3 0l7.4-2.8c-.1-1.1-1-2-2.1-2zm-17-6c-1.1 0-2 .9-2 2v7c0 1.1.9 2 2 2s2-.9 2-2v-7c0-1.1-.9-2-2-2z"/></symbol><symbol id="message" viewBox="0 0 24 24"><path fill="none" d="M0 0h24v24H0V0z"/><path d="M20 2H4c-1.1 0-1.99.9-1.99 2L2 22l4-4h14c1.1 0 2-.9 2-2V4c0-1.1-.9-2-2-2zm-3 12H7c-.55 0-1-.45-1-1s.45-1 1-1h10c.55 0 1 .45 1 1s-.45 1-1 1zm0-3H7c-.55 0-1-.45-1-1s.45-1 1-1h10c.55 0 1 .45 1 1s-.45 1-1 1zm0-3H7c-.55 0-1-.45-1-1s.45-1 1-1h10c.55 0 1 .45 1 1s-.45 1-1 1z"/></symbol><symbol id="location" viewBox="0 0 24 24"><path d="M12 2C8.13 2 5 5.13 5 9c0 5.25 7 13 7 13s7-7.75 7-13c0-3.87-3.13-7-7-7zm0 9.5a2.5 2.5 0 0 1 0-5 2.5 2.5 0 0 1 0 5z"/><path fill="none" d="M0 0h24v24H0z"/></symbol><symbol id="nav" viewBox="0 0 24 24"><path fill="none" d="M0 0h24v24H0V0z"/><path d="M12.93 4.26l6.15 14.99c.34.83-.51 1.66-1.33 1.29l-5.34-2.36c-.26-.11-.55-.11-.81 0l-5.34 2.36c-.82.36-1.67-.46-1.33-1.29l6.15-14.99c.33-.83 1.51-.83 1.85 0z"/></symbol><symbol id="next-week" viewBox="0 0 24 24"><path fill="none" d="M0 0h24v24H0V0z"/><path d="M11 18.5l4-4-4-4-1 1 3 3-3 3zM20 7h-4V5c0-.55-.22-1.05-.59-1.41C15.05 3.22 14.55 3 14 3h-4c-1.1 0-2 .9-2 2v2H4c-1.1 0-2 .9-2 2v11c0 1.1.9 2 2 2h16c1.1 0 2-.9 2-2V9c0-1.1-.9-2-2-2zM10 5h4v2h-4V5zm10 15H4V9h16v11z"/></symbol><symbol id="online" viewBox="0 0 24 24"><path fill="none" d="M0 0h24v24H0V0z"/><path d="M19.35 10.04A7.49 7.49 0 0 0 12 4C9.11 4 6.6 5.64 5.35 8.04A5.994 5.994 0 0 0 0 14c0 3.31 2.69 6 6 6h13c2.76 0 5-2.24 5-5 0-2.64-2.05-4.78-4.65-4.96zM19 18H6c-2.21 0-4-1.79-4-4s1.79-4 4-4h.71C7.37 7.69 9.48 6 12 6c3.04 0 5.5 2.46 5.5 5.5v.5H19c1.66 0 3 1.34 3 3s-1.34 3-3 3z"/></symbol><symbol id="offline" viewBox="0 0 24 24"><path fill="none" d="M0 0h24v24H0V0z"/><path d="M24 15c0-2.64-2.05-4.78-4.65-4.96A7.49 7.49 0 0 0 12 4c-1.33 0-2.57.36-3.65.97l1.49 1.49C10.51 6.17 11.23 6 12 6c3.04 0 5.5 2.46 5.5 5.5v.5H19a2.996 2.996 0 0 1 1.79 5.4l1.41 1.41c1.09-.92 1.8-2.27 1.8-3.81zM3.71 4.56a.996.996 0 0 0 0 1.41l2.06 2.06h-.42a5.99 5.99 0 0 0-5.29 6.79C.46 17.84 3.19 20 6.22 20h11.51l1.29 1.29a.996.996 0 1 0 1.41-1.41L5.12 4.56a.996.996 0 0 0-1.41 0zM6 18c-2.21 0-4-1.79-4-4s1.79-4 4-4h1.73l8 8H6z"/></symbol><symbol id="patient" viewBox="0 0 24 24"><path fill="none" d="M0 0h24v24H0V0z"/><circle cx="12" cy="4" r="2"/><path d="M19 11.9c0-.49-.36-.89-.84-.97a5.762 5.762 0 0 1-3.23-1.76l-1.29-1.43c-.17-.19-.38-.34-.61-.45-.01 0-.01-.01-.02-.01H13c-.37-.21-.78-.31-1.25-.25C10.73 7.15 10 8.07 10 9.1V15c0 1.1.9 2 2 2h5v4c0 .55.45 1 1 1s1-.45 1-1v-4.5c0-1.1-.9-2-2-2h-3v-3.45c1 .83 2.4 1.54 3.8 1.82.62.13 1.2-.34 1.2-.97zM12.83 18c-.41 1.16-1.52 2-2.83 2-1.66 0-3-1.34-3-3 0-1.31.84-2.41 2-2.83V12.1a5 5 0 1 0 5.9 5.9h-2.07z"/></symbol><symbol id="noview" viewBox="0 0 24 24"><path fill="none" d="M0 0h24v24H0V0zm0 0h24v24H0V0zm0 0h24v24H0V0zm0 0h24v24H0V0z"/><path d="M12 6.5c2.76 0 5 2.24 5 5 0 .51-.1 1-.24 1.46l3.06 3.06c1.39-1.23 2.49-2.77 3.18-4.53C21.27 7.11 17 4 12 4c-1.27 0-2.49.2-3.64.57l2.17 2.17c.47-.14.96-.24 1.47-.24zM2.71 3.16a.996.996 0 0 0 0 1.41l1.97 1.97A11.892 11.892 0 0 0 1 11.5C2.73 15.89 7 19 12 19c1.52 0 2.97-.3 4.31-.82l2.72 2.72a.996.996 0 1 0 1.41-1.41L4.13 3.16c-.39-.39-1.03-.39-1.42 0zM12 16.5c-2.76 0-5-2.24-5-5 0-.77.18-1.5.49-2.14l1.57 1.57c-.03.18-.06.37-.06.57 0 1.66 1.34 3 3 3 .2 0 .38-.03.57-.07L14.14 16c-.65.32-1.37.5-2.14.5zm2.97-5.33a2.97 2.97 0 0 0-2.64-2.64l2.64 2.64z"/></symbol><symbol id="payments" viewBox="0 0 24 24"><path fill="none" d="M0 0v24h24V0H0zm1 13V7c0-1.66 1.34-3 3-3h12c1.66 0 3 1.34 3 3v7c0 1.1-.9 2-2 2H4c-1.66 0-3-1.34-3-3zm22 5c0 1.1-.9 2-2 2H5c-.55 0-1-.45-1-1s.45-1 1-1h16V8c0-.55.45-1 1-1s1 .45 1 1v10z"/><path d="M23 8v10c0 1.1-.9 2-2 2H5c-.55 0-1-.45-1-1s.45-1 1-1h16V8c0-.55.45-1 1-1s1 .45 1 1zM4 16c-1.66 0-3-1.34-3-3V7c0-1.66 1.34-3 3-3h12c1.66 0 3 1.34 3 3v7c0 1.1-.9 2-2 2H4zm3-6c0 1.66 1.34 3 3 3s3-1.34 3-3-1.34-3-3-3-3 1.34-3 3z"/></symbol><symbol id="person" viewBox="0 0 24 24"><path fill="none" d="M0 0h24v24H0V0z"/><path d="M12 12c2.21 0 4-1.79 4-4s-1.79-4-4-4-4 1.79-4 4 1.79 4 4 4zm0 2c-2.67 0-8 1.34-8 4v1c0 .55.45 1 1 1h14c.55 0 1-.45 1-1v-1c0-2.66-5.33-4-8-4z"/></symbol><symbol id="play" viewBox="0 0 24 24"><path d="M8 6.82v10.36c0 .79.87 1.27 1.54.84l8.14-5.18a1 1 0 0 0 0-1.69L9.54 5.98A.998.998 0 0 0 8 6.82z"/></symbol><symbol id="punchin" viewBox="0 0 24 24"><path fill="none" d="M0 0h24v24H0V0z"/><path d="M11 6v4.59H8.71c-.45 0-.67.54-.35.85l3.29 3.29c.2.2.51.2.71 0l3.29-3.29a.5.5 0 0 0-.35-.85H13V6c0-.55-.45-1-1-1s-1 .45-1 1zm-3.9 8c-.61 0-1.11.55-.99 1.15C6.65 17.91 9.08 20 12 20s5.35-2.09 5.89-4.85c.12-.6-.38-1.15-.99-1.15-.49 0-.88.35-.98.83C15.53 16.64 13.93 18 12 18s-3.53-1.36-3.91-3.17c-.1-.48-.5-.83-.99-.83z"/></symbol><symbol id="record" viewBox="0 0 24 24"><path d="M12 14c1.66 0 3-1.34 3-3V5c0-1.66-1.34-3-3-3S9 3.34 9 5v6c0 1.66 1.34 3 3 3zm5.91-3c-.49 0-.9.36-.98.85C16.52 14.2 14.47 16 12 16s-4.52-1.8-4.93-4.15a.998.998 0 0 0-.98-.85c-.61 0-1.09.54-1 1.14.49 3 2.89 5.35 5.91 5.78V20c0 .55.45 1 1 1s1-.45 1-1v-2.08a6.993 6.993 0 0 0 5.91-5.78c.1-.6-.39-1.14-1-1.14z"/></symbol><symbol id="refresh" viewBox="0 0 24 24"><path fill="none" d="M0 0h24v24H0V0z"/><path d="M17.65 6.35a7.95 7.95 0 0 0-6.48-2.31c-3.67.37-6.69 3.35-7.1 7.02C3.52 15.91 7.27 20 12 20a7.98 7.98 0 0 0 7.21-4.56c.32-.67-.16-1.44-.9-1.44-.37 0-.72.2-.88.53a5.994 5.994 0 0 1-6.8 3.31c-2.22-.49-4.01-2.3-4.48-4.52A6.002 6.002 0 0 1 12 6c1.66 0 3.14.69 4.22 1.78l-1.51 1.51c-.63.63-.19 1.71.7 1.71H19c.55 0 1-.45 1-1V6.41c0-.89-1.08-1.34-1.71-.71l-.64.65z"/></symbol><symbol id="report" viewBox="0 0 24 24"><path fill="none" d="M0 0h24v24H0V0z"/><path d="M19 2h-4.18C14.4.84 13.3 0 12 0S9.6.84 9.18 2H5c-1.1 0-2 .9-2 2v16c0 1.1.9 2 2 2h14c1.1 0 2-.9 2-2V4c0-1.1-.9-2-2-2zm-7 0c.55 0 1 .45 1 1s-.45 1-1 1-1-.45-1-1 .45-1 1-1zm7 18H5V4h2v3h10V4h2v16z"/></symbol><symbol id="request" viewBox="0 0 24 24"><path fill="none" d="M0 0h24v24H0z"/><path d="M18 11v2h4v-2h-4zm-2 6.61c.96.71 2.21 1.65 3.2 2.39.4-.53.8-1.07 1.2-1.6-.99-.74-2.24-1.68-3.2-2.4-.4.54-.8 1.08-1.2 1.61zM20.4 5.6c-.4-.53-.8-1.07-1.2-1.6-.99.74-2.24 1.68-3.2 2.4.4.53.8 1.07 1.2 1.6.96-.72 2.21-1.65 3.2-2.4zM4 9c-1.1 0-2 .9-2 2v2c0 1.1.9 2 2 2h1v4h2v-4h1l5 3V6L8 9H4zm11.5 3c0-1.33-.58-2.53-1.5-3.35v6.69c.92-.81 1.5-2.01 1.5-3.34z"/></symbol><symbol id="right" viewBox="0 0 24 24"><path d="M9.29 15.88L13.17 12 9.29 8.12a.996.996 0 1 1 1.41-1.41l4.59 4.59c.39.39.39 1.02 0 1.41L10.7 17.3a.996.996 0 0 1-1.41 0c-.38-.39-.39-1.03 0-1.42z"/></symbol><symbol id="scheduled" viewBox="0 0 24 24"><path fill="none" d="M0 0h24v24H0V0z"/><path d="M17 3H7c-1.1 0-2 .9-2 2v16l7-3 7 3V5c0-1.1-.9-2-2-2z"/></symbol><symbol id="search" viewBox="0 0 24 24"><path fill="none" d="M0 0h24v24H0V0z"/><path d="M15.5 14h-.79l-.28-.27a6.5 6.5 0 0 0 1.48-5.34c-.47-2.78-2.79-5-5.59-5.34a6.505 6.505 0 0 0-7.27 7.27c.34 2.8 2.56 5.12 5.34 5.59a6.5 6.5 0 0 0 5.34-1.48l.27.28v.79l4.25 4.25c.41.41 1.08.41 1.49 0 .41-.41.41-1.08 0-1.49L15.5 14zm-6 0C7.01 14 5 11.99 5 9.5S7.01 5 9.5 5 14 7.01 14 9.5 11.99 14 9.5 14z"/></symbol><symbol id="send" viewBox="0 0 24 24"><path fill="none" d="M0 0h24v24H0V0z"/><path d="M3.4 20.4l17.45-7.48a1 1 0 0 0 0-1.84L3.4 3.6a.993.993 0 0 0-1.39.91L2 9.12c0 .5.37.93.87.99L17 12 2.87 13.88c-.5.07-.87.5-.87 1l.01 4.61c0 .71.73 1.2 1.39.91z"/></symbol><symbol id="start" viewBox="0 0 24 24"><path d="M12 2C6.48 2 2 6.48 2 12s4.48 10 10 10 10-4.48 10-10S17.52 2 12 2zm-2 13.5v-7a.5.5 0 0 1 .8-.4l4.67 3.5c.27.2.27.6 0 .8l-4.67 3.5a.5.5 0 0 1-.8-.4z"/></symbol><symbol id="task" viewBox="0 0 24 24"><path fill="none" d="M0 0h24v24H0V0z"/><path d="M19 3h-4.18C14.4 1.84 13.3 1 12 1s-2.4.84-2.82 2H5c-1.1 0-2 .9-2 2v14c0 1.1.9 2 2 2h14c1.1 0 2-.9 2-2V5c0-1.1-.9-2-2-2zm-7 0c.55 0 1 .45 1 1s-.45 1-1 1-1-.45-1-1 .45-1 1-1zM9.29 16.29L6.7 13.7a.996.996 0 1 1 1.41-1.41L10 14.17l5.88-5.88a.996.996 0 1 1 1.41 1.41l-6.59 6.59a.996.996 0 0 1-1.41 0z"/></symbol><symbol id="timelapse" viewBox="0 0 24 24"><path fill="none" d="M0 0h24v24H0V0z"/><path d="M16.24 7.76A5.974 5.974 0 0 0 12 6v6l-4.24 4.24c2.34 2.34 6.14 2.34 8.49 0a5.99 5.99 0 0 0-.01-8.48zM12 2C6.48 2 2 6.48 2 12s4.48 10 10 10 10-4.48 10-10S17.52 2 12 2zm0 18c-4.42 0-8-3.58-8-8s3.58-8 8-8 8 3.58 8 8-3.58 8-8 8z"/></symbol><symbol id="task-icon" viewBox="0 0 512 512"><path fill="#f0f7ff" d="M377 30H76c-8.284 0-15 6.714-15 15v437h216.412c14.09 17.457 48.979 30 68.588 30 24.443 0 46-19.991 46-45V45c0-8.286-6.716-15-15-15z"/><path fill="#dfe7f4" d="M346 512c24.443 0 46-19.991 46-45V45c0-8.286-6.716-15-15-15H226v452h51.412c14.09 17.457 48.979 30 68.588 30z"/><path fill="#613d5c" d="M482 106h-30l-30 15v30l30 15h30l30-15v-30z"/><path fill="#4b2746" d="M512 151v-30l-30-15h-15v60h15z"/><path fill="#ffe1ba" d="M487.156 361h-41.719L422 376c0 1.5.3 3.3.901 4.799l30 91c1.8 6 7.5 10.201 14.099 10.201s12.299-4.2 14.099-10.201l30-91C511.7 379.3 512 377.5 512 376z"/><path fill="#ffbfab" d="M481.099 471.799l30-91C511.7 379.3 512 377.5 512 376l-24.844-15H467v121c6.599 0 12.299-4.2 14.099-10.201z"/><path fill="#9cdd05" d="M166 181a14.948 14.948 0 0 1-10.605-4.395l-30-30c-5.859-5.859-5.859-15.352 0-21.211s15.352-5.859 21.211 0L166 144.789l19.395-19.395c5.859-5.859 15.352-5.859 21.211 0s5.859 15.352 0 21.211l-30 30A14.952 14.952 0 0 1 166 181zm0 90a14.948 14.948 0 0 1-10.605-4.395l-30-30c-5.859-5.859-5.859-15.352 0-21.211s15.352-5.859 21.211 0L166 234.789l19.395-19.395c5.859-5.859 15.352-5.859 21.211 0s5.859 15.352 0 21.211l-30 30A14.952 14.952 0 0 1 166 271zm0 90a14.948 14.948 0 0 1-10.605-4.395l-30-30c-5.859-5.859-5.859-15.352 0-21.211s15.352-5.859 21.211 0L166 324.789l19.395-19.395c5.859-5.859 15.352-5.859 21.211 0s5.859 15.352 0 21.211l-30 30A14.952 14.952 0 0 1 166 361z"/><path fill="#fabe2c" d="M467 151h-45v225h90V151z"/><path fill="#ff9100" d="M467 151h45v225h-45z"/><path fill="#ff641a" d="M467 61c-24.901 0-45 20.099-45 45v15h90v-15c0-24.901-20.099-45-45-45z"/><path fill="#f03800" d="M512 106c0-24.901-20.099-45-45-45v60h45z"/><path fill="#613d5c" d="M226 181h90c8.291 0 15-6.709 15-15s-6.709-15-15-15h-90c-8.291 0-15 6.709-15 15s6.709 15 15 15zm90 60h-90c-8.291 0-15 6.709-15 15s6.709 15 15 15h90c8.291 0 15-6.709 15-15s-6.709-15-15-15zm0 90h-90c-8.291 0-15 6.709-15 15s6.709 15 15 15h90c8.291 0 15-6.709 15-15s-6.709-15-15-15z"/><path fill="#4b2746" d="M331 166c0-8.291-6.709-15-15-15h-90v30h90c8.291 0 15-6.709 15-15zm0 90c0-8.291-6.709-15-15-15h-90v30h90c8.291 0 15-6.709 15-15zm0 90c0-8.291-6.709-15-15-15h-90v30h90c8.291 0 15-6.709 15-15z"/><path fill="#ff641a" d="M286 0H166c-8.291 0-15 6.709-15 15v30c0 8.291 6.709 15 15 15h120c8.291 0 15-6.709 15-15V15c0-8.291-6.709-15-15-15z"/><path fill="#f03800" d="M301 45V15c0-8.291-6.709-15-15-15h-60v60h60c8.291 0 15-6.709 15-15z"/><path fill="#dfe7f4" d="M301 467c0-8.286-6.716-15-15-15H15c-8.284 0-15 6.714-15 15v15c0 16.567 13.431 30 30 30h316c-24.901 0-45-20.101-45-45z"/><path fill="#c7cfe1" d="M301 467c0-8.286-6.716-15-15-15h-60v60h120c-24.901 0-45-20.101-45-45z"/></symbol><symbol id="timesheet" viewBox="0 0 24 24"><path fill="none" d="M0 0h24v24H0V0z"/><path d="M19 3h-4.18C14.4 1.84 13.3 1 12 1s-2.4.84-2.82 2H5c-1.1 0-2 .9-2 2v14c0 1.1.9 2 2 2h14c1.1 0 2-.9 2-2V5c0-1.1-.9-2-2-2zm-7 0c.55 0 1 .45 1 1s-.45 1-1 1-1-.45-1-1 .45-1 1-1zM9.29 16.29L6.7 13.7a.996.996 0 1 1 1.41-1.41L10 14.17l5.88-5.88a.996.996 0 1 1 1.41 1.41l-6.59 6.59a.996.996 0 0 1-1.41 0z"/></symbol><symbol id="today" viewBox="0 0 24 24"><path fill="none" d="M0 0h24v24H0V0z"/><path d="M19 4h-1V2h-2v2H8V2H6v2H5c-1.11 0-1.99.9-1.99 2L3 20a2 2 0 0 0 2 2h14c1.1 0 2-.9 2-2V6c0-1.1-.9-2-2-2zm0 16H5V10h14v10zm0-12H5V6h14v2zm-7 5h5v5h-5z"/></symbol><symbol id="view" viewBox="0 0 24 24"><path fill="none" d="M0 0h24v24H0V0z"/><path d="M12 4C7 4 2.73 7.11 1 11.5 2.73 15.89 7 19 12 19s9.27-3.11 11-7.5C21.27 7.11 17 4 12 4zm0 12.5c-2.76 0-5-2.24-5-5s2.24-5 5-5 5 2.24 5 5-2.24 5-5 5zm0-8c-1.66 0-3 1.34-3 3s1.34 3 3 3 3-1.34 3-3-1.34-3-3-3z"/></symbol><symbol id="waiting" viewBox="0 0 24 24"><path fill="none" d="M0 0h24v24H0z"/><path d="M12 2C6.5 2 2 6.5 2 12s4.5 10 10 10 10-4.5 10-10S17.5 2 12 2zm3.55 13.8l-4.08-2.51c-.3-.18-.48-.5-.48-.85V7.75c.01-.41.35-.75.76-.75s.75.34.75.75v4.45l3.84 2.31c.36.22.48.69.26 1.05-.22.35-.69.46-1.05.24z"/></symbol><symbol id="warning" viewBox="0 0 24 24"><path d="M4.47 21h15.06c1.54 0 2.5-1.67 1.73-3L13.73 4.99c-.77-1.33-2.69-1.33-3.46 0L2.74 18c-.77 1.33.19 3 1.73 3zM12 14c-.55 0-1-.45-1-1v-2c0-.55.45-1 1-1s1 .45 1 1v2c0 .55-.45 1-1 1zm1 4h-2v-2h2v2z"/></symbol><symbol id="week" viewBox="0 0 24 24"><path fill="none" d="M0 0h24v24H0V0z"/><path d="M20 3h-1V1h-2v2H7V1H5v2H4c-1.1 0-2 .9-2 2v16c0 1.1.9 2 2 2h16c1.1 0 2-.9 2-2V5c0-1.1-.9-2-2-2zm0 18H4V10h16v11zm0-13H4V5h16v3z"/></symbol><symbol id="archive-outline" viewBox="0 0 512 512"><path fill="none" stroke="currentColor" stroke-linecap="round" stroke-linejoin="round" stroke-width="32" d="M80 152v256a40.12 40.12 0 40 40 NaN NaN 40.12 40.12 0 40-40 NaN NaN"/><rect width="416" height="80" x="48" y="64" fill="none" stroke="currentColor" stroke-linejoin="round" stroke-width="32" rx="28" ry="28"/><path fill="none" stroke="currentColor" stroke-linecap="round" stroke-linejoin="round" stroke-width="32" d="M320 304l-64 64-64-64m64 41.89V224"/></symbol><symbol id="absence" viewBox="0 0 24 24"><style>.st0{fill:none}</style><path d="M11.5 20H3c-.5 0-1-.5-1-1v-1c0-2.7 5.6-4.1 8.4-4-.1.1-1.3 3.2 1.1 6z" class="st0"/><circle cx="10" cy="8" r="4" class="st0"/><path d="M11.5 20H3c-.5 0-1-.5-1-1v-1c0-2.7 5.6-4.1 8.4-4-.1.1-1.3 3.2 1.1 6z" class="st0"/><circle cx="10" cy="8" r="4" class="st0"/><circle cx="10" cy="8" r="4"/><path d="M10.4 14C7.6 13.9 2 15.3 2 18v1c0 .5.5 1 1 1h8.5c-2.4-2.8-1.2-5.9-1.1-6zm10.3 5.7c.4.4.4 1 0 1.3-.3.4-.9.4-1.3 0l-2.9-2.9-2.8 2.9c-.4.4-1 .4-1.3 0-.5-.4-.5-1-.1-1.4l2.9-2.8-2.9-2.8c-.4-.4-.4-1 0-1.3.4-.4 1-.4 1.3 0l2.9 2.9 3-3c.4-.4 1-.4 1.3 0 .4.4.4 1 0 1.3l-2.9 3 2.8 2.8z"/></symbol><symbol id="back" viewBox="0 0 24 24"><path fill="none" d="M0 0h24v24H0V0z"/><path d="M19 11H7.83l4.88-4.88c.39-.39.39-1.03 0-1.42a.996.996 0 0 0-1.41 0l-6.59 6.59a.996.996 0 0 0 0 1.41l6.59 6.59a.996.996 0 1 0 1.41-1.41L7.83 13H19c.55 0 1-.45 1-1s-.45-1-1-1z"/></symbol><symbol id="backup" viewBox="0 0 24 24"><path fill="none" d="M0 0h24v24H0V0z"/><path d="M19.35 10.04A7.49 7.49 0 0 0 12 4C9.11 4 6.6 5.64 5.35 8.04A5.994 5.994 0 0 0 0 14c0 3.31 2.69 6 6 6h13c2.76 0 5-2.24 5-5 0-2.64-2.05-4.78-4.65-4.96zM14 13v4h-4v-4H7l4.65-4.65c.2-.2.51-.2.71 0L17 13h-3z"/></symbol><symbol id="bag-outline" viewBox="0 0 24 24"><path fill="none" d="M0 0h24v24H0V0z"/><path d="M14 6V4h-4v2h4zM4 8v11h16V8H4zm16-2c1.11 0 2 .89 2 2v11c0 1.11-.89 2-2 2H4c-1.11 0-2-.89-2-2l.01-11c0-1.11.88-2 1.99-2h4V4c0-1.11.89-2 2-2h4c1.11 0 2 .89 2 2v2h4z"/></symbol><symbol id="bar" viewBox="0 0 24 24"><path fill="none" d="M0 0h24v24H0V0z"/><path d="M6.4 9.2h.2c.77 0 1.4.63 1.4 1.4v7c0 .77-.63 1.4-1.4 1.4h-.2c-.77 0-1.4-.63-1.4-1.4v-7c0-.77.63-1.4 1.4-1.4zM12 5c.77 0 1.4.63 1.4 1.4v11.2c0 .77-.63 1.4-1.4 1.4-.77 0-1.4-.63-1.4-1.4V6.4c0-.77.63-1.4 1.4-1.4zm5.6 8c.77 0 1.4.63 1.4 1.4v3.2c0 .77-.63 1.4-1.4 1.4-.77 0-1.4-.63-1.4-1.4v-3.2c0-.77.63-1.4 1.4-1.4z"/></symbol><symbol id="bubble" viewBox="0 0 24 24"><path fill="none" d="M0 0h24v24H0z"/><path d="M20 2H4c-1.1 0-2 .9-2 2v18l4-4h14c1.1 0 2-.9 2-2V4c0-1.1-.9-2-2-2z"/></symbol><symbol id="cancel" viewBox="0 0 24 24"><path fill="none" d="M0 0h24v24H0V0z" opacity=".87"/><path d="M12 2C6.47 2 2 6.47 2 12s4.47 10 10 10 10-4.47 10-10S17.53 2 12 2zm4.3 14.3a.996.996 0 0 1-1.41 0L12 13.41 9.11 16.3a.996.996 0 1 1-1.41-1.41L10.59 12 7.7 9.11A.996.996 0 1 1 9.11 7.7L12 10.59l2.89-2.89a.996.996 0 1 1 1.41 1.41L13.41 12l2.89 2.89c.38.38.38 1.02 0 1.41z"/></symbol><symbol id="cancel-appointment" viewBox="0 0 24 24"><path fill="none" d="M0 0h24v24H0V0z"/><path d="M9.84 16.47l1.91-1.91 1.91 1.91c.29.29.77.29 1.06 0 .29-.29.29-.77 0-1.06l-1.91-1.91 1.91-1.91c.29-.29.29-.77 0-1.06a.754.754 0 0 0-1.06 0l-1.91 1.91-1.91-1.91a.754.754 0 0 0-1.06 0c-.29.29-.29.77 0 1.06l1.91 1.91-1.91 1.91c-.29.29-.29.77 0 1.06.29.29.77.29 1.06 0zM19 3h-1V2c0-.55-.45-1-1-1s-1 .45-1 1v1H8V2c0-.55-.45-1-1-1s-1 .45-1 1v1H5c-1.11 0-1.99.9-1.99 2L3 19a2 2 0 0 0 2 2h14c1.1 0 2-.9 2-2V5c0-1.1-.9-2-2-2zm-1 16H6c-.55 0-1-.45-1-1V8h14v10c0 .55-.45 1-1 1z"/></symbol></svg>