<svg xmlns="http://www.w3.org/2000/svg" width="24" height="24" viewBox="0 0 24 24"><path d="M309.52 0H74.48c-8.837 0-16 7.163-16 16v309.28c0 8.837 7.163 16 16 16h24.88V376a8.001 8.001 0 0 0 14.08 5.2l17.6-20.48 17.6 20.48a8 8 0 0 0 14.08-5.2v-34.72h146.8c8.837 0 16-7.163 16-16V16c0-8.837-7.163-16-16-16zm-172.4 342.96a8 8 0 0 0-12.16 0l-9.6 11.2v-30.4a44.482 44.482 0 0 0 31.36 0v30.4l-9.6-11.2zm22.96-61.76c.001 16.091-12.95 29.185-29.04 29.36h-.32c-16.215 0-29.36-13.145-29.36-29.36s13.145-29.36 29.36-29.36 29.36 13.145 29.36 29.36zm149.04 44h-146.4v-11.6c17.929-17.496 18.28-46.215.784-64.144-17.496-17.929-46.215-18.28-64.144-.784-17.929 17.496-18.28 46.215-.784 64.144.258.265.519.526.784.784v11.6H74.48V16h235.04l-.4 309.2z"/><path d="M261.52 63.28H122.48a8 8 0 0 0 0 16h139.04a8 8 0 0 0 0-16zm0 46H122.48a8 8 0 0 0 0 16h139.04a8 8 0 0 0 0-16zm0 46H122.48a8 8 0 0 0 0 16h139.04a8 8 0 0 0 0-16zm0 46H122.48a8 8 0 0 0 0 16h139.04a8 8 0 0 0 0-16zm0 46H198a8 8 0 0 0 0 16h63.52a8 8 0 0 0 0-16z"/></svg>