<svg xmlns="http://www.w3.org/2000/svg" id="Layer_1" width="512" height="512" viewBox="0 0 512 512"><style>.st0{fill:#4285f4}</style><path d="M51.4 43.9v409.2h409.2V43.9H51.4zm239.7 356.6c-6.6 6.6-15.7 10.7-25.8 10.7H112.5c-20.1 0-36.4-16.3-36.4-36.4 0-10.1 4.1-19.2 10.7-25.8 6.6-6.6 15.7-10.7 25.8-10.7h152.8c20.1 0 36.4 16.3 36.4 36.4-.1 10.1-4.1 19.3-10.7 25.8zm134.1-122.1c-6.6 6.6-15.7 10.7-25.8 10.7H112.5c-20.1 0-36.4-16.3-36.4-36.4 0-10.1 4.1-19.2 10.7-25.8 6.6-6.6 15.7-10.7 25.8-10.7h286.9c20.1 0 36.4 16.3 36.4 36.4 0 10.1-4.1 19.2-10.7 25.8zm0-122.2c-6.6 6.6-15.7 10.7-25.8 10.7H112.5c-20.1 0-36.4-16.3-36.4-36.4 0-10.1 4.1-19.2 10.7-25.8C93.4 98 102.5 94 112.5 94h286.9c20.1 0 36.4 16.3 36.4 36.4.1 10.1-4 19.2-10.6 25.8z" class="st0"/></svg>