<svg xmlns="http://www.w3.org/2000/svg" width="512" height="512" viewBox="0 0 512 512"><path fill="#2a5699" d="M442.876 241.591c7.933 0 14.373-6.458 14.373-14.421 0-7.951-6.44-14.413-14.373-14.413H313.497v-28.822h129.379c7.933 0 14.373-6.457 14.373-14.415 0-7.956-6.44-14.414-14.373-14.414H313.497V54.21a14.33 14.33 0 0 0-5.198-11.073c-3.282-2.765-7.681-3.916-11.819-3.08L66.482 83.298c-6.788 1.266-11.731 7.233-11.731 14.151v317.103c0 6.917 4.917 12.888 11.731 14.154l229.997 43.243a13.5 13.5 0 0 0 2.646.26c3.334 0 6.582-1.155 9.172-3.315a14.385 14.385 0 0 0 5.199-11.098v-100.9h129.379c7.933 0 14.373-6.456 14.373-14.409 0-7.954-6.44-14.413-14.373-14.413H313.497v-28.831h129.379c7.933 0 14.373-6.459 14.373-14.414 0-7.96-6.44-14.414-14.373-14.414H313.497v-28.823h129.379z"/><path fill="#fff" d="M255.917 199.933l-14.376 129.753c-.749 6.598-5.925 11.876-12.507 12.684-.605.084-1.181.113-1.782.113-5.924 0-11.331-3.689-13.455-9.34l-29.674-79.331-29.669 79.331c-2.299 6.172-8.339 9.944-15.003 9.258-6.529-.696-11.762-5.771-12.68-12.315l-14.378-100.895c-1.122-7.844 4.343-15.16 12.19-16.29 7.876-1.146 15.151 4.357 16.271 12.228l6.412 45.086 23.377-62.528c4.194-11.244 22.711-11.244 26.937 0l22.017 58.861 7.736-69.818c.889-7.899 8.197-13.575 15.874-12.737 7.902.916 13.569 8.039 12.71 15.94z"/></svg>