<svg xmlns="http://www.w3.org/2000/svg" width="750.97" height="537.7" viewBox="0 0 750.97 537.7"><defs><radialGradient id="b" cx="121.06" cy="350.99" r="191.73" gradientTransform="matrix(-1.5207 -.03551 .03164 -1.3547 595.23 662.41)" gradientUnits="userSpaceOnUse"><stop offset="0" stop-color="#2bd712"/><stop offset="1" stop-color="#18ac00"/></radialGradient><radialGradient id="c" cx="332.03" cy="420.54" r="191.83" gradientTransform="matrix(1.5624 -.34577 .25158 1.1368 -472.54 49.913)" gradientUnits="userSpaceOnUse"><stop offset="0" stop-color="#2bd712"/><stop offset="1" stop-color="#18ac00"/></radialGradient><filter id="a" width="1.5" height="1.5" x="-.25" y="-.25" color-interpolation-filters="sRGB"><feGaussianBlur in="SourceAlpha" result="blur" stdDeviation="10"/><feColorMatrix result="bluralpha" values="1 0 0 0 0 0 1 0 0 0 0 0 1 0 0 0 0 0 0.5 0"/><feOffset dx="5" dy="5" in="bluralpha" result="offsetBlur"/><feMerge><feMergeNode in="offsetBlur"/><feMergeNode in="SourceGraphic"/></feMerge></filter></defs><g stroke="#098400" stroke-linecap="round" stroke-width="3" filter="url(#a)" transform="translate(91.627 -120.716)"><path fill="url(#b)" d="M364.44 158.62l-62.125 62.344 85.406-.125c-.042 52.221-42.4 94.525-94.625 94.5-31.284-.015-59.014-15.215-76.219-38.625l-2.863-3.57-57.23 55.008c31.77 40.28 81 66.16 136.28 66.188 95.86.046 173.61-77.64 173.66-173.5v-.125l70.53-.125-108.28-107.91-8.562-7.648z" transform="translate(-4.566 172.96)"/><path fill="url(#c)" d="M207.85 447.55l62.125-62.344-85.406.125c.042-52.221 42.4-94.525 94.625-94.5 31.284.015 59.014 15.215 76.219 38.625l2.7 3.821 57.583-55.133c-31.771-40.28-81.19-66.287-136.47-66.314-95.861-.046-173.61 77.64-173.66 173.5v.125l-70.531.125 108.28 107.91 8.563 7.649z"/></g></svg>