<svg xmlns="http://www.w3.org/2000/svg" id="Layer_1" width="200" height="200" viewBox="0 0 200 200"><defs><style>.cls-1{fill:#fff}</style></defs><path d="M97.36 143.16l-1-.61q-5.13-3.27-10-6.94t-9.54-7.82q-5.31-4.79-10.21-10.05a151 151 0 0 1-20.06-27 151 151 0 0 1-9-18.15A153.88 153.88 0 0 1 31 53l.07.08a1.33 1.33 0 0 0-.05-.19q-1.86-7.11-3-14.5v-.12l-.27-1.72c-.13-.94-.26-1.89-.37-2.83q2.93.68 5.75 1.53h.15l1 .29a93.44 93.44 0 0 1 11.73 4.55l.16.07q.31.13.63.3l.17.08a11.5 11.5 0 0 1 2.94 2.31c.12.14.24.27.35.42a10.94 10.94 0 0 1 1.72 10.94c-.22.43-.43.87-.62 1.32a10.58 10.58 0 0 0 .62-1.32 29.83 29.83 0 0 1 3.82-5.8l.3-.41a2.46 2.46 0 0 1 1.35-.63 2.61 2.61 0 0 1 1.66.3l.38.26a94.12 94.12 0 0 1 13.12 11c.25.26.51.51.75.77a4.31 4.31 0 0 1 .85 2 2.85 2.85 0 0 1 0 .41v.72a29 29 0 0 1-5.62 16l-1.83 2.24a28.74 28.74 0 0 0 1.83-2.24 28.94 28.94 0 0 1 11.49-7.78l.6-.2a.38.38 0 0 1 .1 0 2.61 2.61 0 0 1 2.5.93c.07.1.13.2.2.29a94.63 94.63 0 0 1 10.34 19.5 79.63 79.63 0 0 1 2 5.81l.39 1.28A4.43 4.43 0 0 1 96 101c-.06.1-.1.2-.15.3a.59.59 0 0 0 0 .08 29.13 29.13 0 0 1-9.86 11.42 15.79 15.79 0 0 0-1.46.94c.49-.3 1-.61 1.46-.94a18 18 0 0 1 7.26-2.3 18.43 18.43 0 0 1 3.64 0h.32a2.62 2.62 0 0 1 2.12 2v.18a2 2 0 0 1 0 .24c0 .36.1.72.14 1.08.09.75.17 1.51.24 2.26a1 1 0 0 1 0 .17v.48l.06.73v9.54c0 1.1-.07 2.2-.14 3.31 0 .54-.06 1.09-.11 1.65s-.09 1.11-.14 1.66-.12 1.23-.19 1.85c0 .39-.09.77-.14 1.16a1.53 1.53 0 0 0 .64 1.35 151.74 151.74 0 0 0 68 18.85h1a4.28 4.28 0 0 1 2 .83 4.41 4.41 0 0 1 1.79 3.73c0 .42-.8 4.22-.84 4.38q-1.45-.06-2.91-.15l-1.73.2a151.66 151.66 0 0 1-68.78-22.28" class="cls-1"/></svg>