<svg xmlns="http://www.w3.org/2000/svg" id="Layer_1" width="768" height="768" viewBox="0 0 768 768"><style>.st0{fill:#3a2991}.st1{fill:#fff}</style><path d="M634.7 509.2v128.1H482.4v96.1H354.2v-96.1h-92.7v96.1H133.3V403.6h128.2v105.6h92.7V403.6h128.2v105.6zm-378.9-442l-9 9-53 53-60.5 60.4v-42.8L213 67.2zm-85.2-.4l-36 35.9V66.8zm204.9-32.2l-114 114.1-87.4 87.4-40.7 40.7V234l37.6-37.6 90.5-90.5 63.8-63.8c16.5-4.1 33.3-6.6 50.2-7.5zm-96.8 134.2C270.6 179.7 266 192 266 205c0 5.7.9 11.3 2.6 16.7l-7.1 7.1-61.8 61.8-66.4 66.4v-42.9l50.3-50.3 77.8-77.8 17.3-17.2zM450.2 40l-83 83c-28.1 4.1-52.7 14.1-70.7 27.9L412.7 34.8c12.6.9 25.1 2.6 37.5 5.2z" class="st0"/><path d="M306.6 266l-45.2 45.2-92.4 92.4h-35.7v-7.1l128.1-128.1 21.7-21.7c6.9 7.5 14.8 14 23.5 19.3zM511.5 61.1l-66.1 66.2c-12.1-3.2-24.5-5.1-36.9-5.9l72.8-72.8c10.3 3.5 20.5 7.7 30.2 12.5zM369.1 287.2L252.7 403.6h-42.8l51.5-51.6 5.1-5.1 68-68c11.3 3.9 22.9 6.7 34.6 8.3zM561.4 94.9L501 155.3c-7.8-6.8-16.5-12.5-25.8-17l62.2-62.2c8.5 5.7 16.5 11.9 24 18.8zM404 288.8c17.7-.6 35.3-3.7 52.1-9.3l-95.9 95.9c-12.2-1.3-24.3-3.5-36.3-6.5l80.1-80.1zm122-79.1c.1-1.5.2-3.1.2-4.7-.1-10.5-3-20.9-8.5-29.9l61.5-61.5c6.6 7.9 12.3 16.5 17.3 25.5L526 209.7zm87.7-8.5L442.1 372.8c-15.6 2.8-31.4 4.2-47.2 4.4l212.5-212.5c3.7 11.9 5.9 24.1 6.3 36.5zm-2.9 32.4c-12.2 57.8-61.8 105.9-128.9 128.9l128.9-128.9z" class="st0"/><path d="M148.4 519.3h469.9v9.8H148.4zm0 98.3h469.9v9.8H148.4z" class="st1"/></svg>