<svg xmlns="http://www.w3.org/2000/svg" width="159.61" height="159.61" version="1" viewBox="0 0 159.61 159.61"><defs><linearGradient id="b" x1="264.58" x2="380.68" y1="296.37" y2="553.74" gradientTransform="matrix(.31227 0 0 .32049 127.55 434.38)" gradientUnits="userSpaceOnUse"><stop offset="0" stop-color="#fff"/><stop offset="1" stop-color="red"/></linearGradient><linearGradient id="a" x1="249.48" x2="272.03" y1="262.87" y2="427.54" gradientTransform="matrix(-.30163 .08082 -.08295 -.30957 402.86 730.11)" gradientUnits="userSpaceOnUse"><stop offset="0" stop-color="#fff"/><stop offset="1" stop-color="red"/></linearGradient></defs><path fill="red" fill-rule="evenodd" stroke="#cb0000" stroke-width="5.56" d="M148.852 79.809a69.044 69.044 0 1 1-138.087 0 69.044 69.044 0 1 1 138.087 0z"/><path fill="url(#a)" fill-rule="evenodd" d="M264.19 668.93c19.05-5.1 34.17-17.66 43.23-33.82 14.71-34.82-40.17 46.7-85.49 31.89 13.17 4.83 27.81 5.8 42.26 1.93z" transform="matrix(.9 0 0 .9 -141.18 -460.813)"/><path fill="url(#b)" fill-rule="evenodd" d="M245.66 529.36c-39.44 0-71.44 32.85-71.44 73.32 0 5.48.6 10.81 1.71 15.94 39.21-75.47 81.45-27.96 135.91-43.55-10.64-26.8-36.26-45.71-66.18-45.71z" transform="matrix(.9 0 0 .9 -141.18 -460.813)"/><path fill="#fff" d="M99.498 115.223L79.986 95.711l-19.692 19.692L44.211 99.32l19.692-19.701-19.512-19.512 15.66-15.66 19.512 19.512 19.755-19.755 16.092 16.092-19.764 19.755 19.512 19.512-15.66 15.66" opacity=".74"/><path fill="#fff" d="M99.39 112.496L79.959 93.065l-19.584 19.584-13.41-13.419 19.584-19.575-19.431-19.431 13.059-13.059 19.422 19.431 19.638-19.629 13.41 13.41-19.629 19.629 19.422 19.431-13.05 13.059"/></svg>