<?xml version="1.0" encoding="utf-8"?>
<!-- Generator: Adobe Illustrator 25.0.1, SVG Export Plug-In . SVG Version: 6.00 Build 0)  -->
<svg version="1.1" id="Layer_1" xmlns="http://www.w3.org/2000/svg" xmlns:xlink="http://www.w3.org/1999/xlink" x="0px" y="0px"
	 viewBox="0 0 763.2 469.7" style="enable-background:new 0 0 763.2 469.7;" xml:space="preserve">
<style type="text/css">
	.st0{opacity:4.000000e-02;fill:#010101;stroke:#010101;stroke-miterlimit:10;enable-background:new    ;}
	.st1{fill:#ECECEC;}
	.st2{opacity:8.000000e-02;fill:#010101;enable-background:new    ;}
	.st3{fill:#3F4347;}
	
		.st4{opacity:0.36;fill:none;stroke:#3F4347;stroke-width:3.63;stroke-linecap:round;stroke-miterlimit:10;enable-background:new    ;}
	.st5{fill:#FFE458;}
	.st6{fill:#FFCD44;}
	.st7{opacity:4.000000e-02;fill:#010101;stroke:#010101;stroke-width:1.4;stroke-miterlimit:10;enable-background:new    ;}
	.st8{opacity:4.000000e-02;fill:#010101;stroke:#010101;stroke-width:0.94;stroke-miterlimit:10;enable-background:new    ;}
	.st9{opacity:4.000000e-02;fill:#010101;stroke:#010101;stroke-width:0.88;stroke-miterlimit:10;enable-background:new    ;}
</style>
<path class="st0" d="M110.1,269.5c-0.7,0-1.4,0-2.1,0.1c-2.2-7.5-10.1-11.8-17.6-9.6c-0.2,0.1-0.5,0.1-0.7,0.2
	c-4.3-9.4-15.4-13.5-24.8-9.2C58.2,254,54,260.7,54,268c0,1.5,0.2,3,0.6,4.5c-8.6,1.3-14.5,9.4-13.2,18c1.2,7.7,7.8,13.4,15.5,13.4
	h53.2c9.5,0,17.2-7.7,17.2-17.2C127.3,277.2,119.6,269.5,110.1,269.5L110.1,269.5z"/>
<path class="st0" d="M718.6,292c-0.7,0-1.4,0-2.1,0.1c-2.2-7.5-10.1-11.8-17.6-9.6c-0.2,0.1-0.5,0.1-0.7,0.2
	c-4.4-9.4-15.5-13.5-24.9-9.1c-6.6,3.1-10.8,9.6-10.8,16.9c0,1.5,0.2,3,0.6,4.5c-8.6,1.3-14.5,9.4-13.2,18
	c1.2,7.7,7.8,13.4,15.5,13.4h53.2c9.5,0,17.2-7.7,17.2-17.2C735.8,299.7,728.1,292,718.6,292z"/>
<path class="st1" d="M482.1,141.3c-1.9,0-3.8,0.2-5.7,0.4c-5.1-16.6-20.4-28-37.8-28c-4.3,0-8.6,0.7-12.6,2
	c-11.9-25.8-42.4-37-68.2-25.1c-18.3,8.4-29.9,26.8-29.8,46.9c0,4.1,0.5,8.3,1.5,12.3c-23.7,3.6-40.1,25.7-36.5,49.5
	c3.2,21.2,21.3,36.8,42.7,37h146.4c26.2,0,47.5-21.3,47.5-47.5S508.4,141.3,482.1,141.3L482.1,141.3z"/>
<path class="st2" d="M529.6,189.4c0,26.2-21.1,47.4-47.3,47.5c-0.1,0-0.1,0-0.2,0H335.7c-13.3,0-25.9-6.2-34-16.7
	c7.6,5.9,16.9,9.1,26.4,9.1h146.4c26.2,0,47.5-21.2,47.5-47.4c0-10.7-3.6-21.2-10.3-29.6C523,161.2,529.6,174.9,529.6,189.4z"/>
<path class="st3" d="M384.4,173.4c0,7.6-6.7,13.9-15,13.9s-15-6.2-15-13.9c0-1.6,0.3-3.1,0.9-4.6c3.4,7.8,12.6,11.3,20.4,7.9
	c3.5-1.6,6.3-4.4,7.9-7.9C384.1,170.2,384.4,171.8,384.4,173.4z"/>
<path class="st3" d="M446.6,173.4c0,7.6-6.7,13.9-15,13.9s-15-6.2-15-13.9c0-1.6,0.3-3.1,0.9-4.6c3.4,7.8,12.6,11.3,20.4,7.9
	c3.5-1.6,6.3-4.4,7.9-7.9C446.3,170.2,446.6,171.8,446.6,173.4z"/>
<path class="st3" d="M382,201.1h34.8c1.5,0,2.7,1.2,2.7,2.7v1.7c0,1.5-1.2,2.7-2.7,2.7H382c-1.5,0-2.7-1.2-2.7-2.7v-1.7
	C379.2,202.4,380.4,201.1,382,201.1z"/>
<path class="st4" d="M416.6,148.7c2.9,6,7.9,10.6,14.1,13c4.2,1.5,8.8,1.8,13.2,0.9"/>
<path class="st4" d="M383.1,148.7c-2.9,6-7.9,10.6-14.1,13c-4.2,1.5-8.8,1.8-13.2,0.9"/>
<path class="st5" d="M404.7,349.9h-32.3c-4.2,0-8.4,0-12.6,0c-6.3-0.1-8.4-3-6.1-8.9c10.1-26.2,20.2-52.4,30.4-78.5
	c1-2.7,2.1-5.4,3.1-8.1c0.8-2.7,3.4-4.5,6.3-4.3c15.1,0.1,30.2,0,45.3,0c5.6,0,7.7,3.4,5.4,8.6l-17.5,39.6c-0.7,1.5-1.3,3.1-2.1,5.2
	c1.8,0.1,3.1,0.2,4.5,0.2c11.3,0,22.6-0.1,33.9,0.1c2.1,0,5.1,1.1,5.9,2.6c0.9,1.7,0.4,5-0.7,6.8c-23.3,36.6-46.8,73.2-70.3,109.7
	c-1.7,2.6-3.7,4.7-7.1,3.3c-3.8-1.5-3.6-4.7-2.8-8c5.3-21.2,10.6-42.5,15.9-63.7C404.1,353.2,404.3,351.8,404.7,349.9z"/>
<path class="st6" d="M416.3,250.2c-7.9,0-15.7,0-23.6,0c0.2,0,0.5,0,0.8,0c15.1,0.1,30.2,0,45.3,0c5.6,0,7.7,3.4,5.4,8.6
	c-5.8,13.2-11.6,26.4-17.5,39.6c-0.7,1.5-1.3,3.1-2.1,5.2c1.6,0.1,2.8,0.2,4,0.2c-7.3,0-14.6,0-22,0c-1.4,0-2.7-0.1-4.5-0.2
	c0.9-2.1,1.4-3.6,2.1-5.2c5.8-13.2,11.6-26.4,17.5-39.6C424,253.5,421.9,250.2,416.3,250.2z"/>
<path class="st6" d="M468.1,313.2c-23.3,36.6-46.8,73.2-70.3,109.7c-1.7,2.6-3.7,4.7-7,3.3c-3.8-1.5-3.6-4.7-2.8-8
	c2-8.1,4-16.3,6.1-24.4c17.3-26.8,34.5-53.7,51.6-80.6c1.1-1.8,1.6-5,0.7-6.8c-0.8-1.5-3.8-2.5-5.9-2.6c-3.4-0.1-6.9-0.1-10.3-0.1
	c10.9,0,21.9-0.1,32.8,0.1c2.1,0,5.2,1.1,5.9,2.6C469.6,308.2,469.2,311.4,468.1,313.2z"/>
<path class="st7" d="M173.4,153.9c2.3,2.5,2.2,6.4-0.3,8.7c-2.4,2.2-6,2.2-8.4,0l-15.5-15.5l-15.5,15.5c-2.4,2.4-6.3,2.4-8.7,0
	c-1.2-1.2-1.8-2.7-1.8-4.4c0-1.6,0.6-3.2,1.8-4.4l15.5-15.5l-15.5-15.5c-2.4-2.4-2.4-6.3,0-8.7s6.3-2.4,8.7,0l15.5,15.5l15.5-15.5
	c2.5-2.3,6.4-2.2,8.7,0.3c2.2,2.4,2.2,6,0,8.4l-15.5,15.5L173.4,153.9z"/>
<path class="st8" d="M248.2,266.7c1.7,1.6,1.8,4.2,0.2,5.9s-4.2,1.8-5.9,0.2c-0.1-0.1-0.1-0.1-0.2-0.2l-10.5-10.5l-10.5,10.5
	c-1.7,1.6-4.3,1.5-5.9-0.2c-1.5-1.6-1.5-4.1,0-5.7l10.5-10.5l-10.5-10.5c-1.6-1.7-1.5-4.3,0.2-5.9c1.6-1.5,4.1-1.5,5.7,0l10.5,10.5
	l10.5-10.5c1.6-1.6,4.3-1.6,5.9,0c0.8,0.8,1.2,1.8,1.2,2.9c0,1.1-0.4,2.2-1.2,2.9l-10.5,10.5L248.2,266.7z"/>
<path class="st7" d="M596.7,248.4c2.3,2.5,2.2,6.4-0.3,8.7c-2.4,2.2-6,2.2-8.4,0l-15.5-15.5L557,257.1c-2.4,2.4-6.3,2.4-8.7,0
	c-1.2-1.2-1.8-2.7-1.8-4.4c0-1.6,0.6-3.2,1.8-4.4l15.5-15.5l-15.5-15.5c-2.4-2.5-2.3-6.4,0.2-8.7c2.4-2.3,6.2-2.3,8.5,0l15.5,15.5
	l15.5-15.5c2.5-2.3,6.4-2.2,8.7,0.3c2.2,2.4,2.2,6,0,8.4l-15.5,15.5L596.7,248.4z"/>
<path class="st9" d="M594.5,63.3c1.5,1.5,1.5,4,0,5.5c-1.5,1.5-4,1.5-5.5,0l-9.7-9.7l-9.7,9.7c-1.5,1.5-4,1.5-5.5,0
	c-1.5-1.5-1.5-4,0-5.5l0,0l9.7-9.7l-9.7-9.7c-1.5-1.5-1.5-4,0-5.5s4-1.5,5.5,0l9.7,9.7l9.7-9.7c1.5-1.5,4-1.5,5.5,0s1.5,4,0,5.5
	l-9.7,9.7L594.5,63.3z"/>
<path class="st9" d="M316.4,64.2c1.5,1.5,1.5,4,0,5.5c-1.5,1.5-4,1.5-5.5,0l-9.7-9.7l-9.7,9.7c-1.6,1.4-4,1.3-5.4-0.3
	c-1.3-1.5-1.3-3.7,0-5.1l9.7-9.7l-9.7-9.7c-1.5-1.5-1.5-4,0-5.5c1.5-1.5,4-1.5,5.5,0l0,0l9.7,9.8l9.7-9.7c1.5-1.5,4-1.5,5.5,0
	c1.5,1.5,1.5,4,0,5.5l0,0l-9.7,9.7L316.4,64.2z"/>
</svg>
