<?xml version="1.0" encoding="utf-8"?>
<!-- Generator: Adobe Illustrator 25.0.1, SVG Export Plug-In . SVG Version: 6.00 Build 0)  -->
<svg version="1.1" id="Layer_1" xmlns="http://www.w3.org/2000/svg" xmlns:xlink="http://www.w3.org/1999/xlink" x="0px" y="0px"
	 viewBox="0 0 760.9 475.7" style="enable-background:new 0 0 760.9 475.7;" xml:space="preserve">
<style type="text/css">
	.st0{fill:#E0DEDF;}
	.st1{opacity:4.000000e-02;fill:#010101;stroke:#010101;stroke-miterlimit:10;enable-background:new    ;}
	.st2{opacity:8.000000e-02;fill:none;stroke:#010101;stroke-width:3;stroke-miterlimit:10;enable-background:new    ;}
	.st3{fill:#FFE458;}
	.st4{fill:#FFCD44;}
	.st5{fill:#ECECEC;}
	.st6{opacity:8.000000e-02;fill:#302E41;enable-background:new    ;}
	.st7{opacity:0.36;fill:#3F4347;enable-background:new    ;}
	.st8{fill:#3F4347;}
	.st9{opacity:8.000000e-02;}
	.st10{fill:#302E41;}
</style>
<ellipse class="st0" cx="373.4" cy="432.7" rx="151.3" ry="22.3"/>
<path class="st1" d="M695.3,40.6c-1,0-2,0.1-3,0.2c-2.7-8.8-10.8-14.8-20-14.8c-2.3,0-4.5,0.4-6.7,1.1
	c-6.3-13.6-22.5-19.5-36.1-13.2c-9.6,4.5-15.8,14.1-15.7,24.7c0,2.2,0.3,4.4,0.8,6.5c-12.5,2-21.1,13.8-19,26.4
	c1.8,11,11.2,19.1,22.3,19.3h77.4c13.9,0,25.1-11.2,25.1-25.1S709.2,40.6,695.3,40.6z"/>
<path class="st2" d="M695.3,40.6c-1,0-2,0.1-3,0.2c-2.7-8.8-10.8-14.8-20-14.8c-2.3,0-4.5,0.4-6.7,1.1
	c-6.3-13.6-22.5-19.5-36.1-13.2c-9.6,4.5-15.8,14.1-15.7,24.7c0,2.2,0.3,4.4,0.8,6.5c-12.5,2-21.1,13.8-19,26.4
	c1.8,11,11.2,19.1,22.3,19.3h77.4c13.9,0,25.1-11.2,25.1-25.1S709.2,40.6,695.3,40.6z"/>
<circle class="st3" cx="131.5" cy="80.9" r="28.9"/>
<g>
	<path class="st4" d="M151.8,101.2c-6.3,6.3-15.2,9.4-24.1,8.2c15.8-2,27-16.5,25-32.3c-1.7-13.1-12-23.3-25.1-25
		c15.8-2,30.3,9.2,32.4,25C161.1,86,158.1,94.9,151.8,101.2z"/>
	<path class="st4" d="M97.6,76.7c-0.2,2-0.3,4-0.2,6c0.1,1.3-0.9,2.5-2.2,2.6c-0.4,0-0.8,0-1.1-0.2L85,81.5c-1.3-0.5-1.9-2-1.3-3.2
		c0.3-0.6,0.8-1.1,1.4-1.4l9.3-3c1.4-0.3,2.8,0.5,3.1,1.9C97.6,76.1,97.6,76.4,97.6,76.7z"/>
	<path class="st4" d="M107.5,105.2l1.4,1.4c1,1,1,2.5,0.1,3.5c-0.2,0.2-0.5,0.4-0.8,0.6l-8.8,3.9c-1.2,0.5-2.6,0-3.2-1.2
		c-0.3-0.7-0.3-1.5,0.1-2.1l4.4-8.6c0.6-1.2,2-1.7,3.2-1.1c0.4,0.2,0.7,0.4,0.9,0.8C105.6,103.2,106.5,104.2,107.5,105.2z"/>
	<path class="st4" d="M101.6,45.1l8.6,4.4c1.2,0.6,1.7,2,1.1,3.2c-0.2,0.4-0.4,0.7-0.8,0.9c-1.1,0.8-2.1,1.7-3,2.7l-1.4,1.4
		c-1,1-2.6,1-3.6,0c-0.2-0.2-0.4-0.4-0.5-0.7l-3.9-8.9c-0.4-1.3,0.3-2.7,1.5-3.1C100.3,44.8,101,44.8,101.6,45.1z"/>
	<path class="st4" d="M136.3,118.6l-3.5,9.1c-0.5,1.3-2,1.9-3.2,1.3c-0.6-0.3-1.1-0.8-1.4-1.4l-3-9.3c-0.4-1.3,0.3-2.6,1.5-3
		c0.3-0.1,0.7-0.1,1.1-0.1c2,0.2,4,0.3,6,0.2c1.3-0.2,2.4,0.6,2.7,1.9C136.5,117.8,136.4,118.2,136.3,118.6z"/>
	<path class="st4" d="M135.7,34.1l3,9.3c0.4,1.3-0.3,2.6-1.5,3c-0.3,0.1-0.7,0.1-1.1,0.1c-2-0.2-4-0.3-6-0.2
		c-1.3,0.1-2.5-0.9-2.6-2.2c0-0.4,0-0.8,0.2-1.1l3.5-9.1c0.5-1.2,1.9-1.8,3.1-1.3C134.9,32.9,135.5,33.4,135.7,34.1z"/>
	<path class="st4" d="M161.8,104.5l3.9,8.9c0.5,1.2,0,2.6-1.2,3.2c-0.7,0.3-1.5,0.3-2.1-0.1l-8.7-4.5c-1.2-0.6-1.7-2-1.1-3.2
		c0.2-0.4,0.4-0.7,0.8-0.9c1.1-0.8,2.1-1.7,3-2.7l1.4-1.4c0.9-1,2.4-1.1,3.4-0.2C161.4,103.9,161.6,104.2,161.8,104.5z"/>
	<path class="st4" d="M156.4,56.4L155,55c-1-1-1-2.5-0.1-3.5c0.2-0.2,0.5-0.4,0.8-0.6l8.9-3.9c1.2-0.5,2.6,0,3.2,1.2
		c0.3,0.7,0.3,1.5-0.1,2.1l-4.4,8.6c-0.6,1.2-2,1.7-3.2,1.1c-0.4-0.2-0.7-0.4-0.9-0.8C158.3,58.3,157.4,57.3,156.4,56.4z"/>
	<path class="st4" d="M166.3,84.9c0.2-2,0.3-4,0.2-6c-0.1-1.3,0.9-2.5,2.2-2.6c0.4,0,0.8,0,1.1,0.2l9.1,3.5c1.3,0.5,1.9,2,1.3,3.2
		c-0.3,0.6-0.8,1.1-1.4,1.4l-9.3,3c-1.3,0.4-2.7-0.3-3.1-1.6C166.2,85.6,166.2,85.3,166.3,84.9z"/>
</g>
<path class="st1" d="M104.6,141.7c-0.7,0-1.4,0-2.1,0.1c-2.2-7.5-10.1-11.8-17.6-9.6c-0.2,0.1-0.5,0.1-0.7,0.2
	c-4.4-9.4-15.5-13.5-24.9-9.1c-6.6,3.1-10.8,9.6-10.8,16.9c0,1.5,0.2,3,0.6,4.5c-8.6,1.3-14.5,9.4-13.2,18
	c1.2,7.7,7.8,13.4,15.5,13.4h53.2c9.5,0,17.2-7.7,17.2-17.2S114.1,141.7,104.6,141.7L104.6,141.7L104.6,141.7z"/>
<path class="st2" d="M104.6,141.7c-0.7,0-1.4,0-2.1,0.1c-2.2-7.5-10.1-11.8-17.6-9.6c-0.2,0.1-0.5,0.1-0.7,0.2
	c-4.4-9.4-15.5-13.5-24.9-9.1c-6.6,3.1-10.8,9.6-10.8,16.9c0,1.5,0.2,3,0.6,4.5c-8.6,1.3-14.5,9.4-13.2,18
	c1.2,7.7,7.8,13.4,15.5,13.4h53.2c9.5,0,17.2-7.7,17.2-17.2S114.1,141.7,104.6,141.7L104.6,141.7L104.6,141.7z"/>
<path class="st5" d="M376.7,58.6c-76.2,0-138,61.8-137.9,138.1c0,45.5,22.4,88,59.9,113.7l11.5,16.3l66.4,94.4l66.4-94.4l11.5-16.3
	c37.6-25.7,60-68.3,60-113.8C514.7,120.4,452.9,58.6,376.7,58.6z M418.2,232.3c-19.8,22.9-54.3,25.4-77.2,5.7
	c-22.9-19.8-25.4-54.3-5.7-77.2s54.3-25.4,77.2-5.7c12.1,10.4,19,25.6,19,41.5C431.5,209.7,426.8,222.4,418.2,232.3L418.2,232.3z"/>
<path class="st6" d="M514.2,184.8c-7,88.6-86.4,159.6-186.3,167l48.8,69.4l66.4-94.4l11.5-16.3c37.6-25.7,60.1-68.3,60.1-113.8
	C514.7,192.6,514.5,188.6,514.2,184.8z"/>
<path class="st7" d="M376.7,58.6c76.2,0,138,61.8,137.9,138.1c0,45.5-22.4,88-59.9,113.7l-11.5,16.3l-66.4,94.4l-66.4-94.4
	l-11.5-16.3c-62.9-43.1-78.9-129-35.7-191.9C288.8,81.1,331.3,58.7,376.7,58.6 M376.7,251.4c30.3,0.1,55-24.5,55.1-54.8
	s-24.5-55-54.8-55.1c-30.3-0.1-55,24.5-55.1,54.8c0,13.2,4.7,26,13.3,36C345.6,244.4,360.7,251.4,376.7,251.4 M376.7,51.6
	c-80.1,0-145,64.9-145,145c0,47.4,23.2,91.8,62,118.9l10.8,15.3l66.4,94.4c2.2,3.1,6.5,3.9,9.6,1.8c0.7-0.5,1.3-1.1,1.8-1.8
	l66.4-94.4l10.8-15.3c65.6-45.8,81.7-136.2,35.9-201.8c-4.9-7-10.4-13.6-16.4-19.6C452,66.8,415.1,51.4,376.7,51.6z M376.7,244.4
	c-26.4,0-47.8-21.4-47.8-47.8s21.4-47.8,47.8-47.8s47.8,21.4,47.8,47.8l0,0C424.4,223,403.1,244.3,376.7,244.4z"/>
<path class="st8" d="M213.6,330.2L511.2,32.6c7.9-7.9,20.8-7.9,28.7,0l0,0c7.9,7.9,7.9,20.8,0,28.7L242.3,358.9
	c-7.9,7.9-20.8,7.9-28.7,0l0,0C205.7,351,205.7,338.1,213.6,330.2z"/>
<g class="st9">
	<path class="st10" d="M370.7,251.6l-66.6,66.6l-51.4,51.4c-7.9,7.9-20.8,7.9-28.7,0c-3.8-3.8-5.9-8.9-5.9-14.3s2.1-10.5,5.9-14.3
		l109.9-109.9l1.5,1.8C344.4,243.4,357,250,370.7,251.6z"/>
	<path class="st10" d="M556.2,57.7c0,5.4-2.1,10.5-5.9,14.3L431.4,190.9c-1.7-14.5-9-27.8-20.5-36.9L521.6,43.3
		c7.9-7.9,20.8-7.9,28.7,0C554.1,47.1,556.2,52.3,556.2,57.7z"/>
</g>
</svg>
