<?xml version="1.0" encoding="utf-8"?>
<!-- Generator: Adobe Illustrator 25.0.1, SVG Export Plug-In . SVG Version: 6.00 Build 0)  -->
<svg version="1.1" id="Layer_1" xmlns="http://www.w3.org/2000/svg" xmlns:xlink="http://www.w3.org/1999/xlink" x="0px" y="0px"
	 viewBox="0 0 760.9 373.7" style="enable-background:new 0 0 760.9 373.7;" xml:space="preserve">
<style type="text/css">
	.st0{fill:#FFE458;}
	.st1{fill:#FFCD44;}
	.st2{fill:#F4F5F5;}
	.st3{opacity:4.000000e-02;stroke:#000000;stroke-miterlimit:10;enable-background:new    ;}
	.st4{fill:none;}
	.st5{fill:#F5F5F5;}
	.st6{fill:#E0E0E0;}
	.st7{opacity:4.000000e-02;}
	.st8{fill:none;stroke:#000000;stroke-miterlimit:10;}
	.st9{stroke:#000000;stroke-miterlimit:10;}
	.st10{fill:#ECEDED;}
	.st11{fill:#9BC7EE;stroke:#72B4EE;stroke-width:3;stroke-miterlimit:10;}
	.st12{opacity:8.000000e-02;fill:#302E41;enable-background:new    ;}
</style>
<g>
	<circle class="st0" cx="121.5" cy="66.6" r="28.9"/>
	<g>
		<path class="st1" d="M141.8,86.9c-6.3,6.3-15.2,9.4-24.1,8.2c15.8-2,27-16.5,25-32.3c-1.7-13.1-12-23.3-25.1-25
			c15.8-2,30.3,9.2,32.4,25C151.1,71.7,148.1,80.6,141.8,86.9z"/>
		<path class="st1" d="M87.6,62.4c-0.2,2-0.3,4-0.2,6c0.1,1.3-0.9,2.5-2.2,2.6c-0.4,0-0.8,0-1.1-0.2L75,67.2c-1.3-0.5-1.9-2-1.3-3.2
			c0.3-0.6,0.8-1.1,1.4-1.4l9.3-3c1.4-0.3,2.8,0.5,3.1,1.9C87.6,61.8,87.6,62.1,87.6,62.4z"/>
		<path class="st1" d="M97.5,90.9l1.4,1.4c1,1,1,2.5,0.1,3.5c-0.2,0.2-0.5,0.4-0.8,0.6l-8.8,3.9c-1.2,0.5-2.6,0-3.2-1.2
			c-0.3-0.7-0.3-1.5,0.1-2.1l4.4-8.6c0.6-1.2,2-1.7,3.2-1.1c0.4,0.2,0.7,0.4,0.9,0.8C95.6,88.9,96.5,89.9,97.5,90.9z"/>
		<path class="st1" d="M91.6,30.8l8.6,4.4c1.2,0.6,1.7,2,1.1,3.2c-0.2,0.4-0.4,0.7-0.8,0.9c-1.1,0.8-2.1,1.7-3,2.7l-1.4,1.4
			c-1,1-2.6,1-3.6,0c-0.2-0.2-0.4-0.4-0.5-0.7l-3.9-8.9c-0.4-1.3,0.3-2.7,1.5-3.1C90.3,30.5,91,30.5,91.6,30.8z"/>
		<path class="st1" d="M126.3,104.3l-3.5,9.1c-0.5,1.3-2,1.9-3.2,1.3c-0.6-0.3-1.1-0.8-1.4-1.4l-3-9.3c-0.4-1.3,0.3-2.6,1.5-3
			c0.3-0.1,0.7-0.1,1.1-0.1c2,0.2,4,0.3,6,0.2c1.3-0.2,2.4,0.6,2.7,1.9C126.5,103.5,126.4,103.9,126.3,104.3z"/>
		<path class="st1" d="M125.7,19.8l3,9.3c0.4,1.3-0.3,2.6-1.5,3c-0.3,0.1-0.7,0.1-1.1,0.1c-2-0.2-4-0.3-6-0.2
			c-1.3,0.1-2.5-0.9-2.6-2.2c0-0.4,0-0.8,0.2-1.1l3.5-9.1c0.5-1.2,1.9-1.8,3.1-1.3C124.9,18.6,125.5,19.1,125.7,19.8z"/>
		<path class="st1" d="M151.8,90.2l3.9,8.9c0.5,1.2,0,2.6-1.2,3.2c-0.7,0.3-1.5,0.3-2.1-0.1l-8.7-4.5c-1.2-0.6-1.7-2-1.1-3.2
			c0.2-0.4,0.4-0.7,0.8-0.9c1.1-0.8,2.1-1.7,3-2.7l1.4-1.4c0.9-1,2.4-1.1,3.4-0.2C151.4,89.6,151.6,89.9,151.8,90.2z"/>
		<path class="st1" d="M146.4,42.1l-1.4-1.4c-1-1-1-2.5-0.1-3.5c0.2-0.2,0.5-0.4,0.8-0.6l8.9-3.9c1.2-0.5,2.6,0,3.2,1.2
			c0.3,0.7,0.3,1.5-0.1,2.1l-4.4,8.6c-0.6,1.2-2,1.7-3.2,1.1c-0.4-0.2-0.7-0.4-0.9-0.8C148.3,44,147.4,43,146.4,42.1z"/>
		<path class="st1" d="M156.3,70.6c0.2-2,0.3-4,0.2-6c-0.1-1.3,0.9-2.5,2.2-2.6c0.4,0,0.8,0,1.1,0.2l9.1,3.5c1.3,0.5,1.9,2,1.3,3.2
			c-0.3,0.6-0.8,1.1-1.4,1.4l-9.3,3c-1.3,0.4-2.7-0.3-3.1-1.6C156.2,71.3,156.2,71,156.3,70.6z"/>
	</g>
</g>
<path class="st2" d="M760.7,373.1c-253.5,0.2-507,0.4-760.5,0.6v-0.6c23-2.1,58.5-6.3,99.9-15.9c72.5-16.9,91.4-0.7,201.3-42.1
	C408.9,274.6,415.9,284.6,760.7,373.1z"/>
<path class="st3" d="M738.4,40c-0.7,0-1.4,0-2.1,0.1c-1.9-6-7.4-10.2-13.7-10.2c-1.6,0-3.1,0.3-4.6,0.8c-3.7-8-12.4-12.3-21-10.4
	s-14.7,9.5-14.7,18.2c0,1.5,0.2,3,0.6,4.5c-8.2,1.2-14,8.6-13.4,16.8s7.4,14.6,15.7,14.6h53.2c9.5,0,17.2-7.7,17.2-17.2
	S748,40,738.4,40z"/>
<path class="st4" d="M476,59.6c54.8,0,99.3,44.5,99.2,99.3c0,32.7-16.1,63.3-43.1,81.8l-8.3,11.7L476,320.3l-47.8-67.9l-8.3-11.7
	c-45.2-31-56.8-92.8-25.7-138C412.8,75.8,443.4,59.7,476,59.6 M476,198.3c21.8,0.1,39.6-17.6,39.6-39.4
	c0.1-21.8-17.6-39.6-39.4-39.6c-21.8-0.1-39.6,17.6-39.6,39.4c0,9.5,3.4,18.7,9.6,25.9C453.6,193.3,464.5,198.3,476,198.3 M476,54.6
	c-57.6,0-104.3,46.7-104.3,104.3c0,34.1,16.7,66,44.6,85.5l7.8,11l47.8,67.9c1.6,2.2,4.7,2.8,6.9,1.3c0.5-0.4,0.9-0.8,1.3-1.3
	l47.8-67.9l7.8-11c47.2-32.9,58.8-98,25.8-145.2c-3.5-5-7.5-9.8-11.8-14.1C530.2,65.5,503.6,54.4,476,54.6z M476,193.3
	c-19,0-34.4-15.4-34.4-34.4s15.4-34.4,34.4-34.4s34.4,15.4,34.4,34.4l0,0C510.3,177.9,495,193.2,476,193.3z"/>
<path class="st5" d="M93.1,57c-0.7,0-1.4,0-2.1,0.1c-1.9-6-7.4-10.2-13.7-10.2c-1.6,0-3.1,0.3-4.6,0.8c-3.7-8-12.4-12.3-21-10.4
	S37,46.8,37,55.5c0,1.5,0.2,3,0.6,4.5c-8.2,1.2-14,8.6-13.4,16.8s7.4,14.6,15.7,14.6h53.2c9.5,0,17.2-7.7,17.2-17.2
	S102.7,57,93.1,57z"/>
<path class="st6" d="M123.3,81.6c-0.7,0-1.4,0-2.1,0.1c-1.9-6-7.4-10.2-13.7-10.2c-1.6,0-3.1,0.3-4.6,0.8c-3.7-8-12.4-12.3-21-10.4
	s-14.7,9.5-14.7,18.2c0,1.5,0.2,3,0.6,4.5c-8.2,1.2-14,8.6-13.4,16.8S61.8,116,70.1,116h53.2c9.5,0,17.2-7.7,17.2-17.2
	S132.9,81.6,123.3,81.6z"/>
<g class="st7">
	<g>
		<g>
			<g>
				<g>
					<path d="M256.5,162.7c-0.6-2.7-3.3-4.4-6-3.8l-1.8,0.4l-138.3,29.9c-1.1,0.2-2.1,0.8-2.8,1.7c-1.7,2.1-1.4,5.2,0.7,6.9l22,18.2
						c0.3,0.3,0.6,0.6,0.8,1c0.2,0.4,0.3,0.8,0.3,1.2l1.6,33.3c0,0.8,0.2,1.5,0.6,2.1c0,0,0,0,0,0c0.7,1.2,1.8,2.1,3.3,2.5
						c0.4,0.1,0.8,0.1,1.1,0.1c0.1,0,0.1,0,0.2,0c1.7-0.1,3.3-1,4.2-2.6l7.9-14.4c0.6-1,1.6-1.6,2.7-1.6c0,0,0,0,0.1,0h0
						c0.2,0,0.3,0,0.5,0.1c0,0,0,0,0,0c0.6,0.1,1.1,0.4,1.5,0.9l38.1,40.2c1.1,1.2,2.8,1.8,4.4,1.5c1.6-0.2,3-1.2,3.7-2.7L256.1,166
						C256.6,165,256.7,163.8,256.5,162.7z M251.8,165.2c0.2-0.4,0.2-0.8,0.1-1.2c-0.2-1.1-1.3-1.7-2.4-1.4c0,0,0,0-0.1,0
						c-0.1,0.4-0.4,0.8-0.8,1.1L153,234.1c0,0,0,0,0,0c-0.7,0.4-1.4,0.8-2,1.4c-0.1,0-0.1,0-0.2,0c-1.1,0-2.1,0.6-2.7,1.6l-7.9,14.4
						c-0.9,1.6-2.6,2.6-4.4,2.6c-0.4,0-0.8,0-1.1-0.1c-0.2-0.1-0.5-0.1-0.7-0.2c-0.4-0.7-0.6-1.4-0.7-2.2l-1.6-33.3
						c0-0.4-0.1-0.8-0.3-1.2c-0.1-0.2-0.2-0.3-0.3-0.4c0.6-0.4,1.1-0.8,1.5-1.3l116.6-52.9c0.1,0,0.2-0.1,0.3-0.1
						c1.1-0.3,2.2,0.3,2.4,1.4C252.1,164.2,252.1,164.8,251.8,165.2z"/>
				</g>
				<g>
					<path class="st8" d="M256.5,162.7c-0.6-2.7-3.3-4.4-6-3.8l-1.8,0.4l-138.3,29.9c-1.1,0.2-2.1,0.8-2.8,1.7
						c-1.7,2.1-1.4,5.2,0.7,6.9l22,18.2c0.3,0.3,0.6,0.6,0.8,1c0.2,0.4,0.3,0.8,0.3,1.2l1.6,33.3c0,0.8,0.2,1.5,0.6,2.1c0,0,0,0,0,0
						c0.7,1.2,1.8,2.1,3.3,2.5c0.4,0.1,0.8,0.1,1.1,0.1c0.1,0,0.1,0,0.2,0c1.7-0.1,3.3-1,4.2-2.6l7.9-14.4c0.6-1,1.6-1.6,2.7-1.6
						c0,0,0,0,0.1,0h0c0.2,0,0.3,0,0.5,0.1c0,0,0,0,0,0c0.6,0.1,1.1,0.4,1.5,0.9l38.1,40.2c1.1,1.2,2.8,1.8,4.4,1.5
						c1.6-0.2,3-1.2,3.7-2.7L256.1,166C256.6,165,256.7,163.8,256.5,162.7z M251.8,165.2c0.2-0.4,0.2-0.8,0.1-1.2
						c-0.2-1.1-1.3-1.7-2.4-1.4c0,0,0,0-0.1,0c-0.1,0.4-0.4,0.8-0.8,1.1L153,234.1c0,0,0,0,0,0c-0.7,0.4-1.4,0.8-2,1.4
						c-0.1,0-0.1,0-0.2,0c-1.1,0-2.1,0.6-2.7,1.6l-7.9,14.4c-0.9,1.6-2.6,2.6-4.4,2.6c-0.4,0-0.8,0-1.1-0.1
						c-0.2-0.1-0.5-0.1-0.7-0.2c-0.4-0.7-0.6-1.4-0.7-2.2l-1.6-33.3c0-0.4-0.1-0.8-0.3-1.2c-0.1-0.2-0.2-0.3-0.3-0.4
						c0.6-0.4,1.1-0.8,1.5-1.3l116.6-52.9c0.1,0,0.2-0.1,0.3-0.1c1.1-0.3,2.2,0.3,2.4,1.4C252.1,164.2,252.1,164.8,251.8,165.2z"/>
				</g>
			</g>
			<path class="st9" d="M251.9,164c-0.2-1.1-1.3-1.7-2.4-1.4c0,0,0,0-0.1,0c-0.1,0.4-0.4,0.8-0.8,1.1L153,234.1c0,0,0,0,0,0
				c-0.7,0.4-1.4,0.8-2,1.4c-0.1,0-0.1,0-0.2,0c-1.1,0-2.1,0.6-2.7,1.6l-7.9,14.4c-0.9,1.6-2.6,2.6-4.4,2.6c-0.4,0-0.8,0-1.1-0.1
				c-0.2-0.1-0.5-0.1-0.7-0.2c0.7,1.2,1.8,2,3.2,2.3c0.4,0.1,0.7,0.1,1.1,0.1h0.1c1.8,0,3.5-0.9,4.4-2.6l7.9-14.4
				c0.6-0.9,1.5-1.5,2.5-1.6h0c0.1,0,0.1,0,0.2,0c0.1,0,0.1,0,0.2,0c0.6-0.5,1.3-1,2-1.4c0,0,0,0,0,0l95.7-70.4
				c0.2-0.2,0.4-0.4,0.6-0.6C252,164.8,252,164.4,251.9,164z"/>
			<path class="st9" d="M251.9,164c-0.2-1.1-1.3-1.7-2.4-1.4c0,0,0,0-0.1,0c-0.1,0.4-0.4,0.8-0.8,1.1L153,234.1c0,0,0,0,0,0
				c-0.7,0.4-1.4,0.8-2,1.4c-0.1,0-0.1,0-0.2,0c-1.1,0-2.1,0.6-2.7,1.6l-7.9,14.4c-0.9,1.6-2.6,2.6-4.4,2.6c-0.4,0-0.8,0-1.1-0.1
				c-0.2-0.1-0.5-0.1-0.7-0.2c-0.1,0-0.2-0.1-0.3-0.1c0,0,0,0,0,0c0.6,1.3,1.9,2.4,3.4,2.7c0.4,0.1,0.8,0.1,1.1,0.1
				c1.8,0,3.5-0.9,4.4-2.6l7.9-14.4c0.6-1,1.6-1.6,2.7-1.6c0.1,0,0.1,0,0.2,0c0.1-0.1,0.2-0.1,0.3-0.2c0,0,0,0,0,0
				c0.5-0.4,1.1-0.8,1.7-1.1c0,0,0,0,0,0l95.7-70.4c0.3-0.2,0.6-0.5,0.7-0.9C252,164.8,252,164.4,251.9,164z"/>
		</g>
	</g>
</g>
<ellipse class="st10" cx="467.8" cy="330.2" rx="87.3" ry="12.9"/>
<path class="st11" d="M467.7,73.4c-54.8,0-99.3,44.5-99.2,99.3c0,32.7,16.1,63.3,43.1,81.8l8.3,11.7l47.8,67.9l47.8-67.9l8.3-11.7
	c27-18.5,43.2-49.1,43.2-81.9C567,117.9,522.5,73.4,467.7,73.4z M497.6,198.4c-14.2,16.5-39.1,18.3-55.5,4.1
	c-16.5-14.2-18.3-39.1-4.1-55.5c14.2-16.5,39.1-18.3,55.5-4.1c8.7,7.5,13.7,18.4,13.7,29.9C507.1,182.1,503.7,191.2,497.6,198.4
	L497.6,198.4z"/>
<path class="st12" d="M566.6,164.2c-5,63.7-62.1,114.8-134,120.1l35.1,49.9l47.8-67.9l8.3-11.7c27-18.5,43.2-49.1,43.2-81.9
	C567,169.8,566.8,166.9,566.6,164.2z"/>
<path class="st5" d="M119.9,83c-0.7,0-1.4,0-2.1,0.1c-1.9-6-7.4-10.2-13.7-10.2c-1.6,0-3.1,0.3-4.6,0.8c-3.7-8-12.4-12.3-21-10.4
	s-14.7,9.5-14.7,18.2c0,1.5,0.2,3,0.6,4.5c-8.2,1.2-14,8.6-13.4,16.8s7.4,14.6,15.7,14.6h53.2c9.5,0,17.2-7.7,17.2-17.2
	S129.5,83,119.9,83z"/>
</svg>
