<?xml version="1.0" encoding="utf-8"?>
<!-- Generator: Adobe Illustrator 25.0.1, SVG Export Plug-In . SVG Version: 6.00 Build 0)  -->
<svg version="1.1" id="Capa_1" xmlns="http://www.w3.org/2000/svg" xmlns:xlink="http://www.w3.org/1999/xlink" x="0px" y="0px"
	 viewBox="0 0 50 50" style="enable-background:new 0 0 50 50;" xml:space="preserve">
<style type="text/css">
	.st0{fill:#F45858;}
	.st1{fill:none;}
	.st2{opacity:0.24;}
</style>
<g>
	<g>
		<g>
			<path class="st0" d="M43.8,30L29.7,47.8L15.6,30c-2.3-3-3.5-6.6-3.5-10.4c0-5.5,2.7-10.7,7.2-14c3-2.2,6.7-3.4,10.4-3.4
				c1.8,0,3.7,0.3,5.6,0.9c5.3,1.6,9.5,5.8,11.2,11C48.2,19.7,47.2,25.5,43.8,30z"/>
		</g>
	</g>
</g>
<path class="st1" d="M19.5,11.8h20.3v20.3H19.5V11.8z"/>
<g class="st2">
	<path d="M29.7,2.2c1.8,0,3.7,0.3,5.6,0.9c5.3,1.6,9.5,5.8,11.2,11c1.8,5.6,0.8,11.4-2.7,15.9L29.7,47.7"/>
</g>
</svg>
