<?xml version="1.0" encoding="utf-8"?>
<!-- Generator: Adobe Illustrator 25.0.1, SVG Export Plug-In . SVG Version: 6.00 Build 0)  -->
<svg version="1.1" id="Capa_1" xmlns="http://www.w3.org/2000/svg" xmlns:xlink="http://www.w3.org/1999/xlink" x="0px" y="0px"
	 viewBox="0 0 512 512" style="enable-background:new 0 0 512 512;" xml:space="preserve">
<style type="text/css">
	.st0{opacity:0.36;enable-background:new    ;}
	.st1{fill:#3EA2E5;}
	.st2{opacity:0.24;}
</style>
<ellipse class="st0" cx="237.7" cy="461.8" rx="69.3" ry="6.7"/>
<g>
	<g>
		<g>
			<path class="st1" d="M373.1,288.3L237.8,459.1L102.4,288.3c-22.1-29-33.9-63.6-33.9-100.1c0-52.8,25.8-102.9,69-134.1
				c29.2-21.5,64-32.5,100.2-32.5c17.7,0,35.9,2.8,53.6,8.2c50.5,15.4,91.7,55.9,107.3,105.7C415.6,189,406.2,244.7,373.1,288.3z"/>
		</g>
	</g>
</g>
<g class="st2">
	<path d="M237.8,21.6c17.7,0,35.9,2.8,53.6,8.2c50.5,15.4,91.7,55.9,107.2,105.7c16.9,53.6,7.6,109.2-25.5,152.7L237.7,459.1"/>
</g>
</svg>
