<svg xmlns="http://www.w3.org/2000/svg" viewBox="0 0 400.3 257.51"><g id="Layer_1" data-name="Layer 1"><path d="M121.38,192.71v34.63H9.84l0-29Q59.43,117.3,68.78,98.05t9.34-30q0-8.28-2.82-12.36t-8.61-4.08a9.48,9.48,0,0,0-8.61,4.52Q55.26,60.6,55.26,74V93.34H9.84v-7.4Q9.84,68.88,11.6,59a47.12,47.12,0,0,1,8.65-19.38A43.4,43.4,0,0,1,38.19,25.22q11-4.91,26.48-4.9,30.22,0,45.73,15t15.49,37.95q0,17.45-8.72,36.89T65.79,192.71Z"/><path d="M239.31,24.21V157h14.43v34.63H239.31v35.76H188.63V191.58H128.4V157L172.19,24.21ZM188.63,157V70.51L166.23,157Z"/><path d="M387.24,24.21V227.34H334.42V142H318.61v85.32H265.79V24.21h52.82V96.86h15.81V24.21Z"/></g></svg>