<svg xmlns="http://www.w3.org/2000/svg" viewBox="0 0 529.09 532.61"><defs><style>.cls-1{fill:#ebf6ff;}.cls-2{fill:#c9e7ff;}.cls-3,.cls-6{fill:#2f2e41;}.cls-4{fill:#a3afbf;}.cls-5{fill:#dbdae8;}.cls-6{opacity:0.16;isolation:isolate;}.cls-7,.cls-8{fill:none;stroke:#2f2e41;stroke-linecap:round;stroke-miterlimit:10;}.cls-7{stroke-width:3.8px;}.cls-8{stroke-width:3.16px;}.cls-9{fill:#fff;}.cls-10{fill:#f05d65;}.cls-11{fill:#465b65;}.cls-12{fill:#fdd80e;}</style></defs><g id="Layer_1" data-name="Layer 1"><path class="cls-1" d="M504.64,260.38c0,7.72-.35,15.37-1.06,22.9a243,243,0,0,1-11.89,55.9,244.77,244.77,0,0,1-225,166c-.82,0-1.64,0-2.47.06-1.49,0-3,0-4.47,0s-2.86,0-4.29,0c-.91,0-1.82,0-2.72-.07l-2.1-.07-.68,0a243.5,243.5,0,0,1-115.78-34.4c-4-2.35-7.84-4.83-11.64-7.4-1.38-.94-2.76-1.89-4.12-2.86-.26-.2-.55-.39-.83-.59L115,458A245.62,245.62,0,0,1,29.6,344.51a241.21,241.21,0,0,1-9.26-32,244.66,244.66,0,0,1-4.61-30.26q-1-10.81-1-21.89,0-5.91.29-11.74c0-1.19.12-2.37.19-3.55h0c.07-1.06.14-2.11.22-3.16.1-1.34.2-2.68.33-4q1.08-12,3.31-23.65C40.68,101.05,140.2,15.46,259.71,15.46A243.89,243.89,0,0,1,414.9,70.89q8.94,7.32,17.14,15.47,5.38,5.3,10.4,10.92a245.09,245.09,0,0,1,44.33,71.12h0c.66,1.6,1.29,3.21,1.91,4.84A244,244,0,0,1,504.64,260.38Z"/><path class="cls-2" d="M481.45,364.54a244.71,244.71,0,0,1-214.8,140.68c-.82,0-1.64,0-2.47.06-1.49,0-3,0-4.47,0s-2.86,0-4.29,0c-.91,0-1.82,0-2.72-.07l-2.1-.07-.68,0a243.5,243.5,0,0,1-115.78-34.4c-4-2.35-7.84-4.83-11.64-7.4-1.38-.94-2.76-1.89-4.12-2.86-.26-.2-.55-.39-.83-.59L115,458A245.62,245.62,0,0,1,29.6,344.51c14.49-2.44,31.74-3.49,51.49-7.84a206.58,206.58,0,0,0,73.25-31.45c2.71,4.94,16.82,28.93,58.49,40.87a184.52,184.52,0,0,0,62.93,5.59c49.3-4.6,91.33-32.59,107.17-70.28,6.37,13.5,18.68,33.51,44.23,53.21C445.58,348.84,464.28,357.82,481.45,364.54Z"/><path class="cls-2" d="M29.49,249.37c32-1.15,75.9-.77,107.86-1.93-1.23-8.86-4.13-12-6.76-13.2-8.33-3.68-17.52,11.44-31.43,8.8-5.6-1.06-5.33-3.74-14.62-6.13-4-1-10.24-2.56-17.13-.78a29,29,0,0,0-11.48,6.28c-6.08,4.78-18,8.19-43.38,2.05C22.19,246.61,19.84,247.22,29.49,249.37Z"/><path class="cls-2" d="M132.43,126.29c32-1.16,75.91-.78,107.87-1.93-1.23-8.86-4.13-12-6.76-13.2-8.33-3.68-17.52,11.44-31.43,8.8-5.6-1.06-5.33-3.74-14.62-6.13-4-1-10.24-2.56-17.13-.79a29,29,0,0,0-11.48,6.29c-6.08,4.78-17.95,8.19-43.38,2C125.14,123.52,122.79,124.14,132.43,126.29Z"/><path class="cls-2" d="M461.58,173.89c-37.48-1.35-89-.9-126.5-2.25,1.45-10.39,4.85-14.13,7.93-15.49,9.77-4.31,20.55,13.42,36.86,10.32,6.57-1.24,6.25-4.38,17.15-7.19,4.64-1.19,12-3,20.09-.92a34.08,34.08,0,0,1,13.46,7.38c7.13,5.6,21.05,9.6,50.88,2.39C470.14,170.65,472.89,171.37,461.58,173.89Z"/><path class="cls-3" d="M131.71,299.37c-5.56,13.08,6.7,30.74-3.76,55.28A66.44,66.44,0,0,1,110.61,378c-8.34,7.35-6,20.93,4.42,24.69a352.39,352.39,0,0,0,106,19.79,349.36,349.36,0,0,0,113-14.88,33.37,33.37,0,0,0,20.28-46.78,127.73,127.73,0,0,1-7.52-19,135.19,135.19,0,0,1-6-42.2C189.12,270.58,140.05,279.58,131.71,299.37Z"/><path class="cls-4" d="M358.94,484.38a243.66,243.66,0,0,1-92.29,20.84c-.82,0-1.64,0-2.47.06-1.49,0-3,0-4.47,0s-2.86,0-4.29,0c-.91,0-1.82,0-2.72-.07l-2.1-.07-.68,0a243.5,243.5,0,0,1-115.78-34.4c-4-2.35-7.84-4.83-11.64-7.4a136.15,136.15,0,0,1,45.18-42.91,132.6,132.6,0,0,1,17.66-8.68c2.57-1,5.16-2,7.8-2.85h0a131.35,131.35,0,0,1,13.1-3.64l2-.43a132.9,132.9,0,0,1,20-2.56l.55,0c1.78-.09,3.57-.15,5.36-.16h1.21A133.2,133.2,0,0,1,258,404c1.21.2,2.42.43,3.62.67,2.51.49,5,1.07,7.48,1.71q5.42,1.42,10.63,3.25,3.61,1.28,7.14,2.73c.59.24,1.17.49,1.76.75q2.63,1.14,5.19,2.38c1,.47,1.92.94,2.87,1.43,1.36.7,2.72,1.43,4.06,2.18a134.75,134.75,0,0,1,27.62,20.45c.75.69,1.47,1.41,2.19,2.13q2.12,2.1,4.12,4.3t3.93,4.48c1.27,1.51,2.53,3.07,3.73,4.65s2.38,3.18,3.52,4.8q3.42,4.88,6.4,10C353.61,472.24,356.07,477.68,358.94,484.38Z"/><circle class="cls-3" cx="231.97" cy="286.61" r="109.58"/><circle class="cls-5" cx="231.97" cy="295.61" r="86.68"/><path class="cls-6" d="M242.5,401.36a271.64,271.64,0,0,0-39.82,5c-.27,0-.41.14-.68.14v-.14A278.83,278.83,0,0,1,242.5,401.36Z"/><path class="cls-3" d="M331.24,281.38c-7-.33-50.54-2.46-80.14-38.77-16,14.23-38.92,28.3-61.66,36.64a170.46,170.46,0,0,1-60.35,10.14c.66-10.47,4.25-46.78,32.71-71.64,19.47-17,45.31-24.2,67.39-25a87,87,0,0,1-1-9.32,113.08,113.08,0,0,1,51.2,16.84C321.1,226.59,329.93,272.71,331.24,281.38Z"/><path class="cls-6" d="M238.18,382.12c-2.13.17-4.25.33-6.38.33A88.19,88.19,0,0,1,143.49,295V291c0-1,.16-2.13.16-3.11,4.09-.33,8.34-.82,12.92-1.47a167.08,167.08,0,0,0,31.89-8.18,206.21,206.21,0,0,0,62.81-37.45,73,73,0,0,0,5.72,6.54,205.28,205.28,0,0,1-62.48,37,164.53,164.53,0,0,1-38.43,9.16v.65A88.63,88.63,0,0,0,238.18,382.12Z"/><path class="cls-7" d="M179.79,294.13c4.42-5.88,11.45-8.67,17.67-7.19a16.84,16.84,0,0,1,8.83,6.21"/><path class="cls-7" d="M253.72,294.13c4.41-5.88,11.45-8.67,17.66-7.19a16.79,16.79,0,0,1,8.83,6.21"/><path class="cls-8" d="M216.59,332.14c4.42-5.89,11.45-8.67,17.67-7.2a16.84,16.84,0,0,1,8.83,6.22"/><circle class="cls-4" cx="187.48" cy="321.77" r="10.3"/><circle class="cls-4" cx="269.91" cy="318.01" r="10.3"/><path class="cls-6" d="M242.5,401.36a271.64,271.64,0,0,0-39.82,5c-.27,0-.41.14-.68.14v-.14A278.83,278.83,0,0,1,242.5,401.36Z"/><path class="cls-9" d="M277,412.44a19.07,19.07,0,0,1-2.63,8.69L252.22,458.5c-7.6,12.91-26.77,12.91-34.37,0l-11-18.62-11-18.61a19.25,19.25,0,0,1-2.48-7A118.84,118.84,0,0,1,277,412.44Z"/><path class="cls-6" d="M334.55,453.32A234.86,234.86,0,0,1,299,451.05l-.51-.08a198.21,198.21,0,0,1-30.86-7.06c-3.08-1-6.06-1.88-9.14-2.82A199.7,199.7,0,0,1,201.51,410c-.78-.63-1.54-1.27-2.31-1.91a118.91,118.91,0,0,1,76.74.65,120.68,120.68,0,0,1,58.61,44.57Z"/><path class="cls-6" d="M328.43,478.24H287a1.65,1.65,0,0,1-1.63-1.63v-8.42a1.65,1.65,0,0,1,1.63-1.63h41.45a1.65,1.65,0,0,1,1.63,1.63v8.42A1.57,1.57,0,0,1,328.43,478.24Z"/></g><g id="Layer_3" data-name="Layer 3"><path class="cls-6" d="M418.63,354.32a74.44,74.44,0,1,0,74.44,74.44A74.44,74.44,0,0,0,418.63,354.32Z"/><circle class="cls-9" cx="409.52" cy="418.38" r="74.44"/><path class="cls-10" d="M409.52,343.94A74.45,74.45,0,1,0,484,418.38,74.44,74.44,0,0,0,409.52,343.94Zm0,129.29a54.85,54.85,0,1,1,54.85-54.85A54.85,54.85,0,0,1,409.52,473.23Z"/><rect class="cls-11" x="403.9" y="376.27" width="9.78" height="44.02" rx="4.89"/><rect class="cls-11" x="392.63" y="412.34" width="9.62" height="37.48" rx="4.81" transform="translate(373.66 1016.93) rotate(-135)"/><circle class="cls-6" cx="410.14" cy="420.73" r="9.63"/><circle class="cls-12" cx="409" cy="419.13" r="9.63"/></g></svg>