<svg xmlns="http://www.w3.org/2000/svg" viewBox="0 0 529.09 531.28"><defs><style>.cls-1{fill:#ebf6ff;}.cls-2{fill:#c9e7ff;}.cls-3,.cls-6{fill:#2f2e41;}.cls-4{fill:#a3afbf;}.cls-5{fill:#dbdae8;}.cls-6{opacity:0.16;}.cls-17,.cls-6{isolation:isolate;}.cls-15,.cls-16,.cls-7,.cls-8{fill:none;stroke:#2f2e41;stroke-linecap:round;stroke-miterlimit:10;}.cls-7{stroke-width:3.8px;}.cls-8{stroke-width:3.16px;}.cls-9{fill:#fff;}.cls-10{fill:#644632;}.cls-11{fill:#0280ee;}.cls-12{fill:#003c70;}.cls-13{fill:#87d0ce;}.cls-14{fill:#f4d5b8;}.cls-15{stroke-width:2.49px;}.cls-16{stroke-width:2.07px;}.cls-17{fill:#f08977;opacity:0.36;}.cls-18{fill:#2bb573;}.cls-19{fill:#231f20;opacity:0.16;}</style></defs><g id="Layer_1" data-name="Layer 1"><path class="cls-1" d="M504.64,260.38c0,7.72-.35,15.37-1.06,22.9a243,243,0,0,1-11.89,55.9,245.69,245.69,0,0,1-63.83,99.3c-2,1.9-4.07,3.78-6.15,5.62l-1.64,1.42c-.63.55-1.26,1.1-1.9,1.64q-8.15,6.91-16.88,13.11-6.6,4.69-13.53,8.94a243.11,243.11,0,0,1-99.41,34.45q-10.73,1.24-21.7,1.56c-.82,0-1.64,0-2.47.06-1.49,0-3,0-4.47,0s-2.86,0-4.29,0c-.91,0-1.82,0-2.72-.07l-2.1-.07h-.68q-11.67-.47-23-2a243.22,243.22,0,0,1-92.73-32.41q-8.1-4.82-15.76-10.26l-.83-.59L115,458q-4.92-3.62-9.66-7.47-8.76-7.11-16.83-15a245.15,245.15,0,0,1-58.86-91,241.21,241.21,0,0,1-9.26-32,244.66,244.66,0,0,1-4.61-30.26q-1-10.81-1-21.89,0-5.91.29-11.74c0-1.19.12-2.37.19-3.55h0c.07-1.05.14-2.11.22-3.16.1-1.34.2-2.68.33-4q1.08-12,3.31-23.65C40.68,101.05,140.2,15.46,259.71,15.46A243.94,243.94,0,0,1,414.9,70.89q8.94,7.33,17.14,15.47,5.38,5.3,10.4,10.92a245.44,245.44,0,0,1,44.33,71.12h0c.66,1.6,1.29,3.22,1.91,4.84A244,244,0,0,1,504.64,260.38Z"/><path class="cls-2" d="M481.45,364.54a245.1,245.1,0,0,1-36.45,56,247.68,247.68,0,0,1-17.14,17.91c-2,1.9-4.07,3.78-6.15,5.62l-1.64,1.42c-.63.55-1.26,1.1-1.9,1.64q-8.15,6.91-16.88,13.11-6.6,4.69-13.53,8.94a243.11,243.11,0,0,1-99.41,34.45q-10.73,1.24-21.7,1.56c-.82,0-1.64,0-2.47.06-1.49,0-3,0-4.47,0s-2.86,0-4.29,0c-.91,0-1.82,0-2.72-.07l-2.1-.07h-.68q-11.67-.47-23-2a243.22,243.22,0,0,1-92.73-32.41q-8.1-4.82-15.76-10.26l-.83-.59L115,458q-4.92-3.62-9.66-7.47-8.76-7.11-16.83-15a245.15,245.15,0,0,1-58.86-91c14.49-2.44,31.74-3.49,51.49-7.84,6-1.31,12.59-3,19.68-5.27l2.11-.69c5.34-1.77,10.94-3.86,16.72-6.34l1.15-.5c3.15-1.38,6.35-2.87,9.59-4.5a201.78,201.78,0,0,0,24-14.15c2.71,4.94,16.82,28.93,58.49,40.87a175.53,175.53,0,0,0,29.25,5.33c5.68.57,11.95.95,18.59.95,4.5,0,9.18-.18,14-.59l1.13-.1q4.78-.45,9.47-1.18a149.49,149.49,0,0,0,32-8.71A137.7,137.7,0,0,0,341.89,329l.28-.19.88-.58.06,0c14.3-9.65,26.05-21.74,34.17-35.51h0c.67-1.12,1.3-2.25,1.91-3.39l0-.06q2-3.8,3.7-7.76c5.25,11.12,14.54,26.67,31.95,42.83,3.71,3.44,7.79,6.91,12.28,10.37A194.9,194.9,0,0,0,452,350.87,244.37,244.37,0,0,0,481.45,364.54Z"/><path class="cls-2" d="M29.49,249.37c32-1.15,75.9-.77,107.86-1.93-1.23-8.86-4.13-12-6.76-13.2-8.33-3.68-17.52,11.44-31.43,8.8-5.6-1.06-5.33-3.74-14.62-6.13-4-1-10.24-2.56-17.13-.78a29,29,0,0,0-11.48,6.28c-6.08,4.78-18,8.19-43.38,2.05C22.19,246.61,19.84,247.22,29.49,249.37Z"/><path class="cls-2" d="M132.43,126.29c32-1.16,75.91-.78,107.87-1.93-1.23-8.86-4.13-12-6.76-13.2-8.33-3.68-17.52,11.44-31.43,8.8-5.6-1.06-5.33-3.74-14.62-6.13-4-1-10.24-2.56-17.13-.79a29,29,0,0,0-11.48,6.29c-6.08,4.78-17.95,8.19-43.38,2C125.14,123.52,122.79,124.14,132.43,126.29Z"/><path class="cls-2" d="M461.58,173.89c-37.48-1.35-89-.9-126.5-2.25,1.45-10.39,4.85-14.13,7.93-15.49,9.77-4.31,20.55,13.42,36.86,10.32,6.57-1.24,6.25-4.38,17.15-7.19,4.64-1.19,12-3,20.09-.92a34.08,34.08,0,0,1,13.46,7.38c7.13,5.6,21.05,9.6,50.88,2.39C470.14,170.65,472.89,171.37,461.58,173.89Z"/><path class="cls-3" d="M100.28,293.71C94.72,306.79,107,324.45,96.52,349a66.19,66.19,0,0,1-17.34,23.38c-8.34,7.36-6.05,20.94,4.42,24.7a352.45,352.45,0,0,0,106,19.79A349.43,349.43,0,0,0,302.6,402a33.37,33.37,0,0,0,20.28-46.78,127.73,127.73,0,0,1-7.53-19A135.49,135.49,0,0,1,309.3,294C157.69,264.92,108.62,273.92,100.28,293.71Z"/><path class="cls-4" d="M318.54,478.22a214.68,214.68,0,0,1-55,23.68q-6.65,1.83-13.47,3.23h-.19q-11.67-.47-23-2a243.22,243.22,0,0,1-92.73-32.41q-8.1-4.82-15.76-10.26l-.83-.59L115,458q-4.92-3.62-9.66-7.47a120.57,120.57,0,0,1,39.92-37.86A117,117,0,0,1,160.86,405q3.4-1.38,6.91-2.53h0c.73-.25,1.47-.49,2.21-.71l1.54-.47,1.4-.41,1-.28c.84-.23,1.67-.44,2.51-.65s1.73-.42,2.6-.62l.27-.06.08,0,1.78-.38.08,0,1.6-.31c1.25-.25,2.5-.46,3.77-.65.49-.09,1-.16,1.47-.23,1.08-.16,2.16-.3,3.25-.42.42-.06.84-.1,1.26-.14s1.06-.12,1.59-.16a1.53,1.53,0,0,1,.3,0l2.13-.17,2.23-.14h.08l.39,0h.05c1-.05,1.93-.09,2.89-.11s1.94,0,2.91,0c1.14,0,2.27,0,3.4.06.78,0,1.55,0,2.32.08.28,0,.56,0,.84,0,.55,0,1.1.05,1.64.1s1.07.07,1.6.12c.29,0,.58,0,.86.07.59.05,1.18.1,1.77.17.76.08,1.52.16,2.28.26l2.88.39.15,0c1.86.29,3.71.61,5.55,1,1.45.28,2.9.6,4.33.95l2,.48.36.09q4.8,1.26,9.41,2.88c1.61.56,3.19,1.16,4.76,1.78,1.25.5,2.49,1,3.71,1.56s2.69,1.21,4,1.85c.8.4,1.61.79,2.4,1.2,1.27.65,2.51,1.31,3.74,2h0l.6.35c1.76,1,3.47,2,5.16,3.1.88.56,1.76,1.13,2.62,1.71s1.85,1.26,2.76,1.91c.34.23.67.48,1,.72l1.68,1.26c.88.66,1.74,1.33,2.6,2l.12.09c.58.47,1.17,1,1.74,1.44.17.13.35.28.52.43.32.26.64.53,1,.82.5.41,1,.84,1.47,1.29l.45.39c.65.58,1.29,1.17,1.92,1.76l.87.83.08.08c.63.59,1.25,1.2,1.86,1.81a119.79,119.79,0,0,1,13.56,16.16q3,4.32,5.67,8.89A119.09,119.09,0,0,1,318.54,478.22Z"/><circle class="cls-3" cx="200.54" cy="280.95" r="109.58"/><circle class="cls-5" cx="200.54" cy="289.94" r="86.68"/><path class="cls-6" d="M211.07,395.7a271.82,271.82,0,0,0-39.82,5c-.27,0-.41.14-.68.14v-.14A278.83,278.83,0,0,1,211.07,395.7Z"/><path class="cls-3" d="M299.81,275.72c-7-.33-50.53-2.46-80.14-38.77-16,14.23-38.92,28.3-61.65,36.64a170.53,170.53,0,0,1-60.35,10.14c.65-10.47,4.25-46.78,32.71-71.64,19.46-17,45.3-24.2,67.38-25a84,84,0,0,1-1-9.32A113,113,0,0,1,248,194.59C289.67,220.93,298.51,267.05,299.81,275.72Z"/><path class="cls-6" d="M206.75,376.46c-2.12.17-4.25.33-6.37.33a88.2,88.2,0,0,1-88.32-87.5v-3.92c0-1,.16-2.13.16-3.11,4.09-.33,8.34-.82,12.92-1.47A166.89,166.89,0,0,0,157,272.61a206.21,206.21,0,0,0,62.81-37.45,74.57,74.57,0,0,0,5.72,6.54,205.11,205.11,0,0,1-62.47,37,164.6,164.6,0,0,1-38.44,9.16v.65A88.63,88.63,0,0,0,206.75,376.46Z"/><path class="cls-7" d="M148.37,288.47c4.41-5.89,11.45-8.67,17.66-7.19a16.79,16.79,0,0,1,8.83,6.21"/><path class="cls-7" d="M222.29,288.47c4.42-5.89,11.45-8.67,17.67-7.19a16.84,16.84,0,0,1,8.83,6.21"/><path class="cls-8" d="M185.17,326.48c4.41-5.89,11.44-8.67,17.66-7.2a16.79,16.79,0,0,1,8.83,6.22"/><circle class="cls-4" cx="156.05" cy="316.11" r="10.3"/><circle class="cls-4" cx="238.48" cy="312.35" r="10.3"/><path class="cls-6" d="M211.07,395.7a271.82,271.82,0,0,0-39.82,5c-.27,0-.41.14-.68.14v-.14A278.83,278.83,0,0,1,211.07,395.7Z"/><path class="cls-9" d="M245.57,406.78a19.18,19.18,0,0,1-2.62,8.69L220.8,452.84c-7.61,12.91-26.77,12.91-34.38,0l-11-18.62-11-18.61a19.25,19.25,0,0,1-2.48-7,118.84,118.84,0,0,1,83.65-1.87Z"/><path class="cls-6" d="M303.13,447.66a235,235,0,0,1-35.59-2.27l-.51-.08a197.82,197.82,0,0,1-30.85-7.06c-3.09-.95-6.06-1.88-9.15-2.82a199.62,199.62,0,0,1-56.95-31.09c-.77-.62-1.54-1.26-2.3-1.9a118.88,118.88,0,0,1,76.73.65,120.83,120.83,0,0,1,58.62,44.57Z"/><path class="cls-6" d="M297,472.58H255.55a1.65,1.65,0,0,1-1.63-1.63v-8.42a1.66,1.66,0,0,1,1.63-1.63H297a1.65,1.65,0,0,1,1.63,1.63V471A1.56,1.56,0,0,1,297,472.58Z"/><path class="cls-10" d="M465.18,316.12a122.26,122.26,0,0,1-6,19.39A85.55,85.55,0,0,0,452,350.87a135.18,135.18,0,0,0-6.64,27.32,159.16,159.16,0,0,0-1.53,22.25c0,5,.2,10.12.68,15.46.15,1.58.32,3.14.52,4.67a247.68,247.68,0,0,1-17.14,17.91c-2,1.9-4.07,3.78-6.15,5.62l-2.09-.63c.15.69.31,1.37.45,2-.63.55-1.26,1.1-1.9,1.64q-8.15,6.91-16.88,13.11-6.6,4.69-13.53,8.94a243.11,243.11,0,0,1-99.41,34.45q1-5.51,1.93-11,1.75-10.05,3.53-20.09,1-5.85,2.05-11.68c.41-2.35.83-4.7,1.24-7l-4.11,7q-3.39,5.84-6.81,11.68-5.08,8.75-10.15,17.51l-.78-17.51q-.27-5.85-.55-11.68-.3-6.11-.61-12.19-5.93,6.07-11.86,12.19l-8.31,8.55-8.72,9c-3.74,3.88-7.52,7.75-11.3,11.65a160.12,160.12,0,0,0,16.8-47.41c0-.15.05-.3.08-.45a150.45,150.45,0,0,0,2.33-22.89q.07-3.15,0-6.19c0-2.28-.07-4.52-.16-6.71,0-1.34-.12-2.66-.2-4a168.75,168.75,0,0,0-3.1-23.56c-.14-.7-.29-1.4-.44-2.08h0A115.33,115.33,0,0,0,245.65,364c-.21-.61-.43-1.2-.64-1.78-.79-3.38-1.81-7-2.93-10.78-3.82-13-8.81-28.35-9.79-45.61h0c-.08-1.27-.13-2.56-.15-3.86,0-.69,0-1.39,0-2.09q0-4.39.4-8.94h0l.06-.69c.12-1.15.23-2.29.35-3.42h0c.19-1.84.37-3.65.56-5.42,2.94-28.52,5.75-48.31,16.06-62.93a53.36,53.36,0,0,1,10.41-11,64.4,64.4,0,0,1,13.52-8.26l.61-.28.54-.23h0a85.2,85.2,0,0,1,18.8-5.6s0,0,0,0a129.42,129.42,0,0,1,30.65-1.6h.08c3.75.22,7.31.56,10.68,1,3.58.43,6.9.94,9.9,1.46,7.29,1.28,12.63,2.65,14.84,3.24,1.2-.7,2.37-1.36,3.53-2,25-13.59,41.76-11.75,49.25-10.11l.17,0h0c13.22,3,24.25,11.37,32.91,23a93.09,93.09,0,0,1,8,12.86C467.43,248,471.81,285.29,465.18,316.12Z"/><path class="cls-11" d="M427.86,438.48c-2,1.9-4.07,3.78-6.15,5.62l-1.64,1.42c-.63.55-1.26,1.1-1.9,1.64q-8.15,6.91-16.88,13.11-6.6,4.69-13.53,8.94a243.11,243.11,0,0,1-99.41,34.45q-10.73,1.24-21.7,1.56c-.82,0-1.64,0-2.47.06-1.49,0-3,0-4.47,0s-2.86,0-4.29,0c-.91,0-1.82,0-2.72-.07l-2.1-.07h-.68q-11.67-.47-23-2a113.09,113.09,0,0,1,10.41-38.64A115,115,0,0,1,244,452.15q3.1-4.9,6.67-9.47l.31-.39c.58-.74,1.18-1.48,1.79-2.2,2.18-2.65,4.5-5.2,6.92-7.64a115.11,115.11,0,0,1,15.56-13.16s0,0,0,0c1-.69,1.95-1.36,2.95-2q2.76-1.83,5.63-3.48a112.43,112.43,0,0,1,14.63-7.14c1.85-.74,3.7-1.43,5.58-2.07l1.05-.35h0l2.55-.82.53-.16c.72-.22,1.44-.43,2.17-.62a3,3,0,0,1,.4-.12l2.21-.59.43-.11c.89-.22,1.78-.44,2.68-.63h0l.13,0,.33-.07,1.38-.29.08,0,1-.2c.42-.09.85-.18,1.27-.25q3-.56,6.08-.95l1.37-.17,1.49-.16.33,0c.53-.06,1.05-.11,1.58-.15l1.71-.13,2.12-.13h.06a2.42,2.42,0,0,1,.38,0h.05c1.81-.1,3.63-.14,5.46-.14.82,0,1.65,0,2.47,0,.56,0,1.11,0,1.66.05s1.27,0,1.89.08l.46,0,1.36.09.45,0c.5,0,1,.07,1.51.12.73.06,1.46.13,2.18.21l2,.23,1.33.17c1.19.16,2.36.34,3.52.54l1.11.19c.55.09,1.09.19,1.63.3l1.3.26.31.06,1.38.3c1.85.4,3.68.86,5.5,1.36l1.33.37c.61.17,1.22.35,1.82.54l2.25.71c.75.24,1.49.49,2.23.75.51.18,1,.36,1.53.56,1,.37,2,.76,3,1.16s2,.82,3,1.25q4.84,2.1,9.44,4.62c.59.32,1.17.64,1.75,1s1.17.67,1.74,1c1.71,1,3.38,2.06,5,3.17.36.23.7.46,1.05.71l.28.19,1.57,1.09c.66.47,1.32.95,2,1.44l1,.73c.42.31.85.64,1.27,1,.12.08.23.17.34.26a.08.08,0,0,1,.05,0l1.23,1c.49.39,1,.78,1.45,1.19l1.19,1a.44.44,0,0,1,.11.09q.75.63,1.47,1.29l.21.19c.76.67,1.5,1.36,2.24,2.06l1.15,1.1c.39.37.77.75,1.14,1.12h0c.75.74,1.48,1.5,2.2,2.27.57.6,1.14,1.2,1.68,1.82.31.33.6.66.9,1s.75.85,1.11,1.28Z"/><path class="cls-9" d="M379.75,406.42a18.49,18.49,0,0,1-2.52,8.33L356,450.59c-7.3,12.38-25.68,12.38-33,0l-10.56-17.85L301.9,414.89a18.46,18.46,0,0,1-2.37-6.67,114,114,0,0,1,80.22-1.8Z"/><path class="cls-6" d="M427.86,438.48c-2,1.9-4.07,3.78-6.15,5.62l-1.64,1.42c-.63.55-1.26,1.1-1.9,1.64q-8.6-.54-17.35-1.76l-.49-.07a189.56,189.56,0,0,1-29.59-6.78l-5.46-1.68-1-.3-2.33-.72c-2-.72-4.07-1.47-6.07-2.26A190.22,190.22,0,0,1,308.57,407c-.41-.3-.81-.61-1.21-.93l-.57-.46-.49-.4-1.15-1,2.55-.82.53-.16c.72-.22,1.44-.43,2.17-.62a3,3,0,0,1,.4-.12l2.21-.59.43-.11c.89-.22,1.78-.44,2.68-.63h0l.13,0,.33-.07,1.38-.29.08,0,1-.2c.42-.09.85-.18,1.27-.25q3-.56,6.08-.95l1.37-.17,1.49-.16.33,0c.53-.06,1.05-.11,1.58-.15l1.71-.13,2.12-.13h.06a2.42,2.42,0,0,1,.38,0h.05c1.81-.1,3.63-.14,5.46-.14.82,0,1.65,0,2.47,0,.56,0,1.11,0,1.66.05s1.27,0,1.89.08l.46,0,1.36.09.45,0c.5,0,1,.07,1.51.12.73.06,1.46.13,2.18.21l2,.23,1.33.17c1.19.16,2.36.34,3.52.54l1.11.19c.55.09,1.09.19,1.63.3l1.3.26.31.06,1.38.3c1.85.4,3.68.86,5.5,1.36l1.33.37c.61.17,1.22.35,1.82.54l2.25.71,2.23.76,1.53.55c1,.37,2,.76,3,1.16s2,.82,3,1.25q4.84,2.1,9.44,4.62c.59.32,1.17.64,1.75,1s1.17.67,1.74,1c1.71,1,3.38,2.06,5,3.17.36.23.7.46,1.05.71l.28.19,1.57,1.09c.66.47,1.32.95,2,1.44l1,.73c.42.31.85.64,1.27,1,.12.08.23.17.34.26a.08.08,0,0,1,.05,0l1.23,1c.49.39,1,.78,1.45,1.19l1.19,1a.44.44,0,0,1,.11.09q.75.63,1.47,1.29l.21.19c.76.67,1.5,1.36,2.24,2.06l1.15,1.1c.39.37.77.75,1.14,1.13.75.74,1.48,1.5,2.2,2.27.57.6,1.14,1.2,1.68,1.82.31.33.6.66.9,1s.75.85,1.11,1.28Z"/><path class="cls-12" d="M401.29,460.27q-6.6,4.69-13.53,8.94v-7.37a1.59,1.59,0,0,1,1.56-1.57Z"/><path class="cls-13" d="M383.92,293.87c-.93-.78-1.86-1.63-2.75-2.52s-1.74-1.82-2.51-2.75Z"/><circle class="cls-14" cx="336.56" cy="296.34" r="83.13"/><path class="cls-6" d="M346.66,397.76a260.34,260.34,0,0,0-38.19,4.82c-.26,0-.39.13-.65.13v-.13A267.09,267.09,0,0,1,346.66,397.76Z"/><path class="cls-15" d="M382.83,287.65c-4.24,5.65-11,8.31-16.94,6.9a16.1,16.1,0,0,1-8.47-6"/><path class="cls-15" d="M311.94,287.65c-4.24,5.65-11,8.31-16.94,6.9a16.05,16.05,0,0,1-8.47-6"/><path class="cls-16" d="M347.23,324.1c-4.24,5.64-11,8.31-16.94,6.9a16.16,16.16,0,0,1-8.47-6"/><circle class="cls-17" cx="293.9" cy="321.43" r="9.88"/><circle class="cls-17" cx="372.95" cy="317.82" r="9.88"/><path class="cls-6" d="M346.66,397.76a260.34,260.34,0,0,0-38.19,4.82c-.26,0-.39.13-.65.13v-.13A267.09,267.09,0,0,1,346.66,397.76Z"/><path class="cls-10" d="M432.82,294.44c-39.61-3.4-71.59-29.83-78.42-63.91a134.94,134.94,0,0,1-15.11,20.12c-29.25,32.1-69.9,44.93-99.63,50.1A227.9,227.9,0,0,1,203,304.22L242.87,281c11.81-52.29,49.34-90.55,93.77-90.55a75.68,75.68,0,0,1,20.41,2.76C395.78,203.82,426,243.92,432.82,294.44Z"/><path class="cls-6" d="M432.82,298.34c-39.61-3.41-71.59-29.83-78.42-63.92a135,135,0,0,1-15.12,20.14c-29.23,32.08-69.88,44.91-99.62,50.08A227.9,227.9,0,0,1,203,308.11l31.49-18.37c1.37-.2,2.75-.42,4.17-.68,29.74-5.17,70.39-18,99.65-50.08a136.07,136.07,0,0,0,15.09-20.14c6.72,33.52,37.72,59.62,76.41,63.72A146.14,146.14,0,0,1,432.82,298.34Z"/><path class="cls-11" d="M404.72,137.37H278.49A15,15,0,0,0,263.9,156l10.59,42.23a15,15,0,0,0,14.59,11.36H394.89A15,15,0,0,0,409.48,198l10-42.23A15.21,15.21,0,0,0,404.72,137.37Z"/><path class="cls-6" d="M317.49,209.54h-29a15.12,15.12,0,0,1-14.59-11.36L263.28,156a14.74,14.74,0,0,1,5.07-15.2C270.5,170.85,289.85,196.49,317.49,209.54Z"/><polygon class="cls-9" points="362.03 166.85 362.03 180.21 348.21 180.21 348.21 193.88 334.85 193.88 334.85 180.21 321.18 180.21 321.18 166.85 334.85 166.85 334.85 153.03 348.21 153.03 348.21 166.85 362.03 166.85"/><path d="M256.13,416c3.22,0,3.23-5,0-5s-3.22,5,0,5Z"/><path d="M256.13,416c3.22,0,3.23-5,0-5s-3.22,5,0,5Z"/><path class="cls-6" d="M416,353.63a74.44,74.44,0,1,0,74.43,74.44A74.45,74.45,0,0,0,416,353.63Z"/><circle class="cls-9" cx="406.92" cy="417.69" r="74.44"/><path class="cls-18" d="M406.93,343.25a74.44,74.44,0,1,0,74.43,74.44A74.44,74.44,0,0,0,406.93,343.25Zm0,129.29a54.85,54.85,0,1,1,54.84-54.85A54.85,54.85,0,0,1,406.93,472.54Z"/><path class="cls-6" d="M443.73,403.4a10.12,10.12,0,0,1-3,7.15L412.2,439.14a10.15,10.15,0,0,1-11.41,2,10,10,0,0,1-2.3-1.45l-1.16-1.16-14.76-14.78a10.12,10.12,0,0,1,14.3-14.31l8.2,8.2,21.4-21.4a10.11,10.11,0,0,1,17.26,7.15Z"/><path class="cls-18" d="M440.42,403.4a10.12,10.12,0,0,1-2.95,7.15l-28.59,28.59a10.15,10.15,0,0,1-11.41,2,9.93,9.93,0,0,1-2.29-1.45L394,438.54l-14.77-14.78a10.12,10.12,0,0,1,14.31-14.31l8.19,8.2,21.4-21.4a10.11,10.11,0,0,1,17.27,7.15Z"/><path class="cls-19" d="M440.39,403.4a10.12,10.12,0,0,1-2.95,7.16l-28.59,28.59a10.14,10.14,0,0,1-11.4,2,9.51,9.51,0,0,1-2.3-1.46L394,438.55l-14.77-14.78a10.08,10.08,0,0,1-2.79-8.91,10,10,0,0,0,2.79,5.39L394,435l1.16,1.16a9.82,9.82,0,0,0,2.3,1.46,10.14,10.14,0,0,0,11.4-2l28.59-28.59a10.1,10.1,0,0,0,2.8-5.4A10.34,10.34,0,0,1,440.39,403.4Z"/></g></svg>