<svg xmlns="http://www.w3.org/2000/svg" viewBox="0 0 527.84 530.67"><defs><style>.cls-1{fill:#ebf6ff;}.cls-2{fill:#c9e7ff;}.cls-3{fill:none;}.cls-4{fill:#0280ee;}.cls-5{fill:#003c70;}.cls-6{fill:#2f2e41;opacity:0.16;isolation:isolate;}.cls-7{fill:#fff;}.cls-8{fill:#2bb573;}.cls-9{fill:#231f20;opacity:0.16;}</style></defs><g id="Layer_1" data-name="Layer 1"><path class="cls-1" d="M504.64,260.38c0,7.72-.35,15.37-1.06,22.9a243,243,0,0,1-22.13,81.26c-38.22,81.22-119.73,138-214.79,140.68-.83,0-1.65,0-2.48.06-1.49,0-3,0-4.47,0s-2.86,0-4.29,0c-.91,0-1.82,0-2.72-.07l-2.1-.07-.68,0a243.5,243.5,0,0,1-115.78-34.4q-8.1-4.82-15.76-10.26l-.83-.59c-.87-.61-1.74-1.25-2.6-1.87A246,246,0,0,1,29.6,344.51a241.21,241.21,0,0,1-9.26-32,244.66,244.66,0,0,1-4.61-30.26q-1-10.81-1-21.89,0-5.91.29-11.74.15-3.37.41-6.72c.1-1.34.2-2.68.33-4,.72-8,1.84-15.88,3.31-23.64C40.68,101.05,140.2,15.46,259.71,15.46A243.92,243.92,0,0,1,414.9,70.89q8.94,7.33,17.14,15.47,5.38,5.3,10.4,10.92a245.44,245.44,0,0,1,44.33,71.12h0c.66,1.6,1.3,3.22,1.91,4.84A244,244,0,0,1,504.64,260.38Z"/><path class="cls-2" d="M481.45,364.54c-38.22,81.22-119.73,138-214.79,140.68-.83,0-1.65,0-2.48.06-1.49,0-3,0-4.47,0s-2.86,0-4.29,0c-.91,0-1.82,0-2.72-.07l-2.1-.07-.68,0a243.5,243.5,0,0,1-115.78-34.4q-8.1-4.82-15.76-10.26l-.83-.59c-.87-.61-1.74-1.25-2.6-1.87A246,246,0,0,1,29.6,344.51c14.49-2.44,31.74-3.49,51.49-7.84a206.58,206.58,0,0,0,73.25-31.45c2.71,4.94,16.82,28.93,58.49,40.87a184.56,184.56,0,0,0,62.93,5.59c49.3-4.6,91.33-32.58,107.17-70.27,6.37,13.49,18.69,33.5,44.23,53.21C445.58,348.84,464.28,357.82,481.45,364.54Z"/><path class="cls-2" d="M29.49,249.37c32-1.15,75.9-.77,107.86-1.93-1.23-8.86-4.13-12-6.76-13.2-8.33-3.68-17.52,11.44-31.43,8.8-5.6-1.06-5.33-3.74-14.62-6.13-4-1-10.24-2.56-17.13-.78a29,29,0,0,0-11.48,6.28c-6.08,4.78-18,8.19-43.38,2.05C22.19,246.61,19.84,247.22,29.49,249.37Z"/><path class="cls-2" d="M132.43,126.29c32-1.16,75.91-.78,107.87-1.93-1.23-8.86-4.13-12-6.76-13.2-8.33-3.68-17.52,11.44-31.43,8.8-5.6-1.06-5.33-3.74-14.62-6.13-4-1-10.24-2.56-17.13-.79a29,29,0,0,0-11.48,6.29c-6.08,4.78-17.95,8.19-43.38,2C125.14,123.52,122.79,124.14,132.43,126.29Z"/><path class="cls-2" d="M461.58,173.89c-37.48-1.35-89-.9-126.5-2.25,1.45-10.39,4.85-14.13,7.93-15.49,9.77-4.31,20.55,13.42,36.86,10.32,6.57-1.24,6.25-4.38,17.15-7.19,4.64-1.19,12-3,20.09-.92a34.08,34.08,0,0,1,13.46,7.38c7.13,5.6,21.05,9.6,50.88,2.39C470.14,170.65,472.89,171.37,461.58,173.89Z"/><path class="cls-3" d="M80.87,99.17H422.63V440.93H80.87Z"/><path class="cls-4" d="M251.75,408.84c-63-16.25-110.42-81.32-110.42-151.75V172.8l110.42-41.41L362.17,172.8v84.29C362.17,327.52,314.77,392.58,251.75,408.84Z"/><path class="cls-5" d="M251.75,135.13l106.92,40.09v81.87c0,68.56-45.84,131.89-106.92,148.13C190.67,389,144.83,325.65,144.83,257.09V175.22l106.92-40.09m0-7.48L137.83,170.37v86.72c0,71.91,48.55,139,113.92,155.36C317.11,396.08,365.67,329,365.67,257.09V170.37L251.75,127.65Z"/><polygon class="cls-6" points="236.8 326.7 186.39 276.3 206.46 256.21 236.65 286.4 297.03 226.03 317.11 246.1 236.8 326.7"/><polygon class="cls-7" points="236.8 313.82 186.39 263.41 206.46 243.33 236.65 273.52 297.03 213.14 317.11 233.22 236.8 313.82"/><path class="cls-6" d="M416,353.63a74.44,74.44,0,1,0,74.43,74.44A74.45,74.45,0,0,0,416,353.63Z"/><circle class="cls-7" cx="406.92" cy="417.69" r="74.44"/><path class="cls-8" d="M406.93,343.25a74.44,74.44,0,1,0,74.43,74.44A74.44,74.44,0,0,0,406.93,343.25Zm0,129.29a54.85,54.85,0,1,1,54.84-54.85A54.85,54.85,0,0,1,406.93,472.54Z"/><path class="cls-6" d="M443.73,403.4a10.12,10.12,0,0,1-3,7.15L412.2,439.14a10.15,10.15,0,0,1-11.41,2,10,10,0,0,1-2.3-1.45l-1.16-1.16-14.76-14.78a10.12,10.12,0,0,1,14.3-14.31l8.2,8.2,21.4-21.4a10.11,10.11,0,0,1,17.26,7.15Z"/><path class="cls-8" d="M440.42,403.4a10.12,10.12,0,0,1-2.95,7.15l-28.59,28.59a10.15,10.15,0,0,1-11.41,2,9.93,9.93,0,0,1-2.29-1.45L394,438.54l-14.77-14.78a10.12,10.12,0,0,1,14.31-14.31l8.19,8.2,21.4-21.4a10.11,10.11,0,0,1,17.27,7.15Z"/><path class="cls-9" d="M440.39,403.4a10.12,10.12,0,0,1-2.95,7.16l-28.59,28.59a10.14,10.14,0,0,1-11.4,2,9.51,9.51,0,0,1-2.3-1.46L394,438.55l-14.77-14.78a10.08,10.08,0,0,1-2.79-8.91,10,10,0,0,0,2.79,5.39L394,435l1.16,1.16a9.82,9.82,0,0,0,2.3,1.46,10.14,10.14,0,0,0,11.4-2l28.59-28.59a10.1,10.1,0,0,0,2.8-5.4A10.34,10.34,0,0,1,440.39,403.4Z"/></g></svg>