<svg xmlns="http://www.w3.org/2000/svg" viewBox="0 0 257.51 400.5"><defs><style>.cls-1{fill:#e97952;}.cls-2,.cls-3{fill:#fff;}.cls-3{font-size:69.02px;font-family:Impact;}</style></defs><g id="Layer_1" data-name="Layer 1"><rect class="cls-1" x="-71.49" y="71.49" width="400.5" height="257.51" transform="translate(329 71.49) rotate(90)"/><path class="cls-2" d="M65.58,151.37H34.31V50.62l26.17,0q73.22,44.77,90.61,53.21t27.14,8.45q7.49,0,11.17-2.56t3.68-7.77A8.56,8.56,0,0,0,189,94.19q-4.08-2.55-16.21-2.55H155.34v-41H162q15.41,0,24.31,1.58A42.81,42.81,0,0,1,203.85,60a39.31,39.31,0,0,1,13,16.21q4.43,10,4.42,23.91,0,27.31-13.54,41.31t-34.29,14q-15.75,0-33.31-7.88T65.58,101.16Z"/><path class="cls-2" d="M217.79,257.89H97.88v13H66.6v-13H34.31V212.11H66.6v-54.4H97.88l119.91,39.55ZM97.88,212.11H176L97.88,191.88Z"/><text class="cls-3" transform="translate(34.48 361.34)">HOURS</text></g></svg>