<svg xmlns="http://www.w3.org/2000/svg" xmlns:xlink="http://www.w3.org/1999/xlink" viewBox="0 0 531.1 534.65"><defs><style>.cls-1{fill:none;}.cls-2{fill:#ebf6ff;}.cls-3{fill:#c9e7ff;}.cls-4{fill:#709955;}.cls-5{fill:#9fc25b;}.cls-6{fill:#8cc16a;}.cls-7{clip-path:url(#clip-path);}.cls-8{stroke:#000;stroke-miterlimit:10;opacity:0.04;isolation:isolate;}.cls-9{fill:#8bd6f7;}.cls-10{fill:#b9e2e3;}.cls-11{fill:#fbfcfc;}.cls-12{fill:#fff5de;}.cls-13{fill:#5bb8e5;}.cls-14{fill:#9e7a4b;}.cls-15{fill:#9fc15c;}.cls-16{fill:#231f20;opacity:0.16;}.cls-17{fill:#e1f0fa;}.cls-18{fill:#f05d65;}.cls-19{fill:#003c70;}</style><clipPath id="clip-path"><path class="cls-1" d="M488.62,289.11c0,6.8-.31,13.54-.93,20.17A215.62,215.62,0,0,1,279,504.78c-.73,0-1.45,0-2.18.05-1.31,0-2.62,0-3.94,0s-2.52,0-3.78,0c-.8,0-1.6,0-2.39-.06l-1.85-.06-.6,0a214.48,214.48,0,0,1-102-30.3q-7.12-4.25-13.88-9l-.73-.52c-.77-.54-1.53-1.1-2.29-1.65a216.58,216.58,0,0,1-75.18-100A212.93,212.93,0,0,1,62,335.05,216.28,216.28,0,0,1,58,308.39q-.85-9.52-.85-19.28,0-5.21.25-10.34c.09-2,.21-4,.36-5.92.09-1.18.18-2.36.29-3.54q1-10.57,2.92-20.83c19-99.72,106.67-175.11,211.94-175.11a214.82,214.82,0,0,1,136.7,48.83c5.25,4.3,10.3,8.85,15.1,13.62q4.74,4.67,9.16,9.62a216,216,0,0,1,39.05,62.65h0q.87,2.11,1.68,4.26A215,215,0,0,1,488.62,289.11Z"/></clipPath></defs><g id="Layer_1" data-name="Layer 1"><path class="cls-2" d="M488.62,287.63c0,6.8-.31,13.54-.93,20.17A215.62,215.62,0,0,1,279,503.3c-.73,0-1.45,0-2.18.05-1.31,0-2.62,0-3.94,0l-3.78,0c-.8,0-1.6,0-2.39-.06l-1.85-.06-.6,0a214.48,214.48,0,0,1-102-30.3q-7.12-4.25-13.88-9l-.73-.52c-.77-.54-1.53-1.1-2.29-1.65a216.58,216.58,0,0,1-75.18-100A212.93,212.93,0,0,1,62,333.57,216.28,216.28,0,0,1,58,306.91q-.85-9.53-.85-19.28,0-5.2.25-10.34c.09-2,.21-4,.36-5.92.09-1.18.18-2.36.29-3.54q1-10.57,2.92-20.83c19-99.72,106.67-175.11,211.94-175.11a214.82,214.82,0,0,1,136.7,48.83c5.25,4.3,10.3,8.85,15.1,13.62q4.74,4.66,9.16,9.62a216,216,0,0,1,39.05,62.65h0q.87,2.12,1.68,4.26A215,215,0,0,1,488.62,287.63Z"/><path class="cls-3" d="M468.19,379.38A215.78,215.78,0,0,1,279,503.3c-.73,0-1.45,0-2.18.05-1.31,0-2.62,0-3.94,0l-3.78,0c-.8,0-1.6,0-2.39-.06l-1.85-.06-.6,0a214.48,214.48,0,0,1-102-30.3q-7.12-4.25-13.88-9l-.73-.52c-.77-.54-1.53-1.1-2.29-1.65a216.58,216.58,0,0,1-75.18-100c12.76-2.15,28-3.08,45.35-6.91a182.09,182.09,0,0,0,64.53-27.7c2.38,4.35,14.81,25.48,51.52,36A162.42,162.42,0,0,0,287,368.05c43.43-4.05,80.45-28.7,94.4-61.9,5.61,11.89,16.46,29.51,39,46.87C436.6,365.55,453.07,373.46,468.19,379.38Z"/><path class="cls-3" d="M28.82,277.93c28.15-1,66.86-.68,95-1.7-1.09-7.8-3.64-10.61-6-11.63-7.34-3.24-15.43,10.08-27.69,7.76-4.93-.94-4.69-3.3-12.87-5.4-3.49-.9-9-2.26-15.1-.7a25.62,25.62,0,0,0-10.1,5.54C46.76,276,36.31,279,13.9,273.6,22.4,275.49,20.33,276,28.82,277.93Z"/><path class="cls-3" d="M160.76,169.51c28.16-1,66.87-.68,95-1.69-1.09-7.81-3.64-10.61-6-11.63-7.33-3.25-15.43,10.07-27.69,7.75-4.93-.94-4.68-3.29-12.87-5.4-3.49-.9-9-2.26-15.09-.69a25.62,25.62,0,0,0-10.11,5.53c-5.36,4.21-15.81,7.22-38.22,1.8C154.34,167.08,152.27,167.62,160.76,169.51Z"/><path class="cls-3" d="M496.44,211.45c-33-1.19-78.42-.8-111.43-2,1.27-9.15,4.26-12.44,7-13.64,8.6-3.8,18.1,11.82,32.47,9.09,5.79-1.1,5.5-3.86,15.11-6.33,4.09-1.06,10.57-2.65,17.69-.81a30,30,0,0,1,11.86,6.49c6.28,4.94,18.54,8.46,44.81,2.11C504,208.59,506.4,209.23,496.44,211.45Z"/><path class="cls-4" d="M481.74,267.65v41.48l-16.27-31.07q-1.59-3-3.17-6.07t-3-5.8l-.72-1.37-2-3.91-.39-.73c-.14-.27-.28-.55-.43-.82q-1.08-2.08-2.18-4.17c1.71.48,3.81,1.11,6.23,1.95,1.19.41,2.45.87,3.77,1.38l.25.1.24.1,1.25.5.53.21c1,.42,2,.87,3.1,1.34l.28.13a108.09,108.09,0,0,1,10.93,5.74Z"/><path class="cls-5" d="M469.45,259.15c-7.7-7-27.32-22.89-56.8-26.75-47.47-6.21-81.38,23.91-86.48,28.58l30.05,2.2c.51-.62,1.61-1.8,3.49-3.67h0c1.73-1.73,5.1-5.27,10.44-11l-1.47,15.4,11.73-1.47,2.69-3.63h0l5.73-7.73L398,264.65Z"/><path class="cls-5" d="M481.74,231.47V266c-.56.24-1.11.46-1.66.68A106.33,106.33,0,0,1,465,271.4c-.9.21-1.79.41-2.66.59-3.41.71-6.55,1.2-9.32,1.53l-.59.07c-2.87.33-5.32.5-7.27.59l11.38-13.27c.23-.27.47-.54.7-.82l.9-1c.54-.63,1.09-1.26,1.63-1.9l2.08-2.42,1-1.15,4.93-5.75Z"/><path class="cls-6" d="M469.16,261c-.49-10.41-3.13-35.51-21.25-59.08-29.18-38-74.45-40.64-81.36-40.94l19.69,22.81c.81-.09,2.42-.13,5.06-.13h0c2.45,0,7.34-.13,15.16-.39l-11.92,9.84,9.32,7.26,4.47-.66h0l9.53-1.41-3.11,16.06Z"/><g class="cls-7"><path class="cls-8" d="M474.58,474.82a14.77,14.77,0,0,0-2.1.1,14.17,14.17,0,0,0-18.3-9.4,18.72,18.72,0,0,0-35.7,7.8,17.4,17.4,0,0,0,.6,4.5,15.79,15.79,0,0,0,2.3,31.4h53.2a17.2,17.2,0,0,0,0-34.4Z"/><path class="cls-8" d="M442.13,439.18a14.77,14.77,0,0,0-2.1.1,14.17,14.17,0,0,0-18.3-9.4,18.72,18.72,0,0,0-35.7,7.8,17.4,17.4,0,0,0,.6,4.5,15.79,15.79,0,0,0,2.3,31.4h53.2a17.2,17.2,0,0,0,0-34.4Z"/><rect class="cls-9" x="-276.58" y="324.44" width="760.88" height="109.42"/><rect class="cls-10" x="-276.58" y="391.56" width="760.88" height="40.89"/><rect class="cls-11" x="-276.58" y="433.86" width="760.88" height="20.44"/><rect class="cls-12" x="-276.58" y="432.86" width="760.88" height="72"/><rect class="cls-13" x="-276.58" y="326.05" width="760.88" height="70.68"/><path class="cls-14" d="M473.64,503.26a246.12,246.12,0,0,1-38-83.6c-17.21-71.1,2.44-132.46,15.69-162.7l12.82,5.61c-12.54,28.64-31.15,86.69-14.9,153.79a232.19,232.19,0,0,0,35.85,78.86Z"/><path class="cls-4" d="M466,258.38c-10.41.49-35.51,3.13-59.08,21.25-38,29.18-40.64,74.45-40.94,81.36l22.8-19.69c-.08-.8-.13-2.41-.13-5.06h0c0-2.45-.12-7.33-.38-15.15L398.07,333l7.26-9.33-.67-4.47h0l-1.41-9.52,16.07,3.11Z"/><path class="cls-15" d="M464,258.38c-7,7.71-22.9,27.33-26.75,56.8-6.21,47.48,23.9,81.39,28.58,86.48l2.2-30.05c-.63-.51-1.8-1.61-3.67-3.48h0c-1.73-1.73-5.27-5.1-11-10.44l15.39,1.47-1.47-11.73-3.63-2.69h0s-2.57-1.92-7.73-5.74l13.56-9.16Z"/></g><ellipse class="cls-16" cx="160.91" cy="459.73" rx="52.56" ry="11.29"/><ellipse class="cls-17" cx="160.91" cy="273.3" rx="74.77" ry="189.8"/><path class="cls-18" d="M232,259.26c-4.64-25-11.41-47.49-19.88-65.58-14-30-32.24-46.44-51.24-46.44s-37.2,16.49-51.24,46.44c-8.48,18.09-15.25,40.56-19.89,65.58,1.11-45.85,8.65-88.52,21.52-121.2,13.36-33.92,31.44-53.38,49.61-53.38s36.24,19.46,49.61,53.38C223.39,170.74,230.93,213.41,232,259.26Z"/><path class="cls-19" d="M160.91,88.18c16.65,0,33.54,18.65,46.35,51.16,8.88,22.53,15.19,49.9,18.56,79.81-14.88-46.7-38.31-75.41-64.91-75.41s-50,28.71-64.92,75.41c3.38-29.91,9.69-57.28,18.57-79.81,12.8-32.51,29.7-51.16,46.35-51.16m0-7c-41.29,0-74.77,85-74.77,189.8,0,11.88.43,23.5,1.27,34.77,6.42-88.21,36.89-155,73.5-155s67.08,66.8,73.5,155c.83-11.27,1.26-22.89,1.26-34.77,0-104.83-33.47-189.8-74.76-189.8Z"/><rect class="cls-18" x="114.23" y="281.43" width="88" height="26.1"/><path class="cls-19" d="M198.73,284.93V304h-81v-19.1h81m7-7h-95V311h95v-33.1Z"/><rect class="cls-18" x="126.25" y="339.92" width="69.31" height="1.61"/><polygon class="cls-19" points="199.06 336.43 122.75 336.43 122.75 345.04 199.06 345.04 199.06 336.43 199.06 336.43"/></g></svg>