<svg xmlns="http://www.w3.org/2000/svg" viewBox="0 0 534.08 534.53"><defs><style>.cls-1{fill:#ebf6ff;}.cls-2{fill:#c9e7ff;}.cls-3{fill:#2f2e41;opacity:0.16;isolation:isolate;}.cls-4{fill:#f05d65;}.cls-5{fill:#003c70;}.cls-6{opacity:0.16;}.cls-7{fill:none;stroke:#003c70;stroke-linejoin:round;stroke-width:7px;}.cls-8{fill:#fff;}</style></defs><g id="Layer_1" data-name="Layer 1"><path class="cls-1" d="M504.64,260.38c0,7.72-.35,15.37-1.06,22.89a243.44,243.44,0,0,1-22.14,81.27,245.77,245.77,0,0,1-98.16,107.35q-8.41,4.94-17.24,9.2-7.23,3.5-14.7,6.51-6.51,2.63-13.21,4.89-10,3.38-20.3,5.89a245,245,0,0,1-47.89,6.73c-.74,0-1.49.06-2.24.08l-1.66,0-1.86,0q-1.41,0-2.82,0H258.3l-2.89,0c-.9,0-1.81,0-2.71-.06l-2.1-.07-.68,0a244.29,244.29,0,0,1-33.84-3.69l-1.47-.26-16.91-3.78-1.11-.3a238.38,238.38,0,0,1-26.82-8.83l-.16-.07c-2.45-.95-4.87-2-7.28-3q-7.59-3.29-14.9-7.06-6.78-3.51-13.3-7.41-8.08-4.83-15.75-10.27c-.26-.19-.55-.38-.83-.59l-.13-.09c-.84-.58-1.65-1.18-2.47-1.78A245.84,245.84,0,0,1,29.6,344.51a241.21,241.21,0,0,1-9.26-32,244.82,244.82,0,0,1-4.61-30.27c-.65-7.21-1-14.49-1-21.88q0-5.91.29-11.74c0-1.19.11-2.37.18-3.55v0c.07-1.06.14-2.11.22-3.15.11-1.34.21-2.68.33-4q1.1-12,3.32-23.65C40.68,101,140.2,15.46,259.71,15.46A243.89,243.89,0,0,1,414.9,70.89q8.94,7.32,17.14,15.46,5.38,5.3,10.4,10.92a245.3,245.3,0,0,1,44.33,71.13h0c.66,1.6,1.29,3.21,1.91,4.83A244.09,244.09,0,0,1,504.64,260.38Z"/><path class="cls-2" d="M481.44,364.54a245.77,245.77,0,0,1-98.16,107.35q-8.41,4.94-17.24,9.2-7.23,3.5-14.7,6.51-6.51,2.63-13.21,4.89-10,3.38-20.3,5.89a245,245,0,0,1-47.89,6.73c-.74,0-1.49.06-2.24.08l-1.66,0-1.86,0q-1.41,0-2.82,0H258.3l-2.89,0c-.9,0-1.81,0-2.71-.06l-2.1-.07-.68,0a244.29,244.29,0,0,1-33.84-3.69l-1.47-.26-16.91-3.78-1.11-.3a238.38,238.38,0,0,1-26.82-8.83l-.16-.07c-2.45-.95-4.87-2-7.28-3q-7.59-3.29-14.9-7.06-6.78-3.51-13.3-7.41-8.08-4.83-15.75-10.27c-.26-.19-.55-.38-.83-.59l-.13-.09c-.84-.58-1.65-1.18-2.47-1.78A245.84,245.84,0,0,1,29.6,344.51c14.49-2.44,31.74-3.5,51.48-7.84a207.81,207.81,0,0,0,62.8-24.74c1-.58,2-1.18,2.94-1.79q3.75-2.34,7.52-4.92a67.3,67.3,0,0,0,14,17.26c.71.65,1.45,1.29,2.23,1.95h0a97.75,97.75,0,0,0,17.52,11.8,124.32,124.32,0,0,0,20.18,8.47q2.2.72,4.53,1.38a184.36,184.36,0,0,0,62.93,5.58q7.58-.71,14.89-2.13h0A140.82,140.82,0,0,0,349,323.93h0a116.2,116.2,0,0,0,18.22-17.22,99.81,99.81,0,0,0,11.48-16.58,91.08,91.08,0,0,0,4.23-8.73c6.37,13.5,18.68,33.5,44.23,53.21C445.58,348.84,464.28,357.82,481.44,364.54Z"/><path class="cls-2" d="M29.49,249.37c32-1.15,75.9-.77,107.86-1.93-1.23-8.86-4.13-12-6.76-13.2-8.33-3.68-17.52,11.44-31.43,8.8-5.6-1.06-5.33-3.74-14.62-6.13-4-1-10.24-2.56-17.13-.78a29,29,0,0,0-11.48,6.28c-6.08,4.78-18,8.19-43.38,2.05C22.19,246.61,19.84,247.22,29.49,249.37Z"/><path class="cls-2" d="M132.43,126.29c32-1.16,75.91-.78,107.87-1.93-1.23-8.86-4.13-12-6.76-13.2-8.33-3.68-17.52,11.44-31.43,8.8-5.6-1.06-5.33-3.74-14.62-6.13-4-1-10.24-2.56-17.13-.79a29,29,0,0,0-11.48,6.29c-6.08,4.78-17.95,8.19-43.38,2C125.14,123.52,122.79,124.14,132.43,126.29Z"/><path class="cls-2" d="M461.58,173.89c-37.48-1.35-89-.9-126.5-2.25,1.45-10.39,4.85-14.13,7.93-15.49,9.77-4.31,20.55,13.42,36.86,10.32,6.57-1.24,6.25-4.38,17.15-7.19,4.64-1.19,12-3,20.09-.92a34.08,34.08,0,0,1,13.46,7.38c7.13,5.6,21.05,9.6,50.88,2.39C470.14,170.65,472.89,171.37,461.58,173.89Z"/><path class="cls-3" d="M179.85,355.33v-3.72c0-25.31-.2-50.62,0-75.92.32-34.45,14.9-61.44,44-80,53-33.83,125.63-3.32,138.89,58.24A108.41,108.41,0,0,1,365,275.45c.27,25.31.1,50.62.1,75.92v4h10.16c21.1.06,36,15,36.07,36.06q0,16,0,31.94c0,8.47-4.55,13.11-13,13.11H146.53c-8.27,0-12.84-4.53-12.89-12.86-.06-11.05-.13-22.1,0-33.14.26-20.25,15.25-35,35.49-35.1C172.54,355.32,175.94,355.33,179.85,355.33Z"/><path class="cls-4" d="M134.94,415.56c-6.36,0-9.34-3-9.38-9.37v-.76c-.06-10.6-.13-21.56,0-32.32.23-18.25,13.69-31.56,32-31.65h10.69a3.5,3.5,0,0,0,3.5-3.5v-3.72q0-11.73,0-23.45c0-17.19-.08-35,.08-52.44.31-33.41,14.55-59.34,42.33-77.05a85.67,85.67,0,0,1,46.19-13.47c42,0,78.73,29.23,87.4,69.5A104.38,104.38,0,0,1,350,258.12c.19,18.32.16,37,.13,55q0,10.44,0,20.89v4a3.5,3.5,0,0,0,3.5,3.5h10.14c19.17.05,32.56,13.44,32.58,32.56q0,16,0,31.93c0,6.56-3,9.61-9.46,9.61H134.94Z"/><path class="cls-5" d="M260.32,171.33a87.73,87.73,0,0,1,53.11,18.14,82.53,82.53,0,0,1,30.87,48.59,101.23,101.23,0,0,1,2.15,20.09c.19,18.3.16,36.93.13,55q0,10.44,0,20.9v4a7,7,0,0,0,7,7h10.13c8.47,0,15.74,2.82,21,8.1s8.07,12.52,8.07,21q0,16,0,31.92c0,4.63-1.46,6.11-6,6.11H135c-4.43,0-5.86-1.43-5.89-5.89v-.9c-.06-10.54-.13-21.43,0-32.12A27.61,27.61,0,0,1,157.59,345h10.67a7,7,0,0,0,7-7v-3.72q0-11.72,0-23.43c0-17.19-.08-35,.08-52.43.15-16,3.63-30.39,10.34-42.66s17-22.92,30.37-31.47a82.17,82.17,0,0,1,44.31-12.92m0-7a89,89,0,0,0-48.07,14c-29.06,18.54-43.63,45.53-43.95,80-.23,25.3,0,50.61,0,75.92V338h-10.7c-20.24.1-35.23,14.86-35.49,35.11-.14,11-.07,22.09,0,33.14,0,8.33,4.61,12.85,12.88,12.85H386.82c8.4,0,12.95-4.63,13-13.1q0-16,0-31.94c0-21.07-15-36-36.07-36.06H353.55v-4c0-25.31.17-50.62-.1-75.92a108.41,108.41,0,0,0-2.31-21.49c-9.5-44.1-49.43-72.26-90.82-72.26Z"/><path class="cls-4" d="M170.49,179.35c-2.58-1.36-5.58-2.26-7.67-4.17-5.7-5.21-11.07-10.78-16.45-16.33a11.58,11.58,0,1,1,16.33-16.43c5.68,5.54,11.31,11.13,16.77,16.87,3.36,3.52,3.95,7.81,2.07,12.3a11.51,11.51,0,0,1-10.67,7Z"/><path class="cls-4" d="M352.43,178.75c-6.44-.37-10.17-2.57-12.15-7.17a10.68,10.68,0,0,1,2.05-12.31q8.31-8.72,17-17.05a11.57,11.57,0,0,1,16.29,16.42c-5.49,5.71-11,11.4-16.88,16.75C356.76,177.23,353.81,178.05,352.43,178.75Z"/><path class="cls-4" d="M272.43,118.28c0,3.91.06,7.82,0,11.74a11.52,11.52,0,0,1-23,.08q-.15-11.73,0-23.48a11.53,11.53,0,1,1,23.06-.09c.08,3.92,0,7.83,0,11.75Z"/><path class="cls-4" d="M122,268.55c-3.92,0-7.84.08-11.75,0a11.52,11.52,0,0,1-.06-23q12-.19,24.08,0a11.52,11.52,0,0,1-.23,23C130,268.61,126,268.55,122,268.55Z"/><path class="cls-4" d="M399.53,268.55c-3.91,0-7.83.07-11.74,0a11.52,11.52,0,0,1-.15-23c8-.12,16.06-.14,24.09,0a11.52,11.52,0,0,1-.15,23C407.57,268.64,403.55,268.56,399.53,268.55Z"/><path class="cls-6" d="M326.25,246.49c.15,7.29-4.39,12.57-11,12.82-6.82.26-11.84-4.41-12.22-11.67-.55-10.65-5.82-17.77-15.62-21.77-6.38-2.61-9.13-9.13-6.64-15.3,2.39-5.91,8.92-8.57,15.29-6.21A46.47,46.47,0,0,1,326.25,246.49Z"/><line class="cls-7" x1="164.9" y1="341.11" x2="351.69" y2="341.11"/><path class="cls-8" d="M323.87,236.4c.15,7.28-4.4,12.56-11,12.81-6.82.26-11.84-4.41-12.21-11.66-.55-10.66-5.82-17.77-15.63-21.78-6.38-2.61-9.13-9.13-6.64-15.29,2.39-5.92,8.92-8.57,15.29-6.22A46.52,46.52,0,0,1,323.87,236.4Z"/></g></svg>