<svg xmlns="http://www.w3.org/2000/svg" viewBox="0 0 517.19 520.77"><defs><style>.cls-1{fill:#ebf6ff;}.cls-2{fill:#c9e7ff;}.cls-3{fill:#f05d65;stroke:#003c70;stroke-linejoin:round;stroke-width:7px;}.cls-4{fill:#2f2e41;opacity:0.16;isolation:isolate;}.cls-5{fill:#fff;}.cls-6{fill:#0280ee;}.cls-7{fill:#23405a;}</style></defs><g id="Layer_1" data-name="Layer 1"><path class="cls-1" d="M504.64,260.38c0,7.72-.35,15.37-1.06,22.9a243,243,0,0,1-22.13,81.26c-38.22,81.22-119.73,138-214.79,140.68-.83,0-1.65,0-2.48.06-1.49,0-3,0-4.47,0s-2.86,0-4.29,0c-.91,0-1.82,0-2.72-.07l-2.1-.07-.68,0a243.5,243.5,0,0,1-115.78-34.4q-8.1-4.82-15.76-10.26l-.83-.59c-.87-.61-1.74-1.25-2.6-1.87A246,246,0,0,1,29.6,344.51a241.21,241.21,0,0,1-9.26-32,244.66,244.66,0,0,1-4.61-30.26q-1-10.81-1-21.89,0-5.91.29-11.74.15-3.37.41-6.72c.1-1.34.2-2.68.33-4,.72-8,1.84-15.88,3.31-23.64C40.68,101.05,140.2,15.46,259.71,15.46A243.92,243.92,0,0,1,414.9,70.89q8.94,7.33,17.14,15.47,5.38,5.3,10.4,10.92a245.44,245.44,0,0,1,44.33,71.12h0c.66,1.6,1.3,3.22,1.91,4.84A244,244,0,0,1,504.64,260.38Z"/><path class="cls-2" d="M481.45,364.54c-38.22,81.22-119.73,138-214.79,140.68-.83,0-1.65,0-2.48.06-1.49,0-3,0-4.47,0s-2.86,0-4.29,0c-.91,0-1.82,0-2.72-.07l-2.1-.07-.68,0a243.5,243.5,0,0,1-115.78-34.4q-8.1-4.82-15.76-10.26l-.83-.59c-.87-.61-1.74-1.25-2.6-1.87A246,246,0,0,1,29.6,344.51c14.49-2.44,31.74-3.49,51.49-7.84a206.58,206.58,0,0,0,73.25-31.45c2.71,4.94,16.82,28.93,58.49,40.87a184.56,184.56,0,0,0,62.93,5.59c49.3-4.6,91.33-32.58,107.17-70.27,6.37,13.49,18.69,33.5,44.23,53.21C445.58,348.84,464.28,357.82,481.45,364.54Z"/><path class="cls-2" d="M29.49,249.37c32-1.15,75.9-.77,107.86-1.93-1.23-8.86-4.13-12-6.76-13.2-8.33-3.68-17.52,11.44-31.43,8.8-5.6-1.06-5.33-3.74-14.62-6.13-4-1-10.24-2.56-17.13-.78a29,29,0,0,0-11.48,6.28c-6.08,4.78-18,8.19-43.38,2.05C22.19,246.61,19.84,247.22,29.49,249.37Z"/><path class="cls-2" d="M132.43,126.29c32-1.16,75.91-.78,107.87-1.93-1.23-8.86-4.13-12-6.76-13.2-8.33-3.68-17.52,11.44-31.43,8.8-5.6-1.06-5.33-3.74-14.62-6.13-4-1-10.24-2.56-17.13-.79a29,29,0,0,0-11.48,6.29c-6.08,4.78-17.95,8.19-43.38,2C125.14,123.52,122.79,124.14,132.43,126.29Z"/><path class="cls-2" d="M461.58,173.89c-37.48-1.35-89-.9-126.5-2.25,1.45-10.39,4.85-14.13,7.93-15.49,9.77-4.31,20.55,13.42,36.86,10.32,6.57-1.24,6.25-4.38,17.15-7.19,4.64-1.19,12-3,20.09-.92a34.08,34.08,0,0,1,13.46,7.38c7.13,5.6,21.05,9.6,50.88,2.39C470.14,170.65,472.89,171.37,461.58,173.89Z"/><path class="cls-3" d="M230.58,169.34,219.34,162V149.64H388.09a27.35,27.35,0,0,1,9.61,1.73,27.94,27.94,0,0,1,13.23,10.32,27.61,27.61,0,0,1,4.9,15.69v204q-2.43,2.46-4.93,4.79a212.4,212.4,0,0,1-19.28,16.15q-7.8,5.81-16.14,10.89H263.26l-9.87-30-3.75-11.39h.52l4-.11"/><path class="cls-4" d="M342.84,261.48h26.35v-18H306.36v-17.9H288.47v17.9H268.65l6,17.89h51.15a139,139,0,0,1-28.43,48.13,154.6,154.6,0,0,1-11.21-14.23l-.31-.44,13.51,40.38.16.15,0,0h0l.06.05,42.7,42.7,12.76-12.76-37.38-36.8-8.4-8.27.28-.28A154.79,154.79,0,0,0,342.84,261.48Z"/><polygon class="cls-5" points="262.71 346.19 116.61 346.19 112.58 183.28 249.98 178.96 262.71 346.19"/><path class="cls-6" d="M315.87,378.12,243.59,380v.05h-111a27.82,27.82,0,0,1-27.74-27.74v-208a27.82,27.82,0,0,1,27.74-27.74H229.4L250.29,179H250l17.75,52.56h.15l6,17.9h-.17l10.95,32.87.42.61,13.51,40.36-.06-.06Z"/><polygon class="cls-7" points="243.6 380.07 315.87 378.12 259.91 431.61 243.6 380.07"/><path class="cls-4" d="M125.22,260.39A69.37,69.37,0,0,1,194.57,191a67.24,67.24,0,0,1,46.46,18l-18.31,17.61c-5.27-5-14.42-10.81-28.15-10.81-24.14,0-43.69,20-43.69,44.52s19.55,44.52,43.69,44.52c27.87,0,39.39-20,40.5-33.43h-40.5V247.77h64.91a60,60,0,0,1,1.66,14.14c0,39.67-26.49,67.83-66.57,67.83A69.37,69.37,0,0,1,125.22,260.39Z"/><path class="cls-5" d="M121.75,247.41a69.37,69.37,0,0,1,69.35-69.35,67.24,67.24,0,0,1,46.46,18L219.25,213.7c-5.27-5-14.42-10.81-28.15-10.81-24.14,0-43.69,20-43.69,44.52S167,291.93,191.1,291.93c27.87,0,39.39-20,40.5-33.43H191.1V234.79H256a60,60,0,0,1,1.66,14.14c0,39.67-26.49,67.83-66.57,67.83A69.37,69.37,0,0,1,121.75,247.41Z"/><path class="cls-5" d="M341.83,249.32h26.35v-18H305.35v-17.9H287.46v17.9H267.64l6,17.89h51.15a139,139,0,0,1-28.43,48.13,154.6,154.6,0,0,1-11.21-14.23l-.31-.44L298.33,323l.16.15,0,0h0l.06.05,42.7,42.7L354,353.2l-37.38-36.8-8.4-8.27.28-.28A154.79,154.79,0,0,0,341.83,249.32Z"/></g></svg>