<svg xmlns="http://www.w3.org/2000/svg" viewBox="0 0 529.63 530.64"><defs><style>.cls-1{fill:#ebf6ff;}.cls-2{fill:#c9e7ff;}.cls-3{fill:#2f2e41;opacity:0.16;isolation:isolate;}.cls-4{fill:#f05d65;}.cls-5{fill:#003c70;}</style></defs><g id="Layer_1" data-name="Layer 1"><path class="cls-1" d="M504.64,260.38c0,7.72-.35,15.37-1.06,22.9a243,243,0,0,1-22.13,81.26c-38.22,81.22-119.73,138-214.79,140.68-.83,0-1.65,0-2.48.06-1.49,0-3,0-4.47,0s-2.86,0-4.29,0c-.91,0-1.82,0-2.72-.07l-2.1-.07-.68,0a243.5,243.5,0,0,1-115.78-34.4q-8.1-4.82-15.76-10.26l-.83-.59c-.87-.61-1.74-1.25-2.6-1.87A246,246,0,0,1,29.6,344.51a241.21,241.21,0,0,1-9.26-32,244.66,244.66,0,0,1-4.61-30.26q-1-10.81-1-21.89,0-5.91.29-11.74.15-3.37.41-6.72c.1-1.34.2-2.68.33-4,.72-8,1.84-15.88,3.31-23.64C40.68,101.05,140.2,15.46,259.71,15.46A243.92,243.92,0,0,1,414.9,70.89q8.94,7.33,17.14,15.47,5.38,5.3,10.4,10.92a245.44,245.44,0,0,1,44.33,71.12h0c.66,1.6,1.3,3.22,1.91,4.84A244,244,0,0,1,504.64,260.38Z"/><path class="cls-2" d="M481.45,364.54c-38.22,81.22-119.73,138-214.79,140.68-.83,0-1.65,0-2.48.06-1.49,0-3,0-4.47,0s-2.86,0-4.29,0c-.91,0-1.82,0-2.72-.07l-2.1-.07-.68,0a243.5,243.5,0,0,1-115.78-34.4q-8.1-4.82-15.76-10.26l-.83-.59c-.87-.61-1.74-1.25-2.6-1.87A246,246,0,0,1,29.6,344.51c14.49-2.44,31.74-3.49,51.49-7.84a206.58,206.58,0,0,0,73.25-31.45c2.71,4.94,16.82,28.93,58.49,40.87a184.56,184.56,0,0,0,62.93,5.59c49.3-4.6,91.33-32.58,107.17-70.27,6.37,13.49,18.69,33.5,44.23,53.21C445.58,348.84,464.28,357.82,481.45,364.54Z"/><path class="cls-2" d="M29.49,249.37c32-1.15,75.9-.77,107.86-1.93-1.23-8.86-4.13-12-6.76-13.2-8.33-3.68-17.52,11.44-31.43,8.8-5.6-1.06-5.33-3.74-14.62-6.13-4-1-10.24-2.56-17.13-.78a29,29,0,0,0-11.48,6.28c-6.08,4.78-18,8.19-43.38,2.05C22.19,246.61,19.84,247.22,29.49,249.37Z"/><path class="cls-2" d="M132.43,126.29c32-1.16,75.91-.78,107.87-1.93-1.23-8.86-4.13-12-6.76-13.2-8.33-3.68-17.52,11.44-31.43,8.8-5.6-1.06-5.33-3.74-14.62-6.13-4-1-10.24-2.56-17.13-.79a29,29,0,0,0-11.48,6.29c-6.08,4.78-17.95,8.19-43.38,2C125.14,123.52,122.79,124.14,132.43,126.29Z"/><path class="cls-2" d="M461.58,173.89c-37.48-1.35-89-.9-126.5-2.25,1.45-10.39,4.85-14.13,7.93-15.49,9.77-4.31,20.55,13.42,36.86,10.32,6.57-1.24,6.25-4.38,17.15-7.19,4.64-1.19,12-3,20.09-.92a34.08,34.08,0,0,1,13.46,7.38c7.13,5.6,21.05,9.6,50.88,2.39C470.14,170.65,472.89,171.37,461.58,173.89Z"/><path class="cls-3" d="M383.78,291.34l-18.12,18.12L261.28,413.87a6.51,6.51,0,0,1-9.19,0L214.44,376.2a6.54,6.54,0,0,1-1.57-2.56L111.43,272.2a6.48,6.48,0,0,1,0-9.16l37.67-37.67a6.49,6.49,0,0,1,9.17,0l98.92,98.92,61.64-61.66L337,244.51a6.5,6.5,0,0,1,9.18,0l37.65,37.67A6.48,6.48,0,0,1,383.78,291.34Z"/><path class="cls-3" d="M440.19,197.32l-14.06,72.23-13.45,69.07A8.1,8.1,0,0,1,399,342.8l-33.34-33.34,18.12-18.12a6.48,6.48,0,0,0,0-9.16l-37.65-37.67a6.5,6.5,0,0,0-9.18,0l-18.12,18.12L285.21,229a8.1,8.1,0,0,1,4.18-13.68l69.08-13.45,72.22-14.06A8.1,8.1,0,0,1,440.19,197.32Z"/><path class="cls-4" d="M257.69,400.24a3,3,0,0,1-2.11-.87L217.92,361.7a3,3,0,0,1-.72-1.19,3.68,3.68,0,0,0-.85-1.37L114.91,257.7a3,3,0,0,1,0-4.21l37.67-37.67a3,3,0,0,1,4.22,0l98.92,98.92a3.51,3.51,0,0,0,5,0l57.8-57.81a3.49,3.49,0,0,0,0-5l-33.78-33.79a4.59,4.59,0,0,1,2.37-7.76l141.3-27.52a4.53,4.53,0,0,1,4.43,1.6,4.52,4.52,0,0,1,1,3.79L406.24,329.6a4.58,4.58,0,0,1-4.56,3.73,4.46,4.46,0,0,1-3.21-1.35l-33.16-33.16a3.49,3.49,0,0,0-4.95,0L259.81,399.37A3,3,0,0,1,257.69,400.24Z"/><path class="cls-5" d="M429.26,186.32a1.08,1.08,0,0,1,.83.42,1,1,0,0,1,.22.89l-14.06,72.23L402.8,328.93a1.11,1.11,0,0,1-1.12.9,1,1,0,0,1-.74-.33l-33.16-33.16a7,7,0,0,0-9.9,0L257.69,396.53l-37.2-37.21a7.06,7.06,0,0,0-1.67-2.66L117.75,255.59l36.94-36.93,98.55,98.55a7,7,0,0,0,9.9,0l57.8-57.81a7,7,0,0,0,0-9.9l-33.78-33.79a1,1,0,0,1-.27-1.09,1,1,0,0,1,.84-.76l69.07-13.45L429,186.34l.24,0m0-7a8.51,8.51,0,0,0-1.57.15l-72.23,14.07L286.39,207a8.09,8.09,0,0,0-4.18,13.67L316,254.45l-57.8,57.81-98.92-98.92a6.48,6.48,0,0,0-9.17,0L112.43,251a6.48,6.48,0,0,0,0,9.16L213.87,361.61a6.47,6.47,0,0,0,1.57,2.56l37.66,37.67a6.49,6.49,0,0,0,9.18,0L362.83,301.29,396,334.45a8.09,8.09,0,0,0,13.68-4.18l13.45-69.07L437.18,189a8.1,8.1,0,0,0-7.92-9.65Z"/></g></svg>