<svg xmlns="http://www.w3.org/2000/svg" viewBox="0 0 534.08 534.53"><defs><style>.cls-1{fill:#ebf6ff;}.cls-2{fill:#c9e7ff;}.cls-3,.cls-6{fill:#2f2e41;}.cls-4{fill:#f4d5b8;}.cls-5{fill:#d437cd;}.cls-6{opacity:0.16;}.cls-6,.cls-8{isolation:isolate;}.cls-7{fill:none;stroke:#2f2e41;stroke-linecap:round;stroke-miterlimit:10;stroke-width:2.61px;}.cls-8{fill:#f08977;opacity:0.36;}.cls-9{fill:#fcd943;}.cls-10{fill:#f9a633;}</style></defs><g id="Layer_1" data-name="Layer 1"><path class="cls-1" d="M504.64,260.38c0,7.72-.35,15.37-1.06,22.89a243.44,243.44,0,0,1-22.14,81.27,245.77,245.77,0,0,1-98.16,107.35q-8.41,4.94-17.24,9.2-7.23,3.5-14.7,6.51-6.51,2.63-13.21,4.89-10,3.38-20.3,5.89a245,245,0,0,1-47.89,6.73c-.74,0-1.49.06-2.24.08l-1.66,0-1.86,0q-1.41,0-2.82,0H258.3l-2.89,0c-.9,0-1.81,0-2.71-.06l-2.1-.07-.68,0a244.29,244.29,0,0,1-33.84-3.69l-1.47-.26-16.91-3.78-1.11-.3a238.38,238.38,0,0,1-26.82-8.83l-.16-.07c-2.45-.95-4.87-2-7.28-3q-7.59-3.29-14.9-7.06-6.78-3.51-13.3-7.41-8.08-4.83-15.75-10.27c-.26-.19-.55-.38-.83-.59l-.13-.09c-.84-.58-1.65-1.18-2.47-1.78A245.84,245.84,0,0,1,29.6,344.51a241.21,241.21,0,0,1-9.26-32,244.82,244.82,0,0,1-4.61-30.27c-.65-7.21-1-14.49-1-21.88q0-5.91.29-11.74c0-1.19.11-2.37.18-3.55v0c.07-1.06.14-2.11.22-3.15.11-1.34.21-2.68.33-4q1.1-12,3.32-23.65C40.68,101,140.2,15.46,259.71,15.46A243.89,243.89,0,0,1,414.9,70.89q8.94,7.32,17.14,15.46,5.38,5.3,10.4,10.92a245.3,245.3,0,0,1,44.33,71.13h0c.66,1.6,1.29,3.21,1.91,4.83A244.09,244.09,0,0,1,504.64,260.38Z"/><path class="cls-2" d="M481.44,364.54a245.77,245.77,0,0,1-98.16,107.35q-8.41,4.94-17.24,9.2-7.23,3.5-14.7,6.51-6.51,2.63-13.21,4.89-10,3.38-20.3,5.89a245,245,0,0,1-47.89,6.73c-.74,0-1.49.06-2.24.08l-1.66,0-1.86,0q-1.41,0-2.82,0H258.3l-2.89,0c-.9,0-1.81,0-2.71-.06l-2.1-.07-.68,0a244.29,244.29,0,0,1-33.84-3.69l-1.47-.26-16.91-3.78-1.11-.3a238.38,238.38,0,0,1-26.82-8.83l-.16-.07c-2.45-.95-4.87-2-7.28-3q-7.59-3.29-14.9-7.06-6.78-3.51-13.3-7.41-8.08-4.83-15.75-10.27c-.26-.19-.55-.38-.83-.59l-.13-.09c-.84-.58-1.65-1.18-2.47-1.78A245.84,245.84,0,0,1,29.6,344.51c14.49-2.44,31.74-3.5,51.48-7.84a207.81,207.81,0,0,0,62.8-24.74c1-.58,2-1.18,2.94-1.79q3.75-2.34,7.52-4.92a67.3,67.3,0,0,0,14,17.26c.71.65,1.45,1.29,2.23,1.95h0a97.75,97.75,0,0,0,17.52,11.8,124.32,124.32,0,0,0,20.18,8.47q2.2.72,4.53,1.38a184.36,184.36,0,0,0,62.93,5.58q7.58-.71,14.89-2.13h0A140.82,140.82,0,0,0,349,323.93h0a116.2,116.2,0,0,0,18.22-17.22,99.81,99.81,0,0,0,11.48-16.58,91.08,91.08,0,0,0,4.23-8.73c6.37,13.5,18.68,33.5,44.23,53.21C445.58,348.84,464.28,357.82,481.44,364.54Z"/><path class="cls-2" d="M29.49,249.37c32-1.15,75.9-.77,107.86-1.93-1.23-8.86-4.13-12-6.76-13.2-8.33-3.68-17.52,11.44-31.43,8.8-5.6-1.06-5.33-3.74-14.62-6.13-4-1-10.24-2.56-17.13-.78a29,29,0,0,0-11.48,6.28c-6.08,4.78-18,8.19-43.38,2.05C22.19,246.61,19.84,247.22,29.49,249.37Z"/><path class="cls-2" d="M132.43,126.29c32-1.16,75.91-.78,107.87-1.93-1.23-8.86-4.13-12-6.76-13.2-8.33-3.68-17.52,11.44-31.43,8.8-5.6-1.06-5.33-3.74-14.62-6.13-4-1-10.24-2.56-17.13-.79a29,29,0,0,0-11.48,6.29c-6.08,4.78-17.95,8.19-43.38,2C125.14,123.52,122.79,124.14,132.43,126.29Z"/><path class="cls-2" d="M461.58,173.89c-37.48-1.35-89-.9-126.5-2.25,1.45-10.39,4.85-14.13,7.93-15.49,9.77-4.31,20.55,13.42,36.86,10.32,6.57-1.24,6.25-4.38,17.15-7.19,4.64-1.19,12-3,20.09-.92a34.08,34.08,0,0,1,13.46,7.38c7.13,5.6,21.05,9.6,50.88,2.39C470.14,170.65,472.89,171.37,461.58,173.89Z"/><path class="cls-3" d="M147.63,307.83c-6,14.23,7.29,33.44-4.09,60.12a72.16,72.16,0,0,1-18.86,25.43c-9.07,8-6.58,22.77,4.81,26.86a383.38,383.38,0,0,0,115.25,21.52,379.6,379.6,0,0,0,122.91-16.19A36.28,36.28,0,0,0,389.7,374.7a138.34,138.34,0,0,1-8.18-20.63,147,147,0,0,1-6.58-45.89C210.06,276.52,156.7,286.31,147.63,307.83Z"/><circle class="cls-3" cx="259.71" cy="283.85" r="119.17"/><circle class="cls-4" cx="259.71" cy="293.63" r="94.27"/><path class="cls-5" d="M196.59,497.09a238.38,238.38,0,0,1-26.82-8.83l-.16-.07-7.28-3q-7.59-3.29-14.9-7.06-6.78-3.51-13.3-7.41-8.08-4.83-15.75-10.27c-.26-.19-.55-.38-.83-.59l-.13-.09,22.41-19.33,2-2.45h0l.52-.66.35.1h0l34.89,9.5Z"/><path class="cls-5" d="M412.25,452a245,245,0,0,1-29,19.87q-8.41,4.94-17.24,9.2-7.23,3.5-14.7,6.51-6.51,2.63-13.21,4.89l3.2-11.27,3.31-11.61,10.12-35.46,20.64-5.62h.08l.2-.06,14.16-3.84.08,0,.1,0,.15.19h0l.06.08.33.41.42.52Z"/><path class="cls-5" d="M390.6,425l0,.21-.08.52-.14,1h0l-7.05,45.1q-8.41,4.94-17.24,9.2-7.23,3.5-14.7,6.51-6.51,2.63-13.21,4.89-10,3.38-20.3,5.89a245,245,0,0,1-47.89,6.73c-.74,0-1.49.06-2.24.08l-1.66,0-1.67,0-3,0H258.3l-42.22-3.88-1.47-.26-16.91-3.78-1.11-.3a238.38,238.38,0,0,1-26.82-8.83l-.16-.07-7.28-3a70.56,70.56,0,0,0-12.39-7.82l-10.11-36.93-.27-1,1-.66,1.29-.82h0c.25-.15.54-.35.87-.56h0c2.73-1.68,8-4.72,15.31-8.39h0c4.39-2.19,9.53-4.59,15.36-7h0a281.92,281.92,0,0,1,53.68-16.52h0c.28-.05.54-.11.81-.18l3.89-.74c.67-.12,1.35-.23,2-.36l.38-.07,1.21-.2,1.69-.28c3-.51,6.08-1,9.2-1.38h.09a267.51,267.51,0,0,1,39.77-2.2h0c7.4.15,15,.62,22.79,1.46a259,259,0,0,1,60.49,14.31c3.25,1.18,6.52,2.46,9.8,3.81h0c3,1.23,6,2.52,9,3.9l1.62,1,.25.16h0l.26.17v0Z"/><path class="cls-4" d="M307.51,419.49l-22,37.16c-7.57,12.84-26.62,12.84-34.19,0l-10.94-18.51-11-18.51a18.8,18.8,0,0,1-2.16-14.05,266.8,266.8,0,0,1,81.07-3.78A18.75,18.75,0,0,1,307.51,419.49Z"/><path class="cls-6" d="M267.38,400.44a271.58,271.58,0,0,0-39.59,5c-.27,0-.4.14-.67.14v-.14A278.65,278.65,0,0,1,267.38,400.44Z"/><path class="cls-3" d="M367.67,278.16c-7.65-.36-55-2.67-87.15-42.15-17.43,15.47-42.33,30.77-67.06,39.84a185.41,185.41,0,0,1-65.63,11c.71-11.38,4.63-50.87,35.57-77.9,21.17-18.5,49.27-26.32,73.28-27.21a92.16,92.16,0,0,1-1.06-10.14,122.93,122.93,0,0,1,55.67,18.32C356.64,218.57,366.25,268.73,367.67,278.16Z"/><path class="cls-6" d="M266.47,387.72c-2.32.18-4.63.36-6.94.36a95.92,95.92,0,0,1-96-95.16v-4.27c0-1.06.18-2.31.18-3.38,4.45-.35,9.07-.89,14.05-1.6a181.09,181.09,0,0,0,34.69-8.89,224.13,224.13,0,0,0,68.3-40.73,79.91,79.91,0,0,0,6.22,7.11A223,223,0,0,1,219,281.36a178.85,178.85,0,0,1-41.8,10V292A96.37,96.37,0,0,0,266.47,387.72Z"/><path class="cls-7" d="M203,292c4.8-6.4,12.45-9.42,19.21-7.82a18.22,18.22,0,0,1,9.6,6.76"/><path class="cls-7" d="M283.36,292c4.81-6.4,12.45-9.42,19.21-7.82a18.25,18.25,0,0,1,9.61,6.76"/><path class="cls-7" d="M271.8,325.11c-4.8,6.41-12.45,9.43-19.21,7.83a18.31,18.31,0,0,1-9.6-6.76"/><circle class="cls-8" cx="211.33" cy="322.09" r="11.21"/><circle class="cls-8" cx="300.97" cy="318" r="11.21"/><path class="cls-6" d="M390.6,425l-.27,1.76a437.4,437.4,0,0,1-54.58,3.65h-.54c-11.35,0-22.57-.41-33.38-1.35l-10-.81a340.7,340.7,0,0,1-64.45-12.7c-5.95-1.9-11.62-3.92-16.89-5.95,5.27-1.35,10.81-2.7,16.62-3.92.27,0,.4-.13.67-.13a270.22,270.22,0,0,1,39.59-5c2-.14,4.05-.14,6.22-.27,4.32-.14,8.78-.14,13.24,0,1.75,0,3.64.13,5.4.13,5.41.27,10.94.68,16.62,1.22a261.23,261.23,0,0,1,79.31,22Z"/><path class="cls-6" d="M267.38,400.44a271.58,271.58,0,0,0-39.59,5c-.27,0-.4.14-.67.14v-.14A278.65,278.65,0,0,1,267.38,400.44Z"/><circle class="cls-9" cx="141.46" cy="166.63" r="28.58" transform="translate(-26.45 306.56) rotate(-89.48)"/><path class="cls-10" d="M161.63,186.8a28.38,28.38,0,0,1-23.83,8.11,28.56,28.56,0,0,0-.1-56.66,28.61,28.61,0,0,1,23.93,48.55Z"/><path class="cls-10" d="M108,162.57a40.68,40.68,0,0,0-.2,5.94,2.35,2.35,0,0,1-3.26,2.37l-9-3.56a2.44,2.44,0,0,1,.1-4.55l9.2-3A2.54,2.54,0,0,1,108,162.57Z"/><path class="cls-10" d="M117.82,190.76l1.39,1.38a2.49,2.49,0,0,1-.7,4.06l-8.7,3.85a2.36,2.36,0,0,1-3.06-3.26l4.35-8.5a2.36,2.36,0,0,1,4.05-.3C115.94,188.78,116.83,189.77,117.82,190.76Z"/><path class="cls-10" d="M112,131.33l8.5,4.35a2.36,2.36,0,0,1,.3,4,18.88,18.88,0,0,0-3,2.67l-1.38,1.39a2.5,2.5,0,0,1-4.06-.7l-3.85-8.8A2.43,2.43,0,0,1,112,131.33Z"/><path class="cls-10" d="M146.3,204l-3.46,9a2.44,2.44,0,0,1-4.55-.1l-3-9.2a2.37,2.37,0,0,1,2.58-3.06,40.49,40.49,0,0,0,5.93.19A2.29,2.29,0,0,1,146.3,204Z"/><path class="cls-10" d="M145.71,120.45l3,9.2a2.36,2.36,0,0,1-2.57,3.06,39.15,39.15,0,0,0-5.93-.2,2.35,2.35,0,0,1-2.37-3.26l3.46-9A2.35,2.35,0,0,1,145.71,120.45Z"/><path class="cls-10" d="M171.52,190.07l3.85,8.8a2.36,2.36,0,0,1-3.26,3.06l-8.6-4.45a2.36,2.36,0,0,1-.3-4,18.88,18.88,0,0,0,3-2.67l1.38-1.39A2.36,2.36,0,0,1,171.52,190.07Z"/><path class="cls-10" d="M166.18,142.5l-1.39-1.38a2.49,2.49,0,0,1,.69-4.06l8.81-3.85a2.36,2.36,0,0,1,3.06,3.26L173,145a2.36,2.36,0,0,1-4.05.3C168.06,144.38,167.17,143.39,166.18,142.5Z"/><path class="cls-10" d="M176,170.68a40.49,40.49,0,0,0,.19-5.93,2.36,2.36,0,0,1,3.27-2.37l9,3.46a2.44,2.44,0,0,1-.1,4.55l-9.2,3A2.46,2.46,0,0,1,176,170.68Z"/></g></svg>