<svg xmlns="http://www.w3.org/2000/svg" viewBox="0 0 528.11 527.47"><defs><style>.cls-1{fill:#ebf6ff;}.cls-2{fill:#c9e7ff;}.cls-3,.cls-6{fill:#2f2e41;}.cls-4{fill:#f4d5b8;}.cls-5{fill:#d437cd;}.cls-6{opacity:0.16;}.cls-6,.cls-8{isolation:isolate;}.cls-7{fill:none;stroke:#2f2e41;stroke-linecap:round;stroke-miterlimit:10;stroke-width:2.61px;}.cls-8{fill:#f08977;opacity:0.36;}.cls-9{fill:#fcd943;}.cls-10{fill:#f9a633;}</style></defs><g id="Layer_1" data-name="Layer 1"><path class="cls-1" d="M515.41,262.71c0,7.72-.35,15.37-1.06,22.89a243.44,243.44,0,0,1-22.14,81.27,245.77,245.77,0,0,1-98.16,107.35q-8.42,4.93-17.24,9.2-7.23,3.49-14.7,6.51-6.51,2.63-13.21,4.89-10,3.38-20.3,5.89a245,245,0,0,1-47.89,6.73c-.74,0-1.49.06-2.24.08l-1.66,0-1.86,0-2.82,0h-3.06l-2.89,0c-.9,0-1.81,0-2.71-.06l-2.1-.07-.68,0a244.29,244.29,0,0,1-33.84-3.69l-1.47-.26-16.91-3.78-1.11-.3a238.38,238.38,0,0,1-26.82-8.83l-.16-.07c-2.45-.95-4.87-2-7.28-3q-7.59-3.28-14.9-7.06-6.78-3.51-13.3-7.41-8.09-4.83-15.75-10.27c-.26-.19-.55-.38-.83-.59l-.13-.09c-.84-.58-1.65-1.18-2.47-1.78A245.84,245.84,0,0,1,40.37,346.84a241.21,241.21,0,0,1-9.26-32,244.82,244.82,0,0,1-4.61-30.27c-.65-7.21-1-14.49-1-21.88q0-5.91.29-11.74c.05-1.19.11-2.37.18-3.55v0c.07-1.06.14-2.11.22-3.15.11-1.34.21-2.68.33-4q1.1-12,3.32-23.65C51.45,103.37,151,17.79,270.48,17.79A243.89,243.89,0,0,1,425.67,73.22q8.94,7.32,17.14,15.46,5.38,5.29,10.4,10.92a245.3,245.3,0,0,1,44.33,71.13h0c.66,1.6,1.29,3.21,1.91,4.83A244.09,244.09,0,0,1,515.41,262.71Z"/><path class="cls-2" d="M492.21,366.87a245.77,245.77,0,0,1-98.16,107.35q-8.42,4.93-17.24,9.2-7.23,3.49-14.7,6.51-6.51,2.63-13.21,4.89-10,3.38-20.3,5.89a245,245,0,0,1-47.89,6.73c-.74,0-1.49.06-2.24.08l-1.66,0-1.86,0-2.82,0h-3.06l-2.89,0c-.9,0-1.81,0-2.71-.06l-2.1-.07-.68,0a244.29,244.29,0,0,1-33.84-3.69l-1.47-.26-16.91-3.78-1.11-.3a238.38,238.38,0,0,1-26.82-8.83l-.16-.07c-2.45-.95-4.87-2-7.28-3q-7.59-3.28-14.9-7.06-6.78-3.51-13.3-7.41-8.09-4.83-15.75-10.27c-.26-.19-.55-.38-.83-.59l-.13-.09c-.84-.58-1.65-1.18-2.47-1.78A245.84,245.84,0,0,1,40.37,346.84c14.49-2.44,31.74-3.5,51.48-7.84a207.81,207.81,0,0,0,62.8-24.74c1-.58,2-1.18,2.94-1.79q3.75-2.34,7.52-4.92a67.3,67.3,0,0,0,14,17.26c.71.65,1.45,1.29,2.23,1.95h0a97.75,97.75,0,0,0,17.52,11.8A124.32,124.32,0,0,0,219.07,347q2.2.72,4.53,1.38A184.36,184.36,0,0,0,286.53,354q7.58-.71,14.89-2.13h0a140.82,140.82,0,0,0,58.32-25.61h0A116.2,116.2,0,0,0,378,309a99.81,99.81,0,0,0,11.48-16.58,91.08,91.08,0,0,0,4.23-8.73c6.37,13.5,18.68,33.5,44.23,53.21C456.35,351.17,475.05,360.15,492.21,366.87Z"/><path class="cls-2" d="M40.25,251.7c32-1.16,75.9-.78,107.87-1.93-1.24-8.86-4.14-12-6.76-13.2-8.33-3.68-17.53,11.44-31.44,8.8-5.6-1.06-5.32-3.74-14.62-6.13-4-1-10.24-2.56-17.13-.79a28.92,28.92,0,0,0-11.47,6.29c-6.08,4.78-18,8.19-43.39,2C33,248.93,30.61,249.55,40.25,251.7Z"/><path class="cls-2" d="M143.2,128.61c32-1.15,75.9-.77,107.86-1.92-1.23-8.86-4.13-12-6.75-13.2-8.34-3.68-17.53,11.44-31.44,8.8-5.6-1.06-5.32-3.74-14.62-6.13-4-1-10.24-2.56-17.13-.79a29.06,29.06,0,0,0-11.48,6.29c-6.07,4.78-17.94,8.19-43.38,2C135.9,125.85,133.56,126.47,143.2,128.61Z"/><path class="cls-2" d="M472.35,176.22c-37.49-1.35-89-.9-126.51-2.26,1.45-10.39,4.85-14.12,7.93-15.48,9.77-4.32,20.55,13.42,36.87,10.32,6.56-1.24,6.24-4.38,17.14-7.19,4.65-1.19,12-3,20.1-.92a34.08,34.08,0,0,1,13.45,7.37c7.13,5.61,21.05,9.61,50.88,2.4C480.9,173,483.65,173.7,472.35,176.22Z"/><path class="cls-3" d="M158.39,310.16c-6,14.22,7.29,33.43-4.09,60.11a72,72,0,0,1-18.85,25.44c-9.07,8-6.58,22.76,4.8,26.85a383.48,383.48,0,0,0,115.26,21.53,379.77,379.77,0,0,0,122.9-16.19,36.28,36.28,0,0,0,22-50.87,138.34,138.34,0,0,1-8.18-20.63,147.09,147.09,0,0,1-6.58-45.89C220.82,278.85,167.46,288.63,158.39,310.16Z"/><circle class="cls-3" cx="270.47" cy="286.18" r="119.17"/><circle class="cls-4" cx="270.47" cy="295.96" r="94.27"/><path class="cls-5" d="M207.36,499.42a238.38,238.38,0,0,1-26.82-8.83l-.16-.07-7.28-3q-7.59-3.28-14.9-7.06-6.78-3.51-13.3-7.41-8.09-4.83-15.75-10.27c-.26-.19-.55-.38-.83-.59l-.13-.09,22.41-19.33,2-2.45h0l.52-.66.35.1h0l34.89,9.5Z"/><path class="cls-5" d="M423,454.35a245,245,0,0,1-29,19.87q-8.42,4.93-17.24,9.2-7.23,3.49-14.7,6.51-6.51,2.63-13.21,4.89l3.2-11.27,3.31-11.61,10.12-35.46,20.64-5.62h.08l.2-.06,14.16-3.84.08,0,.1,0,.15.19h0l.06.08.33.41.42.52Z"/><path class="cls-5" d="M401.37,427.36l0,.21-.08.52-.14,1h0l-7.05,45.1q-8.42,4.93-17.24,9.2-7.23,3.49-14.7,6.51-6.51,2.63-13.21,4.89-10,3.38-20.3,5.89a245,245,0,0,1-47.89,6.73c-.74,0-1.49.06-2.24.08l-1.66,0-1.67,0-3,0h-3.06l-42.22-3.88-1.47-.26-16.91-3.78-1.11-.3a238.38,238.38,0,0,1-26.82-8.83l-.16-.07-7.28-3a70.56,70.56,0,0,0-12.39-7.82L150.6,442.77l-.27-1,1-.66,1.29-.82h0c.25-.15.54-.35.87-.56h0c2.73-1.68,8-4.72,15.31-8.39h0c4.39-2.19,9.53-4.59,15.36-7h0a281.92,281.92,0,0,1,53.68-16.52h0c.28-.05.54-.11.81-.18l3.89-.74c.67-.12,1.35-.23,2-.36l.38-.07,1.21-.2,1.69-.28c3-.51,6.08-1,9.2-1.38h.09a267.51,267.51,0,0,1,39.77-2.2h0c7.4.15,15,.62,22.79,1.46a259,259,0,0,1,60.49,14.31c3.25,1.18,6.52,2.46,9.8,3.81h0c3,1.23,6,2.52,9,3.9l1.62,1.05.25.16h0l.26.17v0Z"/><path class="cls-4" d="M318.27,421.82l-22,37.16c-7.57,12.83-26.62,12.83-34.18,0l-10.95-18.51L240.18,422a18.81,18.81,0,0,1-2.16-14,267,267,0,0,1,81.06-3.79A18.77,18.77,0,0,1,318.27,421.82Z"/><path class="cls-6" d="M278.14,402.77a271.27,271.27,0,0,0-39.58,5c-.27,0-.41.14-.68.14v-.14A278.65,278.65,0,0,1,278.14,402.77Z"/><path class="cls-3" d="M378.43,280.49c-7.64-.36-55-2.67-87.15-42.16-17.43,15.48-42.33,30.77-67,39.84a185.26,185.26,0,0,1-65.63,11c.71-11.38,4.62-50.87,35.57-77.9,21.16-18.5,49.27-26.33,73.28-27.22A95,95,0,0,1,266.38,174a122.77,122.77,0,0,1,55.67,18.32C367.41,220.9,377,271.06,378.43,280.49Z"/><path class="cls-6" d="M277.23,390.05c-2.31.18-4.62.36-6.94.36a95.91,95.91,0,0,1-96-95.16V291c0-1.07.18-2.31.18-3.38,4.44-.35,9.07-.89,14-1.6a181.56,181.56,0,0,0,34.68-8.89,224,224,0,0,0,68.3-40.73,81.56,81.56,0,0,0,6.22,7.11,223,223,0,0,1-67.94,40.2,178.85,178.85,0,0,1-41.8,10v.71A96.39,96.39,0,0,0,277.23,390.05Z"/><path class="cls-7" d="M213.73,294.36c4.81-6.4,12.45-9.43,19.21-7.83a18.36,18.36,0,0,1,9.61,6.76"/><path class="cls-7" d="M294.13,294.36c4.8-6.4,12.45-9.43,19.21-7.83a18.37,18.37,0,0,1,9.6,6.76"/><path class="cls-7" d="M282.57,327.44c-4.81,6.41-12.45,9.43-19.21,7.83a18.31,18.31,0,0,1-9.61-6.76"/><circle class="cls-8" cx="222.09" cy="324.42" r="11.21"/><circle class="cls-8" cx="311.74" cy="320.33" r="11.21"/><path class="cls-6" d="M401.37,427.36l-.27,1.76a437.56,437.56,0,0,1-54.59,3.65H346c-11.35,0-22.56-.41-33.37-1.35l-10-.82a340.07,340.07,0,0,1-64.45-12.7C232.21,416,226.53,414,221.26,412c5.27-1.35,10.81-2.7,16.62-3.92.27,0,.41-.13.68-.13a268.55,268.55,0,0,1,39.58-5c2-.14,4.06-.14,6.22-.27,4.32-.14,8.78-.14,13.24,0,1.76,0,3.65.13,5.4.13q8.12.41,16.62,1.22a261.23,261.23,0,0,1,79.31,22Z"/><path class="cls-6" d="M278.14,402.77a271.27,271.27,0,0,0-39.58,5c-.27,0-.41.14-.68.14v-.14A278.65,278.65,0,0,1,278.14,402.77Z"/><circle class="cls-9" cx="152.22" cy="168.96" r="28.58" transform="translate(-18.11 319.63) rotate(-89.48)"/><path class="cls-10" d="M172.39,189.13a28.37,28.37,0,0,1-23.83,8.11,28.56,28.56,0,0,0-.1-56.66,28.61,28.61,0,0,1,23.93,48.55Z"/><path class="cls-10" d="M118.8,164.9a39.33,39.33,0,0,0-.2,5.94,2.35,2.35,0,0,1-3.27,2.37l-9-3.56a2.44,2.44,0,0,1,.1-4.55l9.19-3A2.57,2.57,0,0,1,118.8,164.9Z"/><path class="cls-10" d="M128.59,193.09l1.38,1.38a2.48,2.48,0,0,1-.69,4.05l-8.7,3.86a2.37,2.37,0,0,1-3.07-3.26l4.35-8.51a2.37,2.37,0,0,1,4.06-.29C126.71,191.11,127.6,192.1,128.59,193.09Z"/><path class="cls-10" d="M122.75,133.65l8.51,4.36a2.36,2.36,0,0,1,.29,4.05,18.8,18.8,0,0,0-3,2.67l-1.39,1.38a2.49,2.49,0,0,1-4-.69l-3.86-8.8A2.44,2.44,0,0,1,122.75,133.65Z"/><path class="cls-10" d="M157.06,206.34l-3.46,9a2.43,2.43,0,0,1-4.54-.09l-3-9.2a2.37,2.37,0,0,1,2.57-3.07,39.19,39.19,0,0,0,5.93.2A2.28,2.28,0,0,1,157.06,206.34Z"/><path class="cls-10" d="M156.47,122.78l3,9.19a2.37,2.37,0,0,1-2.57,3.07,39.33,39.33,0,0,0-5.94-.2,2.35,2.35,0,0,1-2.37-3.26l3.46-9A2.35,2.35,0,0,1,156.47,122.78Z"/><path class="cls-10" d="M182.28,192.39l3.86,8.8a2.37,2.37,0,0,1-3.27,3.07l-8.6-4.45a2.37,2.37,0,0,1-.3-4.05,19.92,19.92,0,0,0,3-2.67l1.39-1.39A2.36,2.36,0,0,1,182.28,192.39Z"/><path class="cls-10" d="M176.94,144.83l-1.38-1.39a2.48,2.48,0,0,1,.69-4.05l8.8-3.86a2.37,2.37,0,0,1,3.07,3.27l-4.36,8.5a2.36,2.36,0,0,1-4,.3C178.82,146.71,177.93,145.72,176.94,144.83Z"/><path class="cls-10" d="M186.73,173a39.19,39.19,0,0,0,.2-5.93,2.35,2.35,0,0,1,3.26-2.38l9,3.47a2.43,2.43,0,0,1-.1,4.54l-9.19,3A2.46,2.46,0,0,1,186.73,173Z"/></g></svg>