<svg xmlns="http://www.w3.org/2000/svg" viewBox="0 0 534.08 534.53"><defs><style>.cls-1{fill:#ebf6ff;}.cls-2{fill:#c9e7ff;}.cls-3,.cls-6{fill:#2f2e41;}.cls-4{fill:#a3afbf;}.cls-5{fill:#dbdae8;}.cls-6{opacity:0.16;isolation:isolate;}.cls-7,.cls-8{fill:none;stroke:#2f2e41;stroke-linecap:round;stroke-miterlimit:10;}.cls-7{stroke-width:3.8px;}.cls-8{stroke-width:3.16px;}.cls-9{fill:#fff;}.cls-10{fill:#f05d65;}.cls-11{fill:#465b65;}.cls-12{fill:#fdd80e;}</style></defs><g id="Layer_1" data-name="Layer 1"><path class="cls-1" d="M513.08,267.26c0,7.72-.35,15.37-1.06,22.9a243,243,0,0,1-11.89,55.9,244.77,244.77,0,0,1-225,166c-.82,0-1.64,0-2.47.06-1.49,0-3,0-4.47,0l-4.29,0c-.91,0-1.82,0-2.72-.07L259,512l-.68,0a243.5,243.5,0,0,1-115.78-34.4c-4-2.35-7.84-4.83-11.64-7.4-1.38-.94-2.76-1.89-4.12-2.86-.26-.2-.55-.39-.83-.59l-2.6-1.88A245.62,245.62,0,0,1,38,351.39a241.21,241.21,0,0,1-9.26-32,244.66,244.66,0,0,1-4.61-30.26q-1-10.81-1-21.89,0-5.91.29-11.74c.05-1.19.12-2.37.19-3.55h0c.07-1.06.14-2.11.22-3.16.1-1.34.2-2.68.33-4q1.08-12,3.31-23.65C49.12,107.93,148.64,22.34,268.15,22.34A243.89,243.89,0,0,1,423.34,77.77q8.94,7.32,17.14,15.47,5.38,5.3,10.4,10.92a245.09,245.09,0,0,1,44.33,71.12h0c.66,1.6,1.29,3.21,1.91,4.84A244,244,0,0,1,513.08,267.26Z"/><path class="cls-2" d="M489.89,371.42A244.71,244.71,0,0,1,275.09,512.1c-.82,0-1.64,0-2.47.06-1.49,0-3,0-4.47,0l-4.29,0c-.91,0-1.82,0-2.72-.07L259,512l-.68,0a243.5,243.5,0,0,1-115.78-34.4c-4-2.35-7.84-4.83-11.64-7.4-1.38-.94-2.76-1.89-4.12-2.86-.26-.2-.55-.39-.83-.59l-2.6-1.88A245.62,245.62,0,0,1,38,351.39c14.49-2.44,31.74-3.49,51.49-7.84a206.58,206.58,0,0,0,73.25-31.45C165.49,317,179.6,341,221.27,353a184.52,184.52,0,0,0,62.93,5.59c49.3-4.6,91.33-32.59,107.17-70.28,6.37,13.5,18.68,33.51,44.23,53.21C454,355.72,472.72,364.7,489.89,371.42Z"/><path class="cls-2" d="M37.93,256.25c32-1.15,75.9-.77,107.86-1.93-1.23-8.86-4.13-12-6.75-13.2-8.34-3.68-17.53,11.44-31.44,8.8-5.6-1.06-5.32-3.74-14.62-6.13-4-1-10.24-2.56-17.13-.78a29.07,29.07,0,0,0-11.48,6.28c-6.07,4.78-17.94,8.19-43.38,2.05C30.63,253.49,28.29,254.1,37.93,256.25Z"/><path class="cls-2" d="M140.88,133.17c32-1.16,75.9-.78,107.86-1.93-1.23-8.86-4.13-12-6.75-13.2-8.34-3.68-17.53,11.44-31.44,8.8-5.6-1.06-5.32-3.74-14.62-6.13-4-1-10.24-2.56-17.13-.79a29.06,29.06,0,0,0-11.48,6.29c-6.07,4.78-17.94,8.19-43.38,2C133.58,130.4,131.24,131,140.88,133.17Z"/><path class="cls-2" d="M470,180.77c-37.49-1.35-89-.9-126.51-2.25,1.45-10.39,4.85-14.13,7.93-15.49,9.77-4.31,20.55,13.42,36.87,10.32,6.56-1.24,6.24-4.38,17.14-7.19,4.65-1.19,12-3,20.09-.92A33.92,33.92,0,0,1,439,172.62c7.13,5.6,21.05,9.6,50.88,2.39C478.58,177.53,481.33,178.25,470,180.77Z"/><path class="cls-3" d="M140.15,306.25c-5.56,13.08,6.71,30.74-3.76,55.28a66.19,66.19,0,0,1-17.34,23.38c-8.34,7.36-6,20.94,4.42,24.7a352.45,352.45,0,0,0,106,19.79,349.43,349.43,0,0,0,113-14.88,33.37,33.37,0,0,0,20.28-46.78,127.73,127.73,0,0,1-7.53-19,135.49,135.49,0,0,1-6.05-42.2C197.56,277.46,148.49,286.46,140.15,306.25Z"/><path class="cls-4" d="M367.38,491.26a243.66,243.66,0,0,1-92.29,20.84c-.82,0-1.64,0-2.47.06-1.49,0-3,0-4.47,0l-4.29,0c-.91,0-1.82,0-2.72-.07L259,512l-.68,0a243.5,243.5,0,0,1-115.78-34.4c-4-2.35-7.84-4.83-11.64-7.4a136.15,136.15,0,0,1,45.18-42.91,132.6,132.6,0,0,1,17.66-8.68c2.57-1,5.16-2,7.8-2.85h0a131.35,131.35,0,0,1,13.1-3.64l2-.43a132.9,132.9,0,0,1,20-2.56l.55,0c1.78-.09,3.57-.15,5.36-.16h1.21a133.2,133.2,0,0,1,22.64,1.93c1.21.2,2.42.43,3.62.67,2.51.49,5,1.07,7.48,1.71q5.42,1.42,10.63,3.25,3.61,1.28,7.14,2.73c.59.24,1.17.49,1.76.75q2.63,1.14,5.19,2.38c1,.47,1.92.94,2.87,1.43,1.36.7,2.72,1.43,4.06,2.18a134.75,134.75,0,0,1,27.62,20.45c.75.69,1.47,1.41,2.19,2.13q2.12,2.1,4.12,4.3t3.93,4.48c1.27,1.51,2.53,3.07,3.73,4.65s2.38,3.18,3.52,4.8q3.42,4.88,6.4,10C362.05,479.12,364.51,484.56,367.38,491.26Z"/><circle class="cls-3" cx="240.41" cy="293.49" r="109.58"/><circle class="cls-5" cx="240.41" cy="302.48" r="86.68"/><path class="cls-6" d="M250.94,408.24a271.82,271.82,0,0,0-39.82,5c-.27,0-.41.14-.68.14v-.14A278.83,278.83,0,0,1,250.94,408.24Z"/><path class="cls-3" d="M339.69,288.26c-7-.33-50.54-2.46-80.15-38.77-16,14.23-38.92,28.3-61.65,36.64a170.53,170.53,0,0,1-60.35,10.14c.65-10.47,4.25-46.78,32.71-71.64,19.46-17,45.3-24.2,67.38-25a84,84,0,0,1-1-9.32,113,113,0,0,1,51.19,16.84C329.54,233.47,338.38,279.59,339.69,288.26Z"/><path class="cls-6" d="M246.62,389c-2.12.17-4.25.33-6.37.33a88.2,88.2,0,0,1-88.32-87.5v-3.92c0-1,.16-2.13.16-3.11,4.09-.33,8.34-.82,12.92-1.47a166.89,166.89,0,0,0,31.89-8.18,206.21,206.21,0,0,0,62.81-37.45,74.57,74.57,0,0,0,5.72,6.54,205.11,205.11,0,0,1-62.47,37,164.6,164.6,0,0,1-38.44,9.16V301A88.63,88.63,0,0,0,246.62,389Z"/><path class="cls-7" d="M188.24,301c4.41-5.88,11.45-8.67,17.66-7.19a16.79,16.79,0,0,1,8.83,6.21"/><path class="cls-7" d="M262.16,301c4.42-5.88,11.45-8.67,17.67-7.19a16.84,16.84,0,0,1,8.83,6.21"/><path class="cls-8" d="M225,339c4.41-5.89,11.44-8.67,17.66-7.2a16.79,16.79,0,0,1,8.83,6.22"/><circle class="cls-4" cx="195.92" cy="328.65" r="10.3"/><circle class="cls-4" cx="278.35" cy="324.89" r="10.3"/><path class="cls-6" d="M250.94,408.24a271.82,271.82,0,0,0-39.82,5c-.27,0-.41.14-.68.14v-.14A278.83,278.83,0,0,1,250.94,408.24Z"/><path class="cls-9" d="M285.44,419.32a19.18,19.18,0,0,1-2.62,8.69l-22.15,37.37c-7.61,12.91-26.77,12.91-34.38,0l-11-18.62-11-18.61a19.25,19.25,0,0,1-2.48-7,118.84,118.84,0,0,1,83.65-1.87Z"/><path class="cls-6" d="M343,460.2a235,235,0,0,1-35.59-2.27l-.51-.08a197.82,197.82,0,0,1-30.85-7.06c-3.09-1-6.06-1.88-9.15-2.82A199.62,199.62,0,0,1,210,416.88c-.77-.62-1.54-1.26-2.3-1.9a118.88,118.88,0,0,1,76.73.65A120.83,120.83,0,0,1,343,460.2Z"/><path class="cls-6" d="M336.87,485.12H295.42a1.65,1.65,0,0,1-1.63-1.63v-8.42a1.66,1.66,0,0,1,1.63-1.63h41.45a1.65,1.65,0,0,1,1.63,1.63v8.42A1.56,1.56,0,0,1,336.87,485.12Z"/></g><g id="Layer_3" data-name="Layer 3"><path class="cls-6" d="M418.63,354.32a74.44,74.44,0,1,0,74.44,74.44A74.44,74.44,0,0,0,418.63,354.32Z"/><circle class="cls-9" cx="409.52" cy="418.38" r="74.44"/><path class="cls-10" d="M409.52,343.94A74.45,74.45,0,1,0,484,418.38,74.44,74.44,0,0,0,409.52,343.94Zm0,129.29a54.85,54.85,0,1,1,54.85-54.85A54.85,54.85,0,0,1,409.52,473.23Z"/><rect class="cls-11" x="403.9" y="376.27" width="9.78" height="44.02" rx="4.89"/><rect class="cls-11" x="392.63" y="412.34" width="9.62" height="37.48" rx="4.81" transform="translate(373.66 1016.93) rotate(-135)"/><circle class="cls-6" cx="410.14" cy="420.73" r="9.63"/><circle class="cls-12" cx="409" cy="419.13" r="9.63"/></g></svg>