<svg xmlns="http://www.w3.org/2000/svg" viewBox="0 0 537.36 536.35"><defs><style>.cls-1{fill:#ebf6ff;}.cls-2{fill:#c9e7ff;}.cls-3{fill:#0280ee;}.cls-4{fill:#003c70;}.cls-5{opacity:0.08;}.cls-5,.cls-6,.cls-8{isolation:isolate;}.cls-6{fill:#231f20;opacity:0.16;}.cls-7{fill:#fff;}.cls-8{fill:#2f2e41;opacity:0.16;}.cls-9{fill:#f05d65;}.cls-10{fill:#465b65;}.cls-11{fill:#fdd80e;}</style></defs><g id="Layer_1" data-name="Layer 1"><path class="cls-1" d="M504.64,260.38c0,7.72-.35,15.37-1.06,22.9a243,243,0,0,1-22.13,81.26c-38.22,81.22-119.73,138-214.79,140.68-.83,0-1.65,0-2.48.06-1.49,0-3,0-4.47,0s-2.86,0-4.29,0c-.91,0-1.82,0-2.72-.07l-2.1-.07-.68,0a243.5,243.5,0,0,1-115.78-34.4q-8.1-4.82-15.76-10.26l-.83-.59c-.87-.61-1.74-1.25-2.6-1.87A246,246,0,0,1,29.6,344.51a241.21,241.21,0,0,1-9.26-32,244.66,244.66,0,0,1-4.61-30.26q-1-10.81-1-21.89,0-5.91.29-11.74.15-3.37.41-6.72c.1-1.34.2-2.68.33-4,.72-8,1.84-15.88,3.31-23.64C40.68,101.05,140.2,15.46,259.71,15.46A243.92,243.92,0,0,1,414.9,70.89q8.94,7.33,17.14,15.47,5.38,5.3,10.4,10.92a245.44,245.44,0,0,1,44.33,71.12h0c.66,1.6,1.3,3.22,1.91,4.84A244,244,0,0,1,504.64,260.38Z"/><path class="cls-2" d="M481.45,364.54c-38.22,81.22-119.73,138-214.79,140.68-.83,0-1.65,0-2.48.06-1.49,0-3,0-4.47,0s-2.86,0-4.29,0c-.91,0-1.82,0-2.72-.07l-2.1-.07-.68,0a243.5,243.5,0,0,1-115.78-34.4q-8.1-4.82-15.76-10.26l-.83-.59c-.87-.61-1.74-1.25-2.6-1.87A246,246,0,0,1,29.6,344.51c14.49-2.44,31.74-3.49,51.49-7.84a206.58,206.58,0,0,0,73.25-31.45c2.71,4.94,16.82,28.93,58.49,40.87a184.56,184.56,0,0,0,62.93,5.59c49.3-4.6,91.33-32.58,107.17-70.27,6.37,13.49,18.69,33.5,44.23,53.21C445.58,348.84,464.28,357.82,481.45,364.54Z"/><path class="cls-2" d="M29.49,249.37c32-1.15,75.9-.77,107.86-1.93-1.23-8.86-4.13-12-6.76-13.2-8.33-3.68-17.52,11.44-31.43,8.8-5.6-1.06-5.33-3.74-14.62-6.13-4-1-10.24-2.56-17.13-.78a29,29,0,0,0-11.48,6.28c-6.08,4.78-18,8.19-43.38,2.05C22.19,246.61,19.84,247.22,29.49,249.37Z"/><path class="cls-2" d="M132.43,126.29c32-1.16,75.91-.78,107.87-1.93-1.23-8.86-4.13-12-6.76-13.2-8.33-3.68-17.52,11.44-31.43,8.8-5.6-1.06-5.33-3.74-14.62-6.13-4-1-10.24-2.56-17.13-.79a29,29,0,0,0-11.48,6.29c-6.08,4.78-17.95,8.19-43.38,2C125.14,123.52,122.79,124.14,132.43,126.29Z"/><path class="cls-2" d="M461.58,173.89c-37.48-1.35-89-.9-126.5-2.25,1.45-10.39,4.85-14.13,7.93-15.49,9.77-4.31,20.55,13.42,36.86,10.32,6.57-1.24,6.25-4.38,17.15-7.19,4.64-1.19,12-3,20.09-.92a34.08,34.08,0,0,1,13.46,7.38c7.13,5.6,21.05,9.6,50.88,2.39C470.14,170.65,472.89,171.37,461.58,173.89Z"/><path class="cls-3" d="M136.26,329.21A70.47,70.47,0,0,1,88,310.12a71.57,71.57,0,0,1-22.47-47.05c-2.79-36.92,23.8-70.19,60.55-75.75a3.46,3.46,0,0,0,2.37-1.5,3.53,3.53,0,0,0,.51-2.77,87.92,87.92,0,0,1-2.51-20.36,86,86,0,0,1,18.65-53.47A85.93,85.93,0,0,1,211.54,77.4a85.29,85.29,0,0,1,76.91,49.31,3.48,3.48,0,0,0,3.17,2,3.58,3.58,0,0,0,1.11-.18,66.23,66.23,0,0,1,20.71-3.41,64.35,64.35,0,0,1,61.8,45.73,3.5,3.5,0,0,0,3.34,2.48l.35,0c3.11-.31,6.33-.63,9.42-.63a78.25,78.25,0,1,1,0,156.5Z"/><path class="cls-4" d="M211.54,80.9a81.76,81.76,0,0,1,73.73,47.29,7,7,0,0,0,8.56,3.69,62.8,62.8,0,0,1,19.61-3.23,61.1,61.1,0,0,1,58.45,43.26,7,7,0,0,0,6.69,5c.24,0,.47,0,.7,0,3.17-.32,6.17-.61,9.07-.61a74.75,74.75,0,1,1,0,149.5H136.26a67,67,0,0,1-45.9-18.14A68.1,68.1,0,0,1,69,262.8a67.94,67.94,0,0,1,57.58-72,7,7,0,0,0,5.76-8.54,84.87,84.87,0,0,1-2.41-19.55A82.46,82.46,0,0,1,147.8,111.4a80.83,80.83,0,0,1,46-28.5l.06,0a80.82,80.82,0,0,1,17.72-2m0-7a87.47,87.47,0,0,0-19.26,2.15c-40.71,8.8-69.37,45-69.37,86.64a91.77,91.77,0,0,0,2.6,21.17A74.91,74.91,0,0,0,62,263.33c2.93,39.09,35.18,69.38,74.26,69.38H388.35a81.75,81.75,0,1,0,0-163.5,97.32,97.32,0,0,0-9.77.65,68.1,68.1,0,0,0-65.14-48.21,69.64,69.64,0,0,0-21.82,3.59A88.58,88.58,0,0,0,211.54,73.9Z"/><path class="cls-5" d="M470.1,251.92a81.59,81.59,0,0,1-81.75,81.75H136.26A74.11,74.11,0,0,1,77.64,305a73.89,73.89,0,0,0,45.49,15.59H375.22a81.74,81.74,0,0,0,64-132.54A81.52,81.52,0,0,1,470.1,251.92Z"/><path class="cls-6" d="M210.08,227.93a18.13,18.13,0,0,0,25.57-.09l10.67-10.66v63.09a18.27,18.27,0,1,0,36.54,0V217.18l10.5,10.5a18.59,18.59,0,0,0,13.07,5.39h.06a18.07,18.07,0,0,0,12.69-30.88l-44-44a15,15,0,0,0-21.23,0L210.16,202a18.55,18.55,0,0,0-5.39,13.13,17.88,17.88,0,0,0,5.31,12.77Z"/><path class="cls-7" d="M199.8,221.82a18.14,18.14,0,0,0,25.57-.08L236,211.07v63.1a18.28,18.28,0,0,0,36.55,0v-63.1l10.5,10.51A18.62,18.62,0,0,0,296.15,227h.06a18.08,18.08,0,0,0,12.69-30.88l-44-44a15,15,0,0,0-21.23,0l-43.82,43.82a18.61,18.61,0,0,0-5.39,13.13,17.89,17.89,0,0,0,5.32,12.77Z"/><path class="cls-8" d="M418.63,354.32a74.44,74.44,0,1,0,74.44,74.44A74.44,74.44,0,0,0,418.63,354.32Z"/><circle class="cls-7" cx="409.52" cy="418.38" r="74.44"/><path class="cls-9" d="M409.52,343.94A74.45,74.45,0,1,0,484,418.38,74.44,74.44,0,0,0,409.52,343.94Zm0,129.29a54.85,54.85,0,1,1,54.85-54.85A54.85,54.85,0,0,1,409.52,473.23Z"/><rect class="cls-10" x="403.9" y="376.27" width="9.78" height="44.02" rx="4.89"/><rect class="cls-10" x="392.63" y="412.34" width="9.62" height="37.48" rx="4.81" transform="translate(373.66 1016.93) rotate(-135)"/><circle class="cls-8" cx="410.14" cy="420.73" r="9.63"/><circle class="cls-11" cx="409" cy="419.13" r="9.63"/></g></svg>