<svg xmlns="http://www.w3.org/2000/svg" viewBox="0 0 534.08 534.53"><defs><style>.cls-1{fill:#ebf6ff;}.cls-2{fill:#c9e7ff;}.cls-3,.cls-6{fill:#2f2e41;}.cls-4{fill:#a3afbf;}.cls-5{fill:#dbdae8;}.cls-6{opacity:0.16;isolation:isolate;}.cls-7,.cls-8{fill:none;stroke:#2f2e41;stroke-linecap:round;stroke-miterlimit:10;}.cls-7{stroke-width:3.8px;}.cls-8{stroke-width:3.16px;}.cls-9{fill:#fff;}.cls-10{fill:#f05d65;}.cls-11{fill:#465b65;}.cls-12{fill:#fdd80e;}</style></defs><g id="Layer_1" data-name="Layer 1"><path class="cls-1" d="M511.13,259.36c0,7.72-.35,15.37-1.06,22.9a243,243,0,0,1-11.89,55.9,244.77,244.77,0,0,1-225,166c-.82,0-1.64.05-2.47.06-1.49,0-3,0-4.47,0l-4.29,0c-.91,0-1.82,0-2.72-.07l-2.1-.07-.68,0a243.5,243.5,0,0,1-115.78-34.4c-4-2.35-7.84-4.83-11.64-7.4-1.38-.94-2.76-1.89-4.12-2.86-.26-.2-.55-.39-.83-.59l-2.6-1.88A245.62,245.62,0,0,1,36.09,343.49a241.21,241.21,0,0,1-9.26-32,244.66,244.66,0,0,1-4.61-30.26q-1-10.81-1-21.89,0-5.91.29-11.74c.05-1.19.12-2.37.19-3.55h0c.07-1.06.14-2.11.22-3.16.1-1.34.2-2.68.33-4q1.08-12,3.31-23.65C47.17,100,146.69,14.44,266.2,14.44A243.89,243.89,0,0,1,421.39,69.87q8.94,7.32,17.14,15.47,5.39,5.3,10.4,10.92a245.09,245.09,0,0,1,44.33,71.12h0c.66,1.6,1.29,3.21,1.91,4.84A244,244,0,0,1,511.13,259.36Z"/><path class="cls-2" d="M487.94,363.52A244.71,244.71,0,0,1,273.14,504.2c-.82,0-1.64.05-2.47.06-1.49,0-3,0-4.47,0l-4.29,0c-.91,0-1.82,0-2.72-.07l-2.1-.07-.68,0a243.5,243.5,0,0,1-115.78-34.4c-4-2.35-7.84-4.83-11.64-7.4-1.38-.94-2.76-1.89-4.12-2.86-.26-.2-.55-.39-.83-.59l-2.6-1.88A245.62,245.62,0,0,1,36.09,343.49c14.49-2.44,31.74-3.49,51.49-7.84a206.58,206.58,0,0,0,73.25-31.45c2.71,4.94,16.82,28.93,58.49,40.87a184.52,184.52,0,0,0,62.93,5.59c49.3-4.6,91.33-32.59,107.17-70.28,6.37,13.5,18.68,33.51,44.23,53.21C452.07,347.82,470.77,356.8,487.94,363.52Z"/><path class="cls-2" d="M36,248.35c32-1.15,75.91-.77,107.87-1.92-1.24-8.86-4.13-12.05-6.76-13.21-8.33-3.68-17.52,11.44-31.44,8.8-5.59-1.06-5.32-3.73-14.61-6.13-4-1-10.24-2.56-17.14-.78a29,29,0,0,0-11.47,6.29c-6.08,4.77-18,8.18-43.38,2C28.68,245.59,26.33,246.2,36,248.35Z"/><path class="cls-2" d="M138.92,125.27c32-1.15,75.91-.77,107.87-1.93-1.24-8.86-4.13-12-6.76-13.2-8.33-3.68-17.52,11.44-31.44,8.8-5.59-1.06-5.32-3.74-14.61-6.13-4-1-10.24-2.56-17.14-.78a29,29,0,0,0-11.47,6.28c-6.08,4.78-18,8.19-43.38,2C131.63,122.51,129.28,123.12,138.92,125.27Z"/><path class="cls-2" d="M468.07,172.88c-37.48-1.36-89-.91-126.5-2.26,1.45-10.39,4.84-14.13,7.92-15.49,9.77-4.31,20.55,13.42,36.87,10.33,6.57-1.25,6.24-4.39,17.15-7.19,4.64-1.2,12-3,20.09-.93a34.08,34.08,0,0,1,13.46,7.38c7.12,5.6,21,9.6,50.87,2.4C476.63,169.63,479.38,170.36,468.07,172.88Z"/><path class="cls-3" d="M138.2,298.35c-5.56,13.08,6.7,30.75-3.76,55.28A66.35,66.35,0,0,1,117.1,377c-8.34,7.36-6,20.93,4.41,24.69a352.53,352.53,0,0,0,106,19.79,349.08,349.08,0,0,0,113-14.88,33.37,33.37,0,0,0,20.28-46.78,126.65,126.65,0,0,1-7.52-19,134.83,134.83,0,0,1-6-42.19C195.6,269.56,146.54,278.56,138.2,298.35Z"/><path class="cls-4" d="M365.43,483.36a243.66,243.66,0,0,1-92.29,20.84c-.82,0-1.64.05-2.47.06-1.49,0-3,0-4.47,0l-4.29,0c-.91,0-1.82,0-2.72-.07l-2.1-.07-.68,0a243.5,243.5,0,0,1-115.78-34.4c-4-2.35-7.84-4.83-11.64-7.4a136.15,136.15,0,0,1,45.18-42.91,132.6,132.6,0,0,1,17.66-8.68c2.57-1,5.16-2,7.8-2.85h0a131.35,131.35,0,0,1,13.1-3.64l2-.43a132.9,132.9,0,0,1,20-2.56l.55,0c1.78-.09,3.57-.15,5.36-.16h1.21A133.2,133.2,0,0,1,264.5,403c1.21.2,2.42.43,3.62.67,2.51.49,5,1.07,7.48,1.71q5.41,1.42,10.63,3.25,3.61,1.27,7.14,2.73c.59.24,1.17.49,1.76.75q2.63,1.14,5.19,2.38c1,.47,1.92.94,2.87,1.43,1.36.7,2.72,1.43,4.06,2.18a134.75,134.75,0,0,1,27.62,20.45c.75.69,1.47,1.41,2.19,2.13q2.12,2.1,4.12,4.3t3.93,4.48c1.27,1.51,2.53,3.07,3.73,4.65s2.38,3.18,3.52,4.8q3.42,4.88,6.4,10C360.1,471.22,362.56,476.66,365.43,483.36Z"/><circle class="cls-3" cx="238.45" cy="285.59" r="109.58"/><circle class="cls-5" cx="238.45" cy="294.59" r="86.68"/><path class="cls-6" d="M249,400.34a272.87,272.87,0,0,0-39.81,5c-.28,0-.41.14-.68.14v-.14A280.25,280.25,0,0,1,249,400.34Z"/><path class="cls-3" d="M337.73,280.36c-7-.33-50.54-2.46-80.14-38.76-16,14.23-38.93,28.29-61.66,36.63a170.23,170.23,0,0,1-60.35,10.14c.65-10.47,4.25-46.77,32.71-71.63,19.46-17,45.3-24.21,67.38-25a89.19,89.19,0,0,1-1-9.32,112.93,112.93,0,0,1,51.19,16.85C327.59,225.57,336.42,271.69,337.73,280.36Z"/><path class="cls-6" d="M244.67,381.11c-2.13.16-4.25.32-6.38.32A88.2,88.2,0,0,1,150,293.93V290c0-1,.17-2.13.17-3.11,4.08-.33,8.34-.82,12.92-1.47A166.52,166.52,0,0,0,195,277.25a206,206,0,0,0,62.8-37.45,73,73,0,0,0,5.73,6.54,205.28,205.28,0,0,1-62.48,37,164.53,164.53,0,0,1-38.43,9.16v.66A88.63,88.63,0,0,0,244.67,381.11Z"/><path class="cls-7" d="M186.28,293.12c4.42-5.89,11.45-8.67,17.66-7.2a16.93,16.93,0,0,1,8.84,6.21"/><path class="cls-7" d="M260.21,293.12c4.41-5.89,11.44-8.67,17.66-7.2a16.85,16.85,0,0,1,8.83,6.21"/><path class="cls-8" d="M223.08,331.12c4.42-5.89,11.45-8.67,17.66-7.2a16.88,16.88,0,0,1,8.84,6.22"/><circle class="cls-4" cx="193.97" cy="320.76" r="10.3"/><circle class="cls-4" cx="276.4" cy="316.99" r="10.3"/><path class="cls-6" d="M249,400.34a272.87,272.87,0,0,0-39.81,5c-.28,0-.41.14-.68.14v-.14A280.25,280.25,0,0,1,249,400.34Z"/><path class="cls-9" d="M283.49,411.42a19.28,19.28,0,0,1-2.63,8.69l-22.15,37.37c-7.6,12.91-26.77,12.91-34.37,0l-11-18.61-11-18.62a19.25,19.25,0,0,1-2.47-6.95,118.77,118.77,0,0,1,83.65-1.88Z"/><path class="cls-6" d="M341,452.3A233.71,233.71,0,0,1,305.45,450l-.51-.07a199.24,199.24,0,0,1-30.85-7.07c-3.09-.95-6.06-1.88-9.15-2.82A199.54,199.54,0,0,1,208,409c-.78-.63-1.54-1.27-2.31-1.9a118.71,118.71,0,0,1,76.73.65,119.72,119.72,0,0,1,45.06,28.4A121.28,121.28,0,0,1,341,452.3Z"/><path class="cls-6" d="M334.91,477.23H293.47a1.66,1.66,0,0,1-1.63-1.63v-8.43a1.65,1.65,0,0,1,1.63-1.63h41.44a1.65,1.65,0,0,1,1.63,1.63v8.43A1.56,1.56,0,0,1,334.91,477.23Z"/></g><g id="Layer_3" data-name="Layer 3"><path class="cls-6" d="M418.63,354.32a74.44,74.44,0,1,0,74.44,74.44A74.44,74.44,0,0,0,418.63,354.32Z"/><circle class="cls-9" cx="409.52" cy="418.38" r="74.44"/><path class="cls-10" d="M409.52,343.94A74.45,74.45,0,1,0,484,418.38,74.44,74.44,0,0,0,409.52,343.94Zm0,129.29a54.85,54.85,0,1,1,54.85-54.85A54.85,54.85,0,0,1,409.52,473.23Z"/><rect class="cls-11" x="403.9" y="376.27" width="9.78" height="44.02" rx="4.89"/><rect class="cls-11" x="392.63" y="412.34" width="9.62" height="37.48" rx="4.81" transform="translate(373.66 1016.93) rotate(-135)"/><circle class="cls-6" cx="410.14" cy="420.73" r="9.63"/><circle class="cls-12" cx="409" cy="419.13" r="9.63"/></g></svg>