<svg xmlns="http://www.w3.org/2000/svg" viewBox="0 0 517.19 520.77"><defs><style>.cls-1{fill:#ebf6ff;}.cls-2{fill:#c9e7ff;}.cls-3{fill:#2f2e41;opacity:0.16;}.cls-4{fill:#0280ee;}.cls-5{fill:#003c70;}.cls-6{fill:#fff;}</style></defs><g id="Layer_1" data-name="Layer 1"><path class="cls-1" d="M504.64,260.38c0,7.72-.35,15.37-1.06,22.9a243,243,0,0,1-22.13,81.26c-38.22,81.22-119.73,138-214.79,140.68-.83,0-1.65,0-2.48.06-1.49,0-3,0-4.47,0s-2.86,0-4.29,0c-.91,0-1.82,0-2.72-.07l-2.1-.07-.68,0a243.5,243.5,0,0,1-115.78-34.4q-8.1-4.82-15.76-10.26l-.83-.59c-.87-.61-1.74-1.25-2.6-1.87A246,246,0,0,1,29.6,344.51a241.21,241.21,0,0,1-9.26-32,244.66,244.66,0,0,1-4.61-30.26q-1-10.81-1-21.89,0-5.91.29-11.74.15-3.37.41-6.72c.1-1.34.2-2.68.33-4,.72-8,1.84-15.88,3.31-23.64C40.68,101.05,140.2,15.46,259.71,15.46A243.92,243.92,0,0,1,414.9,70.89q8.94,7.33,17.14,15.47,5.38,5.3,10.4,10.92a245.44,245.44,0,0,1,44.33,71.12h0c.66,1.6,1.3,3.22,1.91,4.84A244,244,0,0,1,504.64,260.38Z"/><path class="cls-2" d="M481.45,364.54c-38.22,81.22-119.73,138-214.79,140.68-.83,0-1.65,0-2.48.06-1.49,0-3,0-4.47,0s-2.86,0-4.29,0c-.91,0-1.82,0-2.72-.07l-2.1-.07-.68,0a243.5,243.5,0,0,1-115.78-34.4q-8.1-4.82-15.76-10.26l-.83-.59c-.87-.61-1.74-1.25-2.6-1.87A246,246,0,0,1,29.6,344.51c14.49-2.44,31.74-3.49,51.49-7.84a206.58,206.58,0,0,0,73.25-31.45c2.71,4.94,16.82,28.93,58.49,40.87a184.56,184.56,0,0,0,62.93,5.59c49.3-4.6,91.33-32.58,107.17-70.27,6.37,13.49,18.69,33.5,44.23,53.21C445.58,348.84,464.28,357.82,481.45,364.54Z"/><path class="cls-2" d="M29.49,249.37c32-1.15,75.9-.77,107.86-1.93-1.23-8.86-4.13-12-6.76-13.2-8.33-3.68-17.52,11.44-31.43,8.8-5.6-1.06-5.33-3.74-14.62-6.13-4-1-10.24-2.56-17.13-.78a29,29,0,0,0-11.48,6.28c-6.08,4.78-18,8.19-43.38,2.05C22.19,246.61,19.84,247.22,29.49,249.37Z"/><path class="cls-2" d="M132.43,126.29c32-1.16,75.91-.78,107.87-1.93-1.23-8.86-4.13-12-6.76-13.2-8.33-3.68-17.52,11.44-31.43,8.8-5.6-1.06-5.33-3.74-14.62-6.13-4-1-10.24-2.56-17.13-.79a29,29,0,0,0-11.48,6.29c-6.08,4.78-17.95,8.19-43.38,2C125.14,123.52,122.79,124.14,132.43,126.29Z"/><path class="cls-2" d="M461.58,173.89c-37.48-1.35-89-.9-126.5-2.25,1.45-10.39,4.85-14.13,7.93-15.49,9.77-4.31,20.55,13.42,36.86,10.32,6.57-1.24,6.25-4.38,17.15-7.19,4.64-1.19,12-3,20.09-.92a34.08,34.08,0,0,1,13.46,7.38c7.13,5.6,21.05,9.6,50.88,2.39C470.14,170.65,472.89,171.37,461.58,173.89Z"/><circle class="cls-3" cx="266.31" cy="273" r="123.09"/><circle class="cls-4" cx="259.58" cy="260.39" r="119.59" transform="translate(-108.09 259.82) rotate(-45)"/><path class="cls-5" d="M259.58,144.3a116.08,116.08,0,1,1-82.09,34,115.32,115.32,0,0,1,82.09-34m0-7A123.09,123.09,0,1,0,382.67,260.39,123.09,123.09,0,0,0,259.58,137.3Z"/><rect class="cls-3" x="205.1" y="208.88" width="128.23" height="128.23"/><rect class="cls-6" x="197.98" y="199.77" width="121.23" height="121.23"/><path class="cls-5" d="M315.71,203.27V317.5H201.48V203.27H315.71m7-7H194.48V324.5H322.71V196.27Z"/></g></svg>