<svg xmlns="http://www.w3.org/2000/svg" viewBox="0 0 529.31 531.92"><defs><style>.cls-1{fill:#ebf6ff;}.cls-2{fill:#c9e7ff;}.cls-3{fill:#fff;}.cls-4{fill:#0280ee;}.cls-5,.cls-7{fill:#2f2e41;}.cls-5,.cls-6{opacity:0.16;isolation:isolate;}.cls-8{fill:#fdd80e;}.cls-9{fill:#fc4;}.cls-10{fill:#003c70;}</style></defs><g id="Layer_1" data-name="Layer 1"><path class="cls-1" d="M504.64,260.38c0,7.72-.35,15.37-1.06,22.9a243,243,0,0,1-22.13,81.26c-38.22,81.22-119.73,138-214.79,140.68-.83,0-1.65,0-2.48.06-1.49,0-3,0-4.47,0s-2.86,0-4.29,0c-.91,0-1.82,0-2.72-.07l-2.1-.07-.68,0a243.5,243.5,0,0,1-115.78-34.4q-8.1-4.82-15.76-10.26l-.83-.59c-.87-.61-1.74-1.25-2.6-1.87A246,246,0,0,1,29.6,344.51a241.21,241.21,0,0,1-9.26-32,244.66,244.66,0,0,1-4.61-30.26q-1-10.81-1-21.89,0-5.91.29-11.74.15-3.37.41-6.72c.1-1.34.2-2.68.33-4,.72-8,1.84-15.88,3.31-23.64C40.68,101.05,140.2,15.46,259.71,15.46A243.92,243.92,0,0,1,414.9,70.89q8.94,7.33,17.14,15.47,5.38,5.3,10.4,10.92a245.44,245.44,0,0,1,44.33,71.12h0c.66,1.6,1.3,3.22,1.91,4.84A244,244,0,0,1,504.64,260.38Z"/><path class="cls-2" d="M481.45,364.54c-38.22,81.22-119.73,138-214.79,140.68-.83,0-1.65,0-2.48.06-1.49,0-3,0-4.47,0s-2.86,0-4.29,0c-.91,0-1.82,0-2.72-.07l-2.1-.07-.68,0a243.5,243.5,0,0,1-115.78-34.4q-8.1-4.82-15.76-10.26l-.83-.59c-.87-.61-1.74-1.25-2.6-1.87A246,246,0,0,1,29.6,344.51c14.49-2.44,31.74-3.49,51.49-7.84a206.58,206.58,0,0,0,73.25-31.45c2.71,4.94,16.82,28.93,58.49,40.87a184.56,184.56,0,0,0,62.93,5.59c49.3-4.6,91.33-32.58,107.17-70.27,6.37,13.49,18.69,33.5,44.23,53.21C445.58,348.84,464.28,357.82,481.45,364.54Z"/><path class="cls-2" d="M29.49,249.37c32-1.15,75.9-.77,107.86-1.93-1.23-8.86-4.13-12-6.76-13.2-8.33-3.68-17.52,11.44-31.43,8.8-5.6-1.06-5.33-3.74-14.62-6.13-4-1-10.24-2.56-17.13-.78a29,29,0,0,0-11.48,6.28c-6.08,4.78-18,8.19-43.38,2.05C22.19,246.61,19.84,247.22,29.49,249.37Z"/><path class="cls-2" d="M132.43,126.29c32-1.16,75.91-.78,107.87-1.93-1.23-8.86-4.13-12-6.76-13.2-8.33-3.68-17.52,11.44-31.43,8.8-5.6-1.06-5.33-3.74-14.62-6.13-4-1-10.24-2.56-17.13-.79a29,29,0,0,0-11.48,6.29c-6.08,4.78-17.95,8.19-43.38,2C125.14,123.52,122.79,124.14,132.43,126.29Z"/><path class="cls-2" d="M461.58,173.89c-37.48-1.35-89-.9-126.5-2.25,1.45-10.39,4.85-14.13,7.93-15.49,9.77-4.31,20.55,13.42,36.86,10.32,6.57-1.24,6.25-4.38,17.15-7.19,4.64-1.19,12-3,20.09-.92a34.08,34.08,0,0,1,13.46,7.38c7.13,5.6,21.05,9.6,50.88,2.39C470.14,170.65,472.89,171.37,461.58,173.89Z"/><rect class="cls-3" x="105.03" y="191.38" width="319.25" height="217.19" rx="20.56"/><rect class="cls-4" x="104.35" y="167.25" width="319.25" height="61.61" rx="10.95"/><path class="cls-5" d="M423.6,209.6v8.7a11,11,0,0,1-11,11H115.3a11,11,0,0,1-11-11v-8.7a11,11,0,0,0,11,11H412.65A11,11,0,0,0,423.6,209.6Z"/><path class="cls-5" d="M423.47,218.57v8.7a11,11,0,0,1-11,11H115.17a11,11,0,0,1-11-11v-8.7a11,11,0,0,0,11,11H412.52A11,11,0,0,0,423.47,218.57Z"/><g class="cls-6"><rect class="cls-7" x="140.75" y="254.52" width="46.11" height="44.62" rx="7.07"/><rect class="cls-7" x="211.22" y="254.52" width="46.11" height="44.62" rx="7.07"/><rect class="cls-7" x="281.7" y="254.52" width="46.11" height="44.62" rx="7.07"/><rect class="cls-7" x="352.17" y="254.52" width="46.11" height="44.62" rx="7.07"/></g><g class="cls-6"><rect class="cls-7" x="140.75" y="325.73" width="46.11" height="44.62" rx="7.07"/><rect class="cls-7" x="211.22" y="325.73" width="46.11" height="44.62" rx="7.07"/></g><g class="cls-6"><rect class="cls-7" x="281.7" y="325.73" width="46.11" height="44.62" rx="7.07"/><rect class="cls-7" x="352.17" y="325.73" width="46.11" height="44.62" rx="7.07"/></g><rect class="cls-8" x="136.2" y="129.27" width="30.07" height="69.63" rx="12"/><rect class="cls-8" x="361.69" y="129.27" width="30.07" height="69.63" rx="12"/><path class="cls-9" d="M166.26,141.41V187a12,12,0,0,1-12,12H148.2c-.31,0-.62,0-.92,0a12,12,0,0,0,11.07-12V141.41a12,12,0,0,0-11.07-12c.3,0,.61,0,.92,0h6.06A12,12,0,0,1,166.26,141.41Z"/><path class="cls-9" d="M391.76,141.41V187a12,12,0,0,1-12,12h-6.07c-.31,0-.62,0-.92,0a12,12,0,0,0,11.08-12V141.41a12,12,0,0,0-11.08-12c.3,0,.61,0,.92,0h6.07A12,12,0,0,1,391.76,141.41Z"/><rect class="cls-10" x="135.21" y="248.98" width="46.11" height="44.62" rx="7.07"/><rect class="cls-10" x="205.68" y="248.98" width="46.11" height="44.62" rx="7.07"/><rect class="cls-10" x="276.16" y="248.98" width="46.11" height="44.62" rx="7.07"/><rect class="cls-10" x="347.26" y="248.98" width="46.11" height="44.62" rx="7.07"/><rect class="cls-10" x="135.21" y="320.19" width="46.11" height="44.62" rx="7.07"/><rect class="cls-10" x="205.68" y="320.19" width="46.11" height="44.62" rx="7.07"/><rect class="cls-10" x="276.78" y="320.19" width="46.11" height="44.62" rx="7.07"/><rect class="cls-10" x="347.26" y="320.19" width="46.11" height="44.62" rx="7.07"/></g></svg>