<svg xmlns="http://www.w3.org/2000/svg" viewBox="0 0 521.14 523.15"><defs><style>.cls-1{fill:#2f2e41;opacity:0.16;isolation:isolate;}.cls-2{fill:#fff;}.cls-3{fill:#2bb573;}.cls-4{fill:#231f20;opacity:0.16;}</style></defs><g id="Layer_1" data-name="Layer 1"><path class="cls-1" d="M416,353.63a74.44,74.44,0,1,0,74.43,74.44A74.45,74.45,0,0,0,416,353.63Z"/><circle class="cls-2" cx="406.92" cy="417.69" r="74.44"/><path class="cls-3" d="M406.93,343.25a74.44,74.44,0,1,0,74.43,74.44A74.44,74.44,0,0,0,406.93,343.25Zm0,129.29a54.85,54.85,0,1,1,54.84-54.85A54.85,54.85,0,0,1,406.93,472.54Z"/><path class="cls-1" d="M443.73,403.4a10.12,10.12,0,0,1-3,7.15L412.2,439.14a10.15,10.15,0,0,1-11.41,2,10,10,0,0,1-2.3-1.45l-1.16-1.16-14.76-14.78a10.12,10.12,0,0,1,14.3-14.31l8.2,8.2,21.4-21.4a10.11,10.11,0,0,1,17.26,7.15Z"/><path class="cls-3" d="M440.42,403.4a10.12,10.12,0,0,1-2.95,7.15l-28.59,28.59a10.15,10.15,0,0,1-11.41,2,9.93,9.93,0,0,1-2.29-1.45L394,438.54l-14.77-14.78a10.12,10.12,0,0,1,14.31-14.31l8.19,8.2,21.4-21.4a10.11,10.11,0,0,1,17.27,7.15Z"/><path class="cls-4" d="M440.39,403.4a10.12,10.12,0,0,1-2.95,7.16l-28.59,28.59a10.14,10.14,0,0,1-11.4,2,9.51,9.51,0,0,1-2.3-1.46L394,438.55l-14.77-14.78a10.08,10.08,0,0,1-2.79-8.91,10,10,0,0,0,2.79,5.39L394,435l1.16,1.16a9.82,9.82,0,0,0,2.3,1.46,10.14,10.14,0,0,0,11.4-2l28.59-28.59a10.1,10.1,0,0,0,2.8-5.4A10.34,10.34,0,0,1,440.39,403.4Z"/></g></svg>