<svg xmlns="http://www.w3.org/2000/svg" viewBox="0 0 521.14 523.15"><defs><style>.cls-1{fill:#2f2e41;opacity:0.16;isolation:isolate;}.cls-2{fill:#fff;}.cls-3{fill:#f05d65;}.cls-4{fill:#465b65;}.cls-5{fill:#fdd80e;}.cls-6{fill:#ffbf0b;}</style></defs><g id="Layer_1" data-name="Layer 1"><path class="cls-1" d="M418.63,354.32a74.44,74.44,0,1,0,74.44,74.44A74.44,74.44,0,0,0,418.63,354.32Z"/><circle class="cls-2" cx="409.52" cy="418.38" r="74.44"/><path class="cls-3" d="M409.52,343.94A74.45,74.45,0,1,0,484,418.38,74.44,74.44,0,0,0,409.52,343.94Zm0,129.29a54.85,54.85,0,1,1,54.85-54.85A54.85,54.85,0,0,1,409.52,473.23Z"/><rect class="cls-4" x="403.9" y="376.27" width="9.78" height="44.02" rx="4.89"/><rect class="cls-4" x="392.63" y="412.34" width="9.62" height="37.48" rx="4.81" transform="translate(373.66 1016.93) rotate(-135)"/><circle class="cls-1" cx="410.14" cy="420.73" r="9.63"/><circle class="cls-5" cx="409" cy="419.13" r="9.63"/></g><g id="Layer_3" data-name="Layer 3"><path class="cls-1" d="M-15.41,353.63a74.44,74.44,0,0,0-74.44,74.44,74.44,74.44,0,0,0,74.44,74.44A74.43,74.43,0,0,0,59,428.07,74.43,74.43,0,0,0-15.41,353.63Z"/><circle class="cls-2" cx="-24.52" cy="417.69" r="74.44"/><path class="cls-6" d="M-24.52,343.25A74.44,74.44,0,0,0-99,417.69a74.44,74.44,0,0,0,74.44,74.44,74.43,74.43,0,0,0,74.43-74.44A74.43,74.43,0,0,0-24.52,343.25Zm0,129.29a54.85,54.85,0,0,1-54.84-54.85,54.84,54.84,0,0,1,54.84-54.84,54.85,54.85,0,0,1,54.85,54.84A54.85,54.85,0,0,1-24.52,472.54Z"/></g></svg>