<svg xmlns="http://www.w3.org/2000/svg" viewBox="0 0 521.14 523.15"><defs><style>.cls-1{fill:#ebf6ff;}.cls-2{fill:#c9e7ff;}.cls-3{fill:#0280ee;}.cls-4{fill:#003c70;}.cls-5{fill:#8fc8f9;}.cls-6,.cls-7{fill:none;stroke:#003c70;}.cls-6{stroke-linejoin:round;stroke-width:10px;}.cls-7{stroke-linecap:round;stroke-miterlimit:10;stroke-width:12px;}.cls-8{fill:#2f2e41;opacity:0.16;isolation:isolate;}.cls-9{fill:#fff;}.cls-10{fill:#f05d65;}.cls-11{fill:#465b65;}.cls-12{fill:#fdd80e;}</style></defs><g id="Layer_1" data-name="Layer 1"><path class="cls-1" d="M504.64,260.38c0,7.72-.35,15.37-1.06,22.9a243,243,0,0,1-22.13,81.26c-38.22,81.22-119.73,138-214.79,140.68-.83,0-1.65,0-2.48.06-1.49,0-3,0-4.47,0s-2.86,0-4.29,0c-.91,0-1.82,0-2.72-.07l-2.1-.07-.68,0a243.5,243.5,0,0,1-115.78-34.4q-8.1-4.82-15.76-10.26l-.83-.59c-.87-.61-1.74-1.25-2.6-1.87A246,246,0,0,1,29.6,344.51a241.21,241.21,0,0,1-9.26-32,244.66,244.66,0,0,1-4.61-30.26q-1-10.81-1-21.89,0-5.91.29-11.74.15-3.37.41-6.72c.1-1.34.2-2.68.33-4,.72-8,1.84-15.88,3.31-23.64C40.68,101.05,140.2,15.46,259.71,15.46A243.92,243.92,0,0,1,414.9,70.89q8.94,7.33,17.14,15.47,5.38,5.3,10.4,10.92a245.44,245.44,0,0,1,44.33,71.12h0c.66,1.6,1.3,3.22,1.91,4.84A244,244,0,0,1,504.64,260.38Z"/><path class="cls-2" d="M481.45,364.54c-38.22,81.22-119.73,138-214.79,140.68-.83,0-1.65,0-2.48.06-1.49,0-3,0-4.47,0s-2.86,0-4.29,0c-.91,0-1.82,0-2.72-.07l-2.1-.07-.68,0a243.5,243.5,0,0,1-115.78-34.4q-8.1-4.82-15.76-10.26l-.83-.59c-.87-.61-1.74-1.25-2.6-1.87A246,246,0,0,1,29.6,344.51c14.49-2.44,31.74-3.49,51.49-7.84a206.58,206.58,0,0,0,73.25-31.45c2.71,4.94,16.82,28.93,58.49,40.87a184.56,184.56,0,0,0,62.93,5.59c49.3-4.6,91.33-32.58,107.17-70.27,6.37,13.49,18.69,33.5,44.23,53.21C445.58,348.84,464.28,357.82,481.45,364.54Z"/><path class="cls-2" d="M29.49,249.37c32-1.15,75.9-.77,107.86-1.93-1.23-8.86-4.13-12-6.76-13.2-8.33-3.68-17.52,11.44-31.43,8.8-5.6-1.06-5.33-3.74-14.62-6.13-4-1-10.24-2.56-17.13-.78a29,29,0,0,0-11.48,6.28c-6.08,4.78-18,8.19-43.38,2.05C22.19,246.61,19.84,247.22,29.49,249.37Z"/><path class="cls-2" d="M132.43,126.29c32-1.16,75.91-.78,107.87-1.93-1.23-8.86-4.13-12-6.76-13.2-8.33-3.68-17.52,11.44-31.43,8.8-5.6-1.06-5.33-3.74-14.62-6.13-4-1-10.24-2.56-17.13-.79a29,29,0,0,0-11.48,6.29c-6.08,4.78-17.95,8.19-43.38,2C125.14,123.52,122.79,124.14,132.43,126.29Z"/><path class="cls-2" d="M461.58,173.89c-37.48-1.35-89-.9-126.5-2.25,1.45-10.39,4.85-14.13,7.93-15.49,9.77-4.31,20.55,13.42,36.86,10.32,6.57-1.24,6.25-4.38,17.15-7.19,4.64-1.19,12-3,20.09-.92a34.08,34.08,0,0,1,13.46,7.38c7.13,5.6,21.05,9.6,50.88,2.39C470.14,170.65,472.89,171.37,461.58,173.89Z"/><path class="cls-3" d="M219.5,304.24a3.47,3.47,0,0,0-1.8-1.85L71.38,236.79l190.5-78.44L332,189.78l28.24,68L280.63,451.44Z"/><path class="cls-4" d="M261.82,162.15,329.3,192.4l27.15,65.39L280.61,442.27,222.73,302.9a7,7,0,0,0-3.6-3.71L80.24,236.93l181.58-74.78m.12-7.61L62.52,236.65l153.75,68.93,64.37,155L364,257.78l-29.33-70.63-72.75-32.61Z"/><polygon class="cls-5" points="364.56 258.32 335.23 187.69 262.47 155.08 436.45 83.44 364.56 258.32"/><polygon class="cls-6" points="62.51 236.65 435.91 82.9 280.65 460.61 216.27 305.58 62.51 236.65"/><line class="cls-7" x1="137.4" y1="311.89" x2="81.24" y2="368.05"/><line class="cls-7" x1="426.94" y1="89.66" x2="219.94" y2="306.45"/><line class="cls-7" x1="188.94" y1="403.05" x2="132.78" y2="459.21"/><line class="cls-7" x1="169.87" y1="347.61" x2="113.71" y2="403.77"/><line class="cls-7" x1="88.11" y1="429.37" x2="67.45" y2="450.03"/><path class="cls-8" d="M418.63,354.32a74.44,74.44,0,1,0,74.44,74.44A74.44,74.44,0,0,0,418.63,354.32Z"/><circle class="cls-9" cx="409.52" cy="418.38" r="74.44"/><path class="cls-10" d="M409.52,343.94A74.45,74.45,0,1,0,484,418.38,74.44,74.44,0,0,0,409.52,343.94Zm0,129.29a54.85,54.85,0,1,1,54.85-54.85A54.85,54.85,0,0,1,409.52,473.23Z"/><rect class="cls-11" x="403.9" y="376.27" width="9.78" height="44.02" rx="4.89"/><rect class="cls-11" x="392.63" y="412.34" width="9.62" height="37.48" rx="4.81" transform="translate(373.66 1016.93) rotate(-135)"/><circle class="cls-8" cx="410.14" cy="420.73" r="9.63"/><circle class="cls-12" cx="409" cy="419.13" r="9.63"/></g></svg>