<svg xmlns="http://www.w3.org/2000/svg" viewBox="0 0 529.09 532.61"><defs><style>.cls-1{fill:#ebf6ff;}.cls-2{fill:#c9e7ff;}.cls-3,.cls-5{fill:#2f2e41;}.cls-4{fill:#f4d5b8;}.cls-5{opacity:0.16;}.cls-5,.cls-8{isolation:isolate;}.cls-11,.cls-6,.cls-7{fill:none;stroke-linecap:round;}.cls-6,.cls-7{stroke:#2f2e41;stroke-miterlimit:10;}.cls-6{stroke-width:3.8px;}.cls-7{stroke-width:3.16px;}.cls-8{fill:#f08977;opacity:0.36;}.cls-9{fill:#8fc8f9;}.cls-10{fill:#cbdfe3;}.cls-11{stroke:#dd483d;stroke-linejoin:round;stroke-width:4.15px;}.cls-12{fill:#0280ee;}.cls-13{fill:#fff;}.cls-14{fill:#f05d65;}.cls-15{fill:#465b65;}.cls-16{fill:#fdd80e;}</style></defs><g id="Layer_1" data-name="Layer 1"><path class="cls-1" d="M504.64,260.38c0,7.72-.35,15.37-1.06,22.9a243,243,0,0,1-11.89,55.9,244.77,244.77,0,0,1-225,166c-.82,0-1.64,0-2.47.06-1.49,0-3,0-4.47,0s-2.86,0-4.29,0c-.91,0-1.82,0-2.72-.07l-2.1-.07-.68,0a243.49,243.49,0,0,1-112.19-32.29c-1.2-.7-2.4-1.4-3.59-2.11-4-2.35-7.84-4.83-11.64-7.4-1.38-.94-2.76-1.89-4.12-2.86-.26-.2-.55-.39-.83-.59L115,458A245.62,245.62,0,0,1,29.6,344.51a241.21,241.21,0,0,1-9.26-32,244.66,244.66,0,0,1-4.61-30.26q-1-10.81-1-21.89,0-5.91.29-11.74c0-1.19.12-2.36.19-3.54v0c.07-1.06.14-2.11.22-3.16.1-1.34.2-2.68.33-4q1.08-12,3.31-23.65C40.68,101.05,140.2,15.46,259.71,15.46A243.89,243.89,0,0,1,414.9,70.89q8.94,7.32,17.14,15.47,5.38,5.3,10.4,10.92a245.09,245.09,0,0,1,44.33,71.12h0c.66,1.6,1.29,3.21,1.91,4.84A244,244,0,0,1,504.64,260.38Z"/><path class="cls-2" d="M481.45,364.54A246.06,246.06,0,0,1,381.39,473a243.65,243.65,0,0,1-114.74,32.22c-.82,0-1.64,0-2.47.06-1.49,0-3,0-4.47,0s-2.86,0-4.29,0c-.91,0-1.82,0-2.72-.07l-2.1-.07-.68,0a243.49,243.49,0,0,1-112.19-32.29c-1.2-.7-2.4-1.4-3.59-2.11-4-2.35-7.84-4.83-11.64-7.4-1.38-.94-2.76-1.89-4.12-2.86-.26-.2-.55-.39-.83-.59L115,458A245.62,245.62,0,0,1,29.6,344.51c14.49-2.44,31.74-3.49,51.49-7.84a206.58,206.58,0,0,0,73.25-31.45c2.71,4.94,16.82,28.93,58.49,40.87a184.52,184.52,0,0,0,62.93,5.59c49.3-4.6,91.33-32.59,107.17-70.28,6.37,13.5,18.68,33.51,44.23,53.21C445.58,348.84,464.28,357.82,481.45,364.54Z"/><path class="cls-2" d="M29.49,249.37c32-1.15,75.9-.77,107.86-1.93-1.23-8.86-4.13-12-6.76-13.2-8.33-3.68-17.52,11.44-31.43,8.8-5.6-1.06-5.33-3.74-14.62-6.13-4-1-10.24-2.56-17.13-.78a29,29,0,0,0-11.48,6.28c-6.08,4.78-18,8.19-43.38,2.05C22.19,246.61,19.84,247.22,29.49,249.37Z"/><path class="cls-2" d="M132.43,126.29c32-1.16,75.91-.78,107.87-1.93-1.23-8.86-4.13-12-6.76-13.2-8.33-3.68-17.52,11.44-31.43,8.8-5.6-1.06-5.33-3.74-14.62-6.13-4-1-10.24-2.56-17.13-.79a29,29,0,0,0-11.48,6.29c-6.08,4.78-17.95,8.19-43.38,2C125.14,123.52,122.79,124.14,132.43,126.29Z"/><path class="cls-2" d="M461.58,173.89c-37.48-1.35-89-.9-126.5-2.25,1.45-10.39,4.85-14.13,7.93-15.49,9.77-4.31,20.55,13.42,36.86,10.32,6.57-1.24,6.25-4.38,17.15-7.19,4.64-1.19,12-3,20.09-.92a34.08,34.08,0,0,1,13.46,7.38c7.13,5.6,21.05,9.6,50.88,2.39C470.14,170.65,472.89,171.37,461.58,173.89Z"/><path class="cls-3" d="M148.31,268.77c-5.9,13.87,7.11,32.61-4,58.62a70.34,70.34,0,0,1-18.39,24.81c-8.84,7.8-6.42,22.2,4.68,26.19a374,374,0,0,0,112.4,21,370.25,370.25,0,0,0,119.85-15.79A35.39,35.39,0,0,0,384.37,334a135.38,135.38,0,0,1-8-20.12A143.51,143.51,0,0,1,370,269.11C209.19,238.24,157.15,247.78,148.31,268.77Z"/><circle class="cls-3" cx="254.63" cy="255.24" r="116.21"/><circle class="cls-4" cx="254.63" cy="264.78" r="91.93"/><path class="cls-5" d="M265.8,376.94a287.66,287.66,0,0,0-42.23,5.33c-.29,0-.43.14-.72.14v-.14A295.4,295.4,0,0,1,265.8,376.94Z"/><path class="cls-3" d="M359.91,249.69c-7.45-.35-53.59-2.6-85-41.11-17,15.09-41.28,30-65.39,38.85a180.69,180.69,0,0,1-64,10.76c.69-11.1,4.51-49.61,34.69-76,20.64-18,48.05-25.67,71.46-26.54a91.82,91.82,0,0,1-1-9.89,119.83,119.83,0,0,1,54.29,17.87C349.16,191.58,358.53,240.5,359.91,249.69Z"/><path class="cls-5" d="M261.22,356.53c-2.25.18-4.51.35-6.76.35a93.54,93.54,0,0,1-93.67-92.8v-4.16c0-1,.18-2.25.18-3.29,4.33-.35,8.84-.87,13.7-1.56a177.09,177.09,0,0,0,33.82-8.68,218.47,218.47,0,0,0,66.61-39.72,77.5,77.5,0,0,0,6.07,6.94,217.37,217.37,0,0,1-66.26,39.2,173.88,173.88,0,0,1-40.76,9.71v.7A94,94,0,0,0,261.22,356.53Z"/><path class="cls-6" d="M199.3,263.22C204,257,211.44,254,218,255.59a17.77,17.77,0,0,1,9.37,6.59"/><path class="cls-6" d="M277.7,263.22c4.68-6.25,12.14-9.2,18.73-7.63a17.81,17.81,0,0,1,9.37,6.59"/><path class="cls-7" d="M238.33,303.52c4.68-6.24,12.14-9.19,18.73-7.63a17.83,17.83,0,0,1,9.36,6.59"/><circle class="cls-8" cx="207.45" cy="292.53" r="10.93"/><circle class="cls-8" cx="294.87" cy="288.54" r="10.93"/><path class="cls-5" d="M265.8,376.94a287.66,287.66,0,0,0-42.23,5.33c-.29,0-.43.14-.72.14v-.14A295.4,295.4,0,0,1,265.8,376.94Z"/><path class="cls-9" d="M211.35,114.79c-4.23,2.38-15.55,9.5-21.39,23.64-7.25,17.57-2.62,37.75,8.44,50.09,20,22.33,60.73,18.58,77.11,1.69,10.29-10.62,10-25.39,21.39-28.14,7.63-1.84,10.65,4.06,22.51,3.94,9.12-.1,23.6-3.75,26.45-12.95,1.44-4.66-.15-10.58-4.34-16.09a25.81,25.81,0,0,0-25.4-9.36,47.57,47.57,0,0,1-12.47.69c-21.06-1.67-29-17-47.28-22C246.62,103.7,232.06,103.5,211.35,114.79Z"/><path class="cls-5" d="M345.86,153.06c-2.84,9.21-17.33,12.85-26.44,12.95-11.87.12-14.89-5.78-22.52-3.95-11.42,2.76-11.09,17.53-21.38,28.15-16.38,16.89-57.1,20.63-77.11-1.69a45.3,45.3,0,0,1-7-10.62c.81,1.09,1.65,2.12,2.54,3.11,20,22.34,60.73,18.6,77.09,1.7,10.31-10.63,10-25.39,21.39-28.14,7.64-1.85,10.66,4.05,22.51,3.93,9.12-.08,23.62-3.74,26.46-12.94a14.72,14.72,0,0,0-.69-9.63c.3.34.58.68.86,1C345.71,142.48,347.3,148.4,345.86,153.06Z"/><ellipse class="cls-10" cx="233.03" cy="145.79" rx="16.75" ry="13.99"/><path class="cls-5" d="M251.26,147.38c0,7.73-7.49,14-16.74,14A17.88,17.88,0,0,1,221,155.61a18.39,18.39,0,0,0,12.07,4.3c9.25,0,16.74-6.26,16.74-14a12.43,12.43,0,0,0-3.16-8.18A12.79,12.79,0,0,1,251.26,147.38Z"/><polyline class="cls-11" points="386.28 175.03 398.01 144.98 401.09 168.24 414.21 133.94"/><polyline class="cls-11" points="400.25 229.2 411.97 199.15 415.06 222.41 428.18 188.11"/><polyline class="cls-11" points="124.77 180.87 113.05 150.82 109.96 174.08 96.84 139.78"/><polyline class="cls-11" points="110.8 235.04 99.08 204.99 96 228.25 82.87 193.96"/><path class="cls-12" d="M381.39,473a243.65,243.65,0,0,1-114.74,32.22c-.82,0-1.64,0-2.47.06-1.49,0-3,0-4.47,0s-2.86,0-4.29,0c-.91,0-1.82,0-2.72-.07l-2.1-.07-.68,0a243.49,243.49,0,0,1-112.19-32.29,127.76,127.76,0,0,1,74.81-82.76Q215.26,389,218,388c.61-.22,1.23-.42,1.85-.63a126,126,0,0,1,81.38.69l1.68.6A127.59,127.59,0,0,1,381.39,473Z"/><path class="cls-13" d="M303.05,387.45a20.48,20.48,0,0,1-2.79,9.22L276.77,436.3c-8.07,13.69-28.39,13.69-36.46,0l-11.67-19.74L217,396.82a20.44,20.44,0,0,1-2.63-7.38,126.09,126.09,0,0,1,88.72-2Z"/><path class="cls-5" d="M363.42,432a247.94,247.94,0,0,1-37.73-2.41l-.55-.08a209.63,209.63,0,0,1-32.72-7.5l-9.7-3a211.71,211.71,0,0,1-60.39-33c-.82-.66-1.64-1.34-2.45-2a125.84,125.84,0,0,1,81.38.69A127.88,127.88,0,0,1,363.42,432Z"/><path class="cls-5" d="M356.93,458.47H313a1.75,1.75,0,0,1-1.73-1.73v-8.93a1.76,1.76,0,0,1,1.73-1.73h44a1.75,1.75,0,0,1,1.73,1.73v8.93A1.66,1.66,0,0,1,356.93,458.47Z"/></g><g id="Layer_3" data-name="Layer 3"><path class="cls-5" d="M418.63,354.32a74.44,74.44,0,1,0,74.44,74.44A74.44,74.44,0,0,0,418.63,354.32Z"/><circle class="cls-13" cx="409.52" cy="418.38" r="74.44"/><path class="cls-14" d="M409.52,343.94A74.45,74.45,0,1,0,484,418.38,74.44,74.44,0,0,0,409.52,343.94Zm0,129.29a54.85,54.85,0,1,1,54.85-54.85A54.85,54.85,0,0,1,409.52,473.23Z"/><rect class="cls-15" x="403.9" y="376.27" width="9.78" height="44.02" rx="4.89"/><rect class="cls-15" x="392.63" y="412.34" width="9.62" height="37.48" rx="4.81" transform="translate(373.66 1016.93) rotate(-135)"/><circle class="cls-5" cx="410.14" cy="420.73" r="9.63"/><circle class="cls-16" cx="409" cy="419.13" r="9.63"/></g></svg>