<svg xmlns="http://www.w3.org/2000/svg" viewBox="0 0 526.96 529.06"><defs><style>.cls-1{fill:#ebf6ff;}.cls-2{fill:#c9e7ff;}.cls-3{stroke:#000;stroke-miterlimit:10;opacity:0.16;}.cls-3,.cls-7{isolation:isolate;}.cls-4{fill:#0280ee;}.cls-5{fill:#003c70;}.cls-6{fill:#fff;}.cls-7{fill:#2f2e41;opacity:0.16;}.cls-8{fill:#f05d65;}.cls-9{fill:#465b65;}.cls-10{fill:#fdd80e;}</style></defs><g id="Layer_1" data-name="Layer 1"><path class="cls-1" d="M504.64,260.38c0,7.72-.35,15.37-1.06,22.9a243,243,0,0,1-22.13,81.26c-38.22,81.22-119.73,138-214.79,140.68-.83,0-1.65,0-2.48.06-1.49,0-3,0-4.47,0s-2.86,0-4.29,0c-.91,0-1.82,0-2.72-.07l-2.1-.07-.68,0a243.5,243.5,0,0,1-115.78-34.4q-8.1-4.82-15.76-10.26l-.83-.59c-.87-.61-1.74-1.25-2.6-1.87A246,246,0,0,1,29.6,344.51a241.21,241.21,0,0,1-9.26-32,244.66,244.66,0,0,1-4.61-30.26q-1-10.81-1-21.89,0-5.91.29-11.74.15-3.37.41-6.72c.1-1.34.2-2.68.33-4,.72-8,1.84-15.88,3.31-23.64C40.68,101.05,140.2,15.46,259.71,15.46A243.92,243.92,0,0,1,414.9,70.89q8.94,7.33,17.14,15.47,5.38,5.3,10.4,10.92a245.44,245.44,0,0,1,44.33,71.12h0c.66,1.6,1.3,3.22,1.91,4.84A244,244,0,0,1,504.64,260.38Z"/><path class="cls-2" d="M481.45,364.54c-38.22,81.22-119.73,138-214.79,140.68-.83,0-1.65,0-2.48.06-1.49,0-3,0-4.47,0s-2.86,0-4.29,0c-.91,0-1.82,0-2.72-.07l-2.1-.07-.68,0a243.5,243.5,0,0,1-115.78-34.4q-8.1-4.82-15.76-10.26l-.83-.59c-.87-.61-1.74-1.25-2.6-1.87A246,246,0,0,1,29.6,344.51c14.49-2.44,31.74-3.49,51.49-7.84a206.58,206.58,0,0,0,73.25-31.45c2.71,4.94,16.82,28.93,58.49,40.87a184.56,184.56,0,0,0,62.93,5.59c49.3-4.6,91.33-32.58,107.17-70.27,6.37,13.49,18.69,33.5,44.23,53.21C445.58,348.84,464.28,357.82,481.45,364.54Z"/><path class="cls-2" d="M29.49,249.37c32-1.15,75.9-.77,107.86-1.93-1.23-8.86-4.13-12-6.76-13.2-8.33-3.68-17.52,11.44-31.43,8.8-5.6-1.06-5.33-3.74-14.62-6.13-4-1-10.24-2.56-17.13-.78a29,29,0,0,0-11.48,6.28c-6.08,4.78-18,8.19-43.38,2.05C22.19,246.61,19.84,247.22,29.49,249.37Z"/><path class="cls-2" d="M132.43,126.29c32-1.16,75.91-.78,107.87-1.93-1.23-8.86-4.13-12-6.76-13.2-8.33-3.68-17.52,11.44-31.43,8.8-5.6-1.06-5.33-3.74-14.62-6.13-4-1-10.24-2.56-17.13-.79a29,29,0,0,0-11.48,6.29c-6.08,4.78-17.95,8.19-43.38,2C125.14,123.52,122.79,124.14,132.43,126.29Z"/><path class="cls-2" d="M461.58,173.89c-37.48-1.35-89-.9-126.5-2.25,1.45-10.39,4.85-14.13,7.93-15.49,9.77-4.31,20.55,13.42,36.86,10.32,6.57-1.24,6.25-4.38,17.15-7.19,4.64-1.19,12-3,20.09-.92a34.08,34.08,0,0,1,13.46,7.38c7.13,5.6,21.05,9.6,50.88,2.39C470.14,170.65,472.89,171.37,461.58,173.89Z"/><path class="cls-3" d="M385.92,176.49H171.6a23.73,23.73,0,0,0-23.81,23.81V367A23.73,23.73,0,0,0,171.6,390.8H385.92A23.73,23.73,0,0,0,409.73,367V200.3A23.73,23.73,0,0,0,385.92,176.49Z"/><rect class="cls-4" x="141.71" y="169.45" width="254.93" height="207.31" rx="20.31"/><path class="cls-5" d="M376.33,173a16.64,16.64,0,0,1,16.82,16.81V356.45a16.63,16.63,0,0,1-16.82,16.81H162a16.63,16.63,0,0,1-16.81-16.81V189.76A16.64,16.64,0,0,1,162,173H376.33m0-7H162a23.73,23.73,0,0,0-23.81,23.81V356.45A23.73,23.73,0,0,0,162,380.26H376.33a23.74,23.74,0,0,0,23.82-23.81V189.76A23.74,23.74,0,0,0,376.33,166Z"/><polygon class="cls-3" points="240.25 282.1 202.33 282.1 278.18 206.26 354.02 282.1 316.1 282.1 316.1 357.94 240.25 357.94 240.25 282.1"/><path class="cls-6" d="M234.76,340.43V268.09a3.5,3.5,0,0,0-3.5-3.5H201.79l67.39-67.4,67.39,67.4H307.1a3.5,3.5,0,0,0-3.5,3.5v72.34Z"/><path class="cls-5" d="M269.18,202.14l58.94,58.95h-21a7,7,0,0,0-7,7v68.84H238.26V268.09a7,7,0,0,0-7-7h-21l58.94-58.95m0-9.9-75.84,75.85h37.92v75.84H307.1V268.09H345l-75.84-75.85Z"/><path class="cls-7" d="M418.63,354.32a74.44,74.44,0,1,0,74.44,74.44A74.44,74.44,0,0,0,418.63,354.32Z"/><circle class="cls-6" cx="409.52" cy="418.38" r="74.44"/><path class="cls-8" d="M409.52,343.94A74.45,74.45,0,1,0,484,418.38,74.44,74.44,0,0,0,409.52,343.94Zm0,129.29a54.85,54.85,0,1,1,54.85-54.85A54.85,54.85,0,0,1,409.52,473.23Z"/><rect class="cls-9" x="403.9" y="376.27" width="9.78" height="44.02" rx="4.89"/><rect class="cls-9" x="392.63" y="412.34" width="9.62" height="37.48" rx="4.81" transform="translate(373.66 1016.93) rotate(-135)"/><circle class="cls-7" cx="410.14" cy="420.73" r="9.63"/><circle class="cls-10" cx="409" cy="419.13" r="9.63"/></g></svg>