<svg xmlns="http://www.w3.org/2000/svg" viewBox="0 0 517.19 520.77"><defs><style>.cls-1{fill:#ebf6ff;}.cls-2{fill:#c9e7ff;}.cls-3{stroke:#000;stroke-miterlimit:10;opacity:0.04;}.cls-12,.cls-3,.cls-8{isolation:isolate;}.cls-4{fill:#87d0ce;}.cls-5{fill:none;}.cls-6{fill:#0280ee;}.cls-7{fill:#003c70;}.cls-12,.cls-8{opacity:0.16;}.cls-12,.cls-9{fill:#2f2e41;}.cls-10{fill:#fff;}.cls-11,.cls-14{opacity:0.16;}.cls-13{fill:#2bb573;}.cls-14{fill:#231f20;}</style></defs><g id="Layer_1" data-name="Layer 1"><path class="cls-1" d="M504.64,260.38c0,7.72-.36,15.37-1.06,22.9a243.22,243.22,0,0,1-22.14,81.26A245,245,0,0,1,266.65,505.22c-.83,0-1.64,0-2.47.06-1.49,0-3,0-4.48,0s-2.86,0-4.29,0c-.91,0-1.81,0-2.71-.07l-2.1-.07-.68,0a243.47,243.47,0,0,1-106.77-29.27q-4.58-2.46-9-5.13-8.08-4.82-15.75-10.26l-.83-.59c-.88-.62-1.74-1.25-2.6-1.88A245.62,245.62,0,0,1,29.6,344.51a242.76,242.76,0,0,1-9.27-32,246.55,246.55,0,0,1-4.6-30.26q-1-10.81-1-21.89,0-5.91.28-11.74c.06-1.19.12-2.37.19-3.55h0c.07-1.05.14-2.11.22-3.16.11-1.34.21-2.68.33-4q1.1-12,3.32-23.65C40.68,101.05,140.2,15.46,259.7,15.46A243.9,243.9,0,0,1,414.89,70.89c6,4.88,11.7,10,17.15,15.47q5.37,5.3,10.4,10.92a245.44,245.44,0,0,1,44.33,71.12h0q1,2.4,1.9,4.84A244,244,0,0,1,504.64,260.38Z"/><path class="cls-2" d="M481.44,364.54A245,245,0,0,1,266.65,505.22c-.83,0-1.64,0-2.47.06-1.49,0-3,0-4.48,0s-2.86,0-4.29,0c-.91,0-1.81,0-2.71-.07l-2.1-.07-.68,0a243.47,243.47,0,0,1-106.77-29.27q-4.58-2.46-9-5.13-8.08-4.82-15.75-10.26l-.83-.59c-.88-.62-1.74-1.25-2.6-1.88A245.62,245.62,0,0,1,29.6,344.51c14.48-2.44,31.74-3.49,51.48-7.84a207.79,207.79,0,0,0,62.07-24.3q5.55-3.3,11.19-7.15c2.24,4.09,12.31,21.26,39.4,33.82a131.46,131.46,0,0,0,19.09,7c1.09.31,4.87,1.36,10.6,2.52a184.93,184.93,0,0,0,52.33,3.07,150.47,150.47,0,0,0,19.32-3.07A145.41,145.41,0,0,0,323.59,339c27.45-12.52,49-33,59.34-57.64a134.36,134.36,0,0,0,23.1,34,167.26,167.26,0,0,0,21.12,19.25C445.58,348.84,464.28,357.82,481.44,364.54Z"/><path class="cls-2" d="M29.49,249.37c32-1.15,75.9-.77,107.86-1.93-1.23-8.86-4.13-12-6.76-13.2-8.33-3.68-17.52,11.44-31.43,8.8-5.6-1.06-5.33-3.74-14.62-6.13-4-1-10.24-2.56-17.13-.78a29,29,0,0,0-11.48,6.28c-6.08,4.78-18,8.19-43.38,2.05C22.19,246.61,19.84,247.22,29.49,249.37Z"/><path class="cls-2" d="M132.43,126.29c32-1.16,75.91-.78,107.87-1.93-1.23-8.86-4.13-12-6.76-13.2-8.33-3.68-17.52,11.44-31.43,8.8-5.6-1.06-5.33-3.74-14.62-6.13-4-1-10.24-2.56-17.13-.79a29,29,0,0,0-11.48,6.29c-6.08,4.78-17.95,8.19-43.38,2C125.14,123.52,122.79,124.14,132.43,126.29Z"/><path class="cls-2" d="M461.58,173.89c-37.48-1.35-89-.9-126.5-2.25,1.45-10.39,4.85-14.13,7.93-15.49,9.77-4.31,20.55,13.42,36.86,10.32,6.57-1.24,6.25-4.38,17.15-7.19,4.64-1.19,12-3,20.09-.92a34.08,34.08,0,0,1,13.46,7.38c7.13,5.6,21.05,9.6,50.88,2.39C470.14,170.65,472.89,171.37,461.58,173.89Z"/><path class="cls-3" d="M354.55,70.18a14.77,14.77,0,0,0-2.1.1,14.17,14.17,0,0,0-18.3-9.4,18.72,18.72,0,0,0-35.7,7.8,17.4,17.4,0,0,0,.6,4.5,15.79,15.79,0,0,0,2.3,31.4h53.2a17.2,17.2,0,0,0,0-34.4Z"/><path class="cls-4" d="M379.23,192.74a16.57,16.57,0,0,1-1.81-1.81Z"/><polygon class="cls-5" points="384.86 160.51 402.46 213.08 402.31 213.08 384.55 160.51 384.86 160.51"/><path class="cls-5" d="M408.44,231l11.2,33.46c-.14-.2-.28-.39-.41-.59l-11-32.87Z"/><polygon class="cls-5" points="447.52 347.75 433.1 304.76 433.15 304.81 447.52 347.75"/><path class="cls-6" d="M406,260.11V456.82a243.68,243.68,0,0,1-139.38,48.4c-.83,0-1.64,0-2.47.06-1.49,0-3,0-4.48,0s-2.86,0-4.29,0c-.91,0-1.81,0-2.71-.07l-2.1-.07-.68,0a243.47,243.47,0,0,1-106.77-29.27V211.1a25.41,25.41,0,0,1,25.4-25.41H328.37Z"/><path class="cls-7" d="M406.26,260.53H335.89a9.17,9.17,0,0,1-9.16-9.16V184.31l.77.74,77.66,74.42Z"/><g class="cls-8"><rect class="cls-9" x="168.93" y="284.92" width="136.96" height="27.98" rx="13.99"/><rect class="cls-9" x="168.93" y="348.61" width="211.34" height="27.98" rx="13.99"/><rect class="cls-9" x="168.93" y="412.31" width="211.34" height="27.98" rx="13.99"/></g><rect class="cls-10" x="168.93" y="275.35" width="136.96" height="27.98" rx="13.99"/><rect class="cls-10" x="168.93" y="339.04" width="211.34" height="27.98" rx="13.99"/><rect class="cls-10" x="168.93" y="402.74" width="211.34" height="27.98" rx="13.99"/><g class="cls-11"><path class="cls-9" d="M327.42,462.15a215.14,215.14,0,0,1-52.6,8c-.73,0-1.45,0-2.18.05-1.31,0-2.62,0-3.94,0s-2.52,0-3.78,0c-.8,0-1.6,0-2.39-.06l-1.85-.06-.6,0A215.25,215.25,0,0,1,210,462.15Z"/></g><path class="cls-12" d="M416,353.63a74.44,74.44,0,1,0,74.43,74.44A74.45,74.45,0,0,0,416,353.63Z"/><circle class="cls-10" cx="406.92" cy="417.69" r="74.44"/><path class="cls-13" d="M406.93,343.25a74.44,74.44,0,1,0,74.43,74.44A74.44,74.44,0,0,0,406.93,343.25Zm0,129.29a54.85,54.85,0,1,1,54.84-54.85A54.85,54.85,0,0,1,406.93,472.54Z"/><path class="cls-12" d="M443.73,403.4a10.12,10.12,0,0,1-3,7.15L412.2,439.14a10.15,10.15,0,0,1-11.41,2,10,10,0,0,1-2.3-1.45l-1.16-1.16-14.76-14.78a10.12,10.12,0,0,1,14.3-14.31l8.2,8.2,21.4-21.4a10.11,10.11,0,0,1,17.26,7.15Z"/><path class="cls-13" d="M440.42,403.4a10.12,10.12,0,0,1-2.95,7.15l-28.59,28.59a10.15,10.15,0,0,1-11.41,2,9.93,9.93,0,0,1-2.29-1.45L394,438.54l-14.77-14.78a10.12,10.12,0,0,1,14.31-14.31l8.19,8.2,21.4-21.4a10.11,10.11,0,0,1,17.27,7.15Z"/><path class="cls-14" d="M440.39,403.4a10.12,10.12,0,0,1-2.95,7.16l-28.59,28.59a10.14,10.14,0,0,1-11.4,2,9.51,9.51,0,0,1-2.3-1.46L394,438.55l-14.77-14.78a10.08,10.08,0,0,1-2.79-8.91,10,10,0,0,0,2.79,5.39L394,435l1.16,1.16a9.82,9.82,0,0,0,2.3,1.46,10.14,10.14,0,0,0,11.4-2l28.59-28.59a10.1,10.1,0,0,0,2.8-5.4A10.34,10.34,0,0,1,440.39,403.4Z"/></g></svg>