<svg xmlns="http://www.w3.org/2000/svg" viewBox="0 0 521.94 526.31"><defs><style>.cls-1{fill:#ebf6ff;}.cls-2{fill:#c9e7ff;}.cls-3{fill:#0280ee;}</style></defs><g id="Layer_1" data-name="Layer 1"><path class="cls-1" d="M504.64,260.38c0,7.72-.35,15.37-1.06,22.9a243,243,0,0,1-22.13,81.26c-38.22,81.22-119.73,138-214.79,140.68-.83,0-1.65,0-2.48.06-1.49,0-3,0-4.47,0s-2.86,0-4.29,0c-.91,0-1.82,0-2.72-.07l-2.1-.07-.68,0a243.5,243.5,0,0,1-115.78-34.4q-8.1-4.82-15.76-10.26l-.83-.59c-.87-.61-1.74-1.25-2.6-1.87A246,246,0,0,1,29.6,344.51a241.21,241.21,0,0,1-9.26-32,244.66,244.66,0,0,1-4.61-30.26q-1-10.81-1-21.89,0-5.91.29-11.74.15-3.37.41-6.72c.1-1.34.2-2.68.33-4,.72-8,1.84-15.88,3.31-23.64C40.68,101.05,140.2,15.46,259.71,15.46A243.92,243.92,0,0,1,414.9,70.89q8.94,7.33,17.14,15.47,5.38,5.3,10.4,10.92a245.44,245.44,0,0,1,44.33,71.12h0c.66,1.6,1.3,3.22,1.91,4.84A244,244,0,0,1,504.64,260.38Z"/><path class="cls-2" d="M481.45,364.54c-38.22,81.22-119.73,138-214.79,140.68-.83,0-1.65,0-2.48.06-1.49,0-3,0-4.47,0s-2.86,0-4.29,0c-.91,0-1.82,0-2.72-.07l-2.1-.07-.68,0a243.5,243.5,0,0,1-115.78-34.4q-8.1-4.82-15.76-10.26l-.83-.59c-.87-.61-1.74-1.25-2.6-1.87A246,246,0,0,1,29.6,344.51c14.49-2.44,31.74-3.49,51.49-7.84a206.58,206.58,0,0,0,73.25-31.45c2.71,4.94,16.82,28.93,58.49,40.87a184.56,184.56,0,0,0,62.93,5.59c49.3-4.6,91.33-32.58,107.17-70.27,6.37,13.49,18.69,33.5,44.23,53.21C445.58,348.84,464.28,357.82,481.45,364.54Z"/><path class="cls-2" d="M29.49,249.37c32-1.15,75.9-.77,107.86-1.93-1.23-8.86-4.13-12-6.76-13.2-8.33-3.68-17.52,11.44-31.43,8.8-5.6-1.06-5.33-3.74-14.62-6.13-4-1-10.24-2.56-17.13-.78a29,29,0,0,0-11.48,6.28c-6.08,4.78-18,8.19-43.38,2.05C22.19,246.61,19.84,247.22,29.49,249.37Z"/><path class="cls-2" d="M132.43,126.29c32-1.16,75.91-.78,107.87-1.93-1.23-8.86-4.13-12-6.76-13.2-8.33-3.68-17.52,11.44-31.43,8.8-5.6-1.06-5.33-3.74-14.62-6.13-4-1-10.24-2.56-17.13-.79a29,29,0,0,0-11.48,6.29c-6.08,4.78-17.95,8.19-43.38,2C125.14,123.52,122.79,124.14,132.43,126.29Z"/><path class="cls-2" d="M461.58,173.89c-37.48-1.35-89-.9-126.5-2.25,1.45-10.39,4.85-14.13,7.93-15.49,9.77-4.31,20.55,13.42,36.86,10.32,6.57-1.24,6.25-4.38,17.15-7.19,4.64-1.19,12-3,20.09-.92a34.08,34.08,0,0,1,13.46,7.38c7.13,5.6,21.05,9.6,50.88,2.39C470.14,170.65,472.89,171.37,461.58,173.89Z"/><path class="cls-3" d="M128.29,216.69l-11,95.4h-31q-4.26-22-7.51-50-1.49,12-6.92,50H41l-11.1-95.4H54L56.66,250l2.54,32.18q1.36-25,6.85-65.47H91.82q.51,4.19,2.7,31.47l2.74,36.3q2.11-34.65,6.93-67.77Z"/><path class="cls-3" d="M133.18,216.69h41.37v19.09H158v18.09h15.5V272H158v21H176.2v19.09h-43Z"/><path class="cls-3" d="M208.13,216.69V293h15.09v19.09H183.33v-95.4Z"/><path class="cls-3" d="M285.33,258.24H260.52V241.65q0-7.23-.79-9t-3.51-1.8q-3.06,0-3.89,2.18t-.82,9.43v44.32c0,4.63.27,7.66.82,9.07S254.12,298,256,298s3.06-.71,3.63-2.12.85-4.75.85-10v-12h24.81v3.72q0,14.81-2.09,21T274,309.44q-7.17,4.65-17.65,4.66-10.9,0-18-4A19.25,19.25,0,0,1,229,299.22q-2.3-7-2.29-21V250.34a124.52,124.52,0,0,1,.7-15.47,21.71,21.71,0,0,1,4.22-9.93,23.42,23.42,0,0,1,9.72-7.51,35.06,35.06,0,0,1,14.29-2.74q11,0,18.09,4.23t9.37,10.57q2.24,6.33,2.24,19.68Z"/><path class="cls-3" d="M350.92,272.55q0,14.38-.68,20.36a22.81,22.81,0,0,1-13.88,18.54,35.21,35.21,0,0,1-14.14,2.65,35.9,35.9,0,0,1-13.76-2.51,22.93,22.93,0,0,1-14.23-18.41,201.65,201.65,0,0,1-.71-20.63V256.23q0-14.37.68-20.36a22.78,22.78,0,0,1,13.88-18.53,35,35,0,0,1,14.14-2.65,36,36,0,0,1,13.76,2.5,22.92,22.92,0,0,1,14.23,18.42,201.56,201.56,0,0,1,.71,20.62ZM326.11,241.2q0-6.64-.74-8.51a2.93,2.93,0,0,0-3-1.86,3.38,3.38,0,0,0-3,1.51q-1,1.5-1,8.86v44.55c0,5.54.22,9,.68,10.26a3,3,0,0,0,3.15,1.94,3,3,0,0,0,3.24-2.24c.47-1.49.71-5,.71-10.66Z"/><path class="cls-3" d="M436.71,216.69v95.4H415l0-64.4-8.63,64.4H391l-9.11-62.93,0,62.93H360.17v-95.4h32.1q1.43,8.61,2.94,20.28l3.53,24.27,5.7-44.55Z"/><path class="cls-3" d="M446.67,216.69H488v19.09H471.48v18.09H487V272h-15.5v21h18.21v19.09h-43Z"/></g></svg>