<?xml version="1.0" encoding="utf-8"?>
<!-- Generator: Adobe Illustrator 27.0.1, SVG Export Plug-In . SVG Version: 6.00 Build 0)  -->
<svg version="1.1" id="Layer_1" xmlns="http://www.w3.org/2000/svg" xmlns:xlink="http://www.w3.org/1999/xlink" x="0px" y="0px"
	 viewBox="0 0 553.1 766.7" style="enable-background:new 0 0 553.1 766.7;" xml:space="preserve">
<style type="text/css">
	.st0{opacity:0.3;}
	.st1{opacity:0.33;fill:url(#SVGID_1_);enable-background:new    ;}
	.st2{fill:url(#SVGID_00000012466096500623893320000007513390105933320095_);}
	.st3{fill:url(#SVGID_00000127760689246453847780000010396802411170516360_);}
	.st4{opacity:0.33;fill:url(#SVGID_00000032613070538359173720000002352897062379113116_);enable-background:new    ;}
	.st5{opacity:0.33;fill:url(#SVGID_00000039112012389728645040000011415384338734900136_);enable-background:new    ;}
	.st6{opacity:0.33;fill:url(#SVGID_00000141442883574753029210000000623640936455673476_);enable-background:new    ;}
	.st7{opacity:0.11;fill:url(#SVGID_00000065071976155753464720000008447187125945838760_);enable-background:new    ;}
	.st8{opacity:0.56;fill:url(#SVGID_00000043427836541142830840000005280111288196675471_);enable-background:new    ;}
	.st9{fill:#F7F7F7;}
	.st10{fill-rule:evenodd;clip-rule:evenodd;fill:url(#SVGID_00000165224487644090170000000009714623910754076831_);}
	.st11{fill-rule:evenodd;clip-rule:evenodd;fill:url(#SVGID_00000109015386268538236440000008359890039214424466_);}
	.st12{fill-rule:evenodd;clip-rule:evenodd;fill:url(#SVGID_00000128456636224487474710000004246118323302213771_);}
	
		.st13{opacity:0.27;fill-rule:evenodd;clip-rule:evenodd;fill:url(#SVGID_00000036252634477483379350000002072519617031735479_);enable-background:new    ;}
	.st14{fill:none;stroke:#8266E7;stroke-width:1.11;stroke-linecap:round;stroke-miterlimit:10;}
	.st15{fill:#5C35E7;}
	.st16{fill:none;stroke:#8266E7;stroke-width:1.1;stroke-linecap:round;stroke-miterlimit:10;}
	.st17{opacity:0.56;fill:url(#SVGID_00000052104243660705802170000005312093103612105894_);enable-background:new    ;}
	.st18{fill:#231F20;}
	.st19{fill:#FFFFFF;}
	.st20{fill:#BCBECA;}
	.st21{fill:#E5E5E5;}
	.st22{fill:#0280EE;}
	.st23{fill:#F1F1F2;}
	.st24{fill:#F4D5B8;}
	.st25{opacity:7.000000e-02;enable-background:new    ;}
	.st26{fill:#E4BA97;}
	.st27{fill:#2F2E41;}
	.st28{opacity:0.14;}
	.st29{fill:#F1F2F2;}
	.st30{fill:#58595B;}
	.st31{opacity:0.16;fill:#685C50;enable-background:new    ;}
	.st32{fill:none;stroke:#000000;stroke-width:4.000000e-02;stroke-miterlimit:10;}
	.st33{opacity:0.16;fill:#2F2E41;enable-background:new    ;}
	.st34{opacity:0.4;enable-background:new    ;}
	.st35{fill:#0278DE;}
	.st36{opacity:0.42;fill:#FFFFFF;enable-background:new    ;}
	.st37{opacity:6.000000e-02;enable-background:new    ;}
	.st38{fill:#A0CDFA;}
	.st39{fill:#A0F4FA;}
	.st40{fill:#B5FAA0;}
	.st41{fill:none;}
	.st42{fill:#AAB2BA;}
	.st43{opacity:0.44;fill:#AAB2BA;enable-background:new    ;}
	.st44{opacity:6.000000e-02;fill:none;stroke:#000000;stroke-width:0.32;stroke-miterlimit:10;enable-background:new    ;}
	.st45{opacity:0.12;fill:#013B6E;enable-background:new    ;}
	.st46{fill:#013B6E;}
	.st47{font-family:'Roboto-Bold';}
	.st48{font-size:16.34px;}
	.st49{fill:#30B57F;}
	.st50{font-size:6.48px;}
</style>
<g id="Bg-light">
	<g>
		<g class="st0">
			<g>
				
					<radialGradient id="SVGID_1_" cx="443.36" cy="706.62" r="74.48" fx="434.53" fy="689.9" gradientTransform="matrix(1 0 0 -1 0 768)" gradientUnits="userSpaceOnUse">
					<stop  offset="5.000000e-02" style="stop-color:#FFF52E"/>
					<stop  offset="0.19" style="stop-color:#FFF530;stop-opacity:0.99"/>
					<stop  offset="0.31" style="stop-color:#FFF539;stop-opacity:0.95"/>
					<stop  offset="0.43" style="stop-color:#FFF648;stop-opacity:0.88"/>
					<stop  offset="0.54" style="stop-color:#FFF75C;stop-opacity:0.78"/>
					<stop  offset="0.65" style="stop-color:#FFF877;stop-opacity:0.65"/>
					<stop  offset="0.75" style="stop-color:#FFFA97;stop-opacity:0.49"/>
					<stop  offset="0.86" style="stop-color:#FFFBBE;stop-opacity:0.31"/>
					<stop  offset="0.96" style="stop-color:#FFFDE9;stop-opacity:0.1"/>
					<stop  offset="1" style="stop-color:#FFFFFF;stop-opacity:0"/>
				</radialGradient>
				<circle class="st1" cx="443.4" cy="61.4" r="74.5"/>
				
					<radialGradient id="SVGID_00000017477966372885664580000005666122684086502017_" cx="443.12" cy="703.9" r="33.42" fx="443.12" fy="696.4" gradientTransform="matrix(1 0 0 -1 0 768)" gradientUnits="userSpaceOnUse">
					<stop  offset="5.000000e-02" style="stop-color:#FFF52E"/>
					<stop  offset="0.19" style="stop-color:#FFF530;stop-opacity:0.99"/>
					<stop  offset="0.31" style="stop-color:#FFF539;stop-opacity:0.95"/>
					<stop  offset="0.43" style="stop-color:#FFF648;stop-opacity:0.88"/>
					<stop  offset="0.54" style="stop-color:#FFF75C;stop-opacity:0.78"/>
					<stop  offset="0.65" style="stop-color:#FFF877;stop-opacity:0.65"/>
					<stop  offset="0.75" style="stop-color:#FFFA97;stop-opacity:0.49"/>
					<stop  offset="0.86" style="stop-color:#FFFBBE;stop-opacity:0.31"/>
					<stop  offset="0.96" style="stop-color:#FFFDE9;stop-opacity:0.1"/>
					<stop  offset="1" style="stop-color:#FFFFFF;stop-opacity:0"/>
				</radialGradient>
				<circle style="fill:url(#SVGID_00000017477966372885664580000005666122684086502017_);" cx="443.1" cy="64.1" r="33.4"/>
				
					<radialGradient id="SVGID_00000118365211069844293920000013951220629059492780_" cx="443.12" cy="703.9" r="17.62" fx="429.33" fy="692.94" gradientTransform="matrix(1 0 0 -1 0 768)" gradientUnits="userSpaceOnUse">
					<stop  offset="0" style="stop-color:#FFFFFF"/>
					<stop  offset="0.4" style="stop-color:#FFFFFF;stop-opacity:0.99"/>
					<stop  offset="0.54" style="stop-color:#FFFFFF;stop-opacity:0.97"/>
					<stop  offset="0.65" style="stop-color:#FFFFFF;stop-opacity:0.92"/>
					<stop  offset="0.73" style="stop-color:#FFFFFF;stop-opacity:0.85"/>
					<stop  offset="0.8" style="stop-color:#FFFFFF;stop-opacity:0.77"/>
					<stop  offset="0.86" style="stop-color:#FFFFFF;stop-opacity:0.66"/>
					<stop  offset="0.92" style="stop-color:#FFFFFF;stop-opacity:0.53"/>
					<stop  offset="0.97" style="stop-color:#FFFFFF;stop-opacity:0.39"/>
					<stop  offset="1" style="stop-color:#FFFFFF;stop-opacity:0.3"/>
				</radialGradient>
				<circle style="fill:url(#SVGID_00000118365211069844293920000013951220629059492780_);" cx="443.1" cy="64.1" r="17.6"/>
			</g>
		</g>
		
			<linearGradient id="SVGID_00000016760254954007720060000008946994488031729826_" gradientUnits="userSpaceOnUse" x1="-775.1173" y1="640.961" x2="-583.7073" y2="640.961" gradientTransform="matrix(-0.74 0 0 -0.86 -137.25 636.96)">
			<stop  offset="0" style="stop-color:#FFFFFF;stop-opacity:0"/>
			<stop  offset="1" style="stop-color:#C9C9C9"/>
		</linearGradient>
		<path style="opacity:0.33;fill:url(#SVGID_00000016760254954007720060000008946994488031729826_);enable-background:new    ;" d="
			M309.5,119.2H428c7.5-5.4,10.4-16.2,7.2-24.1c-3.7-9.5-15.7-13.9-24.9-6.9c0.6-3.8,1.2-10.9-1.8-17.9c-6.3-15-26.1-23.7-39.2-13.8
			c-11.2,8.5-11.3,25.9-11.3,27.5c-1.8-3.7-4.9-8.9-10.1-12.4c-18.4-12.5-51.3,3-52.8,22C294.4,103.9,302.7,113.3,309.5,119.2z"/>
		
			<linearGradient id="SVGID_00000029762233759039629460000012359553210663142807_" gradientUnits="userSpaceOnUse" x1="-932.0741" y1="620.4726" x2="-740.6741" y2="620.4726" gradientTransform="matrix(-0.74 0 0 -0.86 -137.25 636.96)">
			<stop  offset="0" style="stop-color:#FFFFFF;stop-opacity:0"/>
			<stop  offset="1" style="stop-color:#C9C9C9"/>
		</linearGradient>
		<path style="opacity:0.33;fill:url(#SVGID_00000029762233759039629460000012359553210663142807_);enable-background:new    ;" d="
			M425.4,136.8H544c7.5-5.4,10.4-16.2,7.2-24.1c-3.7-9.5-15.7-13.9-24.9-6.9c0.6-3.8,1.2-10.9-1.8-17.9c-6.3-15-26.1-23.7-39.2-13.8
			c-11.2,8.5-11.3,25.9-11.3,27.5c-1.8-3.7-4.9-8.9-10.1-12.4c-18.4-12.4-51.3,3-52.8,22C410.3,121.5,418.6,130.9,425.4,136.8
			L425.4,136.8z"/>
		
			<linearGradient id="SVGID_00000128457050039684782550000008781745536054476964_" gradientUnits="userSpaceOnUse" x1="4058.7571" y1="666.1121" x2="4250.1572" y2="666.1121" gradientTransform="matrix(0.63 0 0 -0.86 -2075.3501 636.96)">
			<stop  offset="0" style="stop-color:#FFFFFF;stop-opacity:0"/>
			<stop  offset="1" style="stop-color:#C9C9C9"/>
		</linearGradient>
		<path style="opacity:0.33;fill:url(#SVGID_00000128457050039684782550000008781745536054476964_);enable-background:new    ;" d="
			M596.9,97.5H495.5c-6.4-5.4-8.9-16.2-6.2-24.1c3.2-9.5,13.4-14,21.3-6.9c-0.5-3.8-1-10.9,1.5-17.9c5.4-15,22.3-23.7,33.5-13.8
			c9.6,8.5,9.7,25.9,9.6,27.5c1.5-3.7,4.2-8.9,8.6-12.4c15.7-12.5,43.9,3,45.2,22C609.9,82.3,602.7,91.6,596.9,97.5L596.9,97.5z"/>
	</g>
	
		<linearGradient id="SVGID_00000000199243592762776030000011959613525629543048_" gradientUnits="userSpaceOnUse" x1="274.6291" y1="106.19" x2="279.399" y2="603.26" gradientTransform="matrix(1 0 0 -1 0 768)">
		<stop  offset="0" style="stop-color:#FFFFFF;stop-opacity:0"/>
		<stop  offset="0.23" style="stop-color:#FDFDFD;stop-opacity:2.000000e-02"/>
		<stop  offset="0.4" style="stop-color:#F8F8F8;stop-opacity:7.000000e-02"/>
		<stop  offset="0.55" style="stop-color:#F0F0F0;stop-opacity:0.15"/>
		<stop  offset="0.69" style="stop-color:#E5E5E5;stop-opacity:0.27"/>
		<stop  offset="0.82" style="stop-color:#D6D6D6;stop-opacity:0.42"/>
		<stop  offset="0.95" style="stop-color:#C5C5C5;stop-opacity:0.61"/>
		<stop  offset="1" style="stop-color:#BDBDBD;stop-opacity:0.7"/>
	</linearGradient>
	
		<ellipse style="opacity:0.11;fill:url(#SVGID_00000000199243592762776030000011959613525629543048_);enable-background:new    ;" cx="277.2" cy="397" rx="267" ry="250.2"/>
	
		<linearGradient id="SVGID_00000093140184134756699220000004116854642152625285_" gradientUnits="userSpaceOnUse" x1="277.0247" y1="-3.38" x2="281.4447" y2="458.77" gradientTransform="matrix(1 0 0 -1 0 768)">
		<stop  offset="0" style="stop-color:#FFFFFF;stop-opacity:0"/>
		<stop  offset="0.34" style="stop-color:#E9E9E9;stop-opacity:0.32"/>
		<stop  offset="1" style="stop-color:#BDBDBD"/>
	</linearGradient>
	<path style="opacity:0.56;fill:url(#SVGID_00000093140184134756699220000004116854642152625285_);enable-background:new    ;" d="
		M41.1,752.3C173.4,460.6,228.5,330.8,231.1,311c0.2-1.8,11.4-13.6,17.3-17.2c12-7.2,25.4,14,33.7,20.1
		c48.3,35.8,192.5,358.9,231.1,446.2"/>
	<polygon class="st9" points="3.8,723.5 175.4,723.5 225.8,747.8 372,747.8 402.3,723.5 554.6,723.5 554.6,766.7 3.8,766.7 	"/>
	
		<linearGradient id="SVGID_00000114053629461685536830000005660066090332461961_" gradientUnits="userSpaceOnUse" x1="-297.1478" y1="-282.6576" x2="-180.2025" y2="-282.6576" gradientTransform="matrix(0.3204 -0.9473 -0.9473 -0.3204 -116.0382 374.581)">
		<stop  offset="0" style="stop-color:#FFFFFF;stop-opacity:0"/>
		<stop  offset="1" style="stop-color:#C9C9C9"/>
	</linearGradient>
	
		<polygon style="fill-rule:evenodd;clip-rule:evenodd;fill:url(#SVGID_00000114053629461685536830000005660066090332461961_);" points="
		22.5,673.4 63,668 81.5,631.7 99.2,668.5 139.5,674.8 109.9,703 116.3,743.3 80.4,723.9 44.1,742.4 51.4,702.3 	"/>
	
		<linearGradient id="SVGID_00000056397349112162013830000007900103553151275426_" gradientUnits="userSpaceOnUse" x1="-277.1012" y1="-410.1163" x2="-64.1639" y2="-410.1163" gradientTransform="matrix(0.3204 -0.9473 -0.9473 -0.3204 -116.0382 374.581)">
		<stop  offset="0" style="stop-color:#FFFFFF;stop-opacity:0"/>
		<stop  offset="1" style="stop-color:#C9C9C9"/>
	</linearGradient>
	
		<polygon style="fill-rule:evenodd;clip-rule:evenodd;fill:url(#SVGID_00000056397349112162013830000007900103553151275426_);" points="
		121.8,635.2 195.5,625.4 229.2,559.1 261.3,626.2 334.8,637.7 280.9,689 292.6,762.4 227.2,727 161,760.8 174.5,687.7 	"/>
	
		<linearGradient id="SVGID_00000158747302421559238340000014373404310656718754_" gradientUnits="userSpaceOnUse" x1="-172.6867" y1="-632.2927" x2="-14.5302" y2="-632.2927" gradientTransform="matrix(0.3204 -0.9473 -0.9473 -0.3204 -116.0382 374.581)">
		<stop  offset="0" style="stop-color:#FFFFFF;stop-opacity:0"/>
		<stop  offset="1" style="stop-color:#C9C9C9"/>
	</linearGradient>
	
		<polygon style="fill-rule:evenodd;clip-rule:evenodd;fill:url(#SVGID_00000158747302421559238340000014373404310656718754_);" points="
		381.7,641.8 436.4,634.5 461.4,585.3 485.3,635.1 539.8,643.7 499.8,681.7 508.5,736.3 459.9,710 410.8,735.1 420.8,680.8 	"/>
	
		<linearGradient id="SVGID_00000013904204679265288980000013571113003903595424_" gradientUnits="userSpaceOnUse" x1="70.758" y1="-519.3237" x2="322.3639" y2="-519.3237" gradientTransform="matrix(0.3204 -0.9473 -0.9473 -0.3204 -116.0382 374.581)">
		<stop  offset="0" style="stop-color:#FFFFFF;stop-opacity:0"/>
		<stop  offset="1" style="stop-color:#C9C9C9"/>
	</linearGradient>
	
		<polygon style="opacity:0.27;fill-rule:evenodd;clip-rule:evenodd;fill:url(#SVGID_00000013904204679265288980000013571113003903595424_);enable-background:new    ;" points="
		325.5,316.5 412.6,304.9 452.4,226.6 490.4,305.8 577.1,319.5 513.5,380 527.3,466.8 450.1,425 371.8,464.9 387.7,378.5 	"/>
</g>
<g id="Plants">
	<g>
		<path class="st14" d="M144.4,195.8c-11.5-4-36.5-14.4-57.1-39.6C58.9,121.2,58.7,82.2,59,71.4"/>
		<path class="st14" d="M74,136c-6.7-2.2-29.4-10.8-39.1-33.1c-2-4.7-3.1-9.2-3.7-13.3"/>
		<path class="st14" d="M117.5,182.8c1.6-5.9,1-4.4,1.6-11.6c2.5-32.7-11.2-58.6-19.3-71.3"/>
		<circle class="st15" cx="30" cy="84.1" r="6.2"/>
		<circle class="st15" cx="95.5" cy="94.8" r="7.5"/>
		<circle class="st15" cx="95.6" cy="113.7" r="3.3"/>
		<circle class="st15" cx="110.9" cy="108.4" r="2.6"/>
		<circle class="st15" cx="52.6" cy="79.3" r="2.6"/>
		<circle class="st15" cx="64.8" cy="72.1" r="3.9"/>
		<circle class="st15" cx="39" cy="99.4" r="2.6"/>
	</g>
	<g>
		<path class="st16" d="M386.7,526c11.1-4.5,35.3-16.1,54.3-42.1c26.3-35.9,24.5-74.4,23.6-85.1"/>
		<path class="st16" d="M453.1,463.4c6.5-2.6,28.5-12.2,36.9-34.7c1.8-4.7,2.6-9.2,3-13.3"/>
		<path class="st16" d="M412.7,511.8c-1.9-5.7-1.2-4.3-2.1-11.4c-4.2-32.1,8.1-58.4,15.4-71.3"/>
		<circle class="st15" cx="493.9" cy="409.9" r="6.1"/>
		<circle class="st15" cx="429.9" cy="423.8" r="7.5"/>
		<circle class="st15" cx="430.7" cy="442.5" r="3.3"/>
		<circle class="st15" cx="415.3" cy="438" r="2.5"/>
		<circle class="st15" cx="471.4" cy="406.3" r="2.5"/>
		<circle class="st15" cx="459" cy="399.9" r="3.8"/>
		<circle class="st15" cx="485.9" cy="425.5" r="2.5"/>
	</g>
</g>
<g id="Main">
	
		<linearGradient id="SVGID_00000000192552508573399260000016398532905618878632_" gradientUnits="userSpaceOnUse" x1="281.3012" y1="3.33" x2="282.7412" y2="596.61" gradientTransform="matrix(1 0 0 -1 0 768)">
		<stop  offset="0" style="stop-color:#000000;stop-opacity:0"/>
		<stop  offset="1" style="stop-color:#000000;stop-opacity:0.5"/>
	</linearGradient>
	<path style="opacity:0.56;fill:url(#SVGID_00000000192552508573399260000016398532905618878632_);enable-background:new    ;" d="
		M169.9,134.6h224.5c14.6,0,26.5,11.8,26.5,26.4v520.3c0,14.6-11.8,26.5-26.5,26.5H169.9c-14.6,0-26.4-11.8-26.4-26.5V161
		C143.4,146.4,155.3,134.6,169.9,134.6z"/>
	<path class="st18" d="M373.5,92.8H165.3c-19.1,0-34.6,15.5-34.6,34.6v40.7c0,0.6-0.5,1-1,1H128c-1.2,0-2.2,1-2.2,2.2V193
		c0,1.2,1,2.2,2.2,2.2h1.7c0.6,0,1,0.5,1,1v15.1c0,0.6-0.5,1-1,1l0,0c-2.1,0-3.8,1.7-3.8,3.9v36.3c0,2.1,1.7,3.9,3.8,3.9l0,0
		c0.6,0,1,0.5,1,1v6.5c0,0.6-0.5,1-1,1l0,0c-2.1,0-3.8,1.7-3.8,3.9V305c0,2.1,1.7,3.9,3.8,3.9l0,0c0.6,0,1,0.5,1,1v321.5
		c0,19.1,15.5,34.6,34.6,34.6h208.2c19.1,0,34.6-15.5,34.6-34.6v-504C408.1,108.3,392.6,92.8,373.5,92.8L373.5,92.8z M306,113.4
		c1.7,0,3,1.4,3,3s-1.4,3-3,3s-3-1.4-3-3S304.4,113.4,306,113.4z M252.3,114.7h30.5c1,0,1.8,0.8,1.8,1.8s-0.8,1.8-1.8,1.8h-30.5
		c-1,0-1.8-0.8-1.8-1.8S251.3,114.7,252.3,114.7L252.3,114.7z M394.6,626c0,13.9-11.2,25.1-25.1,25.1H168.6
		c-13.9,0-25.1-11.2-25.1-25.1V132.7c0-13.9,11.2-25.1,25.1-25.1h31.9v14.7c0,5.3,4.3,9.7,9.7,9.7h119c5.4,0,9.7-4.3,9.7-9.7v-14.7
		h30.7c13.9,0,25.1,11.2,25.1,25.1V626z"/>
	<path class="st19" d="M394.6,132.7V626c0,13.9-11.2,25.1-25.1,25.1H168.6c-13.9,0-25.1-11.2-25.1-25.1V132.7
		c0-13.9,11.2-25.1,25.1-25.1h31.9v14.7c0,5.3,4.3,9.7,9.7,9.7h119c5.4,0,9.7-4.3,9.7-9.7v-14.7h30.7
		C383.4,107.6,394.6,118.8,394.6,132.7L394.6,132.7z"/>
	<path class="st19" d="M284.5,116.4c0,1-0.8,1.8-1.8,1.8h-30.5c-1,0-1.8-0.8-1.8-1.8s0.8-1.8,1.8-1.8h30.5
		C283.7,114.7,284.5,115.5,284.5,116.4z"/>
	<path class="st19" d="M309.1,116.4c0,1.7-1.4,3-3,3s-3-1.4-3-3s1.4-3,3-3S309.1,114.8,309.1,116.4z"/>
	<path class="st19" d="M284.5,116.4c0,1-0.8,1.8-1.8,1.8h-30.5c-1,0-1.8-0.8-1.8-1.8s0.8-1.8,1.8-1.8h30.5
		C283.7,114.7,284.5,115.5,284.5,116.4z"/>
	<path class="st19" d="M309.1,116.4c0,1.7-1.4,3-3,3s-3-1.4-3-3s1.4-3,3-3S309.1,114.8,309.1,116.4z"/>
	<path class="st19" d="M284.5,116.4c0,1-0.8,1.8-1.8,1.8h-30.5c-1,0-1.8-0.8-1.8-1.8s0.8-1.8,1.8-1.8h30.5
		C283.7,114.7,284.5,115.5,284.5,116.4z"/>
	<path class="st19" d="M309.1,116.4c0,1.7-1.4,3-3,3s-3-1.4-3-3s1.4-3,3-3S309.1,114.8,309.1,116.4z"/>
	<path class="st20" d="M284.5,116.4c0,1-0.8,1.8-1.8,1.8h-30.5c-1,0-1.8-0.8-1.8-1.8s0.8-1.8,1.8-1.8h30.5
		C283.7,114.7,284.5,115.5,284.5,116.4z"/>
	<path class="st20" d="M309.1,116.4c0,1.7-1.4,3-3,3s-3-1.4-3-3s1.4-3,3-3S309.1,114.8,309.1,116.4z"/>
	<path d="M217.2,640.1h108.7c1.1,0,2.1,0.9,2.1,2.1v1.2c0,1.1-0.9,2.1-2.1,2.1H217.2c-1.1,0-2.1-0.9-2.1-2.1v-1.2
		C215.1,641,216,640.1,217.2,640.1z"/>
	<g>
		<path class="st21" d="M394.6,133.1v493.3c0,13.9-11.2,25.1-25.1,25.1H168.5c-13.9,0-25.1-11.2-25.1-25.1V133.1
			c0-13.9,11.2-25.1,25.1-25.1h31.9v14.7c0,5.3,4.3,9.7,9.7,9.7h119c5.4,0,9.7-4.3,9.7-9.7V108h30.7
			C383.3,108,394.6,119.2,394.6,133.1z"/>
		<path class="st22" d="M394.6,132.6v35.1H143.4v-35.1c0-13.9,11.2-25.1,25.1-25.1h31.9v14.7c0,5.3,4.3,9.7,9.7,9.7h119
			c5.3,0,9.7-4.3,9.7-9.7v-14.7h30.7C383.3,107.4,394.6,118.7,394.6,132.6L394.6,132.6z"/>
		<g>
			<path class="st23" d="M179.8,143.9c0,3.8-1.8,7.2-4.6,9.4c-0.1,0.1-0.2,0.2-0.3,0.2c-0.1,0.1-0.2,0.1-0.2,0.2
				c-0.2,0.1-0.3,0.2-0.5,0.3c-0.4,0.3-0.9,0.5-1.4,0.7c-1.5,0.7-3.2,1.1-5,1.1c0,0-0.1,0-0.1,0c-0.1,0-0.2,0-0.3,0
				c-1.3,0-2.6-0.3-3.7-0.7c-0.4-0.2-0.9-0.3-1.2-0.6c0,0,0,0-0.1,0c-0.3-0.2-0.6-0.3-0.9-0.5c-0.3-0.2-0.6-0.4-0.9-0.6
				c-0.1-0.1-0.2-0.2-0.4-0.3c0,0-0.1-0.1-0.1-0.1c-2.6-2.2-4.2-5.4-4.2-9.1c0-6.6,5.3-11.9,11.9-11.9S179.8,137.4,179.8,143.9
				L179.8,143.9z"/>
			<g>
				<path class="st24" d="M174.9,153.6c-0.1,0.1-0.2,0.1-0.2,0.2c-0.2,0.1-0.3,0.2-0.5,0.3h-12.7c-0.3-0.2-0.6-0.4-0.9-0.6
					c-0.1-0.1-0.2-0.2-0.4-0.3c0-0.1,0.1-0.1,0.1-0.2c0.2-0.2,0.4-0.3,0.6-0.5c0,0,0.1-0.1,0.1-0.1c0,0,0.1,0,0.1-0.1
					c1.1-0.7,2.3-0.9,3.3-1.1c0.1,0,0.2,0,0.2-0.1c0.8-0.2,1.4-0.4,1.9-0.9c0.3-0.3,0.6-0.9,0.5-1.8c0-0.1,0-0.3-0.1-0.5h1.5
					c0,0,0,0,0,0c0,0.1-0.1,0.3-0.1,0.4c0,0.4,0,0.6,0,0.9c0,0,0,0.1,0,0.1c0.1,0.4,0.3,0.6,0.4,0.8c0.3,0.4,0.8,0.6,1.3,0.7
					c0.1,0,0.1,0,0.2,0.1c1.1,0.3,2.4,0.4,3.6,1c0,0,0.1,0,0.1,0.1c0,0,0,0,0,0l0,0c0.1,0.1,0.2,0.2,0.4,0.2
					c0.1,0.1,0.2,0.1,0.2,0.2c0,0,0.1,0.1,0.1,0.1c0,0.1,0,0.1,0,0.2l0.1,0.4L174.9,153.6L174.9,153.6z"/>
				<path class="st25" d="M170.1,151c-0.2,0.1-0.4,0.1-0.6,0.1c-1,0-1.9-0.5-2.6-1.4c0.1-0.4,0.2-0.9,0-1.6h1.5
					c-0.3,1.2,0.1,1.9,0.4,2.2C169.2,150.6,169.6,150.9,170.1,151L170.1,151z"/>
				<polygon class="st26" points="161.6,155.6 161.6,155.6 161.6,155.6 				"/>
				<path class="st26" d="M174,155.8c0,0,0,0.1,0,0.1c0,0,0,0,0,0L174,155.8C173.9,155.7,174,155.8,174,155.8L174,155.8z"/>
				<path class="st27" d="M165.1,144.5c-0.2,0.7-0.5,1.7-0.5,2.8c0,0.6,0,1.2,0,1.8l0,0l0,0c-1.1-1-3.3-5.6-2-9
					c0.6-1.6,2.3-4.4,4.2-4.2c0.3,0,1,0.2,1.7,1.1l0,0c0.1,0.1,0.1,0.2,0.2,0.3c0.1,0,0.3-0.1,0.4-0.1c0,0,0,0,0,0
					c1.9-0.4,2.8,0.2,3,0.4c1.5,1.1,1.4,4.2,0.4,6.2c-0.4,0.8-0.9,1.3-0.8,2.3c0,1,0.6,1.8,1.1,2.4c-0.2,0-1.2,0.1-2.1-0.6
					c-0.2-0.2-0.4-0.4-0.5-0.6c-0.5-0.6-0.5-1.3-0.5-1.4L165.1,144.5L165.1,144.5z"/>
				<ellipse class="st24" cx="167.6" cy="142.9" rx="3.9" ry="5.7"/>
				<g class="st28">
					<g>
						<path d="M167.8,143v0.9c0,0.3,0,0.6,0,0.9v0h0c-0.1,0-0.2,0-0.3,0c-0.1,0-0.2,0-0.3,0l0,0c0.1,0,0.2,0,0.3,0
							c0.1,0,0.2,0,0.3,0v0c0-0.3,0-0.6,0-0.9V143L167.8,143L167.8,143L167.8,143z"/>
						<path d="M167.8,144.8L167.8,144.8c0-0.5,0-1.5,0-1.9h-0.1c0,0.3,0,0.9,0,1.4C167.8,144.5,167.8,144.7,167.8,144.8L167.8,144.8
							L167.8,144.8L167.8,144.8L167.8,144.8l-0.1,0l0,0h-0.2h-0.3h-0.1v0.1c0.1,0,0.2,0,0.4,0l0,0
							C167.6,144.9,167.7,144.9,167.8,144.8L167.8,144.8L167.8,144.8L167.8,144.8L167.8,144.8L167.8,144.8L167.8,144.8L167.8,144.8
							L167.8,144.8L167.8,144.8z M167.8,143L167.8,143L167.8,143C167.8,143,167.8,143,167.8,143c0,0.4,0,0.9,0,1.4
							c0,0.2,0,0.3,0,0.5c-0.1,0-0.3,0-0.3,0h-0.2h-0.1v0.1c0.1,0,0.4,0,0.6,0l0,0l0,0c0,0,0,0,0,0h0v0
							C167.9,144.4,167.9,143.4,167.8,143L167.8,143L167.8,143z"/>
					</g>
				</g>
				<g>
					<path class="st29" d="M165.8,142.9c0-0.2,0.2-0.4,0.4-0.4s0.4,0.2,0.4,0.4s-0.2,0.4-0.4,0.4S165.8,143.1,165.8,142.9z"/>
					<path class="st29" d="M168.7,142.9c0-0.2,0.2-0.4,0.4-0.4s0.4,0.2,0.4,0.4s-0.2,0.4-0.4,0.4
						C168.8,143.3,168.7,143.1,168.7,142.9z"/>
					<path class="st30" d="M165.9,142.9c0-0.1,0.1-0.2,0.2-0.2s0.2,0.1,0.2,0.2s-0.1,0.2-0.2,0.2S165.9,143,165.9,142.9z"/>
					<path class="st30" d="M168.8,142.9c0-0.1,0.1-0.2,0.2-0.2s0.2,0.1,0.2,0.2s-0.1,0.2-0.2,0.2S168.8,143,168.8,142.9z"/>
				</g>
				<path class="st27" d="M171.6,142.9L171.6,142.9c0,0.2,0,0.3,0,0.5c0,0.1,0,0.1,0,0.2c0,0,0,0.1,0,0.1c0,0,0,0.1,0,0.1
					c0,0,0,0-0.1,0c-0.9-0.5-1.8-1.3-2.6-2.3c-0.6-0.8-1.1-1.6-1.4-2.4c0,0,0,0-0.1,0c-0.6,0.7-1.2,1.6-1.8,2.8
					c-0.1,0.1-0.1,0.2-0.2,0.4c-0.5,1-0.8,2-1,2.9v0c-0.1,0.3-0.2,0.6-0.2,1c-0.4-0.9-0.6-1.9-0.6-3.1c0-3,1.5-5.4,3.5-5.8
					c0.1,0,0.3-0.1,0.5-0.1h0.1c0,0,0.1,0,0.1,0c0.1,0,0.1,0,0.2,0h0c0,0,0,0,0,0c0.1,0,0.1,0,0.1,0s0.1,0,0.1,0l0,0l0,0
					c0,0,0,0,0,0h0l0,0c0,0,0.1,0,0.1,0c0.1,0,0.1,0,0.2,0.1l0,0c0.1,0,0.2,0.1,0.3,0.1c0.1,0,0.1,0.1,0.1,0.1
					c0.1,0,0.1,0.1,0.1,0.1c0.1,0,0.1,0.1,0.2,0.1c0.2,0.1,0.4,0.3,0.5,0.5c0.1,0.1,0.1,0.1,0.1,0.2c0,0.1,0.1,0.1,0.1,0.1
					c0,0.1,0.1,0.1,0.1,0.2c0.1,0.2,0.3,0.4,0.4,0.7c0,0.1,0.1,0.1,0.1,0.2c0.4,0.7,0.6,1.5,0.7,2.4c0,0.1,0,0.2,0,0.2
					c0,0.1,0,0.1,0,0.2c0,0.1,0,0.2,0,0.3C171.6,142.7,171.6,142.8,171.6,142.9L171.6,142.9z"/>
				<path class="st31" d="M171.8,143.5L171.8,143.5c0,0.2,0,0.3,0,0.5c0,0.1,0,0.1,0,0.2c0,0,0,0.1,0,0.1c0,0,0,0.1,0,0.1
					c0,0,0,0-0.1,0c-0.9-0.5-1.8-1.3-2.6-2.3c-0.6-0.8-1.1-1.6-1.4-2.4c0,0,0,0-0.1,0c-0.6,0.7-1.2,1.6-1.8,2.8
					c-0.1,0.1-0.1,0.2-0.2,0.4c-0.5,1-0.8,2-1,2.9c0,0,0,0,0,0c-0.1,0.3-0.2,0.6-0.2,1c-0.1-0.3-0.2-0.7-0.3-1
					c0,0.1,0.1,0.2,0.1,0.3c0.1-0.4,0.1-0.7,0.2-1c0,0,0,0,0,0c0.2-0.9,0.5-1.9,1-2.9c0.1-0.1,0.1-0.2,0.2-0.4
					c0.6-1.1,1.2-2,1.8-2.8c0,0,0,0,0.1,0c0.3,0.8,0.8,1.6,1.4,2.4c0.8,1,1.7,1.8,2.6,2.3c0,0,0,0,0.1,0c0,0,0-0.1,0-0.1
					c0,0,0-0.1,0-0.1c0-0.1,0-0.1,0-0.2c0-0.1,0-0.3,0-0.5l0,0c0-0.1,0-0.2,0-0.3s0-0.2,0-0.3c0-0.1,0-0.1,0-0.2c0-0.1,0-0.2,0-0.2
					c0-0.4-0.1-0.7-0.2-1c0.2,0.5,0.3,1.1,0.4,1.7c0,0.1,0,0.2,0,0.2c0,0.1,0,0.1,0,0.2c0,0.1,0,0.2,0,0.3
					C171.8,143.3,171.8,143.4,171.8,143.5L171.8,143.5z"/>
				<path d="M165.7,142.1c0.1-0.1,0.1-0.1,0.2-0.2c0,0,0.1,0,0.1,0c0,0,0.1,0,0.1,0l0.1,0c0,0,0.1,0,0.1,0s0.1,0,0.1,0s0.1,0,0.1,0
					s0.1,0,0.1,0s0.1,0,0.1,0l0,0c0,0,0,0,0,0c0,0,0,0,0.1,0.1c0,0,0.1,0.1,0.1,0.1c0,0,0,0,0,0l0,0c-0.1,0-0.1,0-0.1,0
					c0,0-0.1,0-0.1,0s0,0-0.1,0s0,0-0.1,0s0,0-0.1,0s0,0-0.1,0s0,0-0.1,0s0,0-0.1,0h-0.1c0,0-0.1,0-0.1,0s-0.1,0-0.1,0
					C165.9,142,165.8,142.1,165.7,142.1L165.7,142.1L165.7,142.1C165.7,142.1,165.7,142.1,165.7,142.1L165.7,142.1z"/>
				<path d="M168.6,142.1c0-0.1,0.1-0.1,0.1-0.1c0,0,0,0,0.1-0.1s0.1,0,0.1,0c0,0,0.1,0,0.1,0c0,0,0.1,0,0.1,0h0.2
					c0.1,0,0.2,0,0.3,0.1l0,0c0,0,0,0,0,0l0.1,0c0,0,0.1,0.1,0.1,0.1c0,0,0,0,0,0l0,0l0,0l-0.1,0c0,0,0,0-0.1,0l-0.1,0c0,0,0,0,0,0
					h0l-0.1,0h-0.1c0,0-0.1,0-0.1,0c0,0-0.1,0-0.1,0c0,0,0,0-0.1,0l-0.1,0c0,0,0,0-0.1,0s0,0-0.1,0
					C168.8,142.1,168.7,142.1,168.6,142.1L168.6,142.1L168.6,142.1C168.6,142.1,168.6,142.1,168.6,142.1L168.6,142.1z"/>
				<path class="st19" d="M165.8,142.9c0-0.2,0.2-0.4,0.4-0.4s0.4,0.2,0.4,0.4s-0.2,0.4-0.4,0.4S165.8,143.1,165.8,142.9z"/>
				<path class="st19" d="M168.7,142.9c0-0.2,0.2-0.4,0.4-0.4s0.4,0.2,0.4,0.4s-0.2,0.4-0.4,0.4
					C168.8,143.2,168.7,143.1,168.7,142.9z"/>
				<g>
					<path d="M165.9,142.9c0-0.1,0.1-0.2,0.2-0.2s0.2,0.1,0.2,0.2s-0.1,0.2-0.2,0.2S165.9,143,165.9,142.9z"/>
					<path class="st32" d="M165.9,142.9c0-0.1,0.1-0.2,0.2-0.2s0.2,0.1,0.2,0.2s-0.1,0.2-0.2,0.2S165.9,143,165.9,142.9z"/>
				</g>
				<g>
					<path d="M168.8,142.9c0-0.1,0.1-0.2,0.2-0.2s0.2,0.1,0.2,0.2s-0.1,0.2-0.2,0.2S168.8,143,168.8,142.9z"/>
					<path class="st32" d="M168.8,142.9c0-0.1,0.1-0.2,0.2-0.2s0.2,0.1,0.2,0.2s-0.1,0.2-0.2,0.2S168.8,143,168.8,142.9z"/>
				</g>
				<g>
					<path d="M169.4,142.9c0-0.1,0-0.1-0.1-0.2s-0.1-0.1-0.1-0.1s-0.1-0.1-0.2-0.1s-0.1,0-0.2,0c0.1-0.1,0.1-0.1,0.2-0.1
						s0.1,0,0.2,0.1c0.1,0,0.1,0.1,0.1,0.1S169.4,142.8,169.4,142.9L169.4,142.9z"/>
					<path d="M169.4,142.7C169.4,142.7,169.4,142.7,169.4,142.7c0.1-0.1,0.1-0.1,0.1-0.1c0,0,0,0.1,0,0.1
						C169.4,142.7,169.4,142.7,169.4,142.7L169.4,142.7L169.4,142.7z"/>
					<path d="M169.3,142.6C169.3,142.6,169.4,142.6,169.3,142.6c0.1-0.1,0.1-0.1,0.1-0.2c0,0,0,0.1,0,0.1S169.4,142.7,169.3,142.6
						L169.3,142.6L169.3,142.6z"/>
					<path d="M169.2,142.5c0,0,0.1,0,0.1-0.1c0,0,0.1-0.1,0.1-0.1c0,0.1,0,0.1,0,0.2S169.3,142.6,169.2,142.5L169.2,142.5
						L169.2,142.5z"/>
					<path d="M169.1,142.5c0.1,0,0.1-0.1,0.2-0.1s0.1-0.1,0.1-0.2c0,0.1,0,0.1,0,0.2C169.3,142.5,169.2,142.5,169.1,142.5
						L169.1,142.5L169.1,142.5z"/>
				</g>
				<g>
					<path d="M165.8,142.9c0-0.1,0-0.1,0-0.2s0.1-0.1,0.1-0.1c0.1,0,0.1-0.1,0.2-0.1s0.1,0,0.2,0.1c-0.1,0-0.1,0-0.2,0
						s-0.1,0-0.2,0.1s-0.1,0.1-0.1,0.1C165.8,142.7,165.8,142.8,165.8,142.9L165.8,142.9z"/>
					<path d="M165.8,142.7C165.8,142.7,165.7,142.7,165.8,142.7c-0.1-0.1-0.1-0.2-0.1-0.2c0,0,0,0.1,0,0.1
						C165.8,142.6,165.8,142.7,165.8,142.7L165.8,142.7L165.8,142.7z"/>
					<path d="M165.9,142.7c0,0-0.1-0.1-0.1-0.1c0,0,0-0.1,0-0.1c0,0,0,0.1,0.1,0.1C165.8,142.6,165.8,142.6,165.9,142.7L165.9,142.7
						L165.9,142.7z"/>
					<path d="M165.9,142.6c-0.1,0-0.1-0.1-0.1-0.1s0-0.1,0-0.2c0,0.1,0,0.1,0.1,0.1S165.9,142.5,165.9,142.6L165.9,142.6
						L165.9,142.6z"/>
					<path d="M166,142.5c-0.1,0-0.1-0.1-0.2-0.1c0-0.1-0.1-0.1,0-0.2c0,0.1,0,0.1,0.1,0.2C165.9,142.4,166,142.4,166,142.5
						L166,142.5L166,142.5z"/>
				</g>
				<circle class="st19" cx="169.1" cy="142.8" r="0.1"/>
				<circle class="st19" cx="166.2" cy="142.8" r="0.1"/>
				<path class="st19" d="M169,145.3l0,0.5c0.1,0.7-0.5,1.2-1.2,1.3l0,0c-0.7,0.1-1.4-0.4-1.4-1.1l0-0.5L169,145.3L169,145.3z"/>
				<g>
					<path class="st22" d="M170.6,134.9h-5.8c-0.4,0-0.8,0.4-0.7,0.9l0.5,1.9c0.1,0.3,0.4,0.5,0.7,0.5h4.9c0.3,0,0.6-0.2,0.7-0.5
						l0.5-1.9C171.4,135.3,171.1,134.9,170.6,134.9L170.6,134.9z"/>
					<path class="st33" d="M166.6,138.2h-1.3c-0.3,0-0.6-0.2-0.7-0.5l-0.5-1.9c-0.1-0.3,0-0.5,0.2-0.7
						C164.5,136.4,165.4,137.6,166.6,138.2L166.6,138.2z"/>
					<polygon class="st34" points="168.7,136.3 168.7,136.9 168.1,136.9 168.1,137.5 167.5,137.5 167.5,136.9 166.9,136.9 
						166.9,136.3 167.5,136.3 167.5,135.7 168.1,135.7 168.1,136.3 					"/>
					<polygon class="st19" points="168.7,136.2 168.7,136.8 168,136.8 168,137.5 167.4,137.5 167.4,136.8 166.8,136.8 166.8,136.2 
						167.4,136.2 167.4,135.6 168,135.6 168,136.2 					"/>
				</g>
				<path class="st35" d="M173.9,155.7C173.9,155.7,174,155.8,173.9,155.7c0,0.1,0,0.1,0,0.1c0,0,0,0,0,0L173.9,155.7L173.9,155.7z"
					/>
				<polygon class="st35" points="161.6,155.6 161.6,155.6 161.6,155.6 				"/>
				<path class="st35" d="M175,152.7c0,0.1,0,0.1,0,0.2c0,0,0,0.1,0,0.1c0,0.1-0.1,0.2-0.1,0.3c-0.1,0.1-0.1,0.3-0.2,0.4
					c-0.2,0.1-0.3,0.2-0.5,0.3c-0.4,0.3-0.9,0.5-1.4,0.7c-1.5,0.7-3.2,1.1-5,1.1c0,0-0.1,0-0.1,0c-0.1,0-0.2,0-0.3,0
					c-1.3,0-2.6-0.3-3.7-0.7c-0.4-0.2-0.9-0.3-1.2-0.6c0,0,0,0-0.1,0c-0.3-0.2-0.6-0.3-0.9-0.5c-0.3-0.2-0.6-0.4-0.9-0.6
					c-0.1-0.1-0.1-0.2-0.1-0.3c0,0,0,0,0-0.1c0,0,0-0.1-0.1-0.1c0-0.1-0.1-0.3,0-0.4c0.1-0.2,0.2-0.5,0.5-0.6
					c0.9-0.4,1.8-0.9,2.8-1.3c0.4-0.2,0.9,0,1.1,0.5c0,0,0,0,0,0c0,0,0,0,0,0.1c0.1,0.2,0.1,0.3,0.2,0.5c0.6,1.2,1.6,1.9,2.2,2.2
					c0.2,0.1,0.5,0.1,0.7,0c0.2-0.1,0.4-0.2,0.6-0.3c1-0.7,1.6-1.7,1.8-2.5c0,0,0-0.1,0-0.1c0,0,0,0,0-0.1c0.2-0.3,0.6-0.5,1-0.3
					c1,0.4,2.1,0.8,3.1,1.3c0.1,0.1,0.2,0.1,0.3,0.2C175,152.3,175,152.5,175,152.7L175,152.7z"/>
				<path class="st35" d="M175.2,153.3c-0.1,0.1-0.2,0.2-0.3,0.2c-0.1,0.1-0.2,0.1-0.2,0.2c-0.2,0.1-0.3,0.2-0.5,0.3
					c-0.4,0.3-0.9,0.5-1.4,0.7c-0.1-0.2-0.2-0.5-0.3-0.7c0,0,0-0.1,0-0.1c0-0.2,0-0.3,0-0.5c0.2-0.6,0.7-1.1,1.5-1.3
					c0.1,0,0.3-0.1,0.4-0.1c0,0,0.1,0,0.1,0c0.1,0,0.1,0,0.2,0c0.1,0,0.1,0,0.2,0l0.1,0.4c0,0.1,0,0.2,0.1,0.2l0,0L175.2,153.3
					L175.2,153.3z"/>
				<path class="st35" d="M162.5,154L162.5,154c0,0.2,0,0.4-0.1,0.5c-0.3-0.2-0.6-0.3-0.9-0.5c-0.3-0.2-0.6-0.4-0.9-0.6
					c-0.1-0.1-0.2-0.2-0.4-0.3c0,0-0.1-0.1-0.1-0.1c0.1-0.2,0.2-0.3,0.2-0.5c0.1-0.1,0.1-0.2,0.2-0.3c0.2,0,0.4,0.1,0.6,0.1
					C161.9,152.6,162.5,153.3,162.5,154L162.5,154z"/>
				<path class="st36" d="M165.4,154.5v0.6h-1.7c-0.4-0.2-0.9-0.3-1.2-0.6v-0.1L165.4,154.5L165.4,154.5z"/>
				<path class="st36" d="M167.8,154v1.8c-0.1,0-0.2,0-0.3,0V154L167.8,154L167.8,154z"/>
			</g>
		</g>
		<path class="st23" d="M186.9,140.7h26.2c1.5,0,2.8,1.2,2.8,2.8v0c0,1.5-1.2,2.8-2.8,2.8h-26.2c-1.5,0-2.8-1.2-2.8-2.8v0
			C184.2,141.9,185.4,140.7,186.9,140.7z"/>
		<path class="st23" d="M185,150.4h30c0.5,0,0.9,0.4,0.9,0.9l0,0c0,0.5-0.4,0.9-0.9,0.9h-30c-0.5,0-0.9-0.4-0.9-0.9l0,0
			C184.2,150.8,184.6,150.4,185,150.4z"/>
		<path class="st37" d="M168.6,211.8h199.5c2.1,0,3.8,1.7,3.8,3.8v40.8c0,2.1-1.7,3.8-3.8,3.8H168.6c-2.1,0-3.8-1.7-3.8-3.8v-40.8
			C164.8,213.5,166.5,211.8,168.6,211.8z"/>
		<path class="st37" d="M424.6,202.3H336c-7.8,0-3.7-6.4-3.7-14.2l0,0c0-7.8-4.1-14.2,3.7-14.2h88.6c7.8,0,14.2,6.4,14.2,14.2l0,0
			C438.8,195.9,432.4,202.3,424.6,202.3L424.6,202.3z"/>
		<path class="st19" d="M343.1,170.4h78.1c7.9,0,14.2,6.4,14.2,14.2l0,0c0,7.9-6.4,14.2-14.2,14.2h-78.1c-7.9,0-14.2-6.4-14.2-14.2
			l0,0C328.9,176.8,335.3,170.4,343.1,170.4z"/>
		<g>
			<path class="st23" d="M429.4,184.7c0,3.8-1.8,7.2-4.5,9.4c-0.1,0.1-0.2,0.2-0.3,0.2c-0.1,0.1-0.2,0.1-0.2,0.2
				c-0.2,0.1-0.3,0.2-0.5,0.3c-0.4,0.3-0.9,0.5-1.4,0.7c-1.5,0.7-3.2,1.1-5,1.1c0,0-0.1,0-0.1,0c-0.1,0-0.2,0-0.3,0
				c-1.3,0-2.5-0.3-3.7-0.7c-0.4-0.2-0.9-0.3-1.2-0.6c0,0,0,0,0,0c-0.3-0.2-0.6-0.3-0.9-0.5c-0.3-0.2-0.6-0.4-0.9-0.6
				c-0.1-0.1-0.2-0.2-0.4-0.3c0,0-0.1-0.1-0.1-0.1c-2.5-2.2-4.2-5.4-4.2-9.1c0-6.6,5.3-11.9,11.9-11.9S429.4,178.1,429.4,184.7
				L429.4,184.7z"/>
			<g>
				<path class="st24" d="M424.5,194.3c-0.1,0.1-0.2,0.1-0.2,0.2c-0.2,0.1-0.3,0.2-0.5,0.3h-12.7c-0.3-0.2-0.6-0.4-0.9-0.6
					c-0.1-0.1-0.2-0.2-0.4-0.3c0-0.1,0.1-0.1,0.1-0.2c0.2-0.2,0.4-0.3,0.6-0.5c0,0,0.1-0.1,0.1-0.1c0,0,0,0,0.1-0.1
					c1.1-0.7,2.3-0.9,3.3-1.1c0.1,0,0.2,0,0.2-0.1c0.8-0.2,1.4-0.4,1.9-0.9c0.3-0.3,0.6-0.9,0.5-1.8c0-0.1,0-0.3-0.1-0.5h1.5
					c0,0,0,0,0,0c0,0.1-0.1,0.3-0.1,0.4c0,0.4,0,0.6,0,0.9c0,0,0,0.1,0,0.1c0.1,0.4,0.3,0.6,0.5,0.8c0.3,0.4,0.8,0.6,1.3,0.7
					c0.1,0,0.1,0,0.2,0.1c1.1,0.3,2.4,0.4,3.6,1c0,0,0.1,0,0.1,0.1c0,0,0,0,0,0l0,0c0.1,0.1,0.2,0.2,0.4,0.2
					c0.1,0.1,0.2,0.1,0.2,0.2c0,0,0,0.1,0.1,0.1c0,0.1,0,0.1,0,0.2l0.1,0.4L424.5,194.3L424.5,194.3z"/>
				<path class="st25" d="M419.7,191.7c-0.2,0.1-0.4,0.1-0.6,0.1c-1,0-1.9-0.5-2.6-1.4c0.1-0.4,0.2-0.9,0-1.6h1.5
					c-0.3,1.2,0.1,1.9,0.4,2.2C418.7,191.4,419.2,191.6,419.7,191.7L419.7,191.7z"/>
				<polygon class="st26" points="411.1,196.3 411.1,196.3 411.1,196.3 				"/>
				<path class="st26" d="M423.5,196.5c0,0,0,0.1,0,0.1c0,0,0,0,0,0L423.5,196.5C423.5,196.5,423.5,196.5,423.5,196.5L423.5,196.5z"
					/>
				<path class="st27" d="M414.7,185.2c-0.2,0.7-0.5,1.7-0.5,2.8c0,0.6,0,1.2,0,1.8l0,0l0,0c-1.1-1-3.3-5.6-2-9
					c0.6-1.6,2.3-4.4,4.2-4.2c0.3,0,1,0.2,1.7,1.1l0,0c0.1,0.1,0.1,0.2,0.2,0.3c0.1,0,0.3-0.1,0.4-0.1c0,0,0,0,0,0
					c1.9-0.4,2.8,0.2,3,0.4c1.5,1.1,1.4,4.2,0.4,6.2c-0.4,0.8-0.9,1.3-0.8,2.3c0,1,0.6,1.8,1,2.4c-0.2,0-1.2,0.1-2.1-0.6
					c-0.2-0.2-0.4-0.4-0.5-0.6c-0.5-0.6-0.5-1.3-0.5-1.4L414.7,185.2L414.7,185.2z"/>
				<ellipse class="st24" cx="417.2" cy="183.6" rx="3.9" ry="5.7"/>
				<g class="st28">
					<g>
						<path d="M417.4,183.7v0.9c0,0.3,0,0.6,0,0.9v0h0c-0.1,0-0.2,0-0.3,0c-0.1,0-0.2,0-0.3,0l0,0c0.1,0,0.2,0,0.3,0
							c0.1,0,0.2,0,0.3,0v0c0-0.3,0-0.6,0-0.9V183.7L417.4,183.7L417.4,183.7L417.4,183.7z"/>
						<path d="M417.4,185.6L417.4,185.6c0-0.5,0-1.5,0-1.9h0c0,0.3,0,0.9,0,1.4C417.4,185.2,417.4,185.4,417.4,185.6L417.4,185.6
							L417.4,185.6L417.4,185.6L417.4,185.6l-0.1,0l0,0h-0.2h-0.3h-0.1v0.1c0.1,0,0.2,0,0.4,0l0,0
							C417.2,185.6,417.3,185.6,417.4,185.6L417.4,185.6L417.4,185.6L417.4,185.6L417.4,185.6L417.4,185.6L417.4,185.6L417.4,185.6
							L417.4,185.6L417.4,185.6z M417.4,183.7L417.4,183.7L417.4,183.7C417.4,183.7,417.4,183.7,417.4,183.7c0,0.4,0,0.9,0,1.4
							c0,0.2,0,0.3,0,0.5c-0.1,0-0.3,0-0.3,0h-0.2h-0.1v0.1c0.1,0,0.4,0,0.6,0l0,0l0,0c0,0,0,0,0,0h0v0
							C417.4,185.1,417.4,184.2,417.4,183.7L417.4,183.7L417.4,183.7z"/>
					</g>
				</g>
				<g>
					<path class="st29" d="M415.3,183.6c0-0.2,0.2-0.4,0.4-0.4s0.4,0.2,0.4,0.4s-0.2,0.4-0.4,0.4S415.3,183.8,415.3,183.6z"/>
					<path class="st29" d="M418.2,183.6c0-0.2,0.2-0.4,0.4-0.4s0.4,0.2,0.4,0.4s-0.2,0.4-0.4,0.4C418.4,184,418.2,183.8,418.2,183.6
						z"/>
					<path class="st30" d="M415.5,183.6c0-0.1,0.1-0.2,0.2-0.2s0.2,0.1,0.2,0.2s-0.1,0.2-0.2,0.2S415.5,183.7,415.5,183.6z"/>
					<path class="st30" d="M418.4,183.6c0-0.1,0.1-0.2,0.2-0.2s0.2,0.1,0.2,0.2s-0.1,0.2-0.2,0.2S418.4,183.7,418.4,183.6z"/>
				</g>
				<path class="st27" d="M421.2,183.7L421.2,183.7c0,0.2,0,0.3,0,0.5c0,0.1,0,0.1,0,0.2c0,0,0,0.1,0,0.1c0,0,0,0.1,0,0.1
					c0,0,0,0,0,0c-0.9-0.5-1.8-1.3-2.6-2.3c-0.6-0.8-1.1-1.6-1.4-2.4c0,0,0,0,0,0c-0.6,0.7-1.2,1.6-1.8,2.8
					c-0.1,0.1-0.1,0.2-0.2,0.4c-0.5,1-0.8,2-1,2.9v0c-0.1,0.3-0.2,0.6-0.2,1c-0.4-0.9-0.6-1.9-0.6-3.1c0-3,1.5-5.4,3.5-5.8
					c0.1,0,0.3-0.1,0.5-0.1h0.1c0,0,0.1,0,0.1,0c0.1,0,0.1,0,0.2,0h0c0,0,0,0,0,0c0,0,0.1,0,0.1,0s0.1,0,0.1,0l0,0l0,0c0,0,0,0,0,0
					h0l0,0c0,0,0.1,0,0.1,0c0.1,0,0.1,0,0.2,0.1l0,0c0.1,0,0.2,0.1,0.3,0.1c0,0,0.1,0.1,0.1,0.1s0.1,0.1,0.1,0.1
					c0.1,0,0.1,0.1,0.2,0.1c0.2,0.1,0.4,0.3,0.5,0.5c0,0.1,0.1,0.1,0.1,0.2c0,0.1,0.1,0.1,0.1,0.1c0,0.1,0.1,0.1,0.1,0.2
					c0.1,0.2,0.3,0.4,0.4,0.7c0,0.1,0.1,0.1,0.1,0.2c0.4,0.7,0.6,1.5,0.7,2.4c0,0.1,0,0.2,0,0.2c0,0.1,0,0.1,0,0.2
					c0,0.1,0,0.2,0,0.3C421.1,183.4,421.1,183.5,421.2,183.7L421.2,183.7z"/>
				<path class="st31" d="M421.4,184.2L421.4,184.2c0,0.2,0,0.3,0,0.5c0,0.1,0,0.1,0,0.2c0,0,0,0.1,0,0.1c0,0,0,0.1,0,0.1
					c0,0,0,0,0,0c-0.9-0.5-1.8-1.3-2.6-2.3c-0.6-0.8-1.1-1.6-1.4-2.4c0,0,0,0,0,0c-0.6,0.7-1.2,1.6-1.8,2.8
					c-0.1,0.1-0.1,0.2-0.2,0.4c-0.5,1-0.8,2-1,2.9c0,0,0,0,0,0c-0.1,0.3-0.2,0.6-0.2,1c-0.1-0.3-0.2-0.7-0.3-1
					c0,0.1,0.1,0.2,0.1,0.3c0.1-0.4,0.1-0.7,0.2-1c0,0,0,0,0,0c0.2-0.9,0.5-1.9,1-2.9c0.1-0.1,0.1-0.2,0.2-0.4
					c0.6-1.1,1.2-2,1.8-2.8c0,0,0,0,0,0c0.3,0.8,0.8,1.6,1.4,2.4c0.8,1,1.7,1.8,2.6,2.3c0,0,0,0,0,0c0,0,0-0.1,0-0.1
					c0,0,0-0.1,0-0.1c0-0.1,0-0.1,0-0.2c0-0.1,0-0.3,0-0.5l0,0c0-0.1,0-0.2,0-0.3s0-0.2,0-0.3c0-0.1,0-0.1,0-0.2c0-0.1,0-0.2,0-0.2
					c0-0.4-0.1-0.7-0.2-1c0.2,0.5,0.3,1.1,0.4,1.7c0,0.1,0,0.2,0,0.2c0,0.1,0,0.1,0,0.2c0,0.1,0,0.2,0,0.3
					C421.4,184,421.4,184.1,421.4,184.2L421.4,184.2z"/>
				<path d="M415.3,182.8c0.1-0.1,0.1-0.1,0.2-0.2c0,0,0,0,0.1,0c0,0,0,0,0.1,0l0.1,0c0,0,0,0,0.1,0s0,0,0.1,0s0,0,0.1,0s0,0,0.1,0
					s0,0,0.1,0l0,0c0,0,0,0,0,0c0,0,0,0,0.1,0.1c0,0,0.1,0.1,0.1,0.1c0,0,0,0,0,0l0,0c-0.1,0-0.1,0-0.1,0c0,0,0,0-0.1,0
					c0,0,0,0-0.1,0s0,0-0.1,0s0,0-0.1,0s0,0-0.1,0s0,0-0.1,0s0,0-0.1,0h-0.1c0,0,0,0-0.1,0s0,0-0.1,0
					C415.5,182.8,415.4,182.8,415.3,182.8L415.3,182.8L415.3,182.8C415.3,182.9,415.3,182.9,415.3,182.8L415.3,182.8z"/>
				<path d="M418.1,182.8c0-0.1,0.1-0.1,0.1-0.1c0,0,0,0,0.1-0.1s0,0,0.1,0c0,0,0,0,0.1,0c0,0,0,0,0.1,0h0.2c0.1,0,0.2,0,0.3,0.1
					l0,0c0,0,0,0,0,0l0.1,0c0,0,0.1,0.1,0.1,0.1c0,0,0,0,0,0l0,0l0,0l-0.1,0c0,0,0,0-0.1,0l-0.1,0c0,0,0,0,0,0h0l-0.1,0h-0.1
					c0,0,0,0-0.1,0c0,0,0,0-0.1,0c0,0,0,0-0.1,0l-0.1,0c0,0,0,0-0.1,0s0,0-0.1,0C418.4,182.9,418.3,182.9,418.1,182.8L418.1,182.8
					L418.1,182.8C418.2,182.9,418.2,182.9,418.1,182.8L418.1,182.8z"/>
				<path class="st19" d="M415.4,183.6c0-0.2,0.2-0.4,0.4-0.4s0.4,0.2,0.4,0.4s-0.2,0.4-0.4,0.4S415.4,183.8,415.4,183.6z"/>
				<path class="st19" d="M418.2,183.6c0-0.2,0.2-0.4,0.4-0.4s0.4,0.2,0.4,0.4s-0.2,0.4-0.4,0.4C418.4,184,418.2,183.8,418.2,183.6z
					"/>
				<g>
					<path d="M415.5,183.6c0-0.1,0.1-0.2,0.2-0.2s0.2,0.1,0.2,0.2s-0.1,0.2-0.2,0.2S415.5,183.7,415.5,183.6z"/>
					<path class="st32" d="M415.5,183.6c0-0.1,0.1-0.2,0.2-0.2s0.2,0.1,0.2,0.2s-0.1,0.2-0.2,0.2S415.5,183.7,415.5,183.6z"/>
				</g>
				<g>
					<path d="M418.4,183.6c0-0.1,0.1-0.2,0.2-0.2s0.2,0.1,0.2,0.2s-0.1,0.2-0.2,0.2S418.4,183.7,418.4,183.6z"/>
					<path class="st32" d="M418.4,183.6c0-0.1,0.1-0.2,0.2-0.2s0.2,0.1,0.2,0.2s-0.1,0.2-0.2,0.2S418.4,183.7,418.4,183.6z"/>
				</g>
				<g>
					<path d="M419,183.6c0-0.1,0-0.1-0.1-0.2s-0.1-0.1-0.1-0.1c0,0-0.1-0.1-0.2-0.1c-0.1,0-0.1,0-0.2,0c0-0.1,0.1-0.1,0.2-0.1
						s0.1,0,0.2,0.1c0.1,0,0.1,0.1,0.1,0.1S419,183.6,419,183.6L419,183.6z"/>
					<path d="M418.9,183.4C418.9,183.4,419,183.4,418.9,183.4c0.1-0.1,0.1-0.1,0.1-0.1c0,0,0,0.1,0,0.1
						C419,183.4,419,183.5,418.9,183.4L418.9,183.4L418.9,183.4z"/>
					<path d="M418.9,183.4C418.9,183.4,418.9,183.3,418.9,183.4c0.1-0.1,0.1-0.1,0.1-0.2c0,0,0,0.1,0,0.1S418.9,183.4,418.9,183.4
						L418.9,183.4L418.9,183.4z"/>
					<path d="M418.8,183.3c0,0,0.1,0,0.1-0.1c0,0,0-0.1,0.1-0.1c0,0.1,0,0.1,0,0.2S418.9,183.3,418.8,183.3L418.8,183.3L418.8,183.3
						z"/>
					<path d="M418.7,183.2c0.1,0,0.1-0.1,0.2-0.1s0.1-0.1,0.1-0.2c0,0.1,0,0.1,0,0.2C418.9,183.2,418.8,183.3,418.7,183.2
						L418.7,183.2L418.7,183.2z"/>
				</g>
				<g>
					<path d="M415.3,183.6c0-0.1,0-0.1,0-0.2s0.1-0.1,0.1-0.1c0.1,0,0.1-0.1,0.2-0.1c0.1,0,0.1,0,0.2,0.1c-0.1,0-0.1,0-0.2,0
						s-0.1,0-0.2,0.1c0,0-0.1,0.1-0.1,0.1C415.4,183.5,415.4,183.5,415.3,183.6L415.3,183.6z"/>
					<path d="M415.4,183.5C415.4,183.5,415.3,183.4,415.4,183.5c-0.1-0.1-0.1-0.2-0.1-0.2c0,0,0,0.1,0,0.1
						C415.3,183.4,415.4,183.4,415.4,183.5L415.4,183.5L415.4,183.5z"/>
					<path d="M415.4,183.4c0,0-0.1-0.1-0.1-0.1c0,0,0-0.1,0-0.1c0,0,0,0.1,0,0.1C415.4,183.3,415.4,183.3,415.4,183.4L415.4,183.4
						L415.4,183.4z"/>
					<path d="M415.5,183.3c-0.1,0-0.1-0.1-0.1-0.1s0-0.1,0-0.2c0,0.1,0,0.1,0.1,0.1S415.5,183.2,415.5,183.3L415.5,183.3
						L415.5,183.3z"/>
					<path d="M415.6,183.3c-0.1,0-0.1-0.1-0.2-0.1c0-0.1,0-0.1,0-0.2c0,0.1,0,0.1,0.1,0.2C415.5,183.2,415.5,183.2,415.6,183.3
						L415.6,183.3L415.6,183.3z"/>
				</g>
				<circle class="st19" cx="418.7" cy="183.5" r="0.1"/>
				<circle class="st19" cx="415.8" cy="183.5" r="0.1"/>
				<path class="st19" d="M418.6,186.1l0,0.5c0,0.7-0.5,1.2-1.2,1.3l0,0c-0.7,0.1-1.4-0.4-1.4-1.1l0-0.5L418.6,186.1L418.6,186.1z"
					/>
				<g>
					<path class="st22" d="M420.2,175.6h-5.8c-0.5,0-0.8,0.4-0.7,0.9l0.5,1.9c0.1,0.3,0.4,0.5,0.7,0.5h4.9c0.3,0,0.6-0.2,0.7-0.5
						l0.5-1.9C421,176,420.6,175.6,420.2,175.6z"/>
					<path class="st33" d="M416.2,178.9h-1.3c-0.3,0-0.6-0.2-0.7-0.5l-0.5-1.9c-0.1-0.3,0-0.5,0.2-0.7
						C414,177.1,414.9,178.3,416.2,178.9L416.2,178.9z"/>
					<polygon class="st34" points="418.3,177 418.3,177.6 417.7,177.6 417.7,178.3 417,178.3 417,177.6 416.4,177.6 416.4,177 
						417,177 417,176.4 417.7,176.4 417.7,177 					"/>
					<polygon class="st19" points="418.2,177 418.2,177.6 417.6,177.6 417.6,178.2 417,178.2 417,177.6 416.4,177.6 416.4,177 
						417,177 417,176.3 417.6,176.3 417.6,177 					"/>
				</g>
				<path class="st35" d="M423.5,196.5C423.5,196.5,423.5,196.5,423.5,196.5c0,0.1,0,0.1,0,0.1c0,0,0,0,0,0L423.5,196.5L423.5,196.5
					z"/>
				<polygon class="st35" points="411.1,196.3 411.1,196.3 411.1,196.3 				"/>
				<path class="st35" d="M424.6,193.4c0,0.1,0,0.1,0,0.2c0,0,0,0.1,0,0.1c0,0.1-0.1,0.2-0.1,0.3c-0.1,0.1-0.1,0.3-0.2,0.4
					c-0.2,0.1-0.3,0.2-0.5,0.3c-0.4,0.3-0.9,0.5-1.4,0.7c-1.5,0.7-3.2,1.1-5,1.1c0,0-0.1,0-0.1,0c-0.1,0-0.2,0-0.3,0
					c-1.3,0-2.5-0.3-3.7-0.7c-0.4-0.2-0.9-0.3-1.2-0.6c0,0,0,0,0,0c-0.3-0.2-0.6-0.3-0.9-0.5c-0.3-0.2-0.6-0.4-0.9-0.6
					c0-0.1-0.1-0.2-0.1-0.3c0,0,0,0,0-0.1c0,0,0-0.1-0.1-0.1c0-0.1,0-0.3,0-0.4c0-0.2,0.2-0.5,0.5-0.6c0.9-0.4,1.8-0.9,2.8-1.3
					c0.4-0.2,1,0,1.1,0.5c0,0,0,0,0,0c0,0,0,0,0,0.1c0.1,0.2,0.1,0.3,0.2,0.5c0.6,1.2,1.6,1.9,2.2,2.2c0.2,0.1,0.5,0.1,0.7,0
					c0.2-0.1,0.4-0.2,0.6-0.3c1-0.7,1.6-1.7,1.8-2.5c0,0,0-0.1,0-0.1c0,0,0,0,0-0.1c0.2-0.3,0.6-0.5,1-0.3c1,0.4,2.1,0.8,3.1,1.3
					c0.1,0.1,0.2,0.1,0.3,0.2C424.5,193,424.6,193.2,424.6,193.4L424.6,193.4z"/>
				<path class="st35" d="M424.8,194c-0.1,0.1-0.2,0.2-0.3,0.2c-0.1,0.1-0.2,0.1-0.2,0.2c-0.2,0.1-0.3,0.2-0.5,0.3
					c-0.4,0.3-0.9,0.5-1.4,0.7c-0.1-0.2-0.2-0.5-0.3-0.7c0,0,0-0.1,0-0.1c0-0.2,0-0.3,0-0.5c0.2-0.6,0.7-1.1,1.5-1.3
					c0.1,0,0.3-0.1,0.4-0.1c0,0,0.1,0,0.1,0c0.1,0,0.1,0,0.2,0c0,0,0.1,0,0.2,0l0.1,0.4c0,0.1,0,0.2,0.1,0.2l0,0L424.8,194
					L424.8,194z"/>
				<path class="st35" d="M412.1,194.7L412.1,194.7c0,0.2,0,0.4-0.1,0.5c-0.3-0.2-0.6-0.3-0.9-0.5c-0.3-0.2-0.6-0.4-0.9-0.6
					c-0.1-0.1-0.2-0.2-0.4-0.3c0,0-0.1-0.1-0.1-0.1c0.1-0.2,0.2-0.3,0.2-0.5c0.1-0.1,0.1-0.2,0.2-0.3c0.2,0,0.4,0.1,0.6,0.1
					C411.5,193.3,412.1,194,412.1,194.7L412.1,194.7z"/>
				<path class="st36" d="M415,195.2v0.6h-1.7c-0.4-0.2-0.9-0.3-1.2-0.6v-0.1L415,195.2L415,195.2z"/>
				<path class="st36" d="M417.3,194.8v1.8c-0.1,0-0.2,0-0.3,0v-1.8L417.3,194.8L417.3,194.8z"/>
			</g>
		</g>
		<circle class="st38" cx="392" cy="184.7" r="7.7"/>
		<circle class="st39" cx="367.6" cy="184.7" r="7.7"/>
		<circle class="st40" cx="343.7" cy="184.7" r="7.7"/>
		<path class="st41" d="M140.8,511h30.3v30.3h-30.3L140.8,511L140.8,511z"/>
		<path class="st19" d="M166.5,209.8h203.6c1.3,0,2.4,1.1,2.4,2.4v43.4c0,1.3-1.1,2.4-2.4,2.4H166.5c-1.3,0-2.4-1.1-2.4-2.4v-43.4
			C164.1,210.9,165.2,209.8,166.5,209.8z"/>
		<path class="st42" d="M186.6,224.3h-5.9c-0.6,0-1.2,0.5-1.2,1.2v9.4l4.1-1.8l4.1,1.8v-9.4C187.8,224.9,187.3,224.3,186.6,224.3
			L186.6,224.3z"/>
		<path class="st42" d="M286.1,247h2.5l-1.1,1.1c-0.1,0.1-0.1,0.2,0,0.3s0.2,0.1,0.3,0l1.5-1.5c0.1-0.1,0.1-0.2,0-0.3l-1.5-1.5
			c-0.1-0.1-0.2-0.1-0.3,0s-0.1,0.2,0,0.3l1.1,1.1h-2.5c-0.1,0-0.2,0.1-0.2,0.2S286,247,286.1,247z"/>
		<path class="st42" d="M288.6,249.8c-0.2,0-0.3-0.1-0.3-0.3s0.1-0.3,0.3-0.3c1.4,0,2.4-1.1,2.4-2.4s-1.1-2.4-2.4-2.4
			c-0.2,0-0.3-0.1-0.3-0.3s0.1-0.3,0.3-0.3c1.7,0,3.1,1.4,3.1,3.1S290.3,249.8,288.6,249.8L288.6,249.8z"/>
		<path class="st42" d="M214.8,245.1c-0.4-0.4-1-0.7-1.6-0.7v2.3l-1.6,1.6c0.9,0.9,2.4,0.9,3.3,0C215.7,247.5,215.7,246,214.8,245.1
			L214.8,245.1L214.8,245.1z M213.1,242.9c-2.1,0-3.9,1.7-3.9,3.9s1.7,3.9,3.9,3.9s3.9-1.7,3.9-3.9S215.2,242.9,213.1,242.9z
			 M213.1,249.9c-1.7,0-3.1-1.4-3.1-3.1s1.4-3.1,3.1-3.1s3.1,1.4,3.1,3.1S214.8,249.9,213.1,249.9z"/>
		<path class="st42" d="M288.2,217.9c-1.8,0-3.3,1.5-3.3,3.3c0,2.5,3.3,6.1,3.3,6.1s3.3-3.6,3.3-6.1
			C291.5,219.4,290,217.9,288.2,217.9z M288.2,222.4c-0.6,0-1.2-0.5-1.2-1.2s0.5-1.2,1.2-1.2s1.2,0.5,1.2,1.2
			S288.9,222.4,288.2,222.4z"/>
		<path class="st42" d="M213.5,226.9c0.5,0,0.9-0.4,0.9-0.9h-1.8C212.6,226.5,213,226.9,213.5,226.9L213.5,226.9z M216.1,224.3v-2.2
			c0-1.4-0.7-2.5-2-2.8v-0.3c0-0.4-0.3-0.7-0.7-0.7s-0.7,0.3-0.7,0.7v0.3c-1.3,0.3-2,1.4-2,2.8v2.2l-0.6,0.6
			c-0.3,0.3-0.1,0.8,0.3,0.8h5.8c0.4,0,0.6-0.5,0.3-0.8L216.1,224.3L216.1,224.3z"/>
		<rect x="167" y="239.7" class="st43" width="33.5" height="6.1"/>
		<rect x="164.8" y="197.1" class="st43" width="33.5" height="8.6"/>
		<rect x="220.3" y="218.5" class="st43" width="16.1" height="5.8"/>
		<rect x="220.3" y="243.6" class="st43" width="16.1" height="5.8"/>
		<rect x="295.4" y="243.6" class="st43" width="39.9" height="5.8"/>
		<rect x="295.4" y="218.5" class="st43" width="47" height="5.8"/>
		<rect x="295.4" y="226.9" class="st43" width="54.7" height="5.8"/>
		<rect x="220.3" y="226.9" class="st43" width="49" height="5.8"/>
		<line class="st44" x1="205" y1="209.8" x2="205" y2="258"/>
		<path class="st37" d="M168.6,291.7h199.5c2.1,0,3.8,1.7,3.8,3.8v40.8c0,2.1-1.7,3.8-3.8,3.8H168.6c-2.1,0-3.8-1.7-3.8-3.8v-40.8
			C164.8,293.3,166.5,291.7,168.6,291.7z"/>
		<path class="st19" d="M166.5,289.6h203.6c1.3,0,2.4,1.1,2.4,2.4v43.4c0,1.3-1.1,2.4-2.4,2.4H166.5c-1.3,0-2.4-1.1-2.4-2.4V292
			C164.1,290.7,165.2,289.6,166.5,289.6z"/>
		<path class="st42" d="M186.6,304.1h-5.9c-0.6,0-1.2,0.5-1.2,1.2v9.4l4.1-1.8l4.1,1.8v-9.4C187.8,304.7,187.3,304.1,186.6,304.1
			L186.6,304.1z"/>
		<path class="st42" d="M282.5,328h4.3l-1.9,1.8c-0.2,0.2-0.2,0.4,0,0.5s0.4,0.2,0.5,0l2.5-2.5c0.2-0.2,0.2-0.4,0-0.5l-2.5-2.5
			c-0.2-0.2-0.4-0.2-0.5,0s-0.2,0.4,0,0.5l1.8,1.8h-4.2c-0.2,0-0.4,0.2-0.4,0.4S282.2,327.9,282.5,328L282.5,328z"/>
		<path class="st42" d="M286.7,332.8c-0.3,0-0.5-0.2-0.5-0.5s0.2-0.5,0.5-0.5c2.3,0,4.2-1.9,4.2-4.2s-1.9-4.2-4.2-4.2
			c-0.3,0-0.5-0.2-0.5-0.5s0.2-0.5,0.5-0.5c2.9,0,5.3,2.4,5.3,5.3S289.6,332.8,286.7,332.8L286.7,332.8z"/>
		<path class="st42" d="M214.8,324.9c-0.4-0.4-1-0.7-1.6-0.7v2.3l-1.6,1.6c0.9,0.9,2.4,0.9,3.3,0
			C215.7,327.3,215.7,325.8,214.8,324.9L214.8,324.9L214.8,324.9z M213.1,322.7c-2.1,0-3.9,1.7-3.9,3.9s1.7,3.9,3.9,3.9
			s3.9-1.7,3.9-3.9S215.2,322.7,213.1,322.7z M213.1,329.7c-1.7,0-3.1-1.4-3.1-3.1s1.4-3.1,3.1-3.1s3.1,1.4,3.1,3.1
			S214.8,329.7,213.1,329.7z"/>
		<path class="st42" d="M288.2,297.7c-1.8,0-3.3,1.5-3.3,3.3c0,2.5,3.3,6.1,3.3,6.1s3.3-3.6,3.3-6.1
			C291.5,299.2,290,297.7,288.2,297.7z M288.2,302.2c-0.6,0-1.2-0.5-1.2-1.2s0.5-1.2,1.2-1.2s1.2,0.5,1.2,1.2
			S288.9,302.2,288.2,302.2z"/>
		<path class="st42" d="M213.5,306.7c0.5,0,0.9-0.4,0.9-0.9h-1.8C212.6,306.3,213,306.7,213.5,306.7L213.5,306.7z M216.1,304.1v-2.2
			c0-1.4-0.7-2.5-2-2.8v-0.3c0-0.4-0.3-0.7-0.7-0.7s-0.7,0.3-0.7,0.7v0.3c-1.3,0.3-2,1.4-2,2.8v2.2l-0.6,0.6
			c-0.3,0.3-0.1,0.8,0.3,0.8h5.8c0.4,0,0.6-0.5,0.3-0.8L216.1,304.1L216.1,304.1z"/>
		<rect x="167" y="319.5" class="st43" width="33.5" height="6.1"/>
		<rect x="164.8" y="277" class="st43" width="33.5" height="8.5"/>
		<rect x="220.3" y="298.3" class="st43" width="16.1" height="5.8"/>
		<rect x="220.3" y="323.5" class="st43" width="16.1" height="5.8"/>
		<rect x="295.4" y="323.5" class="st43" width="39.9" height="5.8"/>
		<rect x="295.4" y="298.3" class="st43" width="47" height="5.8"/>
		<rect x="295.4" y="306.7" class="st43" width="54.7" height="5.8"/>
		<rect x="220.3" y="306.7" class="st43" width="49" height="5.8"/>
		<line class="st44" x1="205" y1="289.6" x2="205" y2="337.8"/>
		<path class="st37" d="M168.6,373h199.5c2.1,0,3.8,1.7,3.8,3.8v40.8c0,2.1-1.7,3.8-3.8,3.8H168.6c-2.1,0-3.8-1.7-3.8-3.8v-40.8
			C164.8,374.7,166.5,373,168.6,373z"/>
		<path class="st19" d="M166.5,371h203.6c1.3,0,2.4,1.1,2.4,2.4v43.4c0,1.3-1.1,2.4-2.4,2.4H166.5c-1.3,0-2.4-1.1-2.4-2.4v-43.4
			C164.1,372.1,165.2,371,166.5,371z"/>
		<path class="st42" d="M186.6,385.5h-5.9c-0.6,0-1.2,0.5-1.2,1.2v9.4l4.1-1.8l4.1,1.8v-9.4C187.8,386,187.3,385.5,186.6,385.5
			L186.6,385.5z"/>
		<path class="st42" d="M282.5,409.3h4.3l-1.9,1.8c-0.2,0.2-0.2,0.4,0,0.5s0.4,0.2,0.5,0l2.5-2.5c0.2-0.2,0.2-0.4,0-0.5l-2.5-2.5
			c-0.2-0.2-0.4-0.2-0.5,0s-0.2,0.4,0,0.5l1.8,1.8h-4.2c-0.2,0-0.4,0.2-0.4,0.4S282.2,409.3,282.5,409.3L282.5,409.3z"/>
		<path class="st42" d="M286.7,414.2c-0.3,0-0.5-0.2-0.5-0.5s0.2-0.5,0.5-0.5c2.3,0,4.2-1.9,4.2-4.2s-1.9-4.2-4.2-4.2
			c-0.3,0-0.5-0.2-0.5-0.5s0.2-0.5,0.5-0.5c2.9,0,5.3,2.4,5.3,5.3S289.6,414.2,286.7,414.2L286.7,414.2z"/>
		<path class="st42" d="M214.8,406.3c-0.4-0.4-1-0.7-1.6-0.7v2.3l-1.6,1.6c0.9,0.9,2.4,0.9,3.3,0
			C215.7,408.7,215.7,407.2,214.8,406.3L214.8,406.3L214.8,406.3z M213.1,404c-2.1,0-3.9,1.7-3.9,3.9s1.7,3.9,3.9,3.9
			s3.9-1.7,3.9-3.9S215.2,404,213.1,404z M213.1,411c-1.7,0-3.1-1.4-3.1-3.1s1.4-3.1,3.1-3.1s3.1,1.4,3.1,3.1S214.8,411,213.1,411z"
			/>
		<path class="st42" d="M288.2,379.1c-1.8,0-3.3,1.5-3.3,3.3c0,2.5,3.3,6.1,3.3,6.1s3.3-3.6,3.3-6.1
			C291.5,380.6,290,379.1,288.2,379.1z M288.2,383.5c-0.6,0-1.2-0.5-1.2-1.2s0.5-1.2,1.2-1.2s1.2,0.5,1.2,1.2
			S288.9,383.5,288.2,383.5z"/>
		<path class="st42" d="M213.5,388.1c0.5,0,0.9-0.4,0.9-0.9h-1.8C212.6,387.7,213,388.1,213.5,388.1L213.5,388.1z M216.1,385.4v-2.2
			c0-1.4-0.7-2.5-2-2.8v-0.3c0-0.4-0.3-0.7-0.7-0.7s-0.7,0.3-0.7,0.7v0.3c-1.3,0.3-2,1.4-2,2.8v2.2l-0.6,0.6
			c-0.3,0.3-0.1,0.8,0.3,0.8h5.8c0.4,0,0.6-0.5,0.3-0.8L216.1,385.4L216.1,385.4z"/>
		<rect x="167" y="400.9" class="st43" width="33.5" height="6.1"/>
		<rect x="164.8" y="358.3" class="st43" width="33.5" height="8.5"/>
		<rect x="220.3" y="379.7" class="st43" width="16.1" height="5.8"/>
		<rect x="220.3" y="404.8" class="st43" width="16.1" height="5.8"/>
		<rect x="295.4" y="404.8" class="st43" width="39.9" height="5.8"/>
		<rect x="295.4" y="379.7" class="st43" width="47" height="5.8"/>
		<rect x="295.4" y="388.1" class="st43" width="54.7" height="5.8"/>
		<rect x="220.3" y="388.1" class="st43" width="49" height="5.8"/>
		<line class="st44" x1="205" y1="371" x2="205" y2="419.1"/>
		<path class="st37" d="M168.6,455h199.5c2.1,0,3.8,1.7,3.8,3.8v40.8c0,2.1-1.7,3.8-3.8,3.8H168.6c-2.1,0-3.8-1.7-3.8-3.8v-40.8
			C164.8,456.7,166.5,455,168.6,455z"/>
		<path class="st19" d="M166.5,453h203.6c1.3,0,2.4,1.1,2.4,2.4v43.4c0,1.3-1.1,2.4-2.4,2.4H166.5c-1.3,0-2.4-1.1-2.4-2.4v-43.4
			C164.1,454,165.2,453,166.5,453z"/>
		<path class="st42" d="M186.6,467.5h-5.9c-0.6,0-1.2,0.5-1.2,1.2v9.4l4.1-1.8l4.1,1.8v-9.4C187.8,468,187.3,467.5,186.6,467.5
			L186.6,467.5z"/>
		<path class="st42" d="M285.2,490.1h2.8l-1.2,1.2c-0.1,0.1-0.1,0.2,0,0.4s0.2,0.1,0.4,0l1.6-1.6c0.1-0.1,0.1-0.2,0-0.4l-1.6-1.6
			c-0.1-0.1-0.2-0.1-0.4,0s-0.1,0.3,0,0.4l1.2,1.2h-2.7c-0.1,0-0.2,0.1-0.2,0.2S285.1,490.1,285.2,490.1L285.2,490.1z"/>
		<path class="st42" d="M288,493.3c-0.2,0-0.4-0.1-0.4-0.4s0.1-0.4,0.4-0.4c1.5,0,2.7-1.2,2.7-2.7s-1.2-2.7-2.7-2.7
			c-0.2,0-0.4-0.1-0.4-0.4s0.1-0.4,0.4-0.4c1.9,0,3.4,1.5,3.4,3.4S289.9,493.3,288,493.3z"/>
		<path class="st42" d="M214.8,488.2c-0.4-0.4-1-0.7-1.6-0.7v2.3l-1.6,1.6c0.9,0.9,2.4,0.9,3.3,0
			C215.7,490.6,215.7,489.1,214.8,488.2L214.8,488.2L214.8,488.2z M213.1,486c-2.1,0-3.9,1.7-3.9,3.9s1.7,3.9,3.9,3.9
			s3.9-1.7,3.9-3.9S215.2,486,213.1,486z M213.1,493c-1.7,0-3.1-1.4-3.1-3.1s1.4-3.1,3.1-3.1s3.1,1.4,3.1,3.1S214.8,493,213.1,493z"
			/>
		<path class="st42" d="M288.2,461c-1.8,0-3.3,1.5-3.3,3.3c0,2.5,3.3,6.1,3.3,6.1s3.3-3.6,3.3-6.1C291.5,462.5,290,461,288.2,461z
			 M288.2,465.5c-0.6,0-1.2-0.5-1.2-1.2s0.5-1.2,1.2-1.2s1.2,0.5,1.2,1.2S288.9,465.5,288.2,465.5z"/>
		<path class="st42" d="M213.5,470c0.5,0,0.9-0.4,0.9-0.9h-1.8C212.6,469.6,213,470,213.5,470L213.5,470z M216.1,467.4v-2.2
			c0-1.4-0.7-2.5-2-2.8v-0.3c0-0.4-0.3-0.7-0.7-0.7s-0.7,0.3-0.7,0.7v0.3c-1.3,0.3-2,1.4-2,2.8v2.2l-0.6,0.6
			c-0.3,0.3-0.1,0.8,0.3,0.8h5.8c0.4,0,0.6-0.5,0.3-0.8L216.1,467.4L216.1,467.4z"/>
		<rect x="167" y="482.8" class="st43" width="33.5" height="6.1"/>
		<rect x="164.8" y="440.2" class="st43" width="33.5" height="8.5"/>
		<rect x="220.3" y="461.6" class="st43" width="16.1" height="5.8"/>
		<rect x="220.3" y="486.8" class="st43" width="16.1" height="5.8"/>
		<rect x="295.4" y="486.8" class="st43" width="39.9" height="5.8"/>
		<rect x="295.4" y="461.6" class="st43" width="47" height="5.8"/>
		<rect x="295.4" y="470" class="st43" width="54.7" height="5.8"/>
		<rect x="220.3" y="470" class="st43" width="49" height="5.8"/>
		<line class="st44" x1="205" y1="453" x2="205" y2="501.1"/>
		<path class="st37" d="M168.6,536.3h199.5c2.1,0,3.8,1.7,3.8,3.8v40.8c0,2.1-1.7,3.8-3.8,3.8H168.6c-2.1,0-3.8-1.7-3.8-3.8v-40.8
			C164.8,538,166.5,536.3,168.6,536.3z"/>
		<path class="st19" d="M166.5,534.3h203.6c1.3,0,2.4,1.1,2.4,2.4v43.4c0,1.3-1.1,2.4-2.4,2.4H166.5c-1.3,0-2.4-1.1-2.4-2.4v-43.4
			C164.1,535.4,165.2,534.3,166.5,534.3z"/>
		<path class="st42" d="M186.6,548.8h-5.9c-0.6,0-1.2,0.5-1.2,1.2v9.4l4.1-1.8l4.1,1.8V550C187.8,549.3,187.3,548.8,186.6,548.8
			L186.6,548.8z"/>
		<path class="st42" d="M284.9,571.8h3l-1.3,1.3c-0.1,0.1-0.1,0.3,0,0.4s0.3,0.1,0.4,0l1.7-1.7c0.1-0.1,0.1-0.3,0-0.4l-1.7-1.8
			c-0.1-0.1-0.3-0.1-0.4,0s-0.1,0.3,0,0.4l1.3,1.3h-2.9c-0.1,0-0.3,0.1-0.3,0.3S284.7,571.8,284.9,571.8L284.9,571.8z"/>
		<path class="st42" d="M287.8,575.1c-0.2,0-0.4-0.2-0.4-0.4s0.1-0.4,0.4-0.4c1.6,0,2.9-1.3,2.9-2.9s-1.3-2.9-2.9-2.9
			c-0.2,0-0.4-0.2-0.4-0.4s0.1-0.4,0.4-0.4c2,0,3.6,1.6,3.6,3.6S289.8,575.1,287.8,575.1z"/>
		<path class="st42" d="M214.8,569.6c-0.4-0.4-1-0.7-1.6-0.7v2.3l-1.6,1.7c0.9,0.9,2.4,0.9,3.3,0C215.7,572,215.7,570.5,214.8,569.6
			L214.8,569.6L214.8,569.6z M213.1,567.3c-2.1,0-3.9,1.7-3.9,3.9s1.7,3.9,3.9,3.9s3.9-1.7,3.9-3.9S215.2,567.3,213.1,567.3z
			 M213.1,574.3c-1.7,0-3.1-1.4-3.1-3.1s1.4-3.1,3.1-3.1s3.1,1.4,3.1,3.1S214.8,574.3,213.1,574.3z"/>
		<path class="st42" d="M288.2,542.4c-1.8,0-3.3,1.5-3.3,3.3c0,2.5,3.3,6.1,3.3,6.1s3.3-3.6,3.3-6.1
			C291.5,543.9,290,542.4,288.2,542.4z M288.2,546.8c-0.6,0-1.2-0.5-1.2-1.2s0.5-1.2,1.2-1.2s1.2,0.5,1.2,1.2
			S288.9,546.8,288.2,546.8z"/>
		<path class="st42" d="M213.5,551.4c0.5,0,0.9-0.4,0.9-0.9h-1.8C212.6,551,213,551.4,213.5,551.4L213.5,551.4z M216.1,548.7v-2.2
			c0-1.4-0.7-2.5-2-2.8v-0.3c0-0.4-0.3-0.7-0.7-0.7s-0.7,0.3-0.7,0.7v0.3c-1.3,0.3-2,1.4-2,2.8v2.2l-0.6,0.6
			c-0.3,0.3-0.1,0.8,0.3,0.8h5.8c0.4,0,0.6-0.5,0.3-0.8L216.1,548.7L216.1,548.7z"/>
		<rect x="167" y="564.2" class="st43" width="33.5" height="6.1"/>
		<rect x="164.8" y="521.6" class="st43" width="33.5" height="8.5"/>
		<rect x="220.3" y="543" class="st43" width="16.1" height="5.8"/>
		<rect x="220.3" y="568.1" class="st43" width="16.1" height="5.8"/>
		<rect x="295.4" y="568.1" class="st43" width="39.9" height="5.8"/>
		<rect x="295.4" y="543" class="st43" width="47" height="5.8"/>
		<rect x="295.4" y="551.4" class="st43" width="54.7" height="5.8"/>
		<rect x="220.3" y="551.4" class="st43" width="49" height="5.8"/>
		<line class="st44" x1="205" y1="534.3" x2="205" y2="582.5"/>
		<rect x="58" y="334.6" class="st37" width="254.2" height="96.1"/>
		<rect x="50.8" y="323.9" class="st19" width="254.2" height="96.1"/>
		<rect x="57.5" y="363.4" class="st45" width="237.6" height="7.5"/>
		<rect x="57.5" y="375.3" class="st45" width="237.6" height="7.5"/>
		<rect x="57.5" y="387.1" class="st45" width="123.9" height="7.5"/>
		<text transform="matrix(1 0 0 1 72.48 347.52)" class="st46 st47 st48">W</text>
		<text transform="matrix(1 0 0 1 86.52 347.52)" class="st46 st47 st48">eekly schedule</text>
		<path class="st41" d="M237.2,357.3h11.6V369h-11.6V357.3z"/>
		<path class="st49" d="M292.6,336.4h-8.9c-0.7,0-1.3,0.6-1.3,1.3v8.9c0,0.7,0.6,1.3,1.3,1.3h8.9c0.7,0,1.3-0.6,1.3-1.3v-8.9
			C293.8,337,293.3,336.4,292.6,336.4z M287.3,344.8c-0.2,0.2-0.6,0.2-0.9,0l0,0l-2.3-2.3c-0.2-0.2-0.2-0.6,0-0.9s0.6-0.2,0.9,0
			l1.8,1.8l4.4-4.4c0.2-0.2,0.6-0.2,0.9,0s0.2,0.6,0,0.9L287.3,344.8L287.3,344.8z"/>
	</g>
	<g>
		<path class="st19" d="M381.2,119.9V119c0-0.4-0.3-0.7-0.7-0.7h-7.9c-0.4,0-0.7,0.3-0.7,0.7v3.8c0,0.4,0.3,0.7,0.7,0.7h7.9
			c0.4,0,0.7-0.3,0.7-0.7v-0.9h1v-2.1L381.2,119.9L381.2,119.9z M376.9,121.4v1l-3.9-2.1h2.8v-1l3.9,2.1H376.9z"/>
		<path class="st19" d="M354.8,115h1.8v9.7h-1.8V115z M347.5,121h1.8v3.6h-1.8V121z M351.2,118h1.8v6.7h-1.8V118z"/>
		<path class="st19" d="M359.1,119.8l1,1c2.4-2.4,6.3-2.4,8.8,0l1-1C366.8,116.8,362.1,116.8,359.1,119.8z M363,123.7l1.5,1.5
			l1.5-1.5C365.1,122.8,363.8,122.8,363,123.7L363,123.7z M361.1,121.7l1,1c1.3-1.3,3.5-1.3,4.9,0l1-1
			C366,119.8,362.9,119.8,361.1,121.7z"/>
		<text transform="matrix(1 0 0 1 165.17 125.3)" class="st19 st47 st50">12:36</text>
	</g>
</g>
</svg>
