<?xml version="1.0" encoding="UTF-8"?>
<svg xmlns="http://www.w3.org/2000/svg" xmlns:xlink="http://www.w3.org/1999/xlink" viewBox="0 0 553.1 766.7">
  <defs>
    <style>
      .cls-1 {
        opacity: .13;
      }

      .cls-2 {
        fill: url(#linear-gradient-2);
      }

      .cls-3 {
        opacity: .18;
      }

      .cls-4 {
        fill: #fff;
      }

      .cls-5 {
        fill: url(#radial-gradient);
      }

      .cls-5, .cls-6, .cls-7 {
        opacity: .33;
      }

      .cls-8 {
        stroke-width: .96px;
      }

      .cls-8, .cls-9, .cls-10 {
        stroke: #000;
      }

      .cls-8, .cls-9, .cls-10, .cls-11, .cls-12, .cls-13 {
        stroke-miterlimit: 10;
      }

      .cls-8, .cls-9, .cls-10, .cls-11, .cls-13 {
        fill: none;
        stroke-linecap: round;
      }

      .cls-14 {
        fill: #5dab9c;
      }

      .cls-6 {
        fill: url(#linear-gradient-4);
      }

      .cls-15 {
        fill: #a9a9ab;
      }

      .cls-16 {
        fill: url(#linear-gradient-11);
      }

      .cls-17 {
        fill: url(#linear-gradient-6);
      }

      .cls-17, .cls-18 {
        fill-rule: evenodd;
      }

      .cls-19 {
        opacity: .44;
      }

      .cls-20 {
        fill: url(#linear-gradient-10);
      }

      .cls-9 {
        stroke-width: 2.34px;
      }

      .cls-21 {
        fill: url(#linear-gradient);
        opacity: .42;
      }

      .cls-18 {
        fill: #a6a8ab;
        opacity: .09;
      }

      .cls-7 {
        fill: url(#linear-gradient-5);
      }

      .cls-10 {
        stroke-width: 1.51px;
      }

      .cls-11 {
        stroke-width: .81px;
      }

      .cls-11, .cls-13 {
        stroke: #34d6ba;
      }

      .cls-12 {
        fill: #f6f6f6;
        stroke: #bbbdbf;
        stroke-width: 8.02px;
      }

      .cls-22 {
        fill: url(#radial-gradient-2);
      }

      .cls-23 {
        fill: url(#radial-gradient-3);
      }

      .cls-24 {
        opacity: .41;
      }

      .cls-25 {
        fill: url(#linear-gradient-7);
      }

      .cls-13 {
        stroke-width: 1.18px;
      }

      .cls-26 {
        fill: #7ee8d4;
      }

      .cls-27 {
        fill: url(#linear-gradient-9);
      }

      .cls-28 {
        fill: url(#linear-gradient-3);
      }

      .cls-29 {
        opacity: .3;
      }

      .cls-30 {
        fill: url(#linear-gradient-8);
      }

      .cls-31 {
        fill: url(#linear-gradient-12);
      }
    </style>
    <linearGradient id="linear-gradient" x1="206.07" y1="616.23" x2="211.68" y2="348.39" gradientUnits="userSpaceOnUse">
      <stop offset="0" stop-color="#fff" stop-opacity="0"/>
      <stop offset="0" stop-color="#fefefe" stop-opacity=".01"/>
      <stop offset=".14" stop-color="#fafafb" stop-opacity=".27"/>
      <stop offset=".27" stop-color="#f6f7f8" stop-opacity=".49"/>
      <stop offset=".39" stop-color="#f2f4f6" stop-opacity=".68"/>
      <stop offset=".51" stop-color="#f0f2f4" stop-opacity=".82"/>
      <stop offset=".63" stop-color="#eef1f3" stop-opacity=".92"/>
      <stop offset=".73" stop-color="#edf0f2" stop-opacity=".98"/>
      <stop offset=".82" stop-color="#edf0f2"/>
    </linearGradient>
    <linearGradient id="linear-gradient-2" x1="468.89" y1="577.43" x2="480" y2="46.7" xlink:href="#linear-gradient"/>
    <linearGradient id="linear-gradient-3" x1="90.51" y1="577.49" x2="96.74" y2="279.94" xlink:href="#linear-gradient"/>
    <radialGradient id="radial-gradient" cx="122.7" cy="82.14" fx="113.87" fy="65.42" r="74.48" gradientUnits="userSpaceOnUse">
      <stop offset=".05" stop-color="#fff52e"/>
      <stop offset=".19" stop-color="#fff530" stop-opacity=".99"/>
      <stop offset=".31" stop-color="#fff539" stop-opacity=".95"/>
      <stop offset=".43" stop-color="#fff648" stop-opacity=".88"/>
      <stop offset=".54" stop-color="#fff75c" stop-opacity=".78"/>
      <stop offset=".65" stop-color="#fff877" stop-opacity=".65"/>
      <stop offset=".75" stop-color="#fffa97" stop-opacity=".49"/>
      <stop offset=".86" stop-color="#fffbbe" stop-opacity=".31"/>
      <stop offset=".96" stop-color="#fffde9" stop-opacity=".1"/>
      <stop offset="1" stop-color="#fff" stop-opacity="0"/>
    </radialGradient>
    <radialGradient id="radial-gradient-2" cx="122.46" cy="84.86" fx="122.46" fy="77.36" r="33.42" xlink:href="#radial-gradient"/>
    <radialGradient id="radial-gradient-3" cx="122.46" cy="84.86" fx="108.67" fy="73.9" r="17.62" gradientUnits="userSpaceOnUse">
      <stop offset="0" stop-color="#fff"/>
      <stop offset=".4" stop-color="#fff" stop-opacity=".99"/>
      <stop offset=".54" stop-color="#fff" stop-opacity=".97"/>
      <stop offset=".65" stop-color="#fff" stop-opacity=".92"/>
      <stop offset=".73" stop-color="#fff" stop-opacity=".85"/>
      <stop offset=".8" stop-color="#fff" stop-opacity=".77"/>
      <stop offset=".86" stop-color="#fff" stop-opacity=".66"/>
      <stop offset=".92" stop-color="#fff" stop-opacity=".53"/>
      <stop offset=".97" stop-color="#fff" stop-opacity=".39"/>
      <stop offset="1" stop-color="#fff" stop-opacity=".3"/>
    </radialGradient>
    <linearGradient id="linear-gradient-4" x1="4696.26" y1="433.19" x2="4887.67" y2="433.19" gradientTransform="translate(3613.31 -256.94) rotate(-180) scale(.74 -.86)" gradientUnits="userSpaceOnUse">
      <stop offset="0" stop-color="#fff" stop-opacity="0"/>
      <stop offset="1" stop-color="#c9c9c9"/>
    </linearGradient>
    <linearGradient id="linear-gradient-5" x1="2335.75" y1="407.92" x2="2527.15" y2="407.92" gradientTransform="translate(-1280.43 -256.94) scale(.63 .86)" xlink:href="#linear-gradient-4"/>
    <linearGradient id="linear-gradient-6" x1="-44.92" y1="674.11" x2="324.92" y2="674.11" gradientUnits="userSpaceOnUse">
      <stop offset="0" stop-color="#fff" stop-opacity="0"/>
      <stop offset=".23" stop-color="#fdfdfd" stop-opacity=".02"/>
      <stop offset=".4" stop-color="#f8f8f8" stop-opacity=".07"/>
      <stop offset=".55" stop-color="#f0f0f0" stop-opacity=".15"/>
      <stop offset=".69" stop-color="#e5e5e5" stop-opacity=".27"/>
      <stop offset=".82" stop-color="#d6d6d6" stop-opacity=".42"/>
      <stop offset=".95" stop-color="#c5c5c5" stop-opacity=".61"/>
      <stop offset="1" stop-color="#bdbdbd" stop-opacity=".7"/>
    </linearGradient>
    <linearGradient id="linear-gradient-7" x1="25.6" y1="691.89" x2="78.07" y2="691.89" xlink:href="#linear-gradient"/>
    <linearGradient id="linear-gradient-8" x1="258.91" y1="663.4" x2="292.76" y2="663.4" xlink:href="#linear-gradient"/>
    <linearGradient id="linear-gradient-9" x1="248.6" y1="586.92" x2="270.08" y2="586.92" xlink:href="#linear-gradient"/>
    <linearGradient id="linear-gradient-10" x1="199.09" y1="325.81" x2="341.49" y2="325.81" gradientUnits="userSpaceOnUse">
      <stop offset="0" stop-color="#309dff"/>
      <stop offset=".35" stop-color="#2992ff"/>
      <stop offset=".97" stop-color="#1776ff"/>
      <stop offset="1" stop-color="#1675ff"/>
    </linearGradient>
    <linearGradient id="linear-gradient-11" y1="380.5" y2="380.5" xlink:href="#linear-gradient-10"/>
    <linearGradient id="linear-gradient-12" y1="435.19" y2="435.19" xlink:href="#linear-gradient-10"/>
  </defs>
  <g id="Bg-light">
    <rect class="cls-21" x="175.03" y="333.85" width="67.83" height="289.43"/>
    <polygon class="cls-2" points="521.75 149.26 521.75 576.52 425.01 576.52 425.01 149.26 466.8 149.26 466.8 46.7 479.96 46.7 479.96 149.26 521.75 149.26"/>
    <polygon class="cls-28" points="140.93 382.55 140.93 576.52 44.19 576.52 44.19 382.55 85.97 382.55 85.97 279.99 99.14 279.99 99.14 382.55 140.93 382.55"/>
    <g class="cls-24">
      <path class="cls-18" d="M220.5,264.79c-52.49,8.39-122.29,14.81-187.79,5.29-8.54-1.24-28.49-4.14-27.94-6.41,.84-3.47,48.85-2.36,133.2-3.05,93.31-.75,145.22-3.01,145.55-1.28,.15,.76-9.83,2.31-56.21,5.77"/>
      <path class="cls-18" d="M398.56,299.03c-52.49,8.39-122.29,14.81-187.79,5.29-8.54-1.24-28.49-4.14-27.94-6.41,.84-3.47,48.85-2.36,133.2-3.05,93.31-.75,145.22-3.01,145.55-1.28,.15,.76-9.83,2.31-56.21,5.77"/>
      <path class="cls-18" d="M202.66,256.73c-52.49,8.39-122.29,14.81-187.79,5.29-8.54-1.24-28.49-4.14-27.94-6.41,.84-3.47,48.85-2.36,133.2-3.05,93.31-.75,145.22-3.01,145.55-1.28,.15,.76-9.83,2.31-56.21,5.77"/>
      <path class="cls-18" d="M208.47,286.42c-52.49,8.39-122.29,14.81-187.79,5.29-8.54-1.24-28.49-4.14-27.94-6.41,.84-3.47,48.85-2.36,133.2-3.05,93.31-.75,145.22-3.01,145.55-1.28,.15,.76-9.83,2.31-56.21,5.77"/>
      <path class="cls-18" d="M412.69,264.79c-52.49,8.39-122.29,14.81-187.79,5.29-8.54-1.24-28.49-4.14-27.94-6.41,.84-3.47,48.85-2.36,133.2-3.05,93.31-.75,145.22-3.01,145.55-1.28,.15,.76-9.83,2.31-56.21,5.77"/>
    </g>
    <g class="cls-29">
      <g>
        <circle class="cls-5" cx="122.7" cy="82.14" r="74.48"/>
        <circle class="cls-22" cx="122.46" cy="84.86" r="33.42"/>
        <circle class="cls-23" cx="122.46" cy="84.86" r="17.62"/>
      </g>
    </g>
    <path class="cls-6" d="M16.34,147.25h118.56c7.53-5.38,10.37-16.16,7.24-24.07-3.74-9.48-15.67-13.95-24.94-6.88,.59-3.78,1.16-10.86-1.78-17.88-6.29-15-26.09-23.69-39.18-13.76-11.2,8.5-11.29,25.92-11.28,27.51-1.8-3.74-4.91-8.87-10.09-12.38-18.36-12.45-51.3,3-52.84,22.01-.83,10.19,7.52,19.57,14.31,25.45Z"/>
    <path class="cls-7" d="M303.77,125.62h-101.37c-6.44-5.38-8.86-16.16-6.19-24.07,3.2-9.48,13.4-13.95,21.32-6.88-.5-3.78-.99-10.86,1.52-17.88,5.38-15,22.3-23.69,33.5-13.76,9.57,8.5,9.65,25.92,9.64,27.51,1.54-3.74,4.2-8.87,8.63-12.38,15.7-12.45,43.86,3,45.18,22.01,.71,10.19-6.43,19.57-12.24,25.45Z"/>
    <path class="cls-17" d="M284.86,562.13c-4.92,17.32-11.28,30.84-16.81,40.73-42.48,76.03-130.07,106.46-248.32,145.84-27.13,9.04-49.71,15.57-64.64,19.71,28.69,9.01,68.29,18.04,115.88,18.92,50.58,.94,105.68,2.82,156.09-27.59,82.66-49.88,101.3-196.98,97.38-197.61-10.01-1.61-27.51-2.7-39.58,0Z"/>
  </g>
  <g id="Plants">
    <rect class="cls-25" x="25.6" y="651.45" width="52.47" height="80.87" rx="20.26" ry="20.26"/>
    <g class="cls-19">
      <line class="cls-9" x1="52.68" y1="679.72" x2="52.68" y2="765.55"/>
      <line class="cls-9" x1="52.68" y1="697.52" x2="62.69" y2="688.77"/>
      <line class="cls-9" x1="52.68" y1="713.47" x2="45.42" y2="707.02"/>
    </g>
    <rect class="cls-30" x="258.91" y="637.31" width="33.85" height="52.17" rx="13.07" ry="13.07"/>
    <g class="cls-19">
      <line class="cls-10" x1="276.39" y1="655.55" x2="276.39" y2="710.91"/>
      <line class="cls-10" x1="276.39" y1="667.03" x2="282.84" y2="661.39"/>
      <line class="cls-10" x1="276.39" y1="677.32" x2="271.7" y2="673.16"/>
    </g>
    <rect class="cls-27" x="248.6" y="570.37" width="21.48" height="33.1" rx="8.29" ry="8.29"/>
    <g class="cls-19">
      <line class="cls-8" x1="259.69" y1="581.94" x2="259.69" y2="617.07"/>
      <line class="cls-8" x1="259.69" y1="589.23" x2="263.78" y2="585.65"/>
      <line class="cls-8" x1="259.69" y1="595.76" x2="256.71" y2="593.12"/>
    </g>
    <g>
      <path class="cls-26" d="M348.87,557.2c-5.65-31.19-1.03-41.96,4.9-45.62,6.46-3.99,12.74,1.55,22.65-3.01,11.04-5.08,11.34-15.65,20.15-24.95,6.33-6.68,17.74-13.45,40.05-13.57-.96,1.14-2.37,3.08-3.23,5.75-2.92,8.99,4.15,14.47,4.48,23.94,.37,10.61-8.25,11.04-11.13,24.75-2.9,13.81,4.84,18.19,1.23,27.17-5.7,14.19-30.29,16.39-35.35,16.84-20.37,1.82-36.38-6.65-43.75-11.29Z"/>
      <path class="cls-13" d="M430.97,472.67c-8.32,10.86-17.57,22.11-27.82,33.54-17.3,19.29-34.52,35.82-50.76,49.88"/>
      <path class="cls-13" d="M419.28,475.12c-1.27,3.3-1.22,11.58-2.49,14.88"/>
      <path class="cls-13" d="M397.41,491.01c-8.03,8.89-1.82,20.51-3.09,23.8"/>
      <path class="cls-13" d="M430.11,502.71c-10.44-6.83-21.94,2.69-25.45,2.29"/>
      <path class="cls-13" d="M422.42,533.96c-13.63-8.8-42.33,.62-45.84,.23"/>
      <path class="cls-13" d="M370.45,516.97c-5.85,4.13-5.27,25.25-6.54,28.54"/>
    </g>
    <g>
      <path class="cls-14" d="M331.1,539.19c-3.87-21.37-.7-28.75,3.36-31.26,4.43-2.73,8.73,1.06,15.52-2.06,7.56-3.48,7.77-10.72,13.81-17.1,4.33-4.58,12.15-9.21,27.44-9.3-.66,.78-1.62,2.11-2.22,3.94-2,6.16,2.84,9.91,3.07,16.4,.25,7.27-5.65,7.57-7.62,16.96-1.98,9.46,3.31,12.47,.84,18.62-3.9,9.72-20.75,11.23-24.22,11.54-13.95,1.25-24.92-4.55-29.97-7.73Z"/>
      <path class="cls-11" d="M387.36,481.28c-5.7,7.44-12.04,15.15-19.06,22.98-11.85,13.22-23.65,24.54-34.78,34.18"/>
      <path class="cls-11" d="M379.35,482.95c-.87,2.26-.84,7.94-1.71,10.19"/>
      <path class="cls-11" d="M364.36,493.84c-5.5,6.09-1.25,14.05-2.12,16.31"/>
      <path class="cls-11" d="M386.77,501.86c-7.16-4.68-15.03,1.84-17.44,1.57"/>
      <path class="cls-11" d="M381.5,523.27c-9.34-6.03-29,.42-31.41,.16"/>
      <path class="cls-11" d="M345.89,511.63c-4.01,2.83-3.61,17.3-4.48,19.56"/>
    </g>
  </g>
  <g id="Main">
    <polygon class="cls-12" points="354.02 281.99 354.02 565.34 186.56 565.34 186.56 237.14 354.02 281.99"/>
    <g class="cls-1">
      <rect x="200.1" y="316.25" width="142.4" height="31.74" rx="5.07" ry="5.07"/>
      <rect x="200.1" y="370.93" width="142.4" height="31.74" rx="5.07" ry="5.07"/>
      <rect x="200.1" y="425.62" width="142.4" height="31.74" rx="5.07" ry="5.07"/>
    </g>
    <rect class="cls-15" x="250.5" y="493.24" width="39.58" height="72.1"/>
    <g>
      <rect class="cls-20" x="199.09" y="309.94" width="142.4" height="31.74" rx="5.07" ry="5.07"/>
      <rect class="cls-16" x="199.09" y="364.63" width="142.4" height="31.74" rx="5.07" ry="5.07"/>
      <rect class="cls-31" x="199.09" y="419.31" width="142.4" height="31.74" rx="5.07" ry="5.07"/>
    </g>
    <g class="cls-3">
      <polygon class="cls-4" points="242.55 309.94 249.01 341.68 220.89 341.68 214.43 309.94 242.55 309.94"/>
      <polygon class="cls-4" points="301.5 341.68 258.93 341.68 252.46 309.94 295.03 309.94 301.5 341.68"/>
      <polygon class="cls-4" points="253.69 364.63 260.16 396.37 232.04 396.37 225.57 364.63 253.69 364.63"/>
      <polygon class="cls-4" points="312.65 396.37 270.08 396.37 263.61 364.63 306.18 364.63 312.65 396.37"/>
      <polygon class="cls-4" points="271.3 451.06 243.18 451.06 236.71 419.31 264.83 419.31 271.3 451.06"/>
      <polygon class="cls-4" points="323.79 451.06 281.22 451.06 274.75 419.31 317.32 419.31 323.79 451.06"/>
    </g>
  </g>
</svg>