<?xml version="1.0" encoding="UTF-8"?>
<svg xmlns="http://www.w3.org/2000/svg" xmlns:xlink="http://www.w3.org/1999/xlink" viewBox="0 0 553.1 766.7">
  <defs>
    <style>
      .cls-1 {
        fill: url(#linear-gradient-2);
      }

      .cls-1, .cls-2, .cls-3, .cls-4, .cls-5, .cls-6, .cls-7 {
        opacity: .33;
      }

      .cls-1, .cls-2, .cls-4, .cls-7 {
        fill-rule: evenodd;
      }

      .cls-2 {
        fill: url(#linear-gradient-6);
      }

      .cls-8 {
        fill: #fff;
      }

      .cls-3 {
        fill: url(#radial-gradient);
      }

      .cls-9 {
        fill: #bbbdbf;
        opacity: .41;
      }

      .cls-4 {
        fill: url(#linear-gradient);
      }

      .cls-5 {
        fill: url(#linear-gradient-4);
      }

      .cls-10 {
        fill: #a9a9ab;
      }

      .cls-11 {
        fill: url(#linear-gradient-13);
        opacity: .56;
      }

      .cls-12 {
        stroke: #42a897;
      }

      .cls-12, .cls-13, .cls-14, .cls-15 {
        stroke-miterlimit: 10;
      }

      .cls-12, .cls-15 {
        fill: none;
        stroke-linecap: round;
        stroke-width: 1.12px;
      }

      .cls-13 {
        stroke-width: 2.91px;
      }

      .cls-13, .cls-14 {
        fill: #f6f6f6;
        stroke: #bbbdbf;
      }

      .cls-16 {
        fill: url(#linear-gradient-10);
      }

      .cls-17 {
        fill: url(#linear-gradient-12);
      }

      .cls-17, .cls-18 {
        opacity: .31;
      }

      .cls-19 {
        opacity: .23;
      }

      .cls-20 {
        fill: #53d4be;
      }

      .cls-6 {
        fill: url(#linear-gradient-3);
      }

      .cls-18 {
        fill: url(#linear-gradient-11);
      }

      .cls-14 {
        stroke-width: 8.02px;
      }

      .cls-21 {
        fill: url(#radial-gradient-2);
      }

      .cls-15 {
        stroke: #348577;
      }

      .cls-22 {
        fill: #45b09e;
      }

      .cls-23 {
        fill: url(#radial-gradient-3);
      }

      .cls-24 {
        fill: url(#linear-gradient-7);
      }

      .cls-25 {
        fill: #f7f7f7;
      }

      .cls-26 {
        fill: #26a0fc;
      }

      .cls-27 {
        fill: url(#linear-gradient-9);
      }

      .cls-28 {
        fill: #ff6384;
      }

      .cls-7 {
        fill: url(#linear-gradient-5);
      }

      .cls-29 {
        opacity: .3;
      }

      .cls-30 {
        fill: url(#linear-gradient-8);
      }
    </style>
    <radialGradient id="radial-gradient" cx="419.83" cy="74.45" fx="413.24" fy="61.98" r="55.57" gradientUnits="userSpaceOnUse">
      <stop offset=".05" stop-color="#fff52e"/>
      <stop offset=".19" stop-color="#fff530" stop-opacity=".99"/>
      <stop offset=".31" stop-color="#fff539" stop-opacity=".95"/>
      <stop offset=".43" stop-color="#fff648" stop-opacity=".88"/>
      <stop offset=".54" stop-color="#fff75c" stop-opacity=".78"/>
      <stop offset=".65" stop-color="#fff877" stop-opacity=".65"/>
      <stop offset=".75" stop-color="#fffa97" stop-opacity=".49"/>
      <stop offset=".86" stop-color="#fffbbe" stop-opacity=".31"/>
      <stop offset=".96" stop-color="#fffde9" stop-opacity=".1"/>
      <stop offset="1" stop-color="#fff" stop-opacity="0"/>
    </radialGradient>
    <radialGradient id="radial-gradient-2" cx="419.66" cy="76.48" fx="419.66" fy="76.48" r="24.93" xlink:href="#radial-gradient"/>
    <radialGradient id="radial-gradient-3" cx="419.66" cy="76.48" fx="409.37" fy="68.3" r="13.15" gradientUnits="userSpaceOnUse">
      <stop offset="0" stop-color="#fff"/>
      <stop offset=".4" stop-color="#fff" stop-opacity=".99"/>
      <stop offset=".54" stop-color="#fff" stop-opacity=".97"/>
      <stop offset=".65" stop-color="#fff" stop-opacity=".92"/>
      <stop offset=".73" stop-color="#fff" stop-opacity=".85"/>
      <stop offset=".8" stop-color="#fff" stop-opacity=".77"/>
      <stop offset=".86" stop-color="#fff" stop-opacity=".66"/>
      <stop offset=".92" stop-color="#fff" stop-opacity=".53"/>
      <stop offset=".97" stop-color="#fff" stop-opacity=".39"/>
      <stop offset="1" stop-color="#fff" stop-opacity=".3"/>
    </radialGradient>
    <linearGradient id="linear-gradient" x1="284.46" y1="99.3" x2="563.65" y2="99.3" gradientUnits="userSpaceOnUse">
      <stop offset="0" stop-color="#fff" stop-opacity="0"/>
      <stop offset="1" stop-color="#c9c9c9"/>
    </linearGradient>
    <linearGradient id="linear-gradient-2" x1="140.68" y1="112.29" x2="424.05" y2="112.29" xlink:href="#linear-gradient"/>
    <linearGradient id="linear-gradient-3" x1="-3909.63" y1="42.67" x2="-3754.17" y2="42.67" gradientTransform="translate(4132.09) scale(.96 1)" xlink:href="#linear-gradient"/>
    <linearGradient id="linear-gradient-4" x1="-3902.38" y1="105.73" x2="-3808.62" y2="105.73" gradientTransform="translate(4132.09) scale(.96 1)" xlink:href="#linear-gradient"/>
    <linearGradient id="linear-gradient-5" x1="-312.26" y1="54.86" x2="-33.07" y2="54.86" gradientTransform="translate(-25.14 0) rotate(-180) scale(.93 -1)" xlink:href="#linear-gradient"/>
    <linearGradient id="linear-gradient-6" x1="-365.69" y1="68.25" x2="-86.51" y2="68.25" gradientTransform="translate(-25.14 0) rotate(-180) scale(.93 -1)" xlink:href="#linear-gradient"/>
    <linearGradient id="linear-gradient-7" x1="95.32" y1="650.49" x2="185.72" y2="650.49" gradientTransform="translate(-551.35 786.4) rotate(-90)" gradientUnits="userSpaceOnUse">
      <stop offset="0" stop-color="#fff" stop-opacity="0"/>
      <stop offset="0" stop-color="#fefefe" stop-opacity=".01"/>
      <stop offset=".14" stop-color="#fafafb" stop-opacity=".27"/>
      <stop offset=".27" stop-color="#f6f7f8" stop-opacity=".49"/>
      <stop offset=".39" stop-color="#f2f4f6" stop-opacity=".68"/>
      <stop offset=".51" stop-color="#f0f2f4" stop-opacity=".82"/>
      <stop offset=".63" stop-color="#eef1f3" stop-opacity=".92"/>
      <stop offset=".73" stop-color="#edf0f2" stop-opacity=".98"/>
      <stop offset=".82" stop-color="#edf0f2"/>
    </linearGradient>
    <linearGradient id="linear-gradient-8" x1="142.47" x2="232.86" xlink:href="#linear-gradient-7"/>
    <linearGradient id="linear-gradient-9" x1="196.7" x2="287.09" xlink:href="#linear-gradient-7"/>
    <linearGradient id="linear-gradient-10" x1="57.33" y1="850.19" x2="211.14" y2="850.19" xlink:href="#linear-gradient-7"/>
    <linearGradient id="linear-gradient-11" x1="57.33" y1="1001.43" x2="211.14" y2="1001.43" xlink:href="#linear-gradient-7"/>
    <linearGradient id="linear-gradient-12" x1="137.16" y1="746.71" x2="202.8" y2="746.71" xlink:href="#linear-gradient-7"/>
    <linearGradient id="linear-gradient-13" x1="298.61" y1="514.83" x2="299.12" y2="261.86" gradientUnits="userSpaceOnUse">
      <stop offset="0" stop-color="#000" stop-opacity="0"/>
      <stop offset="1" stop-color="#000" stop-opacity=".5"/>
    </linearGradient>
  </defs>
  <g id="Bg-light">
    <g class="cls-29">
      <circle class="cls-3" cx="419.83" cy="74.45" r="55.57"/>
      <circle class="cls-21" cx="419.66" cy="76.48" r="24.93"/>
      <circle class="cls-23" cx="419.66" cy="76.48" r="13.15"/>
    </g>
    <path class="cls-4" d="M347.58,96.44c52.57,12.21,122.48,21.55,188.07,7.7,8.55-1.8,28.54-6.02,27.98-9.33-.85-5.05-48.92-3.44-133.41-4.43-93.45-1.1-145.44-4.38-145.77-1.87-.15,1.11,9.85,3.36,56.29,8.4"/>
    <path class="cls-1" d="M359.98,110.29c-53.36,8.53-124.31,15.06-190.89,5.38-8.68-1.26-28.96-4.21-28.4-6.52,.86-3.53,49.65-2.4,135.4-3.1,94.85-.77,147.62-3.06,147.95-1.3,.15,.78-10,2.35-57.13,5.87"/>
    <path class="cls-6" d="M531.72,77.6h-129.61c-7.44-4.73-11.15-14.11-8.77-22.12,2.7-9.07,12.84-15.18,23.14-12.44-.75-2.08-2.94-8.98,0-15.9,4.24-9.96,17.71-16.59,27.76-10.37,7.44,4.61,11.03,15.03,7.93,24.88,1.88-5.94,6.76-18.37,18.51-26.26,21.4-14.38,57.49-8.22,68.09,15.9,7.25,16.5-2.87,38.43-7.05,46.31Z"/>
    <path class="cls-5" d="M483.45,126.8h-78.18c-4.49-2.85-6.73-8.51-5.29-13.34,1.63-5.47,7.74-9.15,13.96-7.5-.45-1.25-1.77-5.42,0-9.59,2.56-6.01,10.68-10,16.75-6.25,4.49,2.78,6.65,9.07,4.78,15.01,1.14-3.59,4.08-11.08,11.16-15.84,12.91-8.67,34.68-4.96,41.07,9.59,4.37,9.95-1.73,23.18-4.25,27.93Z"/>
    <path class="cls-7" d="M207.16,51.99c-49.02,12.21-114.2,21.55-175.36,7.7-7.97-1.8-26.61-6.02-26.09-9.33,.79-5.05,45.61-3.44,124.39-4.43,87.13-1.1,135.61-4.38,135.92-1.87,.14,1.11-9.18,3.36-52.49,8.4"/>
    <path class="cls-2" d="M256.98,65.39c-49.02,12.21-114.2,21.55-175.36,7.7-7.97-1.8-26.61-6.02-26.09-9.33,.79-5.05,45.61-3.44,124.39-4.43,87.13-1.1,135.61-4.38,135.92-1.87,.14,1.11-9.18,3.36-52.49,8.4"/>
    <path class="cls-25" d="M-20.63,722.14c8.36-25.95,32.39-43.65,59.64-44.2,9.02-.18,18.71-.16,28.97,.17,26.7,.85,47.39,3.45,62.01,5.48,79.29,11,94.81,21.14,138.74,26.28,56.01,6.54,101.63-1.67,156.61-11.56,75.64-13.61,103.79-30.18,124.45-13.66,6.66,5.32,10.97,12.82,13.56,21.59,11.4,38.49-16.16,77.57-56.14,81.14-148.42,13.28-405.52-19.05-523.33-7.08-16.21,1.65-15.16-25.15-4.52-58.15Z"/>
    <circle class="cls-24" cx="99.14" cy="645.88" r="45.2"/>
    <circle class="cls-30" cx="99.14" cy="598.74" r="45.2"/>
    <circle class="cls-27" cx="99.14" cy="544.5" r="45.2"/>
    <circle class="cls-16" cx="298.84" cy="652.17" r="76.9"/>
    <circle class="cls-18" cx="450.08" cy="652.17" r="76.9"/>
    <circle class="cls-17" cx="195.37" cy="616.42" r="32.82"/>
  </g>
  <g id="Plants">
    <path class="cls-22" d="M217.61,526.34c-25.55-14.47-48.96-33-67.74-55.71-4.15-4.97-8.27-10.4-11.98-15.74-1.98-2.69-3.49-5.63-5.78-8.11-4.28-5.17-11.12-9.22-16.72-14.29-8.14-7.3-11.35-17.91-12.48-28.42-.8-10.29-.07-21.04-1.93-31.01-2.07-13.56-7.23-26.38-9.91-39.82-4.59-24.3,4.99-59.37,20.98-78.22,0,0,2.28,.5,2.28,.5,2.01,6.72,3.21,13.44,4.37,20.24,2.36,15.79,4.1,31.29,3.94,47.11-.3,9.42-2.46,18.61-3.35,28.05-.67,7.04-.34,14.19,1.17,21.1,1.89,8.53,6.71,16.06,10.94,23.54,3.12,5.34,5.48,10.85,6.97,16.81,2.67,11.24-2.73,23.89,3.37,34.49,5.01,9.74,11.42,19.56,18.05,28.32,15.7,20.35,35.72,37.61,58.37,50.19,0,0-.55,.98-.55,.98h0Z"/>
    <path class="cls-20" d="M241.01,522.89c-28.73-6.07-56.64-16.66-81.41-32.63-5.46-3.49-11.03-7.42-16.18-11.38-2.7-1.97-5.03-4.31-7.96-5.99-5.64-3.63-13.39-5.42-20.26-8.56-9.97-4.5-16.23-13.64-20.49-23.32-3.87-9.56-6.42-20.03-11.21-28.98-6.07-12.3-14.87-22.96-21.48-34.96-11.72-21.78-13.19-58.1-3.65-80.9,0,0,2.32-.22,2.32-.22,3.95,5.8,7.12,11.84,10.29,17.97,7.01,14.33,13.37,28.61,18,43.72,2.56,9.07,3.28,18.48,5.29,27.75,1.49,6.92,3.96,13.63,7.49,19.76,4.38,7.56,11.25,13.28,17.54,19.13,4.59,4.15,8.5,8.69,11.73,13.92,5.94,9.91,4.62,23.59,13.64,31.86,7.72,7.77,16.8,15.19,25.76,21.54,21.12,14.65,45.42,25.05,70.81,30.19,0,0-.23,1.1-.23,1.1h0Z"/>
    <path class="cls-15" d="M217.89,527.44c-19.18-10.77-40.79-26.47-60-49.41-72.18-86.22-48.99-201.47-44.71-221.17"/>
    <path class="cls-12" d="M241.61,523.86c-21.53-4.47-46.88-12.9-72.13-28.96-94.86-60.37-107.59-177.24-109.47-197.32"/>
  </g>
  <g id="Main">
    <rect class="cls-11" x="172.36" y="237.03" width="252.97" height="329.52" rx="12.26" ry="12.26"/>
    <rect class="cls-14" x="153.3" y="216.8" width="251.57" height="327.7" rx="12.2" ry="12.2"/>
    <g>
      <rect class="cls-10" x="212.57" y="480.45" width="131.45" height="1.53"/>
      <path class="cls-10" d="M292.83,499.98c-5.61,0-11.13-1.06-16.32-3.31-8.07-3.49-14.45-9.46-19.2-16.17-2-.09-4.09-.37-6.23-.93-3.56-.93-6.47-2.42-8.8-3.62-3.3-1.69-4.78-2.33-6.06-1.85-1.22,.47-2.36,1.89-3.28,4.1-.85,2.03-3.19,2.99-5.22,2.15-2.03-.85-2.99-3.18-2.15-5.22,1.81-4.34,4.42-7.19,7.78-8.48,4.73-1.82,8.71,.22,12.56,2.19,1.91,.98,3.88,1.99,6.16,2.7-1.65-3.44-2.91-6.86-3.8-10.08-3.31-11.98-2.33-22.85,2.69-29.83,5.63-7.83,18.37-13.15,29.91-8.51,11.19,4.5,16.59,16.8,16.14,26.62-.75,16.46-16.45,24.68-23.17,27.45-1.34,.55-3.86,1.59-7.17,2.36,3.54,4.07,7.86,7.55,12.99,9.77,17.43,7.54,44.71-1.26,58.39-28.61,.98-1.97,3.38-2.78,5.35-1.78,1.97,.99,2.77,3.38,1.78,5.35-11.01,21.99-32.24,35.67-52.36,35.67Zm-20.9-70.55c-5.9,0-11.68,2.98-14.49,6.89-3.55,4.94-4.1,13.55-1.48,23.05,1.15,4.15,3,8.7,5.57,13.05,4.21-.47,7.6-1.87,9.27-2.56,4.14-1.71,17.69-8.23,18.25-20.44,.31-6.84-3.49-15.77-11.15-18.86-1.92-.77-3.95-1.12-5.96-1.12Z"/>
    </g>
    <g>
      <path class="cls-26" d="M350.23,347.68l-4.37-8.7-12.25,24.46c-.63,1.34-2.01,2.17-3.5,2.17s-2.87-.83-3.5-2.17l-6.81-13.59h-21.19v19.69c0,4.33,3.54,7.88,7.88,7.88h63.01c4.33,0,7.88-3.54,7.88-7.88v-19.69h-23.63c-1.5,0-2.87-.83-3.5-2.17Z"/>
      <path class="cls-26" d="M369.48,314.41h-63.01c-4.33,0-7.88,3.54-7.88,7.88v19.69h23.63c1.5,0,2.87,.83,3.5,2.17l4.37,8.7,12.25-24.46c1.34-2.68,5.71-2.68,7.05,0l6.77,13.59h21.19v-19.69c0-4.33-3.54-7.88-7.88-7.88Z"/>
    </g>
    <g>
      <path class="cls-13" d="M229.65,290.96c1.51,20.68,.62,41.4,1.14,62.09,.05,1.95,.12,4.15,.2,6.1,0,0,.05,.84,.05,.84,0,0,.01,.21,.01,.21-.01,.52,0,1.08-.03,1.59-.21,4.1-2,8.13-5.26,10.76-3.99,3.28-10.06,3.8-14.4,.98-2.08-1.31-3.7-3.24-4.76-5.39-.45-.88-.1-1.96,.78-2.41,.83-.43,1.82-.13,2.32,.61,1.03,1.41,2.3,2.62,3.83,3.38,5.71,2.66,11.44-1.59,11.87-7.59,.06-.56,.06-1.19,.06-1.76,0,0-.01-.18-.01-.18l-.05-.71c-.57-14.23-.1-29.38,.27-43.65,.22-8.26,.38-16.5,.39-24.75,.05-2.24,3.32-2.44,3.58-.13h0Z"/>
      <g>
        <path class="cls-28" d="M176.5,310.28s.03-.01,.04-.01h0s-.04,.01-.04,.01Z"/>
        <path class="cls-28" d="M282.17,310.28c-3.49-1.12-7.23-1.73-11.1-1.73-7.43,0-14.34,2.25-20.08,6.09-.38,.24-.73,.5-1.1,.76-.53-.38-1.07-.74-1.62-1.08-5.63-3.59-12.46-5.76-19.57-5.76s-13.91,2.1-19.54,5.72c-.34,.23-.68,.45-1,.68-.14-.11-.27-.19-.41-.27-.42-.28-.85-.55-1.29-.83-5.48-3.37-11.94-5.3-18.85-5.3-3.87,0-7.59,.61-11.08,1.72,.97-21.33,14.57-39.35,33.49-46.79,.42-.18,.84-.34,1.26-.49,.68-.24,1.37-.49,2.07-.69h.01c5.03-1.61,10.41-2.46,15.97-2.46s10.45,.77,15.26,2.23c.72,.22,1.43,.46,2.15,.7,.42,.15,.84,.3,1.26,.47,19.28,7.25,33.19,25.48,34.15,47.04Z"/>
      </g>
      <path class="cls-8" d="M210.03,263.47c.15,.35,.43,.64,.81,.77,5.67,1.96,10.95,4.82,15.72,8.53,.43,.31,.87,.65,1.29,1,.28,.24,.58,.47,.85,.73,11.79,10.03,18.84,24.4,19.57,39.81,.55,.34,1.1,.7,1.62,1.08,.37-.26,.72-.51,1.1-.76-.64-16.16-7.89-31.26-20.12-41.88-.43-.37-.87-.72-1.3-1.08-.28-.23-.57-.46-.85-.66-4.68-3.69-9.82-6.63-15.35-8.71h-.01l-3.33,1.18Z"/>
      <path class="cls-8" d="M248.02,263.24c-.14,.35-.43,.65-.83,.78-5.91,1.99-11.39,4.91-16.32,8.73-.43,.32-.87,.66-1.3,1.01-.3,.24-.58,.49-.87,.73-11.72,10-18.82,24.4-19.54,39.77-.34,.23-.68,.45-1,.68-.14-.11-.27-.19-.41-.27-.42-.28-.85-.55-1.29-.83,.83-15.82,8.11-30.68,20.1-41.08,.42-.37,.85-.73,1.29-1.08,.28-.23,.58-.47,.87-.68,4.82-3.82,10.14-6.81,15.89-8.94,.72,.22,1.43,.46,2.15,.7,.42,.15,.84,.3,1.26,.47Z"/>
    </g>
    <g class="cls-19">
      <rect class="cls-9" x="172.19" y="250" width="219.11" height="68.72"/>
      <rect class="cls-9" x="172.19" y="335.74" width="219.11" height="40.27"/>
      <rect class="cls-9" x="172.19" y="415.54" width="219.11" height="23.71"/>
      <rect class="cls-9" x="173.04" y="492.98" width="219.11" height="11.85"/>
    </g>
  </g>
</svg>