<?xml version="1.0" encoding="UTF-8"?>
<svg xmlns="http://www.w3.org/2000/svg" xmlns:xlink="http://www.w3.org/1999/xlink" viewBox="0 0 553.1 766.7">
  <defs>
    <style>
      .cls-1 {
        opacity: .13;
      }

      .cls-2 {
        fill: url(#linear-gradient-2);
      }

      .cls-3 {
        fill: url(#linear-gradient);
      }

      .cls-3, .cls-4, .cls-5, .cls-6 {
        opacity: .33;
      }

      .cls-4 {
        fill: url(#radial-gradient);
      }

      .cls-7 {
        fill: #44ad9b;
      }

      .cls-8 {
        fill: url(#linear-gradient-5);
        opacity: .11;
      }

      .cls-9 {
        fill: #eb59ff;
      }

      .cls-5 {
        fill: url(#linear-gradient-4);
      }

      .cls-5, .cls-6 {
        fill-rule: evenodd;
      }

      .cls-10 {
        fill: #53d4be;
      }

      .cls-11 {
        opacity: .19;
      }

      .cls-6 {
        fill: url(#linear-gradient-3);
      }

      .cls-12 {
        fill: #3dd4ba;
      }

      .cls-13 {
        opacity: .16;
      }

      .cls-14 {
        fill: #96f;
      }

      .cls-15 {
        fill: url(#radial-gradient-2);
      }

      .cls-16 {
        fill: none;
        stroke: #249682;
        stroke-linecap: round;
        stroke-miterlimit: 10;
      }

      .cls-17 {
        fill: url(#linear-gradient-6);
      }

      .cls-17, .cls-18 {
        opacity: .56;
      }

      .cls-19 {
        fill: url(#radial-gradient-3);
      }

      .cls-18 {
        fill: url(#linear-gradient-7);
      }

      .cls-20 {
        fill: #59e6ff;
      }
    </style>
    <radialGradient id="radial-gradient" cx="457.73" cy="69.69" fx="448.9" fy="52.97" r="74.48" gradientUnits="userSpaceOnUse">
      <stop offset=".05" stop-color="#fff52e"/>
      <stop offset=".19" stop-color="#fff530" stop-opacity=".99"/>
      <stop offset=".31" stop-color="#fff539" stop-opacity=".95"/>
      <stop offset=".43" stop-color="#fff648" stop-opacity=".88"/>
      <stop offset=".54" stop-color="#fff75c" stop-opacity=".78"/>
      <stop offset=".65" stop-color="#fff877" stop-opacity=".65"/>
      <stop offset=".75" stop-color="#fffa97" stop-opacity=".49"/>
      <stop offset=".86" stop-color="#fffbbe" stop-opacity=".31"/>
      <stop offset=".96" stop-color="#fffde9" stop-opacity=".1"/>
      <stop offset="1" stop-color="#fff" stop-opacity="0"/>
    </radialGradient>
    <radialGradient id="radial-gradient-2" cx="457.5" cy="72.41" fx="457.5" fy="64.91" r="33.42" xlink:href="#radial-gradient"/>
    <radialGradient id="radial-gradient-3" cx="457.5" cy="72.41" fx="443.7" fy="61.45" r="17.62" gradientUnits="userSpaceOnUse">
      <stop offset="0" stop-color="#fff"/>
      <stop offset=".4" stop-color="#fff" stop-opacity=".99"/>
      <stop offset=".54" stop-color="#fff" stop-opacity=".97"/>
      <stop offset=".65" stop-color="#fff" stop-opacity=".92"/>
      <stop offset=".73" stop-color="#fff" stop-opacity=".85"/>
      <stop offset=".8" stop-color="#fff" stop-opacity=".77"/>
      <stop offset=".86" stop-color="#fff" stop-opacity=".66"/>
      <stop offset=".92" stop-color="#fff" stop-opacity=".53"/>
      <stop offset=".97" stop-color="#fff" stop-opacity=".39"/>
      <stop offset="1" stop-color="#fff" stop-opacity=".3"/>
    </radialGradient>
    <linearGradient id="linear-gradient" x1="2738.83" y1="555.57" x2="2930.24" y2="555.57" gradientTransform="translate(2502.06 -374.15) rotate(-180) scale(.74 -.86)" gradientUnits="userSpaceOnUse">
      <stop offset="0" stop-color="#fff" stop-opacity="0"/>
      <stop offset="1" stop-color="#c9c9c9"/>
    </linearGradient>
    <linearGradient id="linear-gradient-2" x1="3055.78" y1="516.53" x2="3247.18" y2="516.53" gradientTransform="translate(-1515.77 -374.15) scale(.63 .86)" xlink:href="#linear-gradient"/>
    <linearGradient id="linear-gradient-3" x1="199.37" y1="39.46" x2="478.56" y2="39.46" gradientTransform="translate(425.17 0) rotate(-180) scale(.88 -1)" xlink:href="#linear-gradient"/>
    <linearGradient id="linear-gradient-4" x1="138.54" y1="77.73" x2="417.72" y2="77.73" gradientTransform="translate(425.17 0) rotate(-180) scale(.88 -1)" xlink:href="#linear-gradient"/>
    <linearGradient id="linear-gradient-5" x1="283.56" y1="664.91" x2="288.33" y2="167.84" gradientUnits="userSpaceOnUse">
      <stop offset="0" stop-color="#fff" stop-opacity="0"/>
      <stop offset=".23" stop-color="#fdfdfd" stop-opacity=".02"/>
      <stop offset=".4" stop-color="#f8f8f8" stop-opacity=".07"/>
      <stop offset=".55" stop-color="#f0f0f0" stop-opacity=".15"/>
      <stop offset=".69" stop-color="#e5e5e5" stop-opacity=".27"/>
      <stop offset=".82" stop-color="#d6d6d6" stop-opacity=".42"/>
      <stop offset=".95" stop-color="#c5c5c5" stop-opacity=".61"/>
      <stop offset="1" stop-color="#bdbdbd" stop-opacity=".7"/>
    </linearGradient>
    <linearGradient id="linear-gradient-6" x1="285.99" y1="771.5" x2="289.25" y2="431.42" gradientUnits="userSpaceOnUse">
      <stop offset="0" stop-color="#fff" stop-opacity="0"/>
      <stop offset=".34" stop-color="#e9e9e9" stop-opacity=".32"/>
      <stop offset="1" stop-color="#bdbdbd"/>
    </linearGradient>
    <linearGradient id="linear-gradient-7" x1="439.79" y1="757.79" x2="442.4" y2="485.7" xlink:href="#linear-gradient-6"/>
  </defs>
  <g id="Bg-light">
    <g class="cls-11">
      <g>
        <circle class="cls-4" cx="457.73" cy="69.69" r="74.48"/>
        <circle class="cls-15" cx="457.5" cy="72.41" r="33.42"/>
        <circle class="cls-19" cx="457.5" cy="72.41" r="17.62"/>
      </g>
    </g>
    <path class="cls-3" d="M351.37,134.8h118.56c7.53-5.38,10.37-16.16,7.24-24.07-3.74-9.48-15.67-13.95-24.94-6.88,.59-3.78,1.16-10.86-1.78-17.88-6.29-15-26.09-23.69-39.18-13.76-11.2,8.5-11.29,25.92-11.28,27.51-1.8-3.74-4.91-8.87-10.09-12.38-18.36-12.45-51.3,3-52.84,22.01-.83,10.19,7.52,19.57,14.31,25.45Z"/>
    <path class="cls-2" d="M523.29,101.38h-101.37c-6.44-5.38-8.86-16.16-6.19-24.07,3.2-9.48,13.4-13.95,21.32-6.88-.5-3.78-.99-10.86,1.52-17.88,5.38-15,22.3-23.69,33.5-13.76,9.57,8.5,9.65,25.92,9.64,27.51,1.54-3.74,4.2-8.87,8.63-12.38,15.7-12.45,43.86,3,45.18,22.01,.71,10.19-6.43,19.57-12.24,25.45Z"/>
    <path class="cls-6" d="M193.42,36.6c-46.41,12.21-108.13,21.55-166.04,7.7-7.55-1.8-25.19-6.02-24.7-9.33,.75-5.05,43.19-3.44,117.78-4.43,82.5-1.1,128.4-4.38,128.69-1.87,.13,1.11-8.7,3.36-49.7,8.4"/>
    <path class="cls-5" d="M247.13,74.87c-46.41,12.21-108.13,21.55-166.04,7.7-7.55-1.8-25.19-6.02-24.7-9.33,.75-5.05,43.19-3.44,117.78-4.43,82.5-1.1,128.4-4.38,128.69-1.87,.13,1.11-8.7,3.36-49.7,8.4"/>
    <ellipse class="cls-8" cx="286.1" cy="400.12" rx="267" ry="250.21"/>
    <path class="cls-17" d="M112.37,757.46c97.4-214.68,137.88-310.16,139.87-324.77,.18-1.3,8.39-10.01,12.76-12.64,8.84-5.31,18.71,10.28,24.78,14.78,35.55,26.37,141.65,264.12,170.05,328.35"/>
    <path class="cls-18" d="M300.88,746.56c77.93-171.76,110.31-248.15,111.9-259.84,.14-1.04,6.72-8.01,10.21-10.11,7.07-4.25,14.97,8.22,19.83,11.83,28.44,21.1,113.33,211.31,136.05,262.7"/>
  </g>
  <g id="Plants">
    <g>
      <path class="cls-10" d="M179.5,283.27c1.24-32.95-7.84-52.4-17.02-64.3-16.44-21.32-39.61-26.73-45.54-51.14-3.74-15.38,2.12-26.99,.29-27.5-3.35-.93-29.05,36.04-20.53,74.95,7.65,34.93,40.94,62.57,82.8,67.98Z"/>
      <path class="cls-16" d="M179.5,283.27c-11.38-9.4-39.45-35.4-53.14-60.89-11.26-20.97-16.05-40.33-18.25-53.71"/>
      <path class="cls-7" d="M179.59,283.01c-7.53-12.77-20.07-28.96-39.54-34.23-14.8-4.01-23.07,1.13-32.24-3.72-10.11-5.35-19.75-22.03-14.9-73.96-25.3,24.39-30.38,62.24-13.75,89.63,19.4,31.95,64.64,43.59,100.43,22.28Z"/>
      <path class="cls-16" d="M175.29,281.62c-9.79,1.21-29.17,2.22-50.46-6.79-12.14-5.14-34.68-14.68-43.18-38.52-8.63-24.23,3.17-46.64,5.75-51.3"/>
      <path class="cls-12" d="M174.1,283.38c9.28-9.38,32.13-35.02,38.86-75.25,4.64-27.75-.39-50.52-4.16-62.97-9.32,7.41-24.63,21.76-34.58,44.65-18.97,43.63-3.78,84.45-.12,93.57Z"/>
      <path class="cls-16" d="M173.98,273.71c3.9-18.85,8.48-38.53,13.88-58.94,5.96-22.53,12.36-43.82,18.95-63.82"/>
    </g>
  </g>
  <g id="Main">
    <path class="cls-1" d="M354.91,245.6l-80.43-30.16-120.25,45.09v91.54c0,30.26,8.14,59.69,22.31,85.25l3.31-1.24,58.08,21.78v43.25c11.42,6.65,23.68,11.74,36.55,14.96,69-17.29,120.25-88.09,120.25-164v-63.74c-19.52-4.89-34.93-22.21-39.82-42.73Zm-96.36,173.36l-53.21-53.21,21.19-21.19,31.87,31.87,63.73-63.74,21.2,21.2-84.78,85.07Z"/>
    <g>
      <path class="cls-20" d="M392.23,186.22l-38.15,14.3v29.04c0,24.08,16.26,46.54,38.15,52.02,21.89-5.48,38.15-27.94,38.15-52.02v-29.04l-38.15-14.3Zm-5.05,64.56l-16.88-16.88,6.72-6.72,10.11,10.11,20.22-20.22,6.72,6.72-26.89,26.99Z"/>
      <path class="cls-14" d="M350.18,243.23l-80.43-30.16-120.25,45.09v91.54c0,30.26,8.14,59.69,22.31,85.25l3.31-1.24,58.08,21.78v43.25c11.42,6.65,23.68,11.74,36.55,14.96,69-17.29,120.25-88.09,120.25-164v-63.74c-19.52-4.89-34.93-22.21-39.82-42.73Zm-96.36,173.36l-53.21-53.21,21.19-21.19,31.87,31.87,63.73-63.74,21.2,21.2-84.78,85.07Z"/>
      <path class="cls-13" d="M183.51,446.92l-53.42,20.03v40.67c0,33.72,22.77,65.18,53.42,72.85,30.65-7.68,53.42-39.13,53.42-72.85v-40.67l-53.42-20.03Zm-7.08,90.42l-23.64-23.64,9.42-9.42,14.16,14.16,28.31-28.31,9.42,9.42-37.66,37.8Z"/>
      <path class="cls-9" d="M176.15,442.2l-53.42,20.03v40.67c0,33.72,22.77,65.18,53.42,72.85,30.65-7.68,53.42-39.13,53.42-72.85v-40.67l-53.42-20.03Zm-7.08,90.42l-23.64-23.64,9.42-9.42,14.16,14.16,28.31-28.31,9.42,9.42-37.66,37.8Z"/>
    </g>
  </g>
</svg>