<?xml version="1.0" encoding="UTF-8"?>
<svg xmlns="http://www.w3.org/2000/svg" xmlns:xlink="http://www.w3.org/1999/xlink" viewBox="0 0 553.1 766.7">
  <defs>
    <style>
      .cls-1 {
        opacity: .13;
      }

      .cls-2 {
        fill: url(#linear-gradient-2);
      }

      .cls-2, .cls-3, .cls-4, .cls-5 {
        opacity: .33;
      }

      .cls-2, .cls-4 {
        fill-rule: evenodd;
      }

      .cls-6 {
        fill: url(#linear-gradient-6);
      }

      .cls-6, .cls-7 {
        opacity: .2;
      }

      .cls-3 {
        fill: url(#radial-gradient);
      }

      .cls-8 {
        fill: #44ad9b;
      }

      .cls-9 {
        fill: url(#radial-gradient-5);
      }

      .cls-4 {
        fill: url(#linear-gradient);
      }

      .cls-10 {
        fill: url(#linear-gradient-12);
        opacity: .37;
      }

      .cls-11 {
        fill: url(#radial-gradient-6);
      }

      .cls-12 {
        fill: url(#linear-gradient-10);
      }

      .cls-13 {
        opacity: .23;
      }

      .cls-14 {
        fill: #53d4be;
      }

      .cls-15 {
        fill: url(#linear-gradient-3);
        opacity: .03;
      }

      .cls-7 {
        fill: url(#linear-gradient-4);
      }

      .cls-16 {
        fill: #3dd4ba;
      }

      .cls-17 {
        fill: url(#linear-gradient-5);
      }

      .cls-18 {
        fill: #96f;
      }

      .cls-19 {
        fill: url(#radial-gradient-2);
      }

      .cls-20 {
        fill: none;
        stroke: #249682;
        stroke-linecap: round;
        stroke-miterlimit: 10;
      }

      .cls-21 {
        fill: url(#radial-gradient-3);
      }

      .cls-22 {
        fill: url(#linear-gradient-7);
      }

      .cls-23 {
        fill: #f7f7f7;
      }

      .cls-5 {
        fill: url(#radial-gradient-4);
      }

      .cls-24 {
        fill: url(#linear-gradient-11);
      }

      .cls-24, .cls-25 {
        opacity: .28;
      }

      .cls-25 {
        fill: url(#linear-gradient-9);
      }

      .cls-26 {
        opacity: .3;
      }

      .cls-27 {
        fill: url(#linear-gradient-8);
      }
    </style>
    <radialGradient id="radial-gradient" cx="397.86" cy="229.57" fx="389.03" fy="212.85" r="74.48" gradientUnits="userSpaceOnUse">
      <stop offset=".05" stop-color="#fff52e"/>
      <stop offset=".19" stop-color="#fff530" stop-opacity=".99"/>
      <stop offset=".31" stop-color="#fff539" stop-opacity=".95"/>
      <stop offset=".43" stop-color="#fff648" stop-opacity=".88"/>
      <stop offset=".54" stop-color="#fff75c" stop-opacity=".78"/>
      <stop offset=".65" stop-color="#fff877" stop-opacity=".65"/>
      <stop offset=".75" stop-color="#fffa97" stop-opacity=".49"/>
      <stop offset=".86" stop-color="#fffbbe" stop-opacity=".31"/>
      <stop offset=".96" stop-color="#fffde9" stop-opacity=".1"/>
      <stop offset="1" stop-color="#fff" stop-opacity="0"/>
    </radialGradient>
    <radialGradient id="radial-gradient-2" cx="397.63" cy="232.29" fx="397.63" fy="224.79" r="33.42" xlink:href="#radial-gradient"/>
    <radialGradient id="radial-gradient-3" cx="397.63" cy="232.29" fx="383.84" fy="221.32" r="17.62" gradientUnits="userSpaceOnUse">
      <stop offset="0" stop-color="#fff"/>
      <stop offset=".4" stop-color="#fff" stop-opacity=".99"/>
      <stop offset=".54" stop-color="#fff" stop-opacity=".97"/>
      <stop offset=".65" stop-color="#fff" stop-opacity=".92"/>
      <stop offset=".73" stop-color="#fff" stop-opacity=".85"/>
      <stop offset=".8" stop-color="#fff" stop-opacity=".77"/>
      <stop offset=".86" stop-color="#fff" stop-opacity=".66"/>
      <stop offset=".92" stop-color="#fff" stop-opacity=".53"/>
      <stop offset=".97" stop-color="#fff" stop-opacity=".39"/>
      <stop offset="1" stop-color="#fff" stop-opacity=".3"/>
    </radialGradient>
    <linearGradient id="linear-gradient" x1="1593.61" y1="43.51" x2="1872.79" y2="43.51" gradientTransform="translate(1628.44 0) rotate(-180) scale(.88 -1)" gradientUnits="userSpaceOnUse">
      <stop offset="0" stop-color="#fff" stop-opacity="0"/>
      <stop offset="1" stop-color="#c9c9c9"/>
    </linearGradient>
    <linearGradient id="linear-gradient-2" x1="1540.17" y1="56.91" x2="1819.36" y2="56.91" xlink:href="#linear-gradient"/>
    <linearGradient id="linear-gradient-3" x1="315.07" y1="877.73" x2="312.9" y2="485.06" gradientUnits="userSpaceOnUse">
      <stop offset=".12" stop-color="#fff" stop-opacity="0"/>
      <stop offset=".13" stop-color="#fcfcfc" stop-opacity=".12"/>
      <stop offset=".17" stop-color="#f7f7f7" stop-opacity=".3"/>
      <stop offset=".2" stop-color="#f3f3f3" stop-opacity=".47"/>
      <stop offset=".24" stop-color="#f0f0f0" stop-opacity=".61"/>
      <stop offset=".28" stop-color="#ededed" stop-opacity=".73"/>
      <stop offset=".32" stop-color="#ebebeb" stop-opacity=".83"/>
      <stop offset=".37" stop-color="#e9e9e9" stop-opacity=".91"/>
      <stop offset=".44" stop-color="#e7e7e7" stop-opacity=".96"/>
      <stop offset=".52" stop-color="#e7e7e7" stop-opacity=".99"/>
      <stop offset=".74" stop-color="#e7e7e7"/>
    </linearGradient>
    <linearGradient id="linear-gradient-4" x1="136.92" y1="789.66" x2="134.75" y2="396.99" xlink:href="#linear-gradient-3"/>
    <linearGradient id="linear-gradient-5" x1="74.09" y1="663.08" x2="66.55" y2="394.7" xlink:href="#linear-gradient-3"/>
    <linearGradient id="linear-gradient-6" x1="48.05" y1="726.96" x2="40.5" y2="458.59" xlink:href="#linear-gradient-3"/>
    <linearGradient id="linear-gradient-7" x1="70.88" y1="380.96" x2="69.61" y2="335.7" xlink:href="#linear-gradient-3"/>
    <linearGradient id="linear-gradient-8" x1="179.11" y1="692.34" x2="183.23" y2="440.4" gradientUnits="userSpaceOnUse">
      <stop offset="0" stop-color="#fff" stop-opacity="0"/>
      <stop offset=".02" stop-color="#fefefe" stop-opacity=".03"/>
      <stop offset=".24" stop-color="#f6f6f6" stop-opacity=".37"/>
      <stop offset=".44" stop-color="#efefef" stop-opacity=".64"/>
      <stop offset=".61" stop-color="#eaeaea" stop-opacity=".84"/>
      <stop offset=".74" stop-color="#e8e8e8" stop-opacity=".96"/>
      <stop offset=".81" stop-color="#e7e7e7"/>
    </linearGradient>
    <linearGradient id="linear-gradient-9" x1="503.66" y1="671.75" x2="506.38" y2="505" xlink:href="#linear-gradient-8"/>
    <linearGradient id="linear-gradient-10" x1="442.56" y1="619.75" x2="434.07" y2="524.76" gradientUnits="userSpaceOnUse">
      <stop offset="0" stop-color="#fff" stop-opacity="0"/>
      <stop offset=".01" stop-color="#fdfdfd" stop-opacity=".04"/>
      <stop offset=".07" stop-color="#f9f9f9" stop-opacity=".24"/>
      <stop offset=".14" stop-color="#f4f4f4" stop-opacity=".42"/>
      <stop offset=".21" stop-color="#f1f1f1" stop-opacity=".58"/>
      <stop offset=".29" stop-color="#ededed" stop-opacity=".71"/>
      <stop offset=".38" stop-color="#ebebeb" stop-opacity=".82"/>
      <stop offset=".47" stop-color="#e9e9e9" stop-opacity=".9"/>
      <stop offset=".58" stop-color="#e8e8e8" stop-opacity=".96"/>
      <stop offset=".72" stop-color="#e7e7e7" stop-opacity=".99"/>
      <stop offset="1" stop-color="#e7e7e7"/>
    </linearGradient>
    <linearGradient id="linear-gradient-11" x1="269.39" y1="638.24" x2="271.59" y2="503.82" xlink:href="#linear-gradient-8"/>
    <linearGradient id="linear-gradient-12" x1="422.12" y1="504.64" x2="414.63" y2="270.43" xlink:href="#linear-gradient-10"/>
    <radialGradient id="radial-gradient-4" cx="132.36" cy="402.8" fx="123.52" fy="386.08" xlink:href="#radial-gradient"/>
    <radialGradient id="radial-gradient-5" cx="132.12" cy="405.52" fx="132.12" fy="398.02" r="33.42" xlink:href="#radial-gradient"/>
    <radialGradient id="radial-gradient-6" cx="132.12" cy="405.52" fx="118.33" fy="394.55" xlink:href="#radial-gradient-3"/>
  </defs>
  <g id="Bg-light">
    <g class="cls-26">
      <circle class="cls-3" cx="397.86" cy="229.57" r="74.48"/>
      <circle class="cls-19" cx="397.63" cy="232.29" r="33.42"/>
      <circle class="cls-21" cx="397.63" cy="232.29" r="17.62"/>
    </g>
    <path class="cls-4" d="M165.78,40.64C119.37,52.86,57.65,62.19-.25,48.34c-7.55-1.8-25.19-6.02-24.7-9.33,.75-5.05,43.19-3.44,117.78-4.43,82.5-1.1,128.4-4.38,128.69-1.87,.13,1.11-8.7,3.36-49.7,8.4"/>
    <path class="cls-2" d="M212.96,54.04c-46.41,12.21-108.13,21.55-166.04,7.7-7.55-1.8-25.19-6.02-24.7-9.33,.75-5.05,43.19-3.44,117.78-4.43,82.5-1.1,128.4-4.38,128.69-1.87,.13,1.11-8.7,3.36-49.7,8.4"/>
    <ellipse class="cls-15" cx="313.82" cy="652.69" rx="90.91" ry="111.65"/>
    <ellipse class="cls-7" cx="135.68" cy="564.62" rx="90.91" ry="111.65"/>
    <rect class="cls-17" x="30.19" y="379.43" width="80.08" height="292.64" rx="14.68" ry="14.68"/>
    <rect class="cls-6" x="4.15" y="443.31" width="80.08" height="292.64" rx="14.68" ry="14.68"/>
    <rect class="cls-22" x="55.13" y="333.02" width="30.21" height="49.56" rx="14.68" ry="14.68"/>
    <path class="cls-27" d="M181.25,707.74c-25.06,0-45.57-20.51-45.57-45.57v-201.5c0-25.06,20.51-45.57,45.57-45.57s45.57,20.51,45.57,45.57v201.5c0,25.06-20.51,45.57-45.57,45.57Z"/>
    <path class="cls-25" d="M505.07,681.95c-16.59,0-30.16-13.57-30.16-30.16v-133.37c0-16.59,13.57-30.16,30.16-30.16s30.16,13.57,30.16,30.16v133.37c0,16.59-13.57,30.16-30.16,30.16Z"/>
    <circle class="cls-12" cx="439.46" cy="585.1" r="47.68"/>
    <path class="cls-23" d="M15.68,706.9c20.34-30.17,57.56-31.13,64.06-31.3,34.9-.91,42.21,20.47,77.89,29.12,45.07,10.92,57.35-17.37,123.03-24.32,60.83-6.44,60.99,16.71,134.67,14.86,69.06-1.73,92.78-16,109.16,2.56,13.31,15.1,16.1,48.06,7.54,68.79-174.71,3.87-350.37-2.46-525.08,1.42-1.38-5.1-8.96-34.89,8.74-61.13Z"/>
    <path class="cls-24" d="M270.53,646.45c-13.37,0-24.31-10.94-24.31-24.31v-107.51c0-13.37,10.94-24.31,24.31-24.31s24.31,10.94,24.31,24.31v107.51c0,13.37-10.94,24.31-24.31,24.31Z"/>
    <rect class="cls-10" x="372.52" y="227.42" width="91.33" height="308.1" rx="24.93" ry="24.93"/>
    <g class="cls-13">
      <g>
        <circle class="cls-5" cx="132.36" cy="402.8" r="74.48"/>
        <circle class="cls-9" cx="132.12" cy="405.52" r="33.42"/>
        <circle class="cls-11" cx="132.12" cy="405.52" r="17.62"/>
      </g>
    </g>
  </g>
  <g id="Plants">
    <path class="cls-14" d="M359.24,308.09c9.23-31.65,24-47.24,36.46-55.63,22.33-15.03,46.03-12.85,59.37-34.13,8.4-13.41,6.51-26.27,8.41-26.18,3.47,.17,16.17,43.37-4.21,77.6-18.3,30.73-58.61,46.42-100.04,38.33Z"/>
    <path class="cls-20" d="M359.24,308.09c13.77-5.32,48.61-21.12,69.65-40.98,17.31-16.34,27.97-33.19,34.28-45.19"/>
    <path class="cls-8" d="M359.24,307.81c11.18-9.74,28.19-21.13,48.33-19.99,15.3,.87,21.53,8.37,31.76,6.66,11.28-1.88,25.7-14.66,37.5-65.46,16.3,31.14,9.16,68.65-15.28,89.39-28.5,24.19-75.1,20.93-102.32-10.6Z"/>
    <path class="cls-20" d="M363.76,307.85c8.91,4.24,26.98,11.33,50.02,9.51,13.14-1.04,37.54-2.97,53.14-22.91,15.85-20.27,11.73-45.25,10.75-50.49"/>
    <path class="cls-16" d="M364.33,309.9c-5.84-11.83-19.42-43.38-13.09-83.68,4.37-27.79,16.33-47.81,23.84-58.43,6.5,9.97,16.49,28.43,18.7,53.29,4.21,47.39-23.1,81.32-29.45,88.82Z"/>
    <path class="cls-20" d="M367.5,300.76c2.26-19.11,4.13-39.24,5.45-60.3,1.46-23.26,2.12-45.48,2.18-66.54"/>
  </g>
  <g id="Main">
    <path class="cls-1" d="M283.58,253.74l-120.25,45.09v91.54c0,75.91,51.26,146.71,120.25,163.99,68.99-17.29,120.25-88.08,120.25-163.99v-91.54l-120.25-45.09Zm-15.93,203.53l-53.21-53.21,21.19-21.19,31.87,31.87,63.73-63.73,21.19,21.19-84.78,85.08Z"/>
    <path class="cls-18" d="M276.92,237.17l-120.25,45.09v91.54c0,75.91,51.26,146.71,120.25,163.99,68.99-17.29,120.25-88.08,120.25-163.99v-91.54l-120.25-45.09Zm-15.93,203.53l-53.21-53.21,21.19-21.19,31.87,31.87,63.73-63.73,21.19,21.19-84.78,85.08Z"/>
  </g>
</svg>