<?xml version="1.0" encoding="UTF-8"?>
<svg xmlns="http://www.w3.org/2000/svg" xmlns:xlink="http://www.w3.org/1999/xlink" viewBox="0 0 553.1 766.7">
  <defs>
    <style>
      .cls-1 {
        fill: #fff;
      }

      .cls-2, .cls-3 {
        fill: #685c50;
      }

      .cls-4 {
        fill: #04bf72;
      }

      .cls-5, .cls-3, .cls-6 {
        opacity: .16;
      }

      .cls-5, .cls-7 {
        fill: #f4f2f4;
      }

      .cls-8 {
        fill: url(#linear-gradient);
      }

      .cls-8, .cls-9, .cls-10, .cls-11, .cls-12, .cls-13 {
        opacity: .33;
      }

      .cls-9 {
        fill: url(#radial-gradient);
      }

      .cls-14 {
        fill: #fafffd;
      }

      .cls-15 {
        fill: url(#radial-gradient-4);
      }

      .cls-16 {
        stroke-width: 1.01px;
      }

      .cls-16, .cls-17, .cls-18, .cls-19, .cls-20, .cls-21, .cls-22, .cls-23 {
        fill: none;
      }

      .cls-16, .cls-17, .cls-18, .cls-19, .cls-20, .cls-22, .cls-23 {
        stroke-linecap: round;
        stroke-miterlimit: 10;
      }

      .cls-16, .cls-18 {
        opacity: .3;
        stroke: #000;
      }

      .cls-24 {
        fill: #6e6f72;
      }

      .cls-17 {
        stroke-width: 7.77px;
      }

      .cls-17, .cls-19, .cls-23 {
        stroke: #e4ba97;
      }

      .cls-11 {
        fill: url(#linear-gradient-4);
      }

      .cls-25 {
        fill: #3fadd0;
      }

      .cls-26 {
        fill: #ef6470;
      }

      .cls-27 {
        opacity: .39;
      }

      .cls-28 {
        fill: url(#linear-gradient-11);
      }

      .cls-29 {
        fill: #e4ba97;
      }

      .cls-30 {
        fill: url(#linear-gradient-10);
      }

      .cls-18 {
        stroke-width: .66px;
      }

      .cls-31 {
        opacity: .15;
      }

      .cls-32 {
        fill: #52d2bc;
      }

      .cls-33 {
        fill: #5193f4;
      }

      .cls-34 {
        fill: url(#linear-gradient-7);
      }

      .cls-34, .cls-35, .cls-36 {
        opacity: .21;
      }

      .cls-37 {
        opacity: .38;
      }

      .cls-38 {
        fill: #f1f2f2;
      }

      .cls-12 {
        fill: url(#linear-gradient-3);
      }

      .cls-39 {
        fill: url(#radial-gradient-2);
      }

      .cls-19 {
        stroke-width: 8.06px;
      }

      .cls-20 {
        stroke: #249682;
      }

      .cls-13 {
        fill: url(#linear-gradient-2);
      }

      .cls-40 {
        opacity: .14;
      }

      .cls-41 {
        fill: url(#radial-gradient-3);
      }

      .cls-42 {
        fill: #999;
      }

      .cls-35 {
        fill: url(#linear-gradient-6);
      }

      .cls-22 {
        stroke: #294b7d;
      }

      .cls-43 {
        fill: url(#linear-gradient-9);
      }

      .cls-23 {
        stroke-width: 8.37px;
      }

      .cls-36 {
        fill: url(#linear-gradient-5);
      }

      .cls-44 {
        fill: #333331;
      }

      .cls-45 {
        fill: #3a9fbf;
      }

      .cls-46 {
        fill: url(#linear-gradient-8);
      }

      .cls-47 {
        fill: #56575c;
      }

      .cls-48 {
        fill: url(#linear-gradient-12);
      }

      .cls-49 {
        fill: url(#linear-gradient-13);
      }

      .cls-50 {
        fill: #58595b;
      }

      .cls-51 {
        fill: #f2f1f2;
      }
    </style>
    <linearGradient id="linear-gradient" x1="2926.33" y1="375.53" x2="3117.73" y2="375.53" gradientTransform="translate(-1960.21 -256.94) scale(.78 .86)" gradientUnits="userSpaceOnUse">
      <stop offset="0" stop-color="#fff" stop-opacity="0"/>
      <stop offset="1" stop-color="#c9c9c9"/>
    </linearGradient>
    <linearGradient id="linear-gradient-2" x1="3167.63" y1="378.75" x2="3359.04" y2="378.75" gradientTransform="translate(2560.54 -256.94) rotate(-180) scale(.74 -.86)" xlink:href="#linear-gradient"/>
    <linearGradient id="linear-gradient-3" x1="3251.93" y1="446.96" x2="3443.34" y2="446.96" gradientTransform="translate(2560.54 -256.94) rotate(-180) scale(.74 -.86)" xlink:href="#linear-gradient"/>
    <linearGradient id="linear-gradient-4" x1="2932.67" y1="438.38" x2="3124.07" y2="438.38" gradientTransform="translate(-1503.39 -256.94) scale(.63 .86)" xlink:href="#linear-gradient"/>
    <radialGradient id="radial-gradient" cx="385.01" cy="102.48" fx="376.18" fy="85.76" r="74.48" gradientUnits="userSpaceOnUse">
      <stop offset=".05" stop-color="#fff52e"/>
      <stop offset=".19" stop-color="#fff530" stop-opacity=".99"/>
      <stop offset=".31" stop-color="#fff539" stop-opacity=".95"/>
      <stop offset=".43" stop-color="#fff648" stop-opacity=".88"/>
      <stop offset=".54" stop-color="#fff75c" stop-opacity=".78"/>
      <stop offset=".65" stop-color="#fff877" stop-opacity=".65"/>
      <stop offset=".75" stop-color="#fffa97" stop-opacity=".49"/>
      <stop offset=".86" stop-color="#fffbbe" stop-opacity=".31"/>
      <stop offset=".96" stop-color="#fffde9" stop-opacity=".1"/>
      <stop offset="1" stop-color="#fff" stop-opacity="0"/>
    </radialGradient>
    <radialGradient id="radial-gradient-2" cx="384.77" cy="105.2" fx="384.77" fy="97.7" r="33.42" xlink:href="#radial-gradient"/>
    <radialGradient id="radial-gradient-3" cx="384.77" cy="105.2" fx="370.98" fy="94.24" r="17.62" gradientUnits="userSpaceOnUse">
      <stop offset="0" stop-color="#fff"/>
      <stop offset=".4" stop-color="#fff" stop-opacity=".99"/>
      <stop offset=".54" stop-color="#fff" stop-opacity=".97"/>
      <stop offset=".65" stop-color="#fff" stop-opacity=".92"/>
      <stop offset=".73" stop-color="#fff" stop-opacity=".85"/>
      <stop offset=".8" stop-color="#fff" stop-opacity=".77"/>
      <stop offset=".86" stop-color="#fff" stop-opacity=".66"/>
      <stop offset=".92" stop-color="#fff" stop-opacity=".53"/>
      <stop offset=".97" stop-color="#fff" stop-opacity=".39"/>
      <stop offset="1" stop-color="#fff" stop-opacity=".3"/>
    </radialGradient>
    <linearGradient id="linear-gradient-5" x1="195.28" y1="718.94" x2="195.28" y2="583.71" gradientUnits="userSpaceOnUse">
      <stop offset="0" stop-color="#fff" stop-opacity="0"/>
      <stop offset=".02" stop-color="#fcfdfd" stop-opacity=".06"/>
      <stop offset=".08" stop-color="#f2f7f9" stop-opacity=".26"/>
      <stop offset=".15" stop-color="#eaf1f6" stop-opacity=".43"/>
      <stop offset=".22" stop-color="#e3edf3" stop-opacity=".59"/>
      <stop offset=".29" stop-color="#dde9f0" stop-opacity=".72"/>
      <stop offset=".38" stop-color="#d8e6ee" stop-opacity=".82"/>
      <stop offset=".47" stop-color="#d4e3ec" stop-opacity=".9"/>
      <stop offset=".58" stop-color="#d2e2eb" stop-opacity=".96"/>
      <stop offset=".72" stop-color="#d0e1eb" stop-opacity=".99"/>
      <stop offset="1" stop-color="#d0e1eb"/>
    </linearGradient>
    <linearGradient id="linear-gradient-6" x1="409.79" y1="686.97" x2="409.79" y2="551.74" xlink:href="#linear-gradient-5"/>
    <linearGradient id="linear-gradient-7" x1="18.88" y1="650.25" x2="18.88" y2="515.03" xlink:href="#linear-gradient-5"/>
    <linearGradient id="linear-gradient-8" x1="267.5" y1="666.22" x2="267.5" y2="447.42" gradientUnits="userSpaceOnUse">
      <stop offset="0" stop-color="#fff" stop-opacity="0"/>
      <stop offset=".14" stop-color="#fafafa" stop-opacity=".24"/>
      <stop offset=".28" stop-color="#f5f5f5" stop-opacity=".47"/>
      <stop offset=".43" stop-color="#f1f1f1" stop-opacity=".66"/>
      <stop offset=".56" stop-color="#eee" stop-opacity=".81"/>
      <stop offset=".69" stop-color="#ececec" stop-opacity=".91"/>
      <stop offset=".81" stop-color="#ebebeb" stop-opacity=".98"/>
      <stop offset=".9" stop-color="#ebebeb"/>
    </linearGradient>
    <linearGradient id="linear-gradient-9" x1="84.31" y1="622.5" x2="83.8" y2="347.08" xlink:href="#linear-gradient-8"/>
    <linearGradient id="linear-gradient-10" x1="83.91" y1="242.97" x2="83.91" y2="337" xlink:href="#linear-gradient-8"/>
    <linearGradient id="linear-gradient-11" x1="-2.09" y1="728.09" x2="551.01" y2="728.09" xlink:href="#linear-gradient-8"/>
    <linearGradient id="linear-gradient-12" x1="476.35" y1="662.37" x2="475.84" y2="387.35" xlink:href="#linear-gradient-8"/>
    <radialGradient id="radial-gradient-4" cx="299.23" cy="239.05" fx="299.23" fy="239.05" r="110.49" gradientUnits="userSpaceOnUse">
      <stop offset="0" stop-color="#fff" stop-opacity=".7"/>
      <stop offset=".11" stop-color="#fafafa" stop-opacity=".76"/>
      <stop offset=".41" stop-color="#f2f2f2" stop-opacity=".89"/>
      <stop offset=".68" stop-color="#ececec" stop-opacity=".97"/>
      <stop offset=".9" stop-color="#ebebeb"/>
    </radialGradient>
    <linearGradient id="linear-gradient-13" x1="276.27" y1="823.01" x2="276.3" y2="562.31" xlink:href="#linear-gradient-8"/>
  </defs>
  <g id="Bg-light">
    <path class="cls-8" d="M459.05,97.9h-125.29c-7.96-5.38-10.96-16.16-7.65-24.07,3.95-9.48,16.56-13.95,26.35-6.88-.62-3.78-1.23-10.86,1.88-17.88,6.64-15,27.57-23.69,41.41-13.76,11.83,8.5,11.93,25.92,11.92,27.51,1.9-3.74,5.19-8.87,10.67-12.38,19.41-12.45,54.22,3,55.84,22.01,.87,10.19-7.94,19.57-15.13,25.45Z"/>
    <path class="cls-13" d="M93.03,100.66h118.56c7.53-5.38,10.37-16.16,7.24-24.07-3.74-9.48-15.67-13.95-24.94-6.88,.59-3.78,1.16-10.86-1.78-17.88-6.29-15-26.09-23.69-39.18-13.76-11.2,8.5-11.29,25.92-11.28,27.51-1.8-3.74-4.91-8.87-10.09-12.38-18.36-12.45-51.3,3-52.84,22.01-.83,10.19,7.52,19.57,14.31,25.45Z"/>
    <path class="cls-12" d="M30.75,159.04h118.56c7.53-5.38,10.37-16.16,7.24-24.07-3.74-9.48-15.67-13.95-24.94-6.88,.59-3.78,1.16-10.86-1.78-17.88-6.29-15-26.09-23.69-39.18-13.76-11.2,8.5-11.29,25.92-11.28,27.51-1.8-3.74-4.91-8.87-10.09-12.38-18.36-12.45-51.3,3-52.84,22.01-.83,10.19,7.52,19.57,14.31,25.45Z"/>
    <path class="cls-11" d="M457.9,151.7h-101.37c-6.44-5.38-8.86-16.16-6.19-24.07,3.2-9.48,13.4-13.95,21.32-6.88-.5-3.78-.99-10.86,1.52-17.88,5.38-15,22.3-23.69,33.5-13.76,9.57,8.5,9.65,25.92,9.64,27.51,1.54-3.74,4.2-8.87,8.63-12.38,15.7-12.45,43.86,3,45.18,22.01,.71,10.19-6.43,19.57-12.24,25.45Z"/>
    <g class="cls-10">
      <g>
        <circle class="cls-9" cx="385.01" cy="102.48" r="74.48"/>
        <circle class="cls-39" cx="384.77" cy="105.2" r="33.42"/>
        <circle class="cls-41" cx="384.77" cy="105.2" r="17.62"/>
      </g>
    </g>
    <rect class="cls-36" x="171.18" y="561.86" width="48.2" height="185.16"/>
    <rect class="cls-35" x="380.98" y="529.89" width="57.63" height="185.16"/>
    <rect class="cls-34" x="-11.35" y="493.18" width="60.46" height="185.16"/>
    <rect class="cls-46" x="199.39" y="412.06" width="136.21" height="299.6"/>
    <g class="cls-37">
      <g>
        <rect class="cls-1" x="214.93" y="427.38" width="23.27" height="28.16"/>
        <rect class="cls-1" x="241.56" y="427.38" width="23.27" height="28.16"/>
        <rect class="cls-1" x="268.2" y="427.38" width="23.27" height="28.16"/>
        <rect class="cls-1" x="214.93" y="461.55" width="23.27" height="28.16"/>
        <rect class="cls-1" x="241.56" y="461.55" width="23.27" height="28.16"/>
        <rect class="cls-1" x="268.2" y="461.55" width="23.27" height="28.16"/>
        <rect class="cls-1" x="214.93" y="495.72" width="23.27" height="28.16"/>
        <rect class="cls-1" x="241.56" y="495.72" width="23.27" height="28.16"/>
        <rect class="cls-1" x="268.2" y="495.72" width="23.27" height="28.16"/>
        <rect class="cls-1" x="214.93" y="529.89" width="23.27" height="28.16"/>
        <rect class="cls-1" x="241.56" y="529.89" width="23.27" height="28.16"/>
        <rect class="cls-1" x="268.2" y="529.89" width="23.27" height="28.16"/>
        <rect class="cls-1" x="296.8" y="427.38" width="23.27" height="28.16"/>
        <rect class="cls-1" x="296.8" y="461.55" width="23.27" height="28.16"/>
        <rect class="cls-1" x="296.8" y="495.72" width="23.27" height="28.16"/>
        <rect class="cls-1" x="296.8" y="529.89" width="23.27" height="28.16"/>
      </g>
      <g>
        <rect class="cls-1" x="214.93" y="565.68" width="23.27" height="28.16"/>
        <rect class="cls-1" x="241.56" y="565.68" width="23.27" height="28.16"/>
        <rect class="cls-1" x="268.2" y="565.68" width="23.27" height="28.16"/>
        <rect class="cls-1" x="214.93" y="599.85" width="23.27" height="28.16"/>
        <rect class="cls-1" x="241.56" y="599.85" width="23.27" height="28.16"/>
        <rect class="cls-1" x="268.2" y="599.85" width="23.27" height="28.16"/>
        <rect class="cls-1" x="214.93" y="634.02" width="23.27" height="28.16"/>
        <rect class="cls-1" x="241.56" y="634.02" width="23.27" height="28.16"/>
        <rect class="cls-1" x="268.2" y="634.02" width="23.27" height="28.16"/>
        <rect class="cls-1" x="214.93" y="668.19" width="23.27" height="28.16"/>
        <rect class="cls-1" x="241.56" y="668.19" width="23.27" height="28.16"/>
        <rect class="cls-1" x="268.2" y="668.19" width="23.27" height="28.16"/>
        <rect class="cls-1" x="296.8" y="565.68" width="23.27" height="28.16"/>
        <rect class="cls-1" x="296.8" y="599.85" width="23.27" height="28.16"/>
        <rect class="cls-1" x="296.8" y="634.02" width="23.27" height="28.16"/>
        <rect class="cls-1" x="296.8" y="668.19" width="23.27" height="28.16"/>
      </g>
    </g>
    <g>
      <path class="cls-43" d="M136.49,399.67c0,23.7-15.67,43.77-37.25,50.32v172.48h-30.69v-172.48c-21.55-6.56-37.25-26.62-37.25-50.32s16.33-44.53,38.54-50.69c4.48-1.24,9.21-1.9,14.07-1.9s9.59,.66,14.07,1.92c22.21,6.13,38.52,26.51,38.52,50.66Z"/>
      <path class="cls-30" d="M97.98,349c-4.48-1.27-9.18-1.92-14.07-1.92s-9.59,.66-14.07,1.9c.23-6.47,4.84-11.83,10.95-13.19v-106.01h6.24v106.01c6.11,1.38,10.72,6.74,10.95,13.21Z"/>
    </g>
    <polygon class="cls-28" points="-2.09 689.48 94.85 689.48 110.81 712.68 169.7 712.68 217.07 734.92 323.63 734.92 351.09 719.51 389.89 719.51 413.67 703.37 551.01 703.37 551.01 766.7 -2.09 766.7 -2.09 689.48"/>
    <path class="cls-48" d="M517.3,339.6h21.73v300.22h-126.02v-195.93c0-57.56,46.73-104.29,104.29-104.29Z"/>
    <g class="cls-37">
      <g>
        <rect class="cls-1" x="441.19" y="417.25" width="19.71" height="22.26"/>
        <rect class="cls-1" x="463.75" y="417.25" width="19.71" height="22.26"/>
        <rect class="cls-1" x="486.31" y="417.25" width="19.71" height="22.26"/>
        <rect class="cls-1" x="441.19" y="444.27" width="19.71" height="22.26"/>
        <rect class="cls-1" x="463.75" y="444.27" width="19.71" height="22.26"/>
        <rect class="cls-1" x="486.31" y="444.27" width="19.71" height="22.26"/>
        <rect class="cls-1" x="441.19" y="471.28" width="19.71" height="22.26"/>
        <rect class="cls-1" x="463.75" y="471.28" width="19.71" height="22.26"/>
        <rect class="cls-1" x="486.31" y="471.28" width="19.71" height="22.26"/>
        <rect class="cls-1" x="441.19" y="498.3" width="19.71" height="22.26"/>
        <rect class="cls-1" x="463.75" y="498.3" width="19.71" height="22.26"/>
        <rect class="cls-1" x="486.31" y="498.3" width="19.71" height="22.26"/>
        <rect class="cls-1" x="510.53" y="417.25" width="19.71" height="22.26"/>
        <rect class="cls-1" x="510.53" y="444.27" width="19.71" height="22.26"/>
        <rect class="cls-1" x="510.53" y="471.28" width="19.71" height="22.26"/>
        <rect class="cls-1" x="510.53" y="498.3" width="19.71" height="22.26"/>
      </g>
      <g>
        <rect class="cls-1" x="441.19" y="526.59" width="19.71" height="22.26"/>
        <rect class="cls-1" x="463.75" y="526.59" width="19.71" height="22.26"/>
        <rect class="cls-1" x="486.31" y="526.59" width="19.71" height="22.26"/>
        <rect class="cls-1" x="441.19" y="553.6" width="19.71" height="22.26"/>
        <rect class="cls-1" x="463.75" y="553.6" width="19.71" height="22.26"/>
        <rect class="cls-1" x="486.31" y="553.6" width="19.71" height="22.26"/>
        <rect class="cls-1" x="441.19" y="580.61" width="19.71" height="22.26"/>
        <rect class="cls-1" x="463.75" y="580.61" width="19.71" height="22.26"/>
        <rect class="cls-1" x="486.31" y="580.61" width="19.71" height="22.26"/>
        <rect class="cls-1" x="441.19" y="607.63" width="19.71" height="22.26"/>
        <rect class="cls-1" x="463.75" y="607.63" width="19.71" height="22.26"/>
        <rect class="cls-1" x="486.31" y="607.63" width="19.71" height="22.26"/>
        <rect class="cls-1" x="510.53" y="526.59" width="19.71" height="22.26"/>
        <rect class="cls-1" x="510.53" y="553.6" width="19.71" height="22.26"/>
        <rect class="cls-1" x="510.53" y="580.61" width="19.71" height="22.26"/>
        <rect class="cls-1" x="510.53" y="607.63" width="19.71" height="22.26"/>
      </g>
    </g>
  </g>
  <g id="Plants">
    <path class="cls-32" d="M75.34,531.31c-11.75-2.8-11.35-15.2-23.8-19.44-10.93-3.72-16.2,4.17-23.98,.04-10.67-5.66-16.09-28.66-5.22-42.02,5.44-6.69,16.2-12.47,23.53-9.03,9.29,4.36,3.23,18.91,14.57,29.52,8.92,8.35,16.94,3.34,27.02,13.3,1.25,1.23,11.79,11.88,8.2,20.2-2.72,6.3-12.67,9.25-20.33,7.42Z"/>
    <g>
      <line class="cls-20" x1="20.74" y1="474.31" x2="92.3" y2="526.53"/>
      <line class="cls-20" x1="39.29" y1="475.76" x2="41.81" y2="489.68"/>
      <line class="cls-20" x1="77.93" y1="503.96" x2="80.45" y2="517.88"/>
      <line class="cls-20" x1="57.79" y1="501.34" x2="44.53" y2="503.76"/>
    </g>
    <path class="cls-33" d="M98.57,528.4c4.5-.92,6.68-6.08,4.51-10.13-11.4-21.31-10.56-34.41-6.77-42.76,4.66-10.27,13.87-13.53,13.94-23.3,.08-10.03-9.51-21.02-19.02-21.84-14.17-1.22-28.02,20.14-30.29,38.4-3.77,30.3,23.06,62.44,37.54,59.65,.03,0,.06-.01,.1-.02Z"/>
    <path class="cls-22" d="M94.22,439.96c.87-.02,2.05,.09,2.62,.87,3.05,4.2-18.75,18.46-22.59,35.24-2.26,9.88,.81,24.61,22.78,46.39"/>
    <path class="cls-15" d="M202.64,203.02v47.45c0,7.89-2.47,14.12-7.4,18.71-4.93,4.59-11.67,6.88-20.21,6.88s-15.09-2.23-20.04-6.68c-4.95-4.45-7.47-10.57-7.57-18.36v-48h14.85v47.55c0,4.72,1.13,8.16,3.39,10.32,2.26,2.16,5.39,3.24,9.38,3.24,8.35,0,12.58-4.39,12.72-13.16v-47.95h14.89Zm49.53,53.15c0-2.8-.99-4.96-2.97-6.46s-5.54-3.09-10.69-4.75c-5.15-1.66-9.22-3.31-12.22-4.92-8.18-4.42-12.27-10.37-12.27-17.86,0-3.89,1.1-7.36,3.29-10.42,2.19-3.05,5.34-5.43,9.45-7.15,4.11-1.71,8.72-2.57,13.83-2.57s9.73,.93,13.76,2.8c4.02,1.86,7.15,4.5,9.38,7.89,2.23,3.4,3.34,7.26,3.34,11.58h-14.85c0-3.3-1.04-5.86-3.12-7.69-2.08-1.83-5-2.75-8.76-2.75s-6.45,.77-8.46,2.3c-2.01,1.53-3.02,3.56-3.02,6.06,0,2.34,1.18,4.31,3.54,5.89,2.36,1.58,5.83,3.07,10.42,4.45,8.45,2.54,14.6,5.69,18.46,9.45s5.79,8.45,5.79,14.05c0,6.23-2.36,11.12-7.08,14.67-4.72,3.55-11.07,5.32-19.05,5.32-5.54,0-10.59-1.01-15.14-3.04-4.55-2.03-8.02-4.81-10.42-8.34-2.39-3.53-3.59-7.62-3.59-12.27h14.89c0,7.95,4.75,11.93,14.25,11.93,3.53,0,6.28-.72,8.26-2.15s2.97-3.44,2.97-6.01Zm68.29-12.32h-28.5v19.3h33.45v11.93h-48.3v-72.05h48.2v12.02h-33.35v17.17h28.5v11.63Zm40.33,4.85h-11.83v26.37h-14.85v-72.05h26.77c8.51,0,15.08,1.9,19.69,5.69,4.62,3.79,6.93,9.15,6.93,16.08,0,4.92-1.06,9.01-3.19,12.3s-5.35,5.9-9.67,7.84l15.59,29.44v.69h-15.93l-13.51-26.37Zm-11.83-12.02h11.97c3.73,0,6.61-.95,8.66-2.85,2.04-1.9,3.07-4.51,3.07-7.84s-.96-6.07-2.89-8.02c-1.93-1.95-4.89-2.92-8.88-2.92h-11.93v21.62Zm87.19,19.5c0-2.8-.99-4.96-2.97-6.46s-5.54-3.09-10.69-4.75c-5.15-1.66-9.22-3.31-12.22-4.92-8.18-4.42-12.27-10.37-12.27-17.86,0-3.89,1.1-7.36,3.29-10.42,2.19-3.05,5.34-5.43,9.45-7.15,4.11-1.71,8.72-2.57,13.83-2.57s9.73,.93,13.76,2.8c4.02,1.86,7.15,4.5,9.38,7.89,2.23,3.4,3.34,7.26,3.34,11.58h-14.85c0-3.3-1.04-5.86-3.12-7.69-2.08-1.83-5-2.75-8.76-2.75s-6.45,.77-8.46,2.3c-2.01,1.53-3.02,3.56-3.02,6.06,0,2.34,1.18,4.31,3.54,5.89,2.36,1.58,5.83,3.07,10.42,4.45,8.45,2.54,14.6,5.69,18.46,9.45,3.86,3.76,5.79,8.45,5.79,14.05,0,6.23-2.36,11.12-7.08,14.67-4.72,3.55-11.07,5.32-19.05,5.32-5.54,0-10.59-1.01-15.14-3.04-4.55-2.03-8.02-4.81-10.42-8.34-2.39-3.53-3.59-7.62-3.59-12.27h14.89c0,7.95,4.75,11.93,14.25,11.93,3.53,0,6.28-.72,8.26-2.15s2.97-3.44,2.97-6.01Z"/>
  </g>
  <g id="Main">
    <g>
      <path class="cls-51" d="M216.37,439.06s-.01,.03-.01,.04c-.24,.93-.44,1.88-.7,2.88-.68,2.98-1.33,6.22-1.91,9.7-.43,2.52-.82,5.17-1.15,7.93-1.83,15.24-.92,25.64-.35,41.23,.12,3.23,.23,6.85,.3,10.85,.08,4.03,.14,8.45,.15,13.23h-74.71c.06-1.65,.12-3.26,.17-4.85,.81-22.54,.61-39.86-.22-49.79-.22-2.71-.5-5.33-.79-7.72-.79-6.65-1.68-11.49-1.68-11.49-.61-3.28-1.26-6.33-1.93-9.09-.17-.69-.33-1.36-.5-2.01,.27-.59,.55-1.19,.89-1.83,.11-.2,.21-.4,.35-.62,.21-.4,.47-.82,.73-1.25,.24-.39,.51-.81,.81-1.22,.09-.13,.18-.26,.28-.39,.17-.23,.35-.49,.55-.72,.19-.25,.39-.49,.59-.72,.19-.23,.39-.47,.62-.72,.22-.25,.44-.49,.67-.72,.24-.24,.47-.47,.7-.7,.19-.17,.37-.36,.56-.51,7.25-6.49,15.75-6.58,22.24-9.06,.98,4.61,6.38,8.14,12.89,8.14s11.92-3.55,12.91-8.17c5.86,2.24,13.33,2.55,20.05,7.35h.01s.07,.05,.11,.08c.45,.33,.91,.69,1.35,1.06,.2,.15,.39,.32,.59,.5,.21,.19,.45,.39,.67,.61,.25,.23,.48,.46,.7,.7,.23,.23,.45,.47,.67,.72,.44,.47,.84,.95,1.21,1.44,.15,.18,.28,.37,.41,.55,.17,.22,.32,.42,.46,.62,.23,.34,.45,.66,.67,.99,.42,.69,.82,1.36,1.15,2.01,.15,.28,.3,.57,.44,.85l.05,.1Z"/>
      <path class="cls-29" d="M187.84,421.48c-.99,4.62-6.38,8.17-12.91,8.17s-11.91-3.53-12.89-8.14c1.12-.42,2.18-.92,3.15-1.54,1.37-.85,2.61-1.96,3.63-3.42,1.81-2.58,3.55-7.05,2.16-15.09h7.89c-1.44,8.04,.32,12.49,2.18,15.09,1.06,1.46,2.29,2.56,3.7,3.42,.97,.6,2.01,1.09,3.1,1.51Z"/>
      <path class="cls-4" d="M187.84,421.48c-.99,4.62-6.38,8.17-12.91,8.17s-11.91-3.53-12.89-8.14c1.12-.42,2.18-.92,3.15-1.54h.2c0,3.92,4.27,7.08,9.55,7.08s9.56-3.17,9.56-7.08h.25c.97,.6,2.01,1.09,3.1,1.51Z"/>
      <path class="cls-29" d="M197.83,356.7l-1.04,11.93s0,.03,0,.05l-1.13,7.24-.76,4.82c-.59,3.72-1.68,7.34-3.25,10.76l-3.54,7.73c-2.38,5.2-7.58,8.53-13.3,8.53h0c-5.68,0-10.87-3.26-13.33-8.38l-3.36-6.99c-1.92-4.01-3.25-8.28-3.94-12.67l-.75-4.8-1.5-9.64-.02-.06c-.38-1.52-.63-3.12-.69-4.76l-.2-3.57c-.32-5.81,2.2-11.48,6.88-14.94,18.16-13.41,37.83-2.14,39.91,14.55,0,.06,0,.12,0,.18Z"/>
      <g>
        <path class="cls-38" d="M162.87,370.21c0-1.31,1.06-2.37,2.37-2.37s2.37,1.06,2.37,2.37-1.06,2.37-2.37,2.37-2.37-1.06-2.37-2.37Z"/>
        <path class="cls-38" d="M181.23,370.3c0-1.31,1.06-2.37,2.37-2.37s2.37,1.06,2.37,2.37-1.06,2.37-2.37,2.37-2.37-1.06-2.37-2.37Z"/>
        <path class="cls-50" d="M163.89,370.3c0-.75,.6-1.35,1.35-1.35s1.35,.6,1.35,1.35-.6,1.35-1.35,1.35-1.35-.6-1.35-1.35Z"/>
        <path class="cls-50" d="M182.25,370.36c0-.75,.6-1.35,1.35-1.35s1.35,.6,1.35,1.35-.6,1.35-1.35,1.35-1.35-.6-1.35-1.35Z"/>
      </g>
      <path class="cls-44" d="M199.36,348.57s-.02,.04-.02,.08l-1.1,12.37v.04l-.1,.65-1.1,6.86-.81,4.98c-.23,1.36-.5,2.69-.87,4.03h-.75v-17.84c0-4.51-3.84-8.2-8.54-8.2h-23.1c-4.71,0-8.54,3.68-8.54,8.2v17.84h-.27c-.46-1.68-.83-3.36-1.1-5.08l-.79-4.96-1.6-9.98-.02-.06c-.04-.14-.08-.3-.1-.45-.35-1.44-.56-2.96-.62-4.49l-.21-3.68c-.33-6.01,2.32-11.88,7.3-15.47,.93-.67,1.84-1.28,2.78-1.82,10.59-6.3,21.4-5.2,29.05,0,5.66,3.83,9.6,9.9,10.49,16.89,0,.02,.02,.06,.02,.1Z"/>
      <path class="cls-3" d="M185.77,351.41c2.37,0,4.54,.95,6.09,2.47-1.42-1.01-3.16-1.6-5.04-1.6h-23.1c-4.7,0-8.54,3.68-8.54,8.2v17.84h-.26c-.32-1.13-.59-2.27-.79-3.42v-15.29c0-4.51,3.83-8.2,8.54-8.2h23.1Z"/>
      <g class="cls-40">
        <path d="M173.86,368.41c.14,4.52,.69,9.05,.38,13.57-1.14-.13-2.46-.13-3.51-.52,.97-.31,2.07-.36,3.08-.47,0,0-.48,.48-.48,.48-.2-2.18,.05-4.35,.11-6.53,.08-2.18,.2-4.35,.32-6.53,0-.06,.11-.07,.11,0h0Z"/>
      </g>
      <path class="cls-2" d="M162.03,363.64c1.67-1.72,5.29-2.36,6.75,0,.03,.04-.01,.09-.06,.08-1.23-.18-2.15-.57-3.33-.78-1.13-.11-2.32,.18-3.3,.77-.05,.04-.11-.03-.07-.08h0Z"/>
      <path class="cls-2" d="M180.05,363.64c1.41-2.48,5-1.61,6.75,0,.05,.04,0,.11-.06,.08-1.54-.85-3.3-1.01-4.92-.41,0,0-1.7,.41-1.7,.41-.04,.02-.09-.03-.07-.08h0Z"/>
      <path class="cls-16" d="M178.54,390.49c-1.58,1.24-3.79,1.79-6.02,1.31h0c-2.35-.51-4.19-2.06-5.06-3.99"/>
      <path class="cls-23" d="M227.11,524.92c3.07-15.88,4.1-34.92-.34-55.56-1.2-5.59-2.7-10.81-4.39-15.66-1.84-5.32-3.9-10.19-6.02-14.6l-.48-.99"/>
      <path class="cls-4" d="M216.36,426.09h.26c4.33,0,7.84,3.51,7.84,7.84v20.95h-15.95v-20.95c0-4.33,3.51-7.84,7.84-7.84Z" transform="translate(-191.24 167.26) rotate(-30)"/>
      <path class="cls-23" d="M137.85,528.3c-.89-1.09-1.73-2.22-2.52-3.38-9.85-14.42-12.74-33.73-10.87-48.65,.69-5.46,2-10.28,3.5-14.37,1.27-3.48,2.67-6.44,3.93-8.79"/>
      <path class="cls-4" d="M134.13,434.54h.26c4.33,0,7.84,3.51,7.84,7.84v20.95h-15.95v-20.95c0-4.33,3.51-7.84,7.84-7.84Z" transform="translate(185.12 -16.88) rotate(22.88)"/>
    </g>
    <g>
      <path class="cls-44" d="M437.82,418.08c1.73,1.95,2.77,4.54,2.77,7.35,0,6.18-5.03,11.21-11.23,11.21-1.5,0-2.94-.29-4.25-.84-3.23,4.07-8.24,6.68-13.86,6.68s-10.6-2.59-13.86-6.65c-1.27,.53-2.67,.8-4.13,.8-6.2,0-11.23-5.03-11.23-11.21,0-2.81,1.01-5.38,2.75-7.33-4.64-1.34-8.05-5.65-8.05-10.76,0-3.96,2.07-7.44,5.16-9.45,.02-.19,.06-.41,.1-.6,.53-3.39,1.31-6.61,2.36-9.65,3.25-9.72,8.95-17.42,15.88-21.46,.33-.19,.66-.37,.97-.55,.25-.12,.53-.27,.78-.37,.41-.21,.84-.39,1.25-.57,.41-.16,.78-.29,1.17-.43,.37-.14,.76-.27,1.13-.37,.41-.1,.8-.19,1.19-.29,.45-.1,.9-.18,1.36-.25,1.01-.16,2.05-.23,3.1-.23,.47,0,.94,.02,1.38,.04,.45,.04,.9,.08,1.31,.14h.1c.88,.12,1.72,.29,2.55,.49,.57,.16,1.13,.35,1.72,.55,.23,.08,.49,.16,.7,.25,0,0,0,.02,.04,.02,4.46,1.73,8.56,4.93,11.97,9.22-.02,.02-.02,.04-.02,.06t.04-.04l.29,.41c2.48,3.22,4.58,7,6.24,11.24,1.48,3.84,2.57,8.03,3.22,12.47,3.04,2.01,5.05,5.46,5.05,9.37,0,5.05-3.35,9.33-7.95,10.74Z"/>
      <path class="cls-29" d="M428.01,456.31c-1.13,8.93-8.75,15.83-17.99,15.83s-16.65-6.72-17.94-15.47l6.08-3.3,.34-.19c.95-.37,1.85-.81,2.68-1.34,.29-.18,.58-.39,.87-.6l.03-.02c.97-.73,1.84-1.6,2.6-2.68,1.58-2.26,3.11-6,2.37-12.44,.97-.16,1.97-.24,2.98-.24,1.37,0,2.71,.15,4,.45-.71,6.32,.82,9.99,2.42,12.23,.76,1.03,1.6,1.89,2.55,2.61l.05,.03c.31,.23,.63,.44,.97,.65,.61,.39,1.26,.71,1.92,1l1.03,.58,5.06,2.9Z"/>
      <path class="cls-29" d="M406.75,434.02h7.59c-.15,.81-.26,1.56-.32,2.29-1.29-.31-2.63-.45-4-.45-1.02,0-2.01,.08-2.98,.24-.06-.66-.16-1.35-.29-2.08Z"/>
      <path class="cls-31" d="M406.27,445.78c.98-2.6,1.5-6.3,.58-11.65h7.58c-1.39,7.74,.31,12.04,2.1,14.52,.61,.85,1.31,1.58,2.05,2.21l-12.3-5.08Z"/>
      <ellipse class="cls-29" cx="410.57" cy="402.8" rx="23.69" ry="34.62"/>
      <path class="cls-2" d="M401.85,370.6c-7.44,4.33-13.06,14.01-14.56,25.8h-.08c.08-.72,.19-1.44,.31-2.16,1.89-10.85,7.29-19.64,14.32-23.64Z"/>
      <g class="cls-40">
        <path d="M411.76,406.96c.13,2.45,.35,5.01,.35,7.47-1.11-.02-2.21-.09-3.32-.37-.04,0-.04-.07,0-.08,.98-.24,1.95-.34,2.93-.36l-.4,.4c-.02-.59,.04-1.18,.07-1.76,.08-1.71,.18-3.59,.29-5.29,0-.04,.08-.05,.08,0h0Z"/>
      </g>
      <g>
        <path class="cls-38" d="M399.43,402.71c0-1.26,1.02-2.28,2.29-2.28s2.28,1.02,2.28,2.28-1.02,2.29-2.28,2.29-2.29-1.02-2.29-2.29Z"/>
        <path class="cls-38" d="M417.14,402.8c0-1.26,1.02-2.28,2.29-2.28s2.28,1.02,2.28,2.28-1.02,2.29-2.28,2.29-2.29-1.02-2.29-2.29Z"/>
        <path class="cls-50" d="M400.41,402.8c0-.72,.58-1.3,1.3-1.3s1.3,.58,1.3,1.3-.58,1.3-1.3,1.3-1.3-.58-1.3-1.3Z"/>
        <path class="cls-50" d="M418.12,402.85c0-.72,.58-1.3,1.3-1.3s1.3,.58,1.3,1.3-.58,1.3-1.3,1.3-1.3-.58-1.3-1.3Z"/>
      </g>
      <path class="cls-44" d="M434.65,401.92c0,1.48-.06,2.92-.2,4.35-.29-3.51-.96-6.86-1.94-9.98-2.57-.6-6.05-1.52-9.47-3.35-.3-.16-.59-.33-.9-.51-1.75-1.01-3.48-2.3-5.03-3.92-.35-.37-.67-.74-.92-1.13-2.73,2.14-5.86,4-9.41,5.34-1.57,.58-3.11,1.03-4.62,1.36-4.54,1.62-9.39,1.79-12.95,1.6-1.08,3.27-1.81,6.84-2.12,10.58-.14-1.42-.2-2.86-.2-4.35,0-2.18,.14-4.33,.41-6.41,.06-.45,.12-.88,.2-1.31,.41-2.67,1.04-5.2,1.87-7.6,2.59-7.66,7.11-13.72,12.62-16.9,.27-.16,.53-.29,.79-.43,.2-.1,.41-.21,.61-.29,.33-.18,.67-.31,1-.45,.31-.12,.61-.23,.92-.33,.29-.12,.61-.21,.9-.29,.31-.08,.63-.16,.94-.23,.35-.08,.71-.14,1.08-.19,.81-.14,1.63-.19,2.46-.19,.37,0,.75,.02,1.1,.04s.71,.06,1.04,.1h.08c.69,.1,1.36,.23,2.02,.39,.45,.12,.9,.27,1.36,.43,.2,.06,.39,.12,.57,.19,0,0,0,.02,.02,.02,3.56,1.36,6.8,3.88,9.51,7.27-.1,.19-.22,.37-.33,.55l.59-.21c1.97,2.53,3.64,5.52,4.95,8.87,1.95,5.01,3.07,10.8,3.07,16.99Z"/>
      <path class="cls-2" d="M427.45,381.58l-.58,.21c.12-.18,.23-.35,.33-.55,.1,.1,.18,.21,.25,.33Z"/>
      <path class="cls-2" d="M398.62,399.56c1.6-1.66,5.1-2.27,6.5,0,.02,.04-.01,.09-.06,.08-1.19-.17-2.07-.55-3.2-.75-1.09-.11-2.23,.17-3.18,.74-.05,.04-.11-.03-.06-.07h0Z"/>
      <path class="cls-2" d="M415.97,399.56c1.36-2.39,4.81-1.55,6.5,0,.04,.04,0,.11-.06,.08-1.48-.82-3.18-.97-4.74-.4,0,0-1.64,.4-1.64,.4-.04,.02-.09-.03-.06-.07h0Z"/>
      <path class="cls-18" d="M413.88,422.8c-.81,1.04-2.1,1.72-3.55,1.73h0c-1.53,0-2.89-.73-3.7-1.85"/>
      <path class="cls-19" d="M449.42,524.92c2.2-7.74,2.65-16.64,.43-26.97-1.09-5.07-2.43-9.83-3.94-14.27-.95-2.81-1.97-5.49-3.02-8.04-.89-2.14-1.81-4.19-2.73-6.15-.27-.55-.53-1.09-.79-1.62"/>
      <path class="cls-19" d="M377.46,474.39c-.8,1.28-1.92,3.24-2.95,5.77-.2,.5-.39,.99-.56,1.48-3.26,9.1-2.28,17.84-.56,26.55,1.12,5.73,2.56,11.38,4.11,16.73"/>
      <path class="cls-29" d="M398.87,454.26c.13-.05,.24-.1,.35-.15l-.34,.19s-.02-.03-.02-.05Z"/>
      <path class="cls-26" d="M446.98,463.76c1.55,6.23,3.86,13.75,5.41,19.98-4.39-.04-8.77-.08-13.16-.12-1.59-3.12-3.17-6.23-4.76-9.35l12.51-10.52Z"/>
      <path class="cls-26" d="M376.66,462.94c-3.4,5.45-6.79,10.9-10.19,16.34,4.18,1.32,8.37,2.64,12.55,3.95,2.47-2.47,4.94-4.95,7.41-7.42l-9.78-12.88Z"/>
      <path class="cls-29" d="M398.87,454.26c.13-.05,.24-.1,.35-.15l-.34,.19s-.02-.03-.02-.05Z"/>
      <path class="cls-26" d="M447.57,463.64c-.13,.3-.26,.6-.39,.91-1.32,3.1-2.79,6.82-4.29,11.09-.87,2.48-1.75,5.15-2.61,7.99-.46,1.52-.92,3.08-1.36,4.7-2.89,10.53-5.61,20.5-5.65,32.09,0,1.32,.03,2.82,.14,4.5h-48.29c.79-5.04,1.48-10.53,1.6-15.78,.14-6.18-.41-16.2-4.85-28.77-1.64-4.68-3.83-9.71-6.72-15.03-.36-.67-.74-1.35-1.13-2.04,7.17-3.24,14.35-6.48,21.52-9.71,.06,.35,.13,.71,.21,1.08,.37,1.77,1,3.82,2.08,5.97,3.42,6.76,9.14,10.14,11.85,11.49,.11,.06,.22,.11,.32,.16,.15-.05,.31-.11,.46-.16,1.38-.5,2.84-1.19,4.31-2.14,7.12-4.65,9.31-12.48,9.97-15.55,.03-.11,.05-.22,.07-.32,2.66,1.11,5.32,2.23,7.98,3.34,4.93,2.06,9.85,4.11,14.78,6.18Z"/>
      <line class="cls-21" x1="432.13" y1="458.65" x2="432.92" y2="457.25"/>
      <path class="cls-47" d="M434.22,531.01v3.64s-.04,0-.07,0c-.02,0-.04,.01-.07,.01v-3.32c-.02-.11-.03-.21-.05-.32,.07,0,.13,0,.19-.02Z"/>
      <path class="cls-24" d="M434.15,534.66s-.04,.01-.07,.01v-.05s.04,0,.06-.01c0,.02,.01,.03,.01,.05Z"/>
    </g>
    <g>
      <path class="cls-42" d="M313.66,426.68c-.03,.07-.07,.13-.12,.2-.22,.39-.47,.77-.77,1.14-.34,.42-.7,.8-1.11,1.19-.99,.89-2.18,1.64-3.52,2.23-.02,.02-.03,.02-.05,.02-1.11,.49-2.33,.84-3.63,1.07l-.3,.05c-.13,.02-.27,.05-.4,.05-.05,.02-.12,.02-.17,.02h-4.15c-.05,0-.12,0-.17-.02-.1-.02-.2-.02-.3-.05-.13,0-.27-.03-.39-.07-.18-.03-.35-.07-.52-.1h-.02c-2.45-.49-4.59-1.49-6.23-2.86-.54-.42-1-.89-1.42-1.39-.23-.28-.45-.59-.64-.89-.03-.02-.03-.03-.03-.05l5.43-3.78h.02s.05-.02,.1-.03h.02s.03-.02,.05-.02c.59-.15,1.29-.3,2.08-.42,.03-.02,.07-.02,.1-.03,1.66-.25,3.68-.42,5.98-.23,1.11,.08,2.14,.23,3.11,.44,.72,.15,1.42,.32,2.08,.52,.18,.05,.35,.1,.52,.15,.23,.07,.45,.15,.67,.23l3.78,2.65Z"/>
      <path class="cls-29" d="M314.9,430.8c-.99,4.62-6.38,8.17-12.91,8.17s-11.91-3.53-12.89-8.14c1.12-.42,2.18-.92,3.15-1.54,1.37-.85,2.61-1.96,3.63-3.42,1.81-2.58,3.55-7.05,2.16-15.09h7.89c-.02,.08-.03,.17-.03,.25-.8,4.64-.54,8.05,.2,10.62,.05,.2,.12,.4,.18,.59,.08,.27,.18,.54,.28,.77,.02,.07,.05,.15,.08,.22,.05,.13,.1,.25,.15,.37,.42,.92,.89,1.69,1.36,2.34,.25,.33,.5,.65,.77,.95,.25,.28,.52,.55,.79,.8,.03,.03,.08,.07,.12,.1,.07,.07,.15,.13,.23,.2,.55,.5,1.12,.92,1.74,1.29,.97,.6,2.01,1.09,3.1,1.51Z"/>
      <path class="cls-17" d="M241.2,524.92c-1.38-14.84,.3-31.43,8.6-47.75,.67-1.33,1.38-2.62,2.11-3.89,1.64-2.85,3.43-5.56,5.32-8.14"/>
      <path class="cls-17" d="M354.66,524.92c.44-13.12-.57-27.41-3.94-42.49-.62-2.78-1.31-5.5-2.05-8.15-1.46-5.33-3.14-10.38-4.94-15.16"/>
      <path class="cls-7" d="M359.35,469.67c-6.9,2.99-13.8,5.95-20.71,8.94-.13,.05-.28,.12-.41,.17-1.38-3.56-7.52-19.73-8.89-23.29l10.45-17.54c1.07,.4,2.15,.78,3.21,1.17,.14,.29,.3,.57,.45,.86,5.31,9.91,10.6,19.78,15.9,29.69Z"/>
      <path class="cls-7" d="M273.56,455.5c-1.37,3.56-7.51,19.73-8.89,23.29-.05-.03-.12-.05-.17-.08-6.98-3.02-13.96-6.02-20.94-9.04,5.16-9.65,10.33-19.3,15.49-28.95,.29-.53,.58-1.07,.86-1.59,1.08-.4,2.15-.78,3.23-1.17l10.43,17.54Z"/>
      <path class="cls-25" d="M344.35,440.41c-.1,.25-.19,.47-.28,.72h-.01c-1.07,2.81-2.14,5.62-3.19,8.42-1.03,9.16-1.81,18.86-2.28,29.07h0c-.15,3.46-.27,6.97-.35,10.54v.36c-.27,12.44-.03,24.26,.59,35.4h-35.17c0,.95-.77,1.72-1.72,1.72s-1.72-.77-1.72-1.72h-35.19c.58-10.86,.76-22.43,.39-34.61,0-.22-.01-.45-.01-.67-.12-3.87-.3-7.67-.52-11.39v-.06c-.59-10.01-1.51-19.46-2.67-28.36-1.22-2.74-2.42-5.5-3.63-8.25h0c-.03-.09-.07-.15-.1-.24,.32-.75,.49-1.15,.8-1.92,.19-.07,.37-.14,.56-.2,1.12-.4,2.21-.81,3.31-1.21,.17-.07,.34-.12,.5-.18,8.13-2.93,16.22-5.88,24.33-8.81h0c.05-.02,.1-.03,.15-.05,.03-.02,.05-.02,.08-.03,.4-.16,.81-.29,1.21-.44,.25-.08,.48-.18,.73-.27,.07-.03,.15-.05,.22-.08,.77-.27,1.55-.51,2.33-.72,.79-.22,1.57-.41,2.36-.56h.01c.67-.15,1.35-.26,2.03-.36l3.47,6.13,.2,.35,.3,.53v.02l.39,1.98h1.19l.4-1.98v-.02l.32-.55,.18-.33h.01l3.3-5.82,.12-.21c.49,.06,.96,.15,1.44,.25,.18,.03,.36,.07,.54,.11h.01c.27,.06,.52,.12,.78,.19,.53,.12,1.05,.25,1.59,.42,.47,.13,.94,.28,1.4,.44,.24,.07,.49,.16,.73,.25,.36,.13,.73,.26,1.1,.4,.39,.15,.79,.28,1.17,.43h.01s.11,.04,.16,.05c.03,.02,.05,.04,.08,.04,7.91,2.89,15.8,5.76,23.68,8.64,1.39,.52,2.8,1.02,4.19,1.54,.18,.4,.28,.63,.47,1.04Z"/>
      <polygon class="cls-45" points="332.48 463.23 314.79 463.23 314.79 480.21 317.94 482.78 329.74 482.77 332.48 480.42 332.48 463.23"/>
      <path class="cls-45" d="M305.11,435.52v89.4h-1.45c0,.95-.77,1.72-1.72,1.72s-1.72-.77-1.72-1.72h-1.44v-89.4h6.33Z"/>
      <g class="cls-27">
        <path class="cls-1" d="M303.66,524.92c0,.95-.77,1.72-1.72,1.72s-1.72-.77-1.72-1.72,.77-1.72,1.72-1.72,1.72,.77,1.72,1.72Z"/>
        <circle class="cls-1" cx="301.95" cy="498.56" r="1.72"/>
        <circle class="cls-1" cx="301.95" cy="472.79" r="1.72"/>
        <circle class="cls-1" cx="301.95" cy="447.01" r="1.72"/>
      </g>
      <path class="cls-31" d="M297.5,422.99c1.02-2.66,1.56-6.46,.6-11.96h7.79c-.8,4.64-.54,8.05,.2,10.62,.07,.2,.12,.4,.18,.59,.08,.27,.18,.52,.28,.77,.02,.07,.05,.15,.08,.22,.05,.13,.1,.25,.15,.37,.42,.92,.89,1.69,1.36,2.34,.25,.33,.5,.65,.77,.95,.25,.28,.52,.55,.79,.8,.03,.03,.08,.07,.12,.1,.07,.07,.15,.13,.23,.2,.07,.07,.13,.13,.22,.2l-12.78-5.21Z"/>
      <path class="cls-29" d="M325.41,361.11l-1.04,11.93s0,.03,0,.05l-1.13,7.24-.76,4.82c-.59,3.72-1.68,7.34-3.25,10.76l-3.54,7.73c-2.38,5.2-7.58,8.53-13.3,8.53h0c-5.68,0-10.87-3.26-13.33-8.38l-3.36-6.99c-1.92-4.01-3.25-8.28-3.94-12.67l-.75-4.8-1.5-9.64-.02-.06c-.38-1.52-.63-3.12-.69-4.76l-.2-3.57c-.32-5.81,2.2-11.48,6.88-14.94,18.16-13.41,37.83-2.14,39.91,14.55,0,.06,0,.12,0,.18Z"/>
      <path class="cls-2" d="M326.54,351.71l-.38,4.52-.57,6.4-1.05,12.05-.63,7.27h-3.81l.87-24.34-.3-.22-4.64-3.5-26.89,.11c-1.39,0-2.72,.56-3.69,1.55l-4.2,4.23,.43,5.59,1.15,15.45-1.64,.14h-.12l-1.38-9.64-.02-.06-.69-4.76-2.69-18.79,.08-.12c-.2-4.33,1.96-11.54,10.37-24.11-2.53,4.21-2.61,8.4-.67,10.18,.4,.36,1.15,.85,2.47,.99-.1-2,.02-4.6,.83-7.47,2.13-7.55,7.53-11.86,9.7-13.42-.51,2.11-.89,5.39,.32,8.89,1.15,3.38,3.56,6.24,6.74,8.32l2.75-.97c1.66,1.53,5.05,2.15,7.47,4.51,.14,.02,.28,.02,.43,.04-1.17-2.39-2.35-5.1-1.78-5.49,.81-.57,5.02,3.4,7.49,7.35,.26,.43,.57,.93,.89,1.52,.16,.32,.34,.67,.53,1.05,.16,.32,.3,.67,.47,1.05,1.15,2.71,2.29,6.56,2.17,11.68Z"/>
      <path class="cls-3" d="M319.96,356.74l.3,.22-.04,1.19-3.48-2.63-26.89,.12c-1.4,0-2.71,.55-3.7,1.54l-4.19,4.23,.43,5.59,1.15,15.45-1.64,.14h-.12l-.34-2.37,.69-.06-1.15-15.45-.43-5.59,4.21-4.23c.97-.99,2.31-1.54,3.69-1.54l26.89-.12,4.64,3.5Z"/>
      <g>
        <path class="cls-29" d="M325.41,360.78l-1.04,11.93s0,.03,0,.05l-1.13,7.24-.76,4.82c-.59,3.72-1.68,7.34-3.25,10.76l-3.54,7.73c-2.38,5.2-7.58,8.53-13.3,8.53h0c-5.68,0-10.87-3.26-13.33-8.38l-3.36-6.99c-1.92-4.01-3.25-8.28-3.94-12.67l-.75-4.8-1.5-9.64-.02-.06c-.38-1.52-.63-3.12-.69-4.76l-.2-3.57c-.32-5.81,2.2-11.48,6.88-14.94,18.16-13.41,37.83-2.14,39.91,14.55,0,.06,0,.12,0,.18Z"/>
        <path class="cls-2" d="M326.54,351.38l-.38,4.52-.57,6.4-1.05,12.05-.63,7.27h-3.81l.87-24.34-.3-.22-4.64-3.5-26.89,.11c-1.39,0-2.72,.56-3.69,1.55l-4.2,4.23,.43,5.59,1.15,15.45-1.64,.14h-.12l-1.38-9.64-.02-.06-.69-4.76-2.69-18.79,.08-.12c-.2-4.33,1.96-11.54,10.37-24.11-2.53,4.21-2.61,8.4-.67,10.18,.4,.36,1.15,.85,2.47,.99-.1-2,.02-4.6,.83-7.47,2.13-7.55,7.53-11.86,9.7-13.42-.51,2.11-.89,5.39,.32,8.89,1.15,3.38,3.56,6.24,6.74,8.32l2.75-.97c1.66,1.53,5.05,2.15,7.47,4.51,.14,.02,.28,.02,.43,.04-1.17-2.39-2.35-5.1-1.78-5.49,.81-.57,5.02,3.4,7.49,7.35,.26,.43,.57,.93,.89,1.52,.16,.32,.34,.67,.53,1.05,.16,.32,.3,.67,.47,1.05,1.15,2.71,2.29,6.56,2.17,11.68Z"/>
        <path class="cls-3" d="M319.96,356.41l.3,.22-.04,1.19-3.48-2.63-26.89,.12c-1.4,0-2.71,.55-3.7,1.54l-4.19,4.23,.43,5.59,1.15,15.45-1.64,.14h-.12l-.34-2.37,.69-.06-1.15-15.45-.43-5.59,4.21-4.23c.97-.99,2.31-1.54,3.69-1.54l26.89-.12,4.64,3.5Z"/>
      </g>
      <g>
        <path class="cls-38" d="M290.49,372.97c0-1.31,1.06-2.37,2.37-2.37s2.37,1.06,2.37,2.37-1.06,2.37-2.37,2.37-2.37-1.06-2.37-2.37Z"/>
        <path class="cls-38" d="M308.85,373.07c0-1.31,1.06-2.37,2.37-2.37s2.37,1.06,2.37,2.37-1.06,2.37-2.37,2.37-2.37-1.06-2.37-2.37Z"/>
        <path class="cls-50" d="M291.51,373.07c0-.75,.6-1.35,1.35-1.35s1.35,.6,1.35,1.35-.6,1.35-1.35,1.35-1.35-.6-1.35-1.35Z"/>
        <path class="cls-50" d="M309.87,373.13c0-.75,.6-1.35,1.35-1.35s1.35,.6,1.35,1.35-.6,1.35-1.35,1.35-1.35-.6-1.35-1.35Z"/>
      </g>
      <g class="cls-40">
        <path d="M302.09,371.97c.14,4.52,.69,9.05,.38,13.57-1.14-.13-2.46-.13-3.51-.52,.97-.31,2.07-.35,3.08-.47,0,0-.48,.48-.48,.48-.2-2.18,.05-4.35,.11-6.53,.08-2.18,.2-4.35,.32-6.53,0-.06,.11-.07,.11,0h0Z"/>
      </g>
      <path class="cls-14" d="M307.71,394.26v3.39c0,3.11-2.55,5.66-5.66,5.66h0c-3.11,0-5.66-2.55-5.66-5.66v-3.39h11.32Z"/>
      <path class="cls-2" d="M289.65,366.09c1.67-1.72,5.29-2.35,6.75,0,.03,.04-.01,.09-.06,.08-1.23-.18-2.15-.57-3.33-.78-1.13-.11-2.32,.18-3.3,.77-.05,.04-.11-.03-.07-.08h0Z"/>
      <path class="cls-2" d="M307.67,366.09c1.41-2.48,5-1.61,6.75,0,.05,.04,0,.11-.06,.08-1.54-.85-3.3-1-4.92-.41,0,0-1.7,.41-1.7,.41-.04,.02-.09-.03-.07-.08h0Z"/>
      <g>
        <path class="cls-7" d="M301.5,435.64c-.54-.02-1.07-.05-1.57-.12-.05,0-.08-.02-.13-.02h-.02c-.1-.02-.18-.02-.28-.05-.13,0-.27-.03-.39-.07h-.02c-4.69-.79-8.41-3.47-9.65-6.88-.12-.3-.2-.6-.27-.9,0-.03-.02-.05-.02-.08,.12-.05,.23-.08,.33-.13,1-.39,1.94-.85,2.81-1.41,1.12-.69,2.14-1.56,3.01-2.63l1.81,3.17,3.67,6.48,.3,.54v.02l.39,1.98,.02,.12Z"/>
        <path class="cls-7" d="M314.96,427.48s-.02,.05-.02,.08c-.08,.37-.2,.74-.35,1.11-1.29,3.35-4.99,5.95-9.61,6.73l-.3,.05c-.13,.02-.25,.05-.39,.05h-.02c-.05,0-.08,.02-.13,.02-.49,.07-.99,.1-1.49,.12l.02-.12,.4-1.98v-.02l.32-.55,3.62-6.36,.15-.27,.77-1.37,.9-1.57c.89,1.06,1.91,1.89,3.03,2.58,.85,.54,1.76,.97,2.71,1.36,.12,.05,.25,.1,.39,.15Z"/>
        <path class="cls-7" d="M301.5,435.64c-.54-.02-1.07-.05-1.57-.12-.05,0-.08-.02-.13-.02h-.02c-.1-.02-.18-.02-.28-.05-.13,0-.27-.03-.39-.07h-.02c-4.69-.79-8.41-3.47-9.65-6.88-.12-.3-.2-.6-.27-.9,0-.03-.02-.05-.02-.08,.12-.05,.23-.08,.33-.13,1-.39,1.94-.85,2.81-1.41h.2c0,.5,.07,.99,.22,1.46,.82,2.93,4.05,5.17,8.07,5.56l.3,.54v.02l.39,1.98,.02,.12Z"/>
        <path class="cls-7" d="M314.96,427.48s-.02,.05-.02,.08c-.08,.37-.2,.74-.35,1.11-1.29,3.35-4.99,5.95-9.61,6.73l-.3,.05c-.13,.02-.25,.05-.39,.05h-.02c-.05,0-.08,.02-.13,.02-.49,.07-.99,.1-1.49,.12l.02-.12,.4-1.98v-.02l.32-.55c3.94-.4,7.1-2.56,7.97-5.39,.17-.52,.25-1.06,.25-1.61h.25c.85,.54,1.76,.97,2.71,1.36,.12,.05,.25,.1,.39,.15Z"/>
        <g class="cls-6">
          <polygon class="cls-5" points="316.1 428.87 314.65 434 311.68 444.37 303.04 434 303.02 434 303.02 433.98 303.34 433.43 311.68 443.43 314.65 433.06 315.88 428.72 316.1 428.87"/>
          <polygon class="cls-5" points="301.05 433.98 301.05 434 301.03 434 292.37 444.37 291.1 439.91 287.95 428.87 288.17 428.72 291.1 438.97 292.37 443.43 300.73 433.43 301.05 433.98"/>
        </g>
        <polygon class="cls-7" points="316.15 428.42 316.03 428.82 316.03 428.84 315.93 429.16 314.69 433.54 311.73 443.91 306.99 438.23 305.12 435.97 304.73 435.52 304.68 435.45 303.21 433.68 303.09 433.54 303.07 433.54 303.07 433.53 303.39 432.97 303.58 432.64 303.59 432.64 306.89 426.83 307.01 426.61 307.16 426.34 307.73 425.32 307.93 424.97 308.68 423.65 308.83 423.39 308.87 423.33 309.87 424.03 313.66 426.68 314.58 427.33 314.95 427.56 316.15 428.42"/>
        <polygon class="cls-7" points="301.1 433.53 301.1 433.54 301.08 433.54 300.91 433.74 299.49 435.45 299.44 435.52 298.79 436.29 297.13 438.28 292.42 443.91 291.15 439.45 288.3 429.52 288.15 428.97 288.1 428.79 288.1 428.77 288 428.42 289.17 427.6 289.49 427.38 289.73 427.21 295.15 423.43 295.17 423.43 295.3 423.33 295.32 423.34 295.34 423.38 296.34 425.15 297.13 426.51 300.59 432.64 300.8 432.99 301.1 433.53"/>
      </g>
    </g>
    <path class="cls-49" d="M-.26,514.81v250.73H552.84v-250.73H-.26Z"/>
  </g>
</svg>