<?xml version="1.0" encoding="UTF-8"?>
<svg xmlns="http://www.w3.org/2000/svg" xmlns:xlink="http://www.w3.org/1999/xlink" viewBox="0 0 553.1 766.7">
  <defs>
    <style>
      .cls-1 {
        fill: url(#linear-gradient-2);
      }

      .cls-2 {
        fill: #685c50;
      }

      .cls-2, .cls-3 {
        opacity: .16;
      }

      .cls-2, .cls-3, .cls-4, .cls-5, .cls-6 {
        isolation: isolate;
      }

      .cls-7, .cls-3 {
        fill: #2f2e41;
      }

      .cls-8 {
        fill: #018786;
      }

      .cls-9, .cls-10 {
        fill: #fff;
      }

      .cls-11 {
        fill: url(#linear-gradient-17);
      }

      .cls-12 {
        stroke: #000;
      }

      .cls-12, .cls-13, .cls-14, .cls-15 {
        stroke-miterlimit: 10;
      }

      .cls-12, .cls-13, .cls-15 {
        fill: none;
      }

      .cls-16 {
        fill: url(#linear-gradient-15);
      }

      .cls-17 {
        fill: url(#linear-gradient-14);
      }

      .cls-13, .cls-14 {
        stroke: #4c4bcb;
        stroke-width: 1.21px;
      }

      .cls-13, .cls-14, .cls-15 {
        stroke-linecap: round;
      }

      .cls-18 {
        fill: url(#linear-gradient-11);
      }

      .cls-10 {
        opacity: .42;
      }

      .cls-19 {
        fill: #03dac6;
      }

      .cls-20 {
        fill: #e4ba97;
      }

      .cls-21 {
        fill: url(#linear-gradient-8);
      }

      .cls-21, .cls-22 {
        opacity: .28;
      }

      .cls-23 {
        fill: url(#linear-gradient-10);
      }

      .cls-24 {
        fill: url(#linear-gradient-3);
        opacity: .2;
      }

      .cls-4 {
        opacity: .4;
      }

      .cls-14, .cls-25 {
        fill: #bbbdbf;
      }

      .cls-26 {
        fill: url(#linear-gradient-16);
      }

      .cls-22 {
        fill: url(#linear-gradient-6);
      }

      .cls-27 {
        fill: #f1f2f2;
      }

      .cls-28 {
        fill: #f4d5b8;
      }

      .cls-29 {
        fill: url(#linear-gradient-5);
      }

      .cls-30 {
        fill: url(#radial-gradient-2);
      }

      .cls-15 {
        stroke: #249682;
      }

      .cls-5 {
        opacity: .07;
      }

      .cls-31 {
        fill: url(#linear-gradient);
        opacity: .03;
      }

      .cls-32 {
        fill: url(#radial-gradient-3);
      }

      .cls-33 {
        opacity: .14;
      }

      .cls-34 {
        fill: url(#linear-gradient-7);
      }

      .cls-35 {
        fill: #f7f7f7;
      }

      .cls-36 {
        fill: url(#linear-gradient-9);
      }

      .cls-6 {
        fill: url(#radial-gradient);
        opacity: .33;
      }

      .cls-37 {
        fill: url(#linear-gradient-4);
      }

      .cls-38 {
        fill: url(#linear-gradient-12);
      }

      .cls-39 {
        fill: url(#linear-gradient-13);
      }

      .cls-40 {
        fill: #58595b;
      }
    </style>
    <linearGradient id="linear-gradient" x1="411.66" y1="944.7" x2="408.72" y2="413.24" gradientUnits="userSpaceOnUse">
      <stop offset=".12" stop-color="#fff" stop-opacity="0"/>
      <stop offset=".13" stop-color="#fcfcfc" stop-opacity=".12"/>
      <stop offset=".17" stop-color="#f7f7f7" stop-opacity=".3"/>
      <stop offset=".2" stop-color="#f3f3f3" stop-opacity=".47"/>
      <stop offset=".24" stop-color="#f0f0f0" stop-opacity=".61"/>
      <stop offset=".28" stop-color="#ededed" stop-opacity=".73"/>
      <stop offset=".32" stop-color="#ebebeb" stop-opacity=".83"/>
      <stop offset=".37" stop-color="#e9e9e9" stop-opacity=".91"/>
      <stop offset=".44" stop-color="#e7e7e7" stop-opacity=".96"/>
      <stop offset=".52" stop-color="#e7e7e7" stop-opacity=".99"/>
      <stop offset=".74" stop-color="#e7e7e7"/>
    </linearGradient>
    <linearGradient id="linear-gradient-2" x1="85.52" y1="654.5" x2="75.29" y2="290.62" xlink:href="#linear-gradient"/>
    <linearGradient id="linear-gradient-3" x1="50.27" y1="740.97" x2="40.04" y2="377.09" xlink:href="#linear-gradient"/>
    <linearGradient id="linear-gradient-4" x1="81.18" y1="272.67" x2="79.43" y2="210.77" xlink:href="#linear-gradient"/>
    <linearGradient id="linear-gradient-5" x1="227.64" y1="693.78" x2="233.22" y2="352.79" gradientUnits="userSpaceOnUse">
      <stop offset="0" stop-color="#fff" stop-opacity="0"/>
      <stop offset=".02" stop-color="#fefefe" stop-opacity=".03"/>
      <stop offset=".24" stop-color="#f6f6f6" stop-opacity=".37"/>
      <stop offset=".44" stop-color="#efefef" stop-opacity=".64"/>
      <stop offset=".61" stop-color="#eaeaea" stop-opacity=".84"/>
      <stop offset=".74" stop-color="#e8e8e8" stop-opacity=".96"/>
      <stop offset=".81" stop-color="#e7e7e7"/>
    </linearGradient>
    <linearGradient id="linear-gradient-6" x1="43.11" y1="665.92" x2="46.81" y2="440.23" xlink:href="#linear-gradient-5"/>
    <linearGradient id="linear-gradient-7" x1="360.62" y1="595.53" x2="349.13" y2="466.96" gradientUnits="userSpaceOnUse">
      <stop offset="0" stop-color="#fff" stop-opacity="0"/>
      <stop offset=".01" stop-color="#fdfdfd" stop-opacity=".04"/>
      <stop offset=".07" stop-color="#f9f9f9" stop-opacity=".24"/>
      <stop offset=".14" stop-color="#f4f4f4" stop-opacity=".42"/>
      <stop offset=".21" stop-color="#f1f1f1" stop-opacity=".58"/>
      <stop offset=".29" stop-color="#ededed" stop-opacity=".71"/>
      <stop offset=".38" stop-color="#ebebeb" stop-opacity=".82"/>
      <stop offset=".47" stop-color="#e9e9e9" stop-opacity=".9"/>
      <stop offset=".58" stop-color="#e8e8e8" stop-opacity=".96"/>
      <stop offset=".72" stop-color="#e7e7e7" stop-opacity=".99"/>
      <stop offset="1" stop-color="#e7e7e7"/>
    </linearGradient>
    <linearGradient id="linear-gradient-8" x1="349.83" y1="620.55" x2="352.81" y2="438.62" xlink:href="#linear-gradient-5"/>
    <linearGradient id="linear-gradient-9" x1="494" y1="611.43" x2="488.23" y2="431.08" xlink:href="#linear-gradient-7"/>
    <radialGradient id="radial-gradient" cx="500.36" cy="-2994" fx="500.36" fy="-3005.68" r="52.02" gradientTransform="translate(0 -2848.18) scale(1 -1)" gradientUnits="userSpaceOnUse">
      <stop offset=".05" stop-color="#fff52e"/>
      <stop offset=".2" stop-color="#fff531" stop-opacity=".84"/>
      <stop offset=".34" stop-color="#fff63c" stop-opacity=".7"/>
      <stop offset=".46" stop-color="#fff74e" stop-opacity=".56"/>
      <stop offset=".58" stop-color="#fff867" stop-opacity=".44"/>
      <stop offset=".7" stop-color="#fff987" stop-opacity=".31"/>
      <stop offset=".82" stop-color="#fffbaf" stop-opacity=".19"/>
      <stop offset=".93" stop-color="#fffddd" stop-opacity=".08"/>
      <stop offset="1" stop-color="#fff" stop-opacity="0"/>
    </radialGradient>
    <radialGradient id="radial-gradient-2" cx="500.19" cy="-2995.91" fx="500.19" fy="-2995.91" r="23.31" xlink:href="#radial-gradient"/>
    <radialGradient id="radial-gradient-3" cx="500.16" cy="-2995.91" fx="490.52" fy="-3003.57" r="12.31" gradientTransform="translate(0 -2848.18) scale(1 -1)" gradientUnits="userSpaceOnUse">
      <stop offset="0" stop-color="#fff"/>
      <stop offset=".86" stop-color="#fff" stop-opacity=".4"/>
      <stop offset="1" stop-color="#fff" stop-opacity=".3"/>
    </radialGradient>
    <linearGradient id="linear-gradient-10" x1="263.14" y1="-3069.22" x2="393.04" y2="-3069.22" gradientTransform="translate(187.44 -2848.18) scale(.87 -1)" gradientUnits="userSpaceOnUse">
      <stop offset="0" stop-color="#fff"/>
      <stop offset="1" stop-color="#eaeaea"/>
    </linearGradient>
    <linearGradient id="linear-gradient-11" x1="318.94" y1="-3131.65" x2="392.53" y2="-3131.65" xlink:href="#linear-gradient-10"/>
    <linearGradient id="linear-gradient-12" x1="-332.92" y1="-2969.87" x2="-222.93" y2="-2969.87" gradientTransform="translate(-199.88 -2848.18) rotate(-180) scale(.96 1)" xlink:href="#linear-gradient-10"/>
    <linearGradient id="linear-gradient-13" x1="468.06" y1="-3012.1" x2="540.17" y2="-3012.1" gradientTransform="translate(0 -2848.18) scale(1 -1)" xlink:href="#linear-gradient-10"/>
    <linearGradient id="linear-gradient-14" x1="3363.24" y1="-2644.3" x2="3442.88" y2="-2644.3" gradientTransform="translate(2933.28 -2058.13) rotate(-180) scale(.8 .83)" xlink:href="#linear-gradient-10"/>
    <linearGradient id="linear-gradient-15" x1="3457.23" y1="-2693.77" x2="3509.09" y2="-2693.77" gradientTransform="translate(2933.28 -2058.13) rotate(-180) scale(.8 .83)" xlink:href="#linear-gradient-10"/>
    <linearGradient id="linear-gradient-16" x1="461.37" y1="601.03" x2="547.92" y2="601.03" gradientUnits="userSpaceOnUse">
      <stop offset="0" stop-color="#3061ff"/>
      <stop offset=".11" stop-color="#2b68ff"/>
      <stop offset=".55" stop-color="#1b83ff"/>
      <stop offset=".81" stop-color="#168eff"/>
    </linearGradient>
    <linearGradient id="linear-gradient-17" x1="453.88" y1="591.45" x2="488.56" y2="591.45" xlink:href="#linear-gradient-16"/>
  </defs>
  <g id="Bg-light">
    <ellipse class="cls-31" cx="409.97" cy="640.12" rx="123.04" ry="151.12"/>
    <rect class="cls-1" x="26.09" y="270.27" width="108.38" height="396.08" rx="7.06" ry="7.06"/>
    <rect class="cls-24" x="-9.16" y="356.74" width="108.38" height="396.08" rx="7.06" ry="7.06"/>
    <rect class="cls-37" x="59.84" y="207.46" width="40.89" height="67.07" rx="7.06" ry="7.06"/>
    <path class="cls-29" d="M230.54,714.63c-33.92,0-61.68-27.75-61.68-61.68V380.22c0-33.92,27.75-61.68,61.68-61.68s61.68,27.75,61.68,61.68v272.73c0,33.92-27.75,61.68-61.68,61.68Z"/>
    <path class="cls-22" d="M45.03,679.71c-22.45,0-40.82-18.37-40.82-40.82v-180.51c0-22.45,18.37-40.82,40.82-40.82s40.82,18.37,40.82,40.82v180.51c0,22.45-18.37,40.82-40.82,40.82Z"/>
    <circle class="cls-34" cx="356.43" cy="548.64" r="64.54"/>
    <path class="cls-21" d="M351.38,631.67c-18.1,0-32.91-14.81-32.91-32.91v-145.51c0-18.1,14.81-32.91,32.91-32.91s32.91,14.81,32.91,32.91v145.51c0,18.1-14.81,32.91-32.91,32.91Z"/>
    <rect class="cls-36" x="455.87" y="398.19" width="70.19" height="236.8" rx="12" ry="12"/>
    <g>
      <circle class="cls-6" cx="500.36" cy="145.82" r="52.02"/>
      <circle class="cls-30" cx="500.19" cy="147.73" r="23.31"/>
      <circle class="cls-32" cx="500.19" cy="147.73" r="12.28"/>
    </g>
    <path class="cls-23" d="M517.7,247.54h-94.66c-5.97-4.23-8.3-12.78-5.81-19.08,2.99-7.55,12.53-11.03,19.91-5.48-.5-2.99-.91-8.63,1.41-14.19,5.06-11.86,20.82-18.75,31.28-10.87,8.96,6.72,9.04,20.57,9.04,21.82,1.41-2.99,3.9-7.05,8.05-9.79,14.68-9.87,40.98,2.41,42.23,17.42,.66,8.05-6.06,15.51-11.45,20.16Z"/>
    <path class="cls-18" d="M522.23,298.48h-53.62c-3.38-2.4-4.7-7.24-3.29-10.81,1.69-4.28,7.1-6.25,11.28-3.1-.28-1.69-.52-4.89,.8-8.04,2.87-6.72,11.8-10.62,17.72-6.16,5.08,3.81,5.12,11.65,5.12,12.36,.8-1.69,2.21-3.99,4.56-5.55,8.32-5.59,23.22,1.36,23.92,9.87,.38,4.56-3.43,8.79-6.49,11.42Z"/>
    <path class="cls-38" d="M20.15,146.42H111.84c5.29-3.34,7.88-10.01,6.21-15.65-1.9-6.44-9.09-10.76-16.39-8.8,.52-1.5,2.07-6.39,0-11.28-2.99-7.08-12.54-11.74-19.67-7.36-5.29,3.28-7.82,10.64-5.64,17.6-1.32-4.2-4.77-13-13.12-18.58-15.01-10.12-40.56-5.75-48.09,11.33-5.12,11.68,2.07,27.21,5,32.73Z"/>
    <path class="cls-39" d="M535.53,180.17h-62.89c-3.65-2.16-5.39-6.55-4.23-10.29,1.33-4.23,6.22-7.05,11.2-5.81-.33-1-1.41-4.15,0-7.38,2.07-4.65,8.63-7.72,13.44-4.81,3.65,2.16,5.39,6.97,3.82,11.53,.91-2.74,3.32-8.55,8.96-12.2,10.37-6.64,27.88-3.82,33.02,7.38,3.65,7.72-1.24,17.92-3.32,21.57Z"/>
    <path class="cls-17" d="M195.41,154.15h55.25c3.15-1.99,4.73-5.97,3.73-9.37-1.16-3.9-5.48-6.47-9.87-5.31,.33-.91,1.24-3.82,0-6.8-1.83-4.23-7.55-7.05-11.86-4.4-3.15,1.99-4.73,6.39-3.4,10.62-.83-2.49-2.9-7.8-7.88-11.2-9.13-6.14-24.47-3.48-29.04,6.8-3.07,6.97,1.24,16.26,3.07,19.66Z"/>
    <path class="cls-16" d="M141.32,190.12h36.01c2.07-1.33,3.07-3.9,2.41-6.14-.75-2.49-3.57-4.23-6.39-3.48,.17-.58,.83-2.49,0-4.4-1.16-2.74-4.89-4.56-7.72-2.9-2.07,1.24-3.07,4.15-2.24,6.89-.5-1.66-1.91-5.06-5.14-7.3-5.97-3.98-15.93-2.24-18.92,4.4-1.99,4.65,.83,10.7,1.99,12.94Z"/>
  </g>
  <g id="Plants">
    <g>
      <path class="cls-25" d="M31.29,499.81c4.11,3.27,14.58,5.83,10.69-.88-1.5-2.59-5.43-7.06-8.35-8.98-3.89-2.55-4.78,.22-5.13,1.3-.44,1.38-.9,5.63,2.78,8.56Z"/>
      <path class="cls-25" d="M55.03,555.14c-1.68,2.44-13.31-.99-16.35-9.36-1.17-3.23-1.29-7.81,.43-8.86,2.28-1.4,7.09,3.9,8.96,5.96,2.39,2.63,8.47,10.08,6.96,12.27Z"/>
      <path class="cls-25" d="M10.92,761.72c-3.79-2.68-2.26-18.84,8.37-22.2,4.11-1.3,10.34-.93,12.25,1.63,2.54,3.42-3.41,9.65-5.72,12.07-2.95,3.1-11.5,10.9-14.9,8.49Z"/>
      <path class="cls-25" d="M68.12,500.34c-2.31-1.63-1.38-11.48,5.1-13.52,2.5-.79,6.3-.57,7.46,.99,1.55,2.08-2.08,5.88-3.48,7.35-1.8,1.89-7.01,6.64-9.07,5.17Z"/>
      <path class="cls-13" d="M97.8,824.08c-54.81-13.78-122.58-35.96-124.51-65.71-1.94-29.97,64.57-42.42,97.87-84.04,24.24-30.28,35.61-81.9-31.96-174.33"/>
      <line class="cls-14" x1="57.31" y1="526.55" x2="71.47" y2="494.26"/>
      <line class="cls-14" x1="-8.6" y1="783.5" x2="17.97" y2="752.96"/>
      <path class="cls-25" d="M47.64,632.1c-4.31,1.02-15.47-14.56-11.52-26.99,1.52-4.8,5.59-10.04,8.66-9.48,4.1,.74,5.15,11.53,5.56,15.72,.52,5.36,1.17,19.84-2.7,20.75Z"/>
      <line class="cls-14" x1="80.34" y1="572.93" x2="50.61" y2="551.92"/>
      <path class="cls-25" d="M136.24,575.9c-3.79-2.68-2.26-18.84,8.37-22.2,4.11-1.3,10.34-.93,12.25,1.63,2.54,3.42-3.41,9.65-5.72,12.07-2.95,3.1-11.5,10.9-14.9,8.49Z"/>
      <line class="cls-14" x1="89.92" y1="616.85" x2="148.18" y2="562.42"/>
      <line class="cls-14" x1="61.6" y1="685.59" x2="40.1" y2="604.68"/>
    </g>
    <polygon class="cls-35" points=".66 672.21 163.45 672.21 163.45 700.81 215.09 700.81 242.5 673.4 288.46 673.4 316.43 701.37 368.15 701.37 375.79 664.79 442.45 664.79 492.37 700.81 502.91 657.94 553.76 655.23 553.76 766.36 .66 766.36 .66 672.21"/>
  </g>
  <g id="Main">
    <path class="cls-26" d="M461.37,645.27c7.18-24.6,18.65-36.72,28.34-43.24,17.36-11.68,35.78-9.99,46.14-26.52,6.53-10.42,5.06-20.42,6.54-20.35,2.7,.13,12.57,33.71-3.27,60.31-14.22,23.88-45.56,36.08-77.75,29.79Z"/>
    <path class="cls-15" d="M461.37,645.27c10.7-4.13,37.79-16.42,54.14-31.85,13.45-12.7,21.74-25.8,26.64-35.12"/>
    <path class="cls-11" d="M465.33,646.68c-4.54-9.19-15.1-33.72-10.17-65.04,3.39-21.6,12.7-37.16,18.53-45.42,5.05,7.75,12.82,22.1,14.53,41.42,3.27,36.84-17.96,63.21-22.89,69.03Z"/>
    <path class="cls-15" d="M467.79,639.58c1.75-14.85,3.21-30.5,4.24-46.87,1.14-18.08,1.65-35.35,1.7-51.72"/>
    <g>
      <path class="cls-28" d="M489.21,679.18H95.31c-.82-2.66-1.64-5.25-2.47-7.78,2.87-5.04,6.53-10.59,11.28-16.26,5.07-6.08,11.36-12.29,19.2-18.15,.91-.65,1.82-1.36,2.72-1.95,28.31-19.98,60.58-24.28,88.63-30.02,21.91-4.49,41.25-9.84,54.14-24.22,8.9-10.04,17.47-27.28,10.63-58.39h38.8c-7.08,31.04,1.57,48.35,10.71,58.39,8.56,9.34,19.83,14.85,32.73,18.8,28.91,8.88,66.03,9.93,99.41,28.7,1.18,.68,2.36,1.38,3.53,2.1h.01c3.32,2.02,6.58,4.2,9.81,6.59,2.14,1.6,4.17,3.23,6.09,4.88,.7,.6,1.39,1.21,2.06,1.81-.02,1.52-.21,3.05-.57,4.57h0s7.19,30.93,7.19,30.93Z"/>
      <path class="cls-5" d="M361.77,600.26c-5.32,1.27-10.79,1.93-16.36,1.93-25.62,0-48.99-13.98-66.76-37,3.63-10.08,5-23.65,.94-42.1h38.8c-7.08,31.04,1.57,48.35,10.71,58.39,8.55,9.33,19.79,14.83,32.67,18.78Z"/>
      <path class="cls-20" d="M140.17,785.73h-34.21l-1.69-78.36,29.33,3.88,6.4,.85s.02,5.87,.04,16.18c.04,13.02,.08,33.12,.13,57.45Z"/>
      <path class="cls-20" d="M496.58,785.73h-34.14l-1.01-47.04-.77-35.49,11.34,1.5,24.4,3.23s.09,31.95,.18,77.8Z"/>
      <path class="cls-7" d="M232.49,430.94c-6.04,18.3-12.17,43.42-13.96,73.47-1.11,16.6-.6,31.93,.77,45.55l.09,.09-.09-.09c-27.58-25.71-85.05-145.59-51.59-232.68,16.01-41.63,60.11-114,109.15-108.13,8.6,.94,25.46,5.36,43.42,28.27,.17,.09,.26,.26,.26,.26,1.87,2.21,3.58,4.68,5.36,7.41,3.49-.85,6.9-1.62,10.22-2.3,.26-.09,.68-.17,1.11-.26,50.06-9.88,73.05,6.04,78.58,10.3,39.08,29.97,36.18,110.08,10.81,162.19-9.96,20.35-22.22,34.31-21.88,59.17,.51,26.39,14.98,47.76,27.33,61.81-5.19,.51-31.42,2.47-54.49-15.5-5.87-4.6-10.56-9.54-14.05-14.56-11.92-16.6-12.94-33.54-13.2-36.86"/>
      <ellipse class="cls-28" cx="296.6" cy="389.39" rx="100.63" ry="146.95"/>
      <g class="cls-33">
        <g>
          <path d="M301.96,391.6l.26,24.43c0,8.09,.09,16.26,.09,24.43v.43h-.34c-2.64,0-5.28,0-8.09-.17-2.64,0-5.28-.17-8.09-.26h0c2.64-.17,5.28-.26,8.09-.26,2.64,0,5.28-.17,8.09-.17l-.34,.43c0-8.09,.09-16.26,.09-24.43l.26-24.43q-.09-.17,0,0c-.09-.17,0-.17,0,0Z"/>
          <path d="M303.24,391.6c0,12.26-.09,37.04-.17,49.38v.85h-.77c-4.09-.09-12.43-.34-16.52-.6v-1.28l8.09-.17c.51,0,8.94-.09,9.11-.09l-.68,.77c-.26,.34-.94,1.11-1.19,1.45,.17-12.86,.6-37.46,.85-50.32l-.09-.09,.09,.09s-.09-.09,0-.09c0,0,0,.09,.09,.09h1.19Zm-1.28,0c0,10.9,.09,37.04,.17,48.95l-.85-.34,.34-.43,.34,.77c-4,.09-12.09,.34-16.18,.6v-1.28l8.26,.17,8.26,.09-.77,.77c-.17-12.26-.6-37.04-.85-49.3,0,0,1.28,0,1.28,0h0Z"/>
        </g>
      </g>
      <g>
        <path class="cls-27" d="M249.26,388.96c0-5.36,4.43-9.62,9.79-9.62s9.62,4.43,9.62,9.62-4.43,9.79-9.62,9.79-9.79-4.43-9.79-9.79Z"/>
        <path class="cls-27" d="M324.53,389.39c0-5.36,4.26-9.62,9.79-9.62s9.62,4.43,9.62,9.62-4.43,9.79-9.62,9.79c-5.45-.09-9.79-4.43-9.79-9.79Z"/>
        <path class="cls-40" d="M253.52,389.39c0-3.06,2.47-5.53,5.53-5.53s5.53,2.47,5.53,5.53-2.47,5.53-5.53,5.53-5.53-2.47-5.53-5.53Z"/>
        <path class="cls-40" d="M328.7,389.64c0-3.06,2.47-5.53,5.53-5.53s5.53,2.47,5.53,5.53-2.47,5.53-5.53,5.53-5.53-2.47-5.53-5.53Z"/>
      </g>
      <path class="cls-7" d="M400.38,390.67v.17c0,4-.09,7.92-.43,11.92-.09,1.53-.17,3.24-.43,4.68-.09,.68-.17,1.45-.26,2.13,0,1.11-.09,2.13-.17,3.24-.43-.17-.94-.43-1.36-.77-22.65-12.6-46.74-33.29-67.69-59.94-16.26-20.77-28.69-42.4-36.61-62.75-.43-.43-.85-.6-1.28-.94-15.5,18.73-32.27,42.48-47,71.77-1.79,3.24-3.24,6.3-4.77,9.62-12.17,25.88-20.6,51.08-26.14,74.84-.17,.26-.17,.43-.17,.6-2.21,7.58-4.43,16.09-6.13,25.29-9.79-23.24-15.32-50.4-15.32-79.6,0-77.31,39.42-141.33,90.5-151.29,4-.85,8-1.28,12.17-1.36h1.87c1.11,0,2.04,.09,3.06,.17,1.53,.09,3.15,.26,4.6,.43h.43c.17,0,.26,0,.43,.09,1.36,.17,2.64,.43,4,.68s2.64,.51,4,.85c.09,0,.17,.09,.26,.09h.09c.09,.17,.17,.26,.26,.43,.17-.09,.43-.09,.51-.17h.09c1.11,.43,2.3,.68,3.32,1.11,1.45,.43,2.81,.94,4.17,1.45,0,0,0,.09,.09,.09,2.81,1.11,5.53,2.3,8.26,3.75,1.36,.68,2.64,1.45,4,2.21,1.19,.68,2.55,1.45,3.75,2.21,1.45,1.11,2.89,2.04,4.51,3.24,4.68,3.41,9.28,7.49,13.54,11.92,1.28,1.36,2.55,2.81,3.92,4.26,1.11,1.19,2.21,2.55,3.24,3.92,1.11,1.36,2.13,2.64,3.24,4.09,4,5.45,7.92,11.58,11.32,18.05,.85,1.62,1.79,3.24,2.55,4.85,9.11,18.48,15.41,39.76,18.05,63.09,.26,2.04,.51,4.09,.68,6.13,.17,1.62,.26,3.24,.43,4.94,.17,2.21,.26,4.6,.43,6.81-.09,2.47,0,5.19,0,7.75Z"/>
      <path class="cls-2" d="M406.09,404.54v.17c0,4-.09,7.92-.26,11.92-.09,1.45-.17,3.15-.26,4.68-.09,.68-.17,1.36-.26,2.13,0,1.11-.09,2.13-.17,3.15-.51-.17-.94-.43-1.36-.77-22.65-12.6-46.74-33.29-67.6-59.94-16.35-20.77-28.69-42.4-36.69-62.75-.43-.26-.77-.6-1.28-.94-15.5,18.82-32.35,42.48-47,71.86-1.79,3.15-3.32,6.22-4.77,9.54-12.26,25.88-20.69,51.08-26.14,74.67-.17,.26-.17,.43-.17,.68-2.21,7.58-4.43,16.09-6.13,25.29-3.49-8.51-6.47-17.37-8.85-26.73,.94,2.72,2.04,5.36,3.15,8,1.62-9.19,3.83-17.62,6.04-25.37,0-.17,0-.26,.17-.6,5.53-23.58,13.96-48.95,26.14-74.67,1.53-3.32,3.06-6.47,4.77-9.62,14.73-29.29,31.5-52.96,47-71.77,.43,.26,.85,.68,1.36,.94,7.92,20.26,20.26,41.97,36.61,62.75,21.03,26.73,45.04,47.42,67.6,59.94,.51,.26,.94,.6,1.36,.77,.09-.94,.17-2.04,.17-3.15,.09-.77,.17-1.45,.26-2.13,.17-1.53,.26-3.24,.26-4.77,.26-3.92,.43-7.92,.43-11.83v-.17c0-2.55-.17-5.19-.26-7.66-.09-2.3-.17-4.68-.26-6.81-.09-1.79-.17-3.41-.26-5.11-.17-2.04-.43-4.09-.68-6.13-.94-9.11-2.55-17.71-4.68-26.05,4.94,13.88,8.51,28.78,10.3,44.78,.26,2.04,.6,4.09,.77,6.13,.17,1.62,.26,3.32,.26,5.11,.17,2.21,.26,4.6,.26,6.81,.09,2.38,.17,5.19,.17,7.66Z"/>
      <path d="M247.56,369.3c1.79-1.87,3.83-3.32,6.13-4.51,.6-.26,1.19-.6,1.87-.77,.6-.17,1.28-.43,1.87-.6l1.96-.43c.68-.09,1.36-.09,1.96-.17,.68-.09,1.36-.09,2.04-.09s1.36-.09,2.04,0,1.36,.17,2.04,.26c.68,.17,1.28,.51,1.87,.77l.85,.51c.26,.17,.6,.43,.85,.6,.6,.43,1.11,.77,1.53,1.28,.94,.85,1.87,2.04,2.55,3.24,.09,.09,0,.26-.09,.43h-.09c-1.45,0-2.64-.26-3.83-.6-.6-.09-1.19-.17-1.79-.26-.6-.17-1.11-.26-1.62-.43s-1.11-.26-1.53-.43-1.11-.26-1.53-.51-1.11-.43-1.53-.51c-.6-.09-1.11-.26-1.62-.26s-1.11-.09-1.62-.09h-1.62c-.6,0-1.19,.09-1.79,.17s-1.19,.17-1.79,.26c-2.21,.51-4.6,1.36-6.64,2.55h0c-.09,.09-.26,0-.26-.09-.34-.17-.34-.26-.26-.34Z"/>
      <path d="M321.21,369.3c.6-1.36,1.45-2.47,2.47-3.32,.51-.51,1.11-.85,1.53-1.28,.6-.43,1.19-.68,1.79-.94,.6-.26,1.28-.51,1.96-.68,.68-.09,1.36-.26,2.04-.26h2.04l2.04,.17c2.64,.26,5.28,.85,7.58,2.13l.85,.43c.26,.17,.6,.26,.77,.51l1.62,.94c1.11,.68,1.96,1.53,2.89,2.3,.09,.09,.09,.17,0,.43-.09,.09-.17,.09-.26,.09h0l-1.62-.68c-.6-.17-1.11-.51-1.62-.68l-1.79-.6c-.26-.09-.6-.17-.85-.26l-.85-.17-1.62-.43-1.79-.17c-.6-.09-1.19-.09-1.62-.09-.6,0-1.19,0-1.62,.09-.6,.09-1.11,.09-1.62,.26l-1.53,.51c-.51,.17-1.11,.43-1.53,.51-.51,.09-1.11,.26-1.53,.43-2.13,.43-4.43,.94-6.98,1.36h0c-.17,0-.26-.09-.26-.17q-.51-.34-.51-.43Z"/>
      <path class="cls-9" d="M249.43,389.05c0-5.36,4.26-9.62,9.62-9.62s9.62,4.26,9.62,9.62-4.26,9.62-9.62,9.62-9.62-4.26-9.62-9.62Z"/>
      <path class="cls-9" d="M324.44,389.47c0-5.36,4.26-9.62,9.62-9.62s9.62,4.26,9.62,9.62-4.26,9.62-9.62,9.62c-5.28,0-9.62-4.26-9.62-9.62Z"/>
      <g>
        <path d="M253.52,389.47c0-3.06,2.47-5.53,5.53-5.53s5.53,2.47,5.53,5.53-2.47,5.53-5.53,5.53-5.53-2.55-5.53-5.53Z"/>
        <path class="cls-12" d="M253.52,389.47c0-3.06,2.47-5.53,5.53-5.53s5.53,2.47,5.53,5.53-2.47,5.53-5.53,5.53-5.53-2.55-5.53-5.53Z"/>
      </g>
      <g>
        <path d="M328.61,389.64c0-3.06,2.47-5.53,5.53-5.53s5.53,2.47,5.53,5.53-2.47,5.53-5.53,5.53-5.53-2.38-5.53-5.53Z"/>
        <path class="cls-12" d="M328.61,389.64c0-3.06,2.47-5.53,5.53-5.53s5.53,2.47,5.53,5.53-2.47,5.53-5.53,5.53-5.53-2.38-5.53-5.53Z"/>
      </g>
      <g>
        <path d="M343.34,389.56c-.43-1.62-1.11-3.24-1.96-4.51-.85-1.28-2.13-2.3-3.41-3.15-1.36-.77-2.81-1.19-4.43-1.36-1.53-.09-3.24,.09-4.85,.68,1.28-1.28,3.06-2.04,4.85-2.13,1.87-.17,3.83,.17,5.36,1.19,1.62,.85,3.06,2.3,3.83,4,.77,1.53,.94,3.49,.6,5.28Z"/>
        <path d="M342.23,384.37c.68,0,1.28-.26,1.87-.77,.51-.51,.85-1.28,1.11-2.04,.17,.77,.09,1.79-.26,2.64-.43,.85-1.11,1.62-2.04,2.13l-.68-1.96Z"/>
        <path d="M340.62,382.75c.85-.09,1.62-.51,2.3-1.19,.68-.68,1.11-1.53,1.28-2.64,.17,.94,.09,2.13-.51,3.24-.51,1.11-1.36,1.96-2.55,2.47l-.51-1.87Z"/>
        <path d="M338.66,380.79c1.19-.17,2.21-.77,3.15-1.79,.85-.94,1.36-2.21,1.53-3.58,.17,1.36,0,2.81-.68,4.17-.68,1.36-1.87,2.47-3.32,3.15l-.68-1.96Z"/>
        <path d="M336.53,379.34c1.53-.43,3.06-1.28,4.17-2.55s1.79-3.06,1.87-4.85c.17,1.79-.17,3.75-1.11,5.36-.94,1.62-2.47,3.06-4.26,3.92l-.68-1.87Z"/>
      </g>
      <g>
        <path d="M249.01,389.05c-.43-1.79-.17-3.58,.68-5.28,.77-1.62,2.13-3.15,3.83-4,1.62-.85,3.58-1.36,5.36-1.19,1.87,.17,3.58,.94,4.85,2.13-1.62-.6-3.32-.77-4.85-.68-1.53,.09-3.15,.6-4.43,1.36-1.36,.77-2.55,1.79-3.41,3.15-.94,1.28-1.53,2.81-2.04,4.51Z"/>
        <path d="M249.52,385.73c-.85-.51-1.62-1.28-2.04-2.13-.43-.85-.51-1.79-.26-2.64,.17,.77,.6,1.53,1.11,2.04,.51,.51,1.19,.77,1.87,.77l-.68,1.96Z"/>
        <path d="M251.14,384.11c-1.11-.6-1.96-1.45-2.55-2.47-.51-1.11-.6-2.13-.51-3.24,.17,1.11,.6,1.96,1.28,2.64,.68,.68,1.45,1.11,2.3,1.19l-.51,1.87Z"/>
        <path d="M253.09,382.15c-1.45-.68-2.64-1.79-3.32-3.15s-.85-2.81-.68-4.17c.09,1.36,.68,2.64,1.53,3.58s1.96,1.53,3.15,1.79l-.68,1.96Z"/>
        <path d="M255.22,380.7c-1.87-.77-3.41-2.13-4.26-3.92-.94-1.62-1.28-3.58-1.11-5.36,.09,1.79,.77,3.49,1.87,4.85,1.11,1.36,2.55,2.13,4.17,2.55l-.68,1.87Z"/>
      </g>
      <circle class="cls-9" cx="335.51" cy="387.17" r="1.53"/>
      <circle class="cls-9" cx="261.35" cy="386.92" r="1.53"/>
      <path class="cls-9" d="M333.11,452.93l.89,12.55c1.18,17.13-12.99,32.34-31.74,33.52h0c-18.75,1.33-34.99-11.52-36.32-28.79l-.89-14.03,68.07-3.25Z"/>
      <g>
        <path class="cls-19" d="M375.46,181.31H224.25c-11.66,0-20.26,10.98-17.45,22.22l12.69,50.66c2.04,8.17,9.19,13.62,17.45,13.62h126.77c8.26,0,15.58-5.79,17.45-13.88l12-50.66c2.47-10.98-6.13-21.97-17.71-21.97Z"/>
        <path class="cls-3" d="M270.99,267.73h-34.74c-8.26,0-15.41-5.79-17.45-13.62l-12.69-50.49c-1.87-7.15,.85-14.05,6.13-18.13,2.47,35.93,25.71,66.66,58.75,82.24Z"/>
        <polygon class="cls-4" points="326.08 218.52 326.08 234.52 309.64 234.52 309.64 250.87 293.55 250.87 293.55 234.52 277.21 234.52 277.21 218.52 293.55 218.52 293.55 201.91 309.64 201.91 309.64 218.52 326.08 218.52"/>
        <polygon class="cls-9" points="324.37 216.64 324.37 232.73 307.77 232.73 307.77 249.08 291.76 249.08 291.76 232.73 275.42 232.73 275.42 216.64 291.76 216.64 291.76 200.13 307.77 200.13 307.77 216.64 324.37 216.64"/>
      </g>
      <path class="cls-8" d="M489.21,643.68c-.02,1.52-.21,3.05-.57,4.57h0c-.24,.96-.54,1.92-.91,2.86-3.41,8.66-6.95,18.03-10.56,28.07-2.9,8.08-5.85,16.6-8.8,25.52-2.3,6.97-4.6,14.19-6.88,21.64-1.24,4.05-2.47,8.16-3.69,12.35-2.51,8.57-4.98,17.44-7.4,26.58-1.8,6.86-3.59,13.67-5.35,20.46H159.93c-3.95-17.75-9.35-36.96-16.68-57.45-2-5.58-4.14-11.26-6.44-17.03-4.14-10.4-8.78-21.1-13.98-32.07-3.73-7.88-7.75-15.89-12.09-24.04-.23-.45-.48-.91-.72-1.36-5.8-10.84-1.34-24.36,9.81-29.54,23.88-11.09,47.77-22.18,71.66-33.24,11.34-5.25,24.77,.25,29.04,12,.24,.67,.5,1.35,.76,2.02,1.64,4.3,3.59,8.72,5.91,13.22,16.1,31.03,41.1,48.6,57.21,57.52,5.72,3.16,12.63,3.53,18.59,.85,5.28-2.38,10.7-5.29,16.11-8.91,26.89-17.96,40.46-44.31,47.33-64.09,.5-1.43,1.12-2.77,1.86-4.01,5.31-8.93,16.43-13.01,26.45-8.95,27.03,10.97,54.04,21.91,81.07,32.87,8.43,3.41,13.54,11.58,13.39,20.16Z"/>
      <path class="cls-8" d="M506.46,710.84c-2.63,3.2-10.89,12.4-24.5,14.81-6.55,1.16-12.51,.42-17.63-1.15-8.52-2.59-14.73-7.46-17.52-9.65-9.85-7.72-20.32-21.72-21.76-37.51-.39-4.22-.14-8.57,.95-12.97,4.77-19.29,24.28-34.43,48.08-35.81h.01c4.34-.25,8.83-.05,13.39,.68,.84,3.6,1.67,7.19,2.51,10.79,.49,2.13,.99,4.25,1.49,6.38h0s7.19,30.93,7.19,30.93c2.59,11.17,5.19,22.33,7.79,33.5Z"/>
      <path class="cls-8" d="M112.14,630.65c-12.17,25.14-24.34,50.27-36.5,75.41,1.86,3.69,7.89,14.49,20.64,19.84,16.34,6.86,31.54-.35,36.66-2.78,14.34-6.8,31.86-23.2,31.43-44.66-.48-23.49-22.34-45.88-52.22-47.81Z"/>
      <rect class="cls-10" x="163.32" y="690.59" width="77.4" height="16.78"/>
      <rect class="cls-10" x="292.26" y="679.18" width="8.5" height="106.55"/>
    </g>
  </g>
</svg>