<svg xmlns="http://www.w3.org/2000/svg"><symbol id="patient-b" viewBox="0 0 24 24"><path fill="none" d="M0 0h24v24H0z"/><path d="M15.11 12.45L14 10.24l-3.11 6.21c-.16.34-.51.55-.89.55s-.73-.21-.89-.55L7.38 13H2v5c0 1.1.9 2 2 2h16c1.1 0 2-.9 2-2v-5h-6c-.38 0-.73-.21-.89-.55z"/><path d="M20 4H4c-1.1 0-2 .9-2 2v5h6c.38 0 .73.21.89.55L10 13.76l3.11-6.21c.34-.68 1.45-.68 1.79 0L16.62 11H22V6c0-1.1-.9-2-2-2z"/></symbol><symbol id="power" viewBox="0 0 24 24"><path fill="none" d="M0 0h24v24H0z"/><path d="M13 3h-2v10h2V3zm4.83 2.17l-1.42 1.42A6.92 6.92 0 0 1 19 12c0 3.87-3.13 7-7 7A6.995 6.995 0 0 1 7.58 6.58L6.17 5.17A8.932 8.932 0 0 0 3 12a9 9 0 0 0 18 0c0-2.74-1.23-5.18-3.17-6.83z"/></symbol><symbol id="print" viewBox="0 0 24 24"><path fill="none" d="M0 0h24v24H0V0z"/><path d="M19 8H5c-1.66 0-3 1.34-3 3v4c0 1.1.9 2 2 2h2v2c0 1.1.9 2 2 2h8c1.1 0 2-.9 2-2v-2h2c1.1 0 2-.9 2-2v-4c0-1.66-1.34-3-3-3zm-4 11H9c-.55 0-1-.45-1-1v-4h8v4c0 .55-.45 1-1 1zm4-7c-.55 0-1-.45-1-1s.45-1 1-1 1 .45 1 1-.45 1-1 1zm-2-9H7c-.55 0-1 .45-1 1v2c0 .55.45 1 1 1h10c.55 0 1-.45 1-1V4c0-.55-.45-1-1-1z"/></symbol><symbol id="payroll-b" viewBox="0 0 24 24"><path fill="none" d="M0 0h24v24H0z"/><path d="M12 2C6.48 2 2 6.48 2 12s4.48 10 10 10 10-4.48 10-10S17.52 2 12 2zm.88 15.76V19h-1.75v-1.29c-.74-.18-2.39-.77-3.02-2.96l1.65-.67c.06.22.58 2.09 2.4 2.09.93 0 1.98-.48 1.98-1.61 0-.96-.7-1.46-2.28-2.03-1.1-.39-3.35-1.03-3.35-3.31 0-.1.01-2.4 2.62-2.96V5h1.75v1.24c1.84.32 2.51 1.79 2.66 2.23l-1.58.67c-.11-.35-.59-1.34-1.9-1.34-.7 0-1.81.37-1.81 1.39 0 .95.86 1.31 2.64 1.9 2.4.83 3.01 2.05 3.01 3.45 0 2.63-2.5 3.13-3.02 3.22z"/></symbol><symbol id="restart" viewBox="0 0 24 24"><path fill="none" d="M0 0h24v24H0V0z"/><path d="M12 5V2L8 6l4 4V7c3.31 0 6 2.69 6 6 0 2.97-2.17 5.43-5 5.91v2.02c3.95-.49 7-3.85 7-7.93 0-4.42-3.58-8-8-8zm-6 8c0-1.65.67-3.15 1.76-4.24L6.34 7.34A8.014 8.014 0 0 0 4 13c0 4.08 3.05 7.44 7 7.93v-2.02c-2.83-.48-5-2.94-5-5.91z"/></symbol><symbol id="refresh" viewBox="0 0 24 24"><path fill="none" d="M0 0h24v24H0V0z"/><path d="M17.65 6.35a7.95 7.95 0 0 0-6.48-2.31c-3.67.37-6.69 3.35-7.1 7.02C3.52 15.91 7.27 20 12 20a7.98 7.98 0 0 0 7.21-4.56c.32-.67-.16-1.44-.9-1.44-.37 0-.72.2-.88.53a5.994 5.994 0 0 1-6.8 3.31c-2.22-.49-4.01-2.3-4.48-4.52A6.002 6.002 0 0 1 12 6c1.66 0 3.14.69 4.22 1.78l-1.51 1.51c-.63.63-.19 1.71.7 1.71H19c.55 0 1-.45 1-1V6.41c0-.89-1.08-1.34-1.71-.71l-.64.65z"/></symbol><symbol id="person-b" viewBox="0 0 512 512"><style>.st0,.st1{fill:none;stroke:#000;stroke-width:32}.st0{stroke-linecap:round;stroke-linejoin:round}.st1{stroke-miterlimit:10}</style><path d="M256 304c-87 0-175.3 48-191.6 138.6-2 10.9 4.2 21.4 15.6 21.4h352c11.4 0 17.6-10.5 15.6-21.4C431.3 352 343 304 256 304zm88-160c-3.9 52.9-44 96-88 96s-84.1-43.1-88-96c-4-55 35-96 88-96s92 42 88 96z"/><path d="M344 144c-3.9 52.9-44 96-88 96s-84.1-43.1-88-96c-4-55 35-96 88-96s92 42 88 96z" class="st0"/><path d="M256 304c-87 0-175.3 48-191.6 138.6-2 10.9 4.2 21.4 15.6 21.4h352c11.4 0 17.6-10.5 15.6-21.4C431.3 352 343 304 256 304z" class="st1"/></symbol><symbol id="person" viewBox="0 0 24 24"><path fill="none" d="M0 0h24v24H0V0z"/><path d="M12 12c2.21 0 4-1.79 4-4s-1.79-4-4-4-4 1.79-4 4 1.79 4 4 4zm0 2c-2.67 0-8 1.34-8 4v1c0 .55.45 1 1 1h14c.55 0 1-.45 1-1v-1c0-2.66-5.33-4-8-4z"/></symbol><symbol id="question" viewBox="0 0 24 24"><path fill="none" d="M0 0h24v24H0z"/><path d="M11 18h2v-2h-2v2zm1-16C6.48 2 2 6.48 2 12s4.48 10 10 10 10-4.48 10-10S17.52 2 12 2zm0 18c-4.41 0-8-3.59-8-8s3.59-8 8-8 8 3.59 8 8-3.59 8-8 8zm0-14c-2.21 0-4 1.79-4 4h2c0-1.1.9-2 2-2s2 .9 2 2c0 2-3 1.75-3 5h2c0-2.25 3-2.5 3-5 0-2.21-1.79-4-4-4z"/></symbol><symbol id="right" viewBox="0 0 24 24"><path fill="none" d="M24 24H0V0h24v24z" opacity=".87"/><path d="M7.38 21.01c.49.49 1.28.49 1.77 0l8.31-8.31a.996.996 0 0 0 0-1.41L9.15 2.98a1.25 1.25 0 0 0-1.77 0 1.25 1.25 0 0 0 0 1.77L14.62 12l-7.25 7.25c-.48.48-.48 1.28.01 1.76z"/></symbol><symbol id="save" viewBox="0 0 24 24"><path fill="none" d="M0 0h24v24H0V0z"/><path d="M17.59 3.59c-.38-.38-.89-.59-1.42-.59H5a2 2 0 0 0-2 2v14c0 1.1.9 2 2 2h14c1.1 0 2-.9 2-2V7.83c0-.53-.21-1.04-.59-1.41l-2.82-2.83zM12 19c-1.66 0-3-1.34-3-3s1.34-3 3-3 3 1.34 3 3-1.34 3-3 3zm1-10H7c-1.1 0-2-.9-2-2s.9-2 2-2h6c1.1 0 2 .9 2 2s-.9 2-2 2z"/></symbol><symbol id="service-b" viewBox="0 0 24 24"><path fill="none" d="M0 0h24v24H0V0z"/><path d="M12 2L4 5v6.09c0 5.05 3.41 9.76 8 10.91 4.59-1.15 8-5.86 8-10.91V5l-8-3zm-1.06 13.54L7.4 12l1.41-1.41 2.12 2.12 4.24-4.24 1.41 1.41-5.64 5.66z"/></symbol><symbol id="sub-right" viewBox="0 0 24 24"><path fill="none" d="M0 0h24v24H0V0z"/><path d="M19 15l-6 6-1.42-1.42L15.17 16H4V4h2v10h9.17l-3.59-3.58L13 9l6 6z"/></symbol><symbol id="search" viewBox="0 0 24 24"><path fill="none" d="M0 0h24v24H0V0z"/><path d="M15.5 14h-.79l-.28-.27a6.5 6.5 0 0 0 1.48-5.34c-.47-2.78-2.79-5-5.59-5.34a6.505 6.505 0 0 0-7.27 7.27c.34 2.8 2.56 5.12 5.34 5.59a6.5 6.5 0 0 0 5.34-1.48l.27.28v.79l4.25 4.25c.41.41 1.08.41 1.49 0 .41-.41.41-1.08 0-1.49L15.5 14zm-6 0C7.01 14 5 11.99 5 9.5S7.01 5 9.5 5 14 7.01 14 9.5 11.99 14 9.5 14z"/></symbol><symbol id="timelapse" viewBox="0 0 24 24"><path fill="none" d="M0 0h24v24H0V0z"/><path d="M16.24 7.76A5.974 5.974 0 0 0 12 6v6l-4.24 4.24c2.34 2.34 6.14 2.34 8.49 0a5.99 5.99 0 0 0-.01-8.48zM12 2C6.48 2 2 6.48 2 12s4.48 10 10 10 10-4.48 10-10S17.52 2 12 2zm0 18c-4.42 0-8-3.58-8-8s3.58-8 8-8 8 3.58 8 8-3.58 8-8 8z"/></symbol><symbol id="unlock" viewBox="0 0 24 24"><path fill="none" d="M0 0h24v24H0z"/><path d="M12 17c1.1 0 2-.9 2-2s-.9-2-2-2-2 .9-2 2 .9 2 2 2zm6-9h-1V6c0-2.76-2.24-5-5-5S7 3.24 7 6h1.9c0-1.71 1.39-3.1 3.1-3.1 1.71 0 3.1 1.39 3.1 3.1v2H6c-1.1 0-2 .9-2 2v10c0 1.1.9 2 2 2h12c1.1 0 2-.9 2-2V10c0-1.1-.9-2-2-2zm0 12H6V10h12v10z"/></symbol><symbol id="time-history" viewBox="0 0 24 24"><path fill="none" d="M0 0h24v24H0z"/><path d="M13 3a9 9 0 0 0-9 9H1l3.89 3.89.07.14L9 12H6c0-3.87 3.13-7 7-7s7 3.13 7 7-3.13 7-7 7c-1.93 0-3.68-.79-4.94-2.06l-1.42 1.42A8.954 8.954 0 0 0 13 21a9 9 0 0 0 0-18zm-1 5v5l4.28 2.54.72-1.21-3.5-2.08V8H12z"/></symbol><symbol id="up" viewBox="0 0 24 24"><path fill="none" d="M0 0h24v24H0V0z"/><path d="M13 19V7.83l4.88 4.88c.39.39 1.03.39 1.42 0a.996.996 0 0 0 0-1.41l-6.59-6.59a.996.996 0 0 0-1.41 0l-6.6 6.58a.996.996 0 1 0 1.41 1.41L11 7.83V19c0 .55.45 1 1 1s1-.45 1-1z"/></symbol><symbol id="upload-o" viewBox="0 0 24 24"><path fill="none" d="M0 0h24v24H0V0z"/><path d="M9 16h6v-6h4l-7-7-7 7h4v6zm3-10.17L14.17 8H13v6h-2V8H9.83L12 5.83zM5 18h14v2H5z"/></symbol><symbol id="update" viewBox="0 0 24 24"><path fill="none" d="M0 0h24v24H0z"/><path d="M16 18v2H8v-2h8zM11 7.99V16h2V7.99h3L12 4 8 7.99h3z"/></symbol><symbol id="warning" viewBox="0 0 24 24"><path d="M4.47 21h15.06c1.54 0 2.5-1.67 1.73-3L13.73 4.99c-.77-1.33-2.69-1.33-3.46 0L2.74 18c-.77 1.33.19 3 1.73 3zM12 14c-.55 0-1-.45-1-1v-2c0-.55.45-1 1-1s1 .45 1 1v2c0 .55-.45 1-1 1zm1 4h-2v-2h2v2z"/></symbol><symbol id="worker" viewBox="0 0 24 24"><path fill="none" d="M0 0h24v24H0z"/><path d="M18 3l-3 3V3H9C6.24 3 4 5.24 4 8h5v3h6V8l3 3h2V3h-2zM9 13v7c0 .55.45 1 1 1h4c.55 0 1-.45 1-1v-7H9z"/></symbol><symbol id="add" viewBox="0 0 24 24"><path fill="none" d="M0 0h24v24H0V0z"/><path d="M18 13h-5v5c0 .55-.45 1-1 1s-1-.45-1-1v-5H6c-.55 0-1-.45-1-1s.45-1 1-1h5V6c0-.55.45-1 1-1s1 .45 1 1v5h5c.55 0 1 .45 1 1s-.45 1-1 1z"/></symbol><symbol id="add-filled" viewBox="0 0 24 24"><path fill="none" d="M0 0h24v24H0z"/><path d="M19 3H5a2 2 0 0 0-2 2v14a2 2 0 0 0 2 2h14c1.1 0 2-.9 2-2V5c0-1.1-.9-2-2-2zm-2 10h-4v4h-2v-4H7v-2h4V7h2v4h4v2z"/></symbol><symbol id="admin-b" viewBox="0 0 700 700"><path d="M284.8 361.7h-73.9c-6.8 0-12.3 5.5-12.3 12.3v49.3c0 4.1 2.1 8 5.5 10.2l37 24.6c4.1 2.7 9.4 2.7 13.5 0l37-24.6c3.4-2.3 5.5-6.1 5.5-10.2V374c0-3.3-1.3-6.4-3.6-8.7-2.3-2.3-5.4-3.6-8.7-3.6zm-12.3 54.9l-24.6 16.5-24.6-16.5v-30.3h49.3v30.3zm37-190.4c26.1 0 51.2-10.4 69.7-28.9s28.9-43.5 28.9-69.7-10.5-51.1-28.9-69.6c-18.5-18.5-43.5-28.9-69.7-28.9-26.1 0-51.2 10.4-69.7 28.9s-28.9 43.5-28.9 69.7 10.4 51.2 28.9 69.7c18.5 18.4 43.5 28.8 69.7 28.8zm0-24.6c-18.7 0-36.8-7-50.5-19.8-13.7-12.8-22.1-30.3-23.4-48.9 11.3-10.1 32.4-24.6 43.5-18.8l8.6 4.6c19.2 10.2 37 20 94.3 21.3-2.9 17.2-11.7 32.8-25 44.1a74.404 74.404 0 0 1-47.5 17.5zm0-147.8c17.5 0 34.3 6.2 47.7 17.5 13.3 11.3 22.2 26.9 25.1 44.1-50.4-1.2-65.5-9.2-82.6-18.4l-9.2-4.8c-16.2-6.2-34.5-3.9-48.7 6.2C247.5 85.2 257 73.9 269 66c12-8 26.1-12.2 40.5-12.2z"/><path d="M555.8 423.3h-24.6V374c.1-18.5-6.8-36.4-19.3-50.1a73.851 73.851 0 0 0-48.2-23.8c-13.5-37-50.9-59.6-100.5-59.6-3.2 0-6.3 1.4-8.6 3.7-12 11.9-28.2 18.6-45.1 18.6s-33.1-6.7-45.1-18.6c-2.3-2.3-5.4-3.6-8.6-3.7-63.7 0-106.4 37-106.4 91.8v201.9c0 3.3 1.3 6.4 3.6 8.7s5.4 3.6 8.7 3.6h184.8v86.2c0 3.3 1.3 6.4 3.6 8.7 2.3 2.3 5.4 3.6 8.7 3.6h197.1c3.3 0 6.4-1.3 8.7-3.6 2.3-2.3 3.6-5.4 3.6-8.7V435.6c0-3.3-1.3-6.4-3.6-8.7-2.4-2.3-5.5-3.6-8.8-3.6zM506.6 374v49.3H408V374c.2-12.7 5.3-24.9 14.1-34 8.8-9.1 20.8-14.6 33.5-15.2h1.6c13.1 0 25.6 5.2 34.8 14.4 9.4 9.2 14.6 21.8 14.6 34.8zM368 265.6c4.1.2 8.2.6 12.3 1.2-6.2 11.6-24.6 33.3-71.3 33.3s-65.2-21.8-71.4-33.3c4.3-.7 8.6-1.1 12.9-1.2 16.2 14.4 37.1 22.3 58.8 22.3 21.6 0 42.5-7.9 58.7-22.3zM174 521.8V332.6c-.4-12.8 3.2-25.4 10.4-36.1 7.2-10.6 17.6-18.7 29.6-23.1 6.9 15.8 29.8 51.2 95.5 51.2s88.6-35.5 95.5-51.2c14.3 5.4 26.1 15.7 33.3 29.2-.9-1.7-18.6 7.9-20.3 8.9-5.8 3.7-11.2 8.1-15.9 13.2-11.9 13.6-18.5 31.1-18.6 49.3v49.3h-24.6c-6.8 0-12.3 5.5-12.3 12.3v86.2H174zm369.5 98.6H371.1V447.9h172.4v172.5z"/><path d="M457.3 484.9c-9 0-17.7 3.3-24.5 9.3-6.7 6-11.1 14.3-12.1 23.2-1.1 9 1.2 18 6.3 25.4l-6.3 24.6c-.9 3.7-.1 7.6 2.2 10.6 2.2 3.2 5.8 5.2 9.7 5.3h49.3c3.8 0 7.4-1.7 9.7-4.7 2.3-3 3.2-6.9 2.2-10.6l-6.3-24.6c5.4-7.4 7.8-16.6 6.8-25.7-1-9.1-5.4-17.5-12.2-23.6-6.8-6-15.6-9.3-24.8-9.2zm4.8 57.9l4.1 16h-17.7l4.1-16c1.2-4.4-.2-9.2-3.6-12.3-3.7-3.4-4.9-8.8-3.1-13.5 1.8-4.7 6.4-7.8 11.5-7.8s9.6 3.1 11.5 7.8c1.9 4.7.6 10.1-3.1 13.5-3.5 3.1-4.9 7.8-3.7 12.3z"/></symbol><symbol id="web" viewBox="0 0 24 24"><path d="M19 4H5a2 2 0 0 0-2 2v12a2 2 0 0 0 2 2h14c1.1 0 2-.9 2-2V6a2 2 0 0 0-2-2zm-1 14H6c-.55 0-1-.45-1-1V8h14v9c0 .55-.45 1-1 1z"/></symbol><symbol id="back" viewBox="0 0 24 24"><path fill="none" d="M0 0h24v24H0V0z"/><path d="M19 11H7.83l4.88-4.88c.39-.39.39-1.03 0-1.42a.996.996 0 0 0-1.41 0l-6.59 6.59a.996.996 0 0 0 0 1.41l6.59 6.59a.996.996 0 1 0 1.41-1.41L7.83 13H19c.55 0 1-.45 1-1s-.45-1-1-1z"/></symbol><symbol id="cancel" viewBox="0 0 24 24"><path fill="none" d="M0 0h24v24H0V0z" opacity=".87"/><path d="M12 2C6.47 2 2 6.47 2 12s4.47 10 10 10 10-4.47 10-10S17.53 2 12 2zm4.3 14.3a.996.996 0 0 1-1.41 0L12 13.41 9.11 16.3a.996.996 0 1 1-1.41-1.41L10.59 12 7.7 9.11A.996.996 0 1 1 9.11 7.7L12 10.59l2.89-2.89a.996.996 0 1 1 1.41 1.41L13.41 12l2.89 2.89c.38.38.38 1.02 0 1.41z"/></symbol><symbol id="block" viewBox="0 0 24 24"><path fill="none" d="M0 0h24v24H0z"/><path d="M12 2C6.48 2 2 6.48 2 12s4.48 10 10 10 10-4.48 10-10S17.52 2 12 2zm5 11H7v-2h10v2z"/></symbol><symbol id="building" viewBox="0 0 24 24"><path fill="none" d="M0 0h24v24H0V0z"/><path d="M12 7V5c0-1.1-.9-2-2-2H4c-1.1 0-2 .9-2 2v14c0 1.1.9 2 2 2h16c1.1 0 2-.9 2-2V9c0-1.1-.9-2-2-2h-8zM6 19H4v-2h2v2zm0-4H4v-2h2v2zm0-4H4V9h2v2zm0-4H4V5h2v2zm4 12H8v-2h2v2zm0-4H8v-2h2v2zm0-4H8V9h2v2zm0-4H8V5h2v2zm9 12h-7v-2h2v-2h-2v-2h2v-2h-2V9h7c.55 0 1 .45 1 1v8c0 .55-.45 1-1 1zm-1-8h-2v2h2v-2zm0 4h-2v2h2v-2z"/></symbol><symbol id="check" viewBox="0 0 24 24"><path fill="none" d="M0 0h24v24H0V0z"/><path d="M9 16.17L5.53 12.7a.996.996 0 1 0-1.41 1.41l4.18 4.18c.39.39 1.02.39 1.41 0L20.29 7.71a.996.996 0 1 0-1.41-1.41L9 16.17z"/></symbol><symbol id="check-outline" viewBox="0 0 24 24"><path fill="none" d="M0 0h24v24H0V0z"/><path d="M18 19H6c-.55 0-1-.45-1-1V6c0-.55.45-1 1-1h12c.55 0 1 .45 1 1v12c0 .55-.45 1-1 1zm1-16H5c-1.1 0-2 .9-2 2v14c0 1.1.9 2 2 2h14c1.1 0 2-.9 2-2V5c0-1.1-.9-2-2-2z"/></symbol><symbol id="check-w" viewBox="0 0 24 24"><style>.st0{fill:none}.st1{fill:#fff}</style><path d="M0 0h24v24H0V0z" class="st0"/><path d="M10.3 17.8c-.5.5-1.4.5-1.9 0L3.5 13c-.5-.5-.5-1.4 0-1.9s1.4-.5 1.9 0L9.3 15l9.3-9.3c.5-.5 1.4-.5 1.9 0s.5 1.4 0 1.9L10.3 17.8z" class="st1"/></symbol><symbol id="checkfilled" viewBox="0 0 24 24"><path fill="none" d="M0 0h24v24H0V0z"/><path d="M19 3H5c-1.1 0-2 .9-2 2v14c0 1.1.9 2 2 2h14c1.1 0 2-.9 2-2V5c0-1.1-.9-2-2-2zm-8.29 13.29a.996.996 0 0 1-1.41 0L5.71 12.7a.996.996 0 1 1 1.41-1.41L10 14.17l6.88-6.88a.996.996 0 1 1 1.41 1.41l-7.58 7.59z"/></symbol><symbol id="check-round" viewBox="0 0 24 24"><path fill="none" d="M0 0h24v24H0V0z"/><path d="M12 2C6.48 2 2 6.48 2 12s4.48 10 10 10 10-4.48 10-10S17.52 2 12 2zM9.29 16.29L5.7 12.7a.996.996 0 1 1 1.41-1.41L10 14.17l6.88-6.88a.996.996 0 1 1 1.41 1.41l-7.59 7.59a.996.996 0 0 1-1.41 0z"/></symbol><symbol id="cloud" viewBox="0 0 24 24"><path fill="none" d="M0 0h24v24H0z"/><path d="M19.35 10.04A7.49 7.49 0 0 0 12 4C9.11 4 6.6 5.64 5.35 8.04A5.994 5.994 0 0 0 0 14c0 3.31 2.69 6 6 6h13c2.76 0 5-2.24 5-5 0-2.64-2.05-4.78-4.65-4.96zM19 18H6c-2.21 0-4-1.79-4-4s1.79-4 4-4h.71C7.37 7.69 9.48 6 12 6c3.04 0 5.5 2.46 5.5 5.5v.5H19c1.66 0 3 1.34 3 3s-1.34 3-3 3z"/></symbol><symbol id="close" viewBox="0 0 24 24"><path fill="none" d="M0 0h24v24H0V0z"/><path d="M18.3 5.71a.996.996 0 0 0-1.41 0L12 10.59 7.11 5.7A.996.996 0 1 0 5.7 7.11L10.59 12 5.7 16.89a.996.996 0 1 0 1.41 1.41L12 13.41l4.89 4.89a.996.996 0 1 0 1.41-1.41L13.41 12l4.89-4.89c.38-.38.38-1.02 0-1.4z"/></symbol><symbol id="copy" viewBox="0 0 24 24"><path fill="none" d="M0 0h24v24H0V0z"/><path d="M15 1H4c-1.1 0-2 .9-2 2v13c0 .55.45 1 1 1s1-.45 1-1V4c0-.55.45-1 1-1h10c.55 0 1-.45 1-1s-.45-1-1-1zm.59 4.59l4.83 4.83c.37.37.58.88.58 1.41V21c0 1.1-.9 2-2 2H7.99C6.89 23 6 22.1 6 21l.01-14c0-1.1.89-2 1.99-2h6.17c.53 0 1.04.21 1.42.59zM15 12h4.5L14 6.5V11c0 .55.45 1 1 1z"/></symbol><symbol id="date" viewBox="0 0 24 24"><path fill="none" d="M0 0h24v24H0V0z"/><path d="M20 3h-1V2c0-.55-.45-1-1-1s-1 .45-1 1v1H7V2c0-.55-.45-1-1-1s-1 .45-1 1v1H4c-1.1 0-2 .9-2 2v16c0 1.1.9 2 2 2h16c1.1 0 2-.9 2-2V5c0-1.1-.9-2-2-2zm-1 18H5c-.55 0-1-.45-1-1V8h16v12c0 .55-.45 1-1 1z"/></symbol><symbol id="delete" viewBox="0 0 24 24"><path fill="none" d="M0 0h24v24H0z"/><path d="M6 19c0 1.1.9 2 2 2h8c1.1 0 2-.9 2-2V7H6v12zM19 4h-3.5l-1-1h-5l-1 1H5v2h14V4z"/></symbol><symbol id="customer" viewBox="0 0 24 24"><path fill="none" d="M0 0h24v24H0z"/><path d="M16 11c1.66 0 2.99-1.34 2.99-3S17.66 5 16 5c-1.66 0-3 1.34-3 3s1.34 3 3 3zm-8 0c1.66 0 2.99-1.34 2.99-3S9.66 5 8 5C6.34 5 5 6.34 5 8s1.34 3 3 3zm0 2c-2.33 0-7 1.17-7 3.5V19h14v-2.5c0-2.33-4.67-3.5-7-3.5zm8 0c-.29 0-.62.02-.97.05 1.16.84 1.97 1.97 1.97 3.45V19h6v-2.5c0-2.33-4.67-3.5-7-3.5z"/></symbol><symbol id="datatransfer" viewBox="0 0 24 24"><path fill="none" d="M0 0h24v24H0z"/><path d="M16 17.01V10h-2v7.01h-3L15 21l4-3.99h-3zM9 3L5 6.99h3V14h2V6.99h3L9 3z"/></symbol><symbol id="desktop" viewBox="0 0 24 24"><path fill="none" d="M0 0h24v24H0z"/><path d="M21 2H3c-1.1 0-2 .9-2 2v12c0 1.1.9 2 2 2h7v2H8v2h8v-2h-2v-2h7c1.1 0 2-.9 2-2V4c0-1.1-.9-2-2-2zm0 14H3V4h18v12z"/></symbol><symbol id="delete-o" viewBox="0 0 24 24"><path fill="none" d="M0 0h24v24H0z"/><path d="M15 2h-3.5l-1-1h-5l-1 1H1v2h14zm1 7c-.7 0-1.37.1-2 .29V5H2v12c0 1.1.9 2 2 2h5.68A6.999 6.999 0 0 0 23 16c0-3.87-3.13-7-7-7zm-7 7c0 .34.03.67.08 1H4V7h8v3.26c-1.81 1.27-3 3.36-3 5.74zm7 5c-2.76 0-5-2.24-5-5s2.24-5 5-5 5 2.24 5 5-2.24 5-5 5z"/><path d="M16.5 12H15v5l3.6 2.1.8-1.2-2.9-1.7z"/></symbol><symbol id="down" viewBox="0 0 24 24"><path fill="none" d="M0 0h24v24H0V0z"/><path d="M11 5v11.17l-4.88-4.88c-.39-.39-1.03-.39-1.42 0a.996.996 0 0 0 0 1.41l6.59 6.59c.39.39 1.02.39 1.41 0l6.59-6.59a.996.996 0 1 0-1.41-1.41L13 16.17V5c0-.55-.45-1-1-1s-1 .45-1 1z"/></symbol><symbol id="download" viewBox="0 0 24 24"><path fill="none" d="M0 0h24v24H0z"/><path d="M5 20h14v-2H5v2zM19 9h-4V3H9v6H5l7 7 7-7z"/></symbol><symbol id="download-o" viewBox="0 0 24 24"><path fill="none" d="M0 0h24v24H0V0z"/><path d="M19 9h-4V3H9v6H5l7 7 7-7zm-8 2V5h2v6h1.17L12 13.17 9.83 11H11zm-6 7h14v2H5z"/></symbol><symbol id="downs" viewBox="0 0 24 24"><path fill="none" d="M0 0h24v24H0V0z"/><path d="M8.71 11.71l2.59 2.59c.39.39 1.02.39 1.41 0l2.59-2.59c.63-.63.18-1.71-.71-1.71H9.41c-.89 0-1.33 1.08-.7 1.71z"/></symbol><symbol id="edit" viewBox="0 0 24 24"><path fill="none" d="M0 0h24v24H0V0z"/><path d="M3 17.46v3.04c0 .28.22.5.5.5h3.04c.13 0 .26-.05.35-.15L17.81 9.94l-3.75-3.75L3.15 17.1c-.1.1-.15.22-.15.36zM20.71 7.04a.996.996 0 0 0 0-1.41l-2.34-2.34a.996.996 0 0 0-1.41 0l-1.83 1.83 3.75 3.75 1.83-1.83z"/></symbol><symbol id="error" viewBox="0 0 24 24"><path d="M12 2C6.48 2 2 6.48 2 12s4.48 10 10 10 10-4.48 10-10S17.52 2 12 2zm0 11c-.55 0-1-.45-1-1V8c0-.55.45-1 1-1s1 .45 1 1v4c0 .55-.45 1-1 1zm1 4h-2v-2h2v2z"/></symbol><symbol id="eye" viewBox="0 0 24 24"><path fill="none" d="M0 0h24v24H0V0z"/><path d="M12 4.5C7 4.5 2.73 7.61 1 12c1.73 4.39 6 7.5 11 7.5s9.27-3.11 11-7.5c-1.73-4.39-6-7.5-11-7.5zM12 17c-2.76 0-5-2.24-5-5s2.24-5 5-5 5 2.24 5 5-2.24 5-5 5zm0-8c-1.66 0-3 1.34-3 3s1.34 3 3 3 3-1.34 3-3-1.34-3-3-3z"/></symbol><symbol id="eye-no" viewBox="0 0 24 24"><path fill="none" d="M0 0h24v24H0V0zm0 0h24v24H0V0zm0 0h24v24H0V0zm0 0h24v24H0V0z"/><path d="M12 6.5c2.76 0 5 2.24 5 5 0 .51-.1 1-.24 1.46l3.06 3.06c1.39-1.23 2.49-2.77 3.18-4.53C21.27 7.11 17 4 12 4c-1.27 0-2.49.2-3.64.57l2.17 2.17c.47-.14.96-.24 1.47-.24zM2.71 3.16a.996.996 0 0 0 0 1.41l1.97 1.97A11.892 11.892 0 0 0 1 11.5C2.73 15.89 7 19 12 19c1.52 0 2.97-.3 4.31-.82l2.72 2.72a.996.996 0 1 0 1.41-1.41L4.13 3.16c-.39-.39-1.03-.39-1.42 0zM12 16.5c-2.76 0-5-2.24-5-5 0-.77.18-1.5.49-2.14l1.57 1.57c-.03.18-.06.37-.06.57 0 1.66 1.34 3 3 3 .2 0 .38-.03.57-.07L14.14 16c-.65.32-1.37.5-2.14.5zm2.97-5.33a2.97 2.97 0 0 0-2.64-2.64l2.64 2.64z"/></symbol><symbol id="filter" viewBox="0 0 24 24"><path fill="none" d="M0 0h24v24H0V0z"/><path d="M11 18h2c.55 0 1-.45 1-1s-.45-1-1-1h-2c-.55 0-1 .45-1 1s.45 1 1 1zM3 7c0 .55.45 1 1 1h16c.55 0 1-.45 1-1s-.45-1-1-1H4c-.55 0-1 .45-1 1zm4 6h10c.55 0 1-.45 1-1s-.45-1-1-1H7c-.55 0-1 .45-1 1s.45 1 1 1z"/></symbol><symbol id="filter-cancel" viewBox="0 0 24 24"><path d="M17 11h-3.5l-2 2H17c.5 0 1-.5 1-1s-.5-1-1-1zM6 12c0 .5.5 1 1 1h1.7l2-2H7c-.5 0-1 .5-1 1zm14-6h-1.5l-2 2H20c.5 0 1-.5 1-1s-.5-1-1-1zM3 7c0 .5.5 1 1 1h9.7l2-2H4c-.5 0-1 .5-1 1zm10 9h-2c-.5 0-1 .5-1 1s.5 1 1 1h2c.5 0 1-.5 1-1s-.5-1-1-1z"/><path d="M2.9 18.1c.4.4 1 .4 1.4 0L20 2.4c.4-.4.4-1 0-1.4s-1-.4-1.4 0L2.9 16.7c-.3.3-.3 1 0 1.4z"/></symbol><symbol id="grid" viewBox="0 0 24 24"><path fill="none" d="M0 0h24v24H0z"/><path d="M3 3v8h8V3H3zm6 6H5V5h4v4zm-6 4v8h8v-8H3zm6 6H5v-4h4v4zm4-16v8h8V3h-8zm6 6h-4V5h4v4zm-6 4v8h8v-8h-8zm6 6h-4v-4h4v4z"/></symbol><symbol id="home-o" viewBox="0 0 512 512"><style>.st0,.st1{fill:none}.st1{stroke:#000;stroke-width:32;stroke-linecap:round;stroke-linejoin:round}</style><path d="M480 256L266.9 52c-5-5.3-16.7-5.3-21.8 0L32 256m368-77V64h-48v69" class="st1"/><path d="M84.5 205.8v200.3c0 18.7 15.1 33.8 33.8 33.8h38.8c18.7 0 33.8-15.1 33.8-33.8v-90.8c0-18.7 15.1-33.8 33.8-33.8h56.9c18.7 0 33.8 15.1 33.8 33.8v90.8c0 18.7 15.1 33.8 33.8 33.8h44.3c18.7 0 33.8-15.1 33.8-33.8V205.8" class="st1"/></symbol><symbol id="folder-o" viewBox="0 0 24 24"><path fill="none" d="M0 0h24v24H0V0z"/><path d="M9.17 6l2 2H20v10H4V6h5.17M10 4H4c-1.1 0-1.99.9-1.99 2L2 18c0 1.1.9 2 2 2h16c1.1 0 2-.9 2-2V8c0-1.1-.9-2-2-2h-8l-2-2z"/></symbol><symbol id="history" viewBox="0 0 24 24"><path fill="none" d="M0 0h24v24H0z"/><path d="M12 2C6.5 2 2 6.5 2 12s4.5 10 10 10 10-4.5 10-10S17.5 2 12 2zm4.2 14.2L11 13V7h1.5v5.2l4.5 2.7-.8 1.3z"/></symbol><symbol id="home" viewBox="0 0 24 24"><path fill="none" d="M0 0h24v24H0V0z"/><path d="M10 19v-5h4v5c0 .55.45 1 1 1h3c.55 0 1-.45 1-1v-7h1.7c.46 0 .68-.57.33-.87L12.67 3.6c-.38-.34-.96-.34-1.34 0l-8.36 7.53c-.34.3-.13.87.33.87H5v7c0 .55.45 1 1 1h3c.55 0 1-.45 1-1z"/></symbol><symbol id="key" viewBox="0 0 24 24"><path fill="none" d="M0 0h24v24H0V0z"/><path d="M12.65 10a5.998 5.998 0 0 0-6.88-3.88c-2.29.46-4.15 2.29-4.63 4.58A6.006 6.006 0 0 0 7 18a5.99 5.99 0 0 0 5.65-4H17v2c0 1.1.9 2 2 2s2-.9 2-2v-2c1.1 0 2-.9 2-2s-.9-2-2-2h-8.35zM7 14c-1.1 0-2-.9-2-2s.9-2 2-2 2 .9 2 2-.9 2-2 2z"/></symbol><symbol id="left" viewBox="0 0 24 24"><path fill="none" d="M0 0h24v24H0V0z" opacity=".87"/><path d="M16.62 2.99a1.25 1.25 0 0 0-1.77 0L6.54 11.3a.996.996 0 0 0 0 1.41l8.31 8.31c.49.49 1.28.49 1.77 0s.49-1.28 0-1.77L9.38 12l7.25-7.25c.48-.48.48-1.28-.01-1.76z"/></symbol><symbol id="late" viewBox="0 0 24 24"><path d="M12 2C6.5 2 2 6.5 2 12s4.5 10 10 10 10-4.5 10-10S17.5 2 12 2zm3.55 13.8l-4.08-2.51c-.3-.18-.48-.5-.48-.85V7.75a.77.77 0 0 1 .76-.75c.41 0 .75.34.75.75v4.45l3.84 2.31c.36.22.48.69.26 1.05-.22.35-.69.46-1.05.24z"/></symbol><symbol id="menu" viewBox="0 0 24 24"><path fill="none" d="M0 0h24v24H0V0z"/><path d="M4 18h16c.55 0 1-.45 1-1s-.45-1-1-1H4c-.55 0-1 .45-1 1s.45 1 1 1zm0-5h16c.55 0 1-.45 1-1s-.45-1-1-1H4c-.55 0-1 .45-1 1s.45 1 1 1zM3 7c0 .55.45 1 1 1h16c.55 0 1-.45 1-1s-.45-1-1-1H4c-.55 0-1 .45-1 1z"/></symbol><symbol id="list" viewBox="0 0 24 24"><path fill="none" d="M0 0h24v24H0z"/><path d="M3 13h2v-2H3v2zm0 4h2v-2H3v2zm0-8h2V7H3v2zm4 4h14v-2H7v2zm0 4h14v-2H7v2zM7 7v2h14V7H7z"/></symbol><symbol id="logout" viewBox="0 0 24 24"><path fill="none" d="M0 0h24v24H0V0z"/><path d="M10.79 16.29c.39.39 1.02.39 1.41 0l3.59-3.59a.996.996 0 0 0 0-1.41L12.2 7.7a.996.996 0 1 0-1.41 1.41L12.67 11H4c-.55 0-1 .45-1 1s.45 1 1 1h8.67l-1.88 1.88c-.39.39-.38 1.03 0 1.41zM19 3H5a2 2 0 0 0-2 2v3c0 .55.45 1 1 1s1-.45 1-1V6c0-.55.45-1 1-1h12c.55 0 1 .45 1 1v12c0 .55-.45 1-1 1H6c-.55 0-1-.45-1-1v-2c0-.55-.45-1-1-1s-1 .45-1 1v3c0 1.1.9 2 2 2h14c1.1 0 2-.9 2-2V5c0-1.1-.9-2-2-2z"/></symbol><symbol id="mobile" viewBox="0 0 24 24"><path fill="none" d="M0 0h24v24H0z"/><path d="M17 1.01L7 1c-1.1 0-2 .9-2 2v18c0 1.1.9 2 2 2h10c1.1 0 2-.9 2-2V3c0-1.1-.9-1.99-2-1.99zM17 19H7V5h10v14z"/></symbol><symbol id="more" viewBox="0 0 24 24"><path fill="none" d="M0 0h24v24H0V0z"/><path d="M12 8c1.1 0 2-.9 2-2s-.9-2-2-2-2 .9-2 2 .9 2 2 2zm0 2c-1.1 0-2 .9-2 2s.9 2 2 2 2-.9 2-2-.9-2-2-2zm0 6c-1.1 0-2 .9-2 2s.9 2 2 2 2-.9 2-2-.9-2-2-2z"/></symbol><symbol id="money" viewBox="0 0 24 24"><path fill="none" d="M0 0h24v24H0V0z"/><path d="M12 2C6.48 2 2 6.48 2 12s4.48 10 10 10 10-4.48 10-10S17.52 2 12 2zm1.41 16.09v.58c0 .73-.6 1.33-1.33 1.33h-.01c-.73 0-1.33-.6-1.33-1.33v-.6c-1.33-.28-2.51-1.01-3.01-2.24-.23-.55.2-1.16.8-1.16h.24c.37 0 .67.25.81.6.29.75 1.05 1.27 2.51 1.27 1.96 0 2.4-.98 2.4-1.59 0-.83-.44-1.61-2.67-2.14-2.48-.6-4.18-1.62-4.18-3.67 0-1.72 1.39-2.84 3.11-3.21v-.6c0-.73.6-1.33 1.33-1.33h.01c.73 0 1.33.6 1.33 1.33v.62c1.38.34 2.25 1.2 2.63 2.26.2.55-.22 1.13-.81 1.13h-.26c-.37 0-.67-.26-.77-.62-.23-.76-.86-1.25-2.12-1.25-1.5 0-2.4.68-2.4 1.64 0 .84.65 1.39 2.67 1.91s4.18 1.39 4.18 3.91c-.02 1.83-1.39 2.83-3.13 3.16z"/></symbol><symbol id="nurse-b" viewBox="0 0 24 24"><path fill="none" d="M0 0h24v24H0z"/><path d="M19 3H5a2 2 0 0 0-2 2v14a2 2 0 0 0 2 2h14c1.1 0 2-.9 2-2V5c0-1.1-.9-2-2-2zm-2 10h-4v4h-2v-4H7v-2h4V7h2v4h4v2z"/></symbol></svg>