<?xml version="1.0" encoding="utf-8"?>
<!-- Generator: Adobe Illustrator 27.0.1, SVG Export Plug-In . SVG Version: 6.00 Build 0)  -->
<svg version="1.1" id="Layer_1" xmlns="http://www.w3.org/2000/svg" xmlns:xlink="http://www.w3.org/1999/xlink" x="0px" y="0px"
	 viewBox="0 0 523.5 529.5" style="enable-background:new 0 0 523.5 529.5;" xml:space="preserve">
<style type="text/css">
	.st0{fill:#0275DA;}
	.st1{opacity:0.29;}
	.st2{fill:#D7D8D5;}
	.st3{fill:#016DCC;}
	.st4{fill:#027FED;}
	.st5{fill:#0278FF;}
	.st6{fill:#C6C7C4;}
	.st7{fill:#FFFFFF;}
</style>
<path class="st0" d="M284.4,269.3c-3.2,0.3-6.4,0.4-9.7,0.4c-5.6,0-11.2-0.4-16.8-1.2c-59-8.7-104.5-62.3-104.5-127.3
	S198.9,22.6,258,14c0.1,0,0.2,0,0.4-0.1L284.4,269.3z"/>
<path class="st1" d="M258.6,16.5l-0.7,0.5c-35.6,25.5-59.4,72.5-59.4,126.2c0,52.9,23.1,99.2,57.8,125l1.6,1.2
	c1.2,0.8,2.3,1.6,3.5,2.4L258.6,16.5z"/>
<polygon class="st2" points="284.7,271.8 258,271.8 258,9.7 258.4,13.9 284.4,269.3 "/>
<path class="st0" d="M265.4,254c-1,3-2.2,6-3.5,9c-2.3,5.1-4.9,10.1-7.9,14.9c-31.7,50.5-99.1,70.5-158.6,44.3S5.2,232.9,21.1,175.3
	c0-0.1,0.1-0.3,0.1-0.4L265.4,254z"/>
<path class="st1" d="M23.6,175.7l0.2,0.8c9,42.9,42.4,83.7,91.6,105.3c48.4,21.3,100.1,18.8,137.7-2.6c0.6-0.3,1.2-0.7,1.8-1
	c1.2-0.7,2.4-1.5,3.6-2.2L23.6,175.7z"/>
<polygon class="st2" points="267.9,254.8 257.1,279.2 17.1,173.6 21.2,174.9 265.4,254 "/>
<path class="st3" d="M245.9,260.5c2.7,1.8,5.3,3.7,7.8,5.7c4.4,3.5,8.5,7.3,12.4,11.4c40.7,43.6,42.8,113.9,2.3,164.6
	s-109.5,64.4-161,34.3c-0.1-0.1-0.2-0.1-0.4-0.2L245.9,260.5z"/>
<path class="st1" d="M108.3,474.2h0.8c43.8,2.2,91.7-19.6,125.2-61.6c33-41.3,43.8-92,32.8-133.8c-0.2-0.6-0.4-1.3-0.5-2
	c-0.4-1.4-0.8-2.7-1.2-4L108.3,474.2z"/>
<polygon class="st2" points="247.3,258.4 268.1,275 104.6,480 106.9,476.4 245.9,260.5 "/>
<path class="st4" d="M252.2,271c2.6-1.9,5.3-3.6,8.1-5.3c4.8-2.9,9.9-5.4,15.1-7.5c55.2-22.6,121.6,0.5,154.7,56.4
	s21.3,125.2-25.1,162.7c-0.1,0.1-0.2,0.2-0.3,0.3L252.2,271z"/>
<path class="st1" d="M403.1,475.5l0.3-0.8c17.6-40.1,14.3-92.7-13.1-138.9c-26.9-45.5-70.4-73.6-113.4-78.2c-0.7-0.1-1.4-0.1-2-0.2
	c-1.4-0.1-2.8-0.2-4.2-0.3L403.1,475.5z"/>
<polygon class="st2" points="250.7,268.9 273.7,255.4 407.1,481 404.7,477.6 252.2,271 "/>
<path class="st5" d="M265.9,295.4c-1.4-2.9-2.6-5.9-3.7-8.9c-1.9-5.3-3.5-10.7-4.6-16.2c-12.2-58.4,22.4-119.6,83.4-142
	s127,1.7,155.5,54.1c0.1,0.1,0.1,0.2,0.2,0.4L265.9,295.4z"/>
<path class="st1" d="M494.3,184l-0.7-0.5c-36.3-24.6-88.6-30.8-139-12.2c-49.6,18.3-85.1,56-97.4,97.4c-0.2,0.6-0.4,1.3-0.5,1.9
	c-0.4,1.4-0.7,2.7-1.1,4.1L494.3,184z"/>
<polygon class="st2" points="263.6,296.6 254.4,271.5 500.4,181 496.6,182.8 265.9,295.4 "/>
<circle class="st6" cx="261.7" cy="264.8" r="34.7"/>
<circle class="st7" cx="261.7" cy="264.8" r="12"/>
</svg>
