<?xml version="1.0" encoding="utf-8"?>
<!-- Generator: Adobe Illustrator 25.0.1, SVG Export Plug-In . SVG Version: 6.00 Build 0)  -->
<svg version="1.1" id="Layer_1" xmlns="http://www.w3.org/2000/svg" xmlns:xlink="http://www.w3.org/1999/xlink" x="0px" y="0px"
	 viewBox="0 0 24 24" style="enable-background:new 0 0 24 24;" xml:space="preserve">
<style type="text/css">
	.st0{fill:#FFFFFF;}
</style>
<circle class="st0" cx="8.5" cy="9.5" r="1.5"/>
<path class="st0" d="M12,15c1.1,0,2.1,0.3,3,0.9c-0.1,0.2-0.9,1-1,1.1c-0.6-0.3-1.2-0.5-2-0.5s-1.4,0.2-2,0.5c-1-1.1,0-0.1-1-1.1
	C9.9,15.3,10.9,15,12,15z"/>
<circle class="st0" cx="15.5" cy="9.5" r="1.5"/>
<path class="st0" d="M12,2C6.5,2,2,6.5,2,12s4.5,10,10,10s10-4.5,10-10S17.5,2,12,2z M12,20c-4.4,0-8-3.6-8-8s3.6-8,8-8s8,3.6,8,8
	S16.4,20,12,20z"/>
</svg>
