<?xml version="1.0" encoding="utf-8"?>
<!-- Generator: Adobe Illustrator 25.0.1, SVG Export Plug-In . SVG Version: 6.00 Build 0)  -->
<svg version="1.1" id="Layer_1" xmlns="http://www.w3.org/2000/svg" xmlns:xlink="http://www.w3.org/1999/xlink" x="0px" y="0px"
	 viewBox="0 0 24 24" style="enable-background:new 0 0 24 24;" xml:space="preserve">
<style type="text/css">
	.st0{fill:#AD001F;}
</style>
<path class="st0" d="M6,7v12c0,1.1,0.9,2,2,2h8c1.1,0,2-0.9,2-2V7H6z M16,19H8V9h8V19z"/>
<polygon class="st0" points="19,4 19,6 5,6 5,4 8.5,4 9.5,3 14.5,3 15.5,4 "/>
<path class="st0" d="M6,7v12c0,1.1,0.9,2,2,2h8c1.1,0,2-0.9,2-2V7H6z M16,19H8V9h8V19z M15.5,4l-1-1h-5l-1,1H5v2h14V4H15.5z"/>
</svg>
