<?xml version="1.0" encoding="utf-8"?>
<!-- Generator: Adobe Illustrator 25.0.0, SVG Export Plug-In . SVG Version: 6.00 Build 0)  -->
<svg version="1.1" id="Layer_1" xmlns="http://www.w3.org/2000/svg" xmlns:xlink="http://www.w3.org/1999/xlink" x="0px" y="0px"
	 viewBox="0 0 24 24" style="enable-background:new 0 0 24 24;" xml:space="preserve">
<style type="text/css">
	.st0{opacity:4.000000e-02;}
</style>
<path class="st0" d="M4.7,19c-0.3,0-0.6-0.2-0.7-0.5c-0.2-0.4,0-0.8,0.4-1c0.5-0.2,1.1-0.5,1.8-0.9c-0.6-0.8-1.1-1.7-1.5-2.6
	c-1.2-2.7-1.9-6.4,0-8.4c1.6-1.7,4.7-2.1,6.4-0.8c2.5,2,1,6.5,0.7,7.4c-0.7,2-2,3.5-3.3,4.5C8.8,17,9,17,9.2,17
	c0.2,0,0.5-0.2,0.8-0.5c0.5-0.5,1.3-1.1,2.4-1c0.8,0.1,1.3,0.6,1.7,0.9c0.3,0.3,0.5,0.5,0.8,0.5c0.3,0,0.5-0.1,0.9-0.4
	c0.4-0.3,1-0.7,1.8-0.7c1,0,1.9,0.5,2.9,1.5c0.3,0.3,0.3,0.8,0,1.1s-0.8,0.3-1.1,0c-0.6-0.7-1.2-1-1.7-1c-0.3,0-0.6,0.2-0.9,0.4
	c-0.4,0.3-1,0.7-1.8,0.7c-0.9,0-1.4-0.5-1.8-0.9c-0.3-0.3-0.5-0.5-0.8-0.5c-0.4-0.1-0.7,0.2-1.2,0.6c-0.5,0.4-1,0.9-1.8,0.9
	c-0.6,0-1.3-0.3-1.8-0.8c-0.9,0.6-1.8,1-2.3,1.2C4.9,19,4.8,19,4.7,19z M8.6,5.6c-1,0-2.1,0.4-2.7,1.1c-1.3,1.4-0.8,4.4,0.2,6.8
	c0.4,0.9,0.9,1.7,1.4,2.3c1.2-0.9,2.3-2.2,3-4c0.6-1.6,1.2-4.6-0.2-5.7C9.8,5.8,9.2,5.6,8.6,5.6z"/>
</svg>
