<?xml version="1.0" encoding="utf-8"?>
<!-- Generator: Adobe Illustrator 25.0.1, SVG Export Plug-In . SVG Version: 6.00 Build 0)  -->
<svg version="1.1" id="Layer_1" xmlns="http://www.w3.org/2000/svg" xmlns:xlink="http://www.w3.org/1999/xlink" x="0px" y="0px"
	 viewBox="0 0 24 24" style="enable-background:new 0 0 24 24;" xml:space="preserve">
<style type="text/css">
	.st0{opacity:4.000000e-02;enable-background:new    ;}
</style>
<g class="st0">
	<g>
		<path d="M9.1,10.2V6.8c0-1.3,1-2.3,2.3-2.3s2.3,1,2.3,2.3v3.4c1.1-0.7,1.8-2,1.8-3.4c0-2.3-1.8-4.2-4.2-4.2S7.2,4.5,7.2,6.8
			C7.2,8.3,8,9.5,9.1,10.2z M14.1,12.5c-0.3-0.1-0.6-0.2-0.8-0.2h-0.6V6.8c0-0.7-0.6-1.4-1.4-1.4C10.6,5.4,10,6,10,6.8v9.9L6.9,16
			c-0.4-0.1-0.7,0-0.9,0.3c-0.4,0.4-0.4,1,0,1.5l3.7,3.7c0.4,0.4,0.8,0.6,1.3,0.6h5.6c0.9,0,1.7-0.6,1.8-1.6l0.6-4.2
			c0.1-0.8-0.3-1.6-1-1.9L14.1,12.5z"/>
	</g>
</g>
</svg>
