<?xml version="1.0" encoding="utf-8"?>
<!-- Generator: Adobe Illustrator 25.0.1, SVG Export Plug-In . SVG Version: 6.00 Build 0)  -->
<svg version="1.1" id="Layer_1" xmlns="http://www.w3.org/2000/svg" xmlns:xlink="http://www.w3.org/1999/xlink" x="0px" y="0px"
	 viewBox="0 0 24 24" style="enable-background:new 0 0 24 24;" xml:space="preserve">
<style type="text/css">
	.st0{fill:#FFFFFF;}
</style>
<path class="st0" d="M12,2C6.5,2,2,6.5,2,12s4.5,10,10,10s10-4.5,10-10S17.5,2,12,2z M16.6,15.6c-0.2,0.3-0.7,0.5-1,0.2l-4.1-2.5
	c-0.3-0.2-0.5-0.5-0.5-0.8V7.8C11,7.3,11.3,7,11.8,7c0.4,0,0.8,0.3,0.8,0.8v4.5l3.8,2.3C16.7,14.7,16.8,15.2,16.6,15.6z"/>
</svg>
