<svg xmlns="http://www.w3.org/2000/svg" width="700" height="700" viewBox="0 0 700 700"><path d="M284.8 361.7h-73.9c-6.8 0-12.3 5.5-12.3 12.3v49.3c0 4.1 2.1 8 5.5 10.2l37 24.6c4.1 2.7 9.4 2.7 13.5 0l37-24.6c3.4-2.3 5.5-6.1 5.5-10.2V374c0-3.3-1.3-6.4-3.6-8.7-2.3-2.3-5.4-3.6-8.7-3.6zm-12.3 54.9l-24.6 16.5-24.6-16.5v-30.3h49.3v30.3zm37-190.4c26.1 0 51.2-10.4 69.7-28.9s28.9-43.5 28.9-69.7-10.5-51.1-28.9-69.6c-18.5-18.5-43.5-28.9-69.7-28.9-26.1 0-51.2 10.4-69.7 28.9s-28.9 43.5-28.9 69.7 10.4 51.2 28.9 69.7c18.5 18.4 43.5 28.8 69.7 28.8zm0-24.6c-18.7 0-36.8-7-50.5-19.8-13.7-12.8-22.1-30.3-23.4-48.9 11.3-10.1 32.4-24.6 43.5-18.8l8.6 4.6c19.2 10.2 37 20 94.3 21.3-2.9 17.2-11.7 32.8-25 44.1a74.404 74.404 0 0 1-47.5 17.5zm0-147.8c17.5 0 34.3 6.2 47.7 17.5 13.3 11.3 22.2 26.9 25.1 44.1-50.4-1.2-65.5-9.2-82.6-18.4l-9.2-4.8c-16.2-6.2-34.5-3.9-48.7 6.2C247.5 85.2 257 73.9 269 66c12-8 26.1-12.2 40.5-12.2z"/><path d="M555.8 423.3h-24.6V374c.1-18.5-6.8-36.4-19.3-50.1a73.851 73.851 0 0 0-48.2-23.8c-13.5-37-50.9-59.6-100.5-59.6-3.2 0-6.3 1.4-8.6 3.7-12 11.9-28.2 18.6-45.1 18.6s-33.1-6.7-45.1-18.6c-2.3-2.3-5.4-3.6-8.6-3.7-63.7 0-106.4 37-106.4 91.8v201.9c0 3.3 1.3 6.4 3.6 8.7s5.4 3.6 8.7 3.6h184.8v86.2c0 3.3 1.3 6.4 3.6 8.7 2.3 2.3 5.4 3.6 8.7 3.6h197.1c3.3 0 6.4-1.3 8.7-3.6 2.3-2.3 3.6-5.4 3.6-8.7V435.6c0-3.3-1.3-6.4-3.6-8.7-2.4-2.3-5.5-3.6-8.8-3.6zM506.6 374v49.3H408V374c.2-12.7 5.3-24.9 14.1-34 8.8-9.1 20.8-14.6 33.5-15.2h1.6c13.1 0 25.6 5.2 34.8 14.4 9.4 9.2 14.6 21.8 14.6 34.8zM368 265.6c4.1.2 8.2.6 12.3 1.2-6.2 11.6-24.6 33.3-71.3 33.3s-65.2-21.8-71.4-33.3c4.3-.7 8.6-1.1 12.9-1.2 16.2 14.4 37.1 22.3 58.8 22.3 21.6 0 42.5-7.9 58.7-22.3zM174 521.8V332.6c-.4-12.8 3.2-25.4 10.4-36.1 7.2-10.6 17.6-18.7 29.6-23.1 6.9 15.8 29.8 51.2 95.5 51.2s88.6-35.5 95.5-51.2c14.3 5.4 26.1 15.7 33.3 29.2-.9-1.7-18.6 7.9-20.3 8.9-5.8 3.7-11.2 8.1-15.9 13.2-11.9 13.6-18.5 31.1-18.6 49.3v49.3h-24.6c-6.8 0-12.3 5.5-12.3 12.3v86.2H174zm369.5 98.6H371.1V447.9h172.4v172.5z"/><path d="M457.3 484.9c-9 0-17.7 3.3-24.5 9.3-6.7 6-11.1 14.3-12.1 23.2-1.1 9 1.2 18 6.3 25.4l-6.3 24.6c-.9 3.7-.1 7.6 2.2 10.6 2.2 3.2 5.8 5.2 9.7 5.3h49.3c3.8 0 7.4-1.7 9.7-4.7 2.3-3 3.2-6.9 2.2-10.6l-6.3-24.6c5.4-7.4 7.8-16.6 6.8-25.7-1-9.1-5.4-17.5-12.2-23.6-6.8-6-15.6-9.3-24.8-9.2zm4.8 57.9l4.1 16h-17.7l4.1-16c1.2-4.4-.2-9.2-3.6-12.3-3.7-3.4-4.9-8.8-3.1-13.5 1.8-4.7 6.4-7.8 11.5-7.8s9.6 3.1 11.5 7.8c1.9 4.7.6 10.1-3.1 13.5-3.5 3.1-4.9 7.8-3.7 12.3z"/></svg>