<svg xmlns="http://www.w3.org/2000/svg" id="Layer_1" width="512" height="512" viewBox="0 0 512 512"><style>.st0,.st1{fill:none}.st1{stroke:#000;stroke-width:32;stroke-linecap:round;stroke-linejoin:round}</style><path d="M480 256L266.9 52c-5-5.3-16.7-5.3-21.8 0L32 256m368-77V64h-48v69" class="st1"/><path d="M84.5 205.8v200.3c0 18.7 15.1 33.8 33.8 33.8h38.8c18.7 0 33.8-15.1 33.8-33.8v-90.8c0-18.7 15.1-33.8 33.8-33.8h56.9c18.7 0 33.8 15.1 33.8 33.8v90.8c0 18.7 15.1 33.8 33.8 33.8h44.3c18.7 0 33.8-15.1 33.8-33.8V205.8" class="st1"/></svg>