<svg xmlns="http://www.w3.org/2000/svg" id="Layer_1" width="512" height="512" viewBox="0 0 512 512"><style>.st0,.st1{fill:none;stroke:#000;stroke-width:32}.st0{stroke-linecap:round;stroke-linejoin:round}.st1{stroke-miterlimit:10}</style><path d="M256 304c-87 0-175.3 48-191.6 138.6-2 10.9 4.2 21.4 15.6 21.4h352c11.4 0 17.6-10.5 15.6-21.4C431.3 352 343 304 256 304zm88-160c-3.9 52.9-44 96-88 96s-84.1-43.1-88-96c-4-55 35-96 88-96s92 42 88 96z"/><path d="M344 144c-3.9 52.9-44 96-88 96s-84.1-43.1-88-96c-4-55 35-96 88-96s92 42 88 96z" class="st0"/><path d="M256 304c-87 0-175.3 48-191.6 138.6-2 10.9 4.2 21.4 15.6 21.4h352c11.4 0 17.6-10.5 15.6-21.4C431.3 352 343 304 256 304z" class="st1"/></svg>