<?xml version="1.0" encoding="utf-8"?>
<!-- Generator: Adobe Illustrator 25.0.1, SVG Export Plug-In . SVG Version: 6.00 Build 0)  -->
<svg version="1.1" id="Layer_1" xmlns="http://www.w3.org/2000/svg" xmlns:xlink="http://www.w3.org/1999/xlink" x="0px" y="0px"
	 viewBox="0 0 75 75" style="enable-background:new 0 0 75 75;" xml:space="preserve">
<style type="text/css">
	.st0{fill:#D48FF9;}
	.st1{fill:#E4BA97;}
	.st2{opacity:0.15;enable-background:new    ;}
	.st3{fill:#333331;}
	.st4{opacity:0.14;}
	.st5{opacity:0.16;fill:#685C50;enable-background:new    ;}
</style>
<rect x="0" y="0" class="st0" width="75.1" height="75.1"/>
<path class="st0" d="M62.6,50.3c0,11.9-8.5,21.9-19.7,24.2C41.3,74.8,39.7,75,38,75c-1.9,0-3.7-0.2-5.5-0.6
	c-11-2.5-19.2-12.3-19.2-24.1c0-13.6,11-24.7,24.7-24.7C51.5,25.6,62.6,36.7,62.6,50.3z"/>
<path class="st1" d="M44.1,75H33.9L37,64.1h4.7L44.1,75L44.1,75z"/>
<path class="st2" d="M43.3,71.9l-7.6-3.4l1.3-4.4h4.7L43.3,71.9C43.4,71.9,43.3,71.9,43.3,71.9z"/>
<path class="st3" d="M27.4,43.8c-1.1,3.2-2.1,7.6-2.5,12.9c-0.2,2.9-0.1,5.6,0.1,8l0,0l0,0c-4.9-4.5-15-25.7-9.1-41
	c2.8-7.3,10.6-20.1,19.2-19c1.5,0.2,4.5,0.9,7.6,5c0,0,0,0,0,0.1c0.3,0.4,0.6,0.8,0.9,1.3c0.6-0.2,1.2-0.3,1.8-0.4
	c0.1,0,0.1,0,0.2,0c8.8-1.7,12.9,1.1,13.9,1.8c6.9,5.3,6.4,19.4,1.9,28.6c-1.7,3.6-3.9,6.1-3.8,10.4c0.1,4.7,2.6,8.4,4.8,10.9
	c-0.9,0.1-5.5,0.4-9.6-2.7c-1-0.8-1.9-1.7-2.5-2.6c-2.1-2.9-2.3-5.9-2.3-6.5"/>
<ellipse class="st1" cx="39.5" cy="41.3" rx="16.7" ry="24.4"/>
<g class="st4">
	<path d="M39.5,39.6c0.1,0.9,0.1,1.8,0.2,2.6c0,0.9,0.1,1.8,0.1,2.6v0.3h-0.3c-0.7,0-1.5-0.1-2.2-0.3l0,0l0,0
		c0.7-0.2,1.5-0.2,2.2-0.3l-0.3,0.3c0-0.9,0.1-1.8,0.1-2.6C39.4,41.3,39.4,40.4,39.5,39.6C39.5,39.5,39.5,39.5,39.5,39.6
		C39.5,39.5,39.5,39.6,39.5,39.6z"/>
</g>
<path class="st3" d="M56.9,36.7L56.9,36.7c0,0.7,0,1.4-0.1,2.1c0,0.3,0,0.6-0.1,0.8c0,0.1,0,0.3,0,0.4c0,0.2,0,0.4,0,0.6
	c-0.1,0-0.2-0.1-0.2-0.1c-4-2.2-8.2-5.9-11.9-10.6c-2.9-3.7-5.1-7.5-6.5-11.1c-0.1-0.1-0.2-0.1-0.2-0.2c-2.7,3.3-5.7,7.5-8.3,12.6
	c-0.3,0.6-0.6,1.1-0.8,1.7c-2.2,4.6-3.6,9-4.6,13.2v0.1c-0.4,1.3-0.8,2.8-1.1,4.5c-1.7-4.1-2.7-8.9-2.7-14
	c0-13.6,6.9-24.9,15.9-26.7c0.7-0.2,1.4-0.2,2.2-0.2h0.3c0.2,0,0.4,0,0.5,0c0.3,0,0.5,0,0.8,0.1h0.1c0,0,0,0,0.1,0
	c0.2,0,0.5,0.1,0.7,0.1s0.5,0.1,0.7,0.2l0,0l0,0c0,0,0,0,0,0.1h0.1l0,0c0.2,0.1,0.4,0.1,0.6,0.2c0.3,0.1,0.5,0.2,0.7,0.3l0,0
	c0.5,0.2,1,0.4,1.5,0.7c0.2,0.1,0.5,0.3,0.7,0.4c0.2,0.1,0.4,0.3,0.7,0.4c0.3,0.2,0.5,0.4,0.8,0.6c0.8,0.6,1.6,1.3,2.4,2.1
	c0.2,0.2,0.5,0.5,0.7,0.8c0.2,0.2,0.4,0.5,0.6,0.7c0.2,0.2,0.4,0.5,0.6,0.7c0.7,1,1.4,2,2,3.2c0.2,0.3,0.3,0.6,0.4,0.9
	c1.6,3.2,2.7,7,3.2,11.1c0,0.4,0.1,0.7,0.1,1.1c0,0.3,0,0.6,0.1,0.9c0,0.4,0,0.8,0.1,1.2C56.9,35.7,56.9,36.2,56.9,36.7z"/>
<path class="st5" d="M58,39.1L58,39.1c0,0.7,0,1.4-0.1,2.1c0,0.3,0,0.6-0.1,0.8c0,0.1,0,0.2,0,0.4s0,0.4,0,0.6
	c-0.1,0-0.2-0.1-0.2-0.1c-4-2.2-8.2-5.9-11.9-10.6c-2.9-3.7-5.1-7.5-6.5-11.1c-0.1-0.1-0.1-0.1-0.2-0.2c-2.7,3.3-5.7,7.5-8.3,12.7
	c-0.3,0.6-0.6,1.1-0.8,1.7c-2.2,4.5-3.6,9-4.6,13.2v0.1c-0.4,1.3-0.8,2.8-1.1,4.4c-0.6-1.5-1.1-3.1-1.6-4.7c0.2,0.5,0.4,0.9,0.6,1.4
	c0.3-1.6,0.7-3.1,1.1-4.5v-0.1c1-4.2,2.5-8.6,4.6-13.2c0.3-0.6,0.5-1.1,0.8-1.7c2.6-5.1,5.6-9.3,8.3-12.6c0.1,0.1,0.2,0.1,0.2,0.2
	c1.4,3.6,3.6,7.4,6.4,11.1c3.7,4.7,7.9,8.4,11.9,10.6c0.1,0.1,0.2,0.1,0.2,0.1c0-0.2,0-0.4,0-0.6c0-0.1,0-0.3,0-0.4
	c0-0.3,0-0.6,0.1-0.8c0-0.7,0.1-1.4,0.1-2.1l0,0c0-0.5,0-0.9,0-1.4c0-0.4,0-0.8-0.1-1.2c0-0.3,0-0.6-0.1-0.9c0-0.4-0.1-0.7-0.1-1.1
	c-0.2-1.6-0.5-3.1-0.8-4.6c0.9,2.4,1.5,5.1,1.8,7.9c0.1,0.4,0.1,0.7,0.1,1.1c0,0.3,0,0.6,0.1,0.9c0,0.4,0,0.8,0.1,1.2
	C57.9,38.2,58,38.7,58,39.1z"/>
</svg>
