<?xml version="1.0" encoding="utf-8"?>
<!-- Generator: Adobe Illustrator 25.0.1, SVG Export Plug-In . SVG Version: 6.00 Build 0)  -->
<svg version="1.1" id="Layer_1" xmlns="http://www.w3.org/2000/svg" xmlns:xlink="http://www.w3.org/1999/xlink" x="0px" y="0px"
	 viewBox="0 0 75 75" style="enable-background:new 0 0 75 75;" xml:space="preserve">
<style type="text/css">
	.st0{fill:#8FC8F9;}
	.st1{fill:#E4BA97;}
	.st2{opacity:0.15;enable-background:new    ;}
	.st3{fill:#333331;}
	.st4{opacity:0.16;fill:#685C50;enable-background:new    ;}
	.st5{opacity:0.14;}
</style>
<rect class="st0" width="75.1" height="75.1"/>
<path class="st0" d="M61.7,50.6c0,11.8-8.4,21.7-19.6,24c-1.6,0.3-3.2,0.5-4.9,0.5c-1.9,0-3.7-0.2-5.4-0.6
	c-10.9-2.5-19-12.2-19-23.8c0-13.5,10.9-24.4,24.4-24.4C50.7,26.1,61.7,37.1,61.7,50.6z"/>
<g>
	<g>
		<g>
			<path class="st1" d="M43.2,75H30.5l3.9-12.4h5.8L43,75C43.1,75,43.1,75,43.2,75z"/>
			<path class="st2" d="M42.2,71.6l-9.4-3.9l1.6-5.1h5.8L42.2,71.6C42.3,71.7,42.1,71.6,42.2,71.6z"/>
			<path class="st1" d="M53.6,30.6l-0.7,8.2l0,0l-0.8,5l-0.5,3.3c-0.4,2.6-1.2,5.1-2.2,7.4L47,59.8c-1.6,3.6-5.2,5.9-9.2,5.9l0,0
				c-3.9,0-7.5-2.2-9.2-5.8l-2.3-4.8c-1.3-2.8-2.2-5.7-2.7-8.7l-0.5-3.3l-1-6.6l0,0c-0.3-1-0.4-2.1-0.5-3.3l-0.1-2.5
				c-0.2-4,1.5-7.9,4.7-10.3c12.5-9.2,26-1.5,27.5,10C53.6,30.5,53.6,30.5,53.6,30.6z"/>
			<path class="st3" d="M55.1,17.5l-1.8,20.4h-1.5l-1.1-9.7l-3.4-2.6l-20,0.1l-3.9,4l0.1,8l0,0l-1.3-0.1l-0.5-4.1l0,0L20,21.3l3-5.3
				L53.3,3.7l-5.8,10.6l5.1,0.4C54.1,14.8,55.2,16,55.1,17.5z"/>
			<path class="st4" d="M49.8,27.4L51,28l-0.3,1.1l-3.1-2.6l-18.5,0.1c-1,0-1.9,0.4-2.5,1.1l-2.9,2.9l0.3,3.8l0.2,4L23,38.5h-0.1
				l-0.2-1.6h0.5l-0.2-4L22.7,29l2.9-2.9c0.7-0.7,1.6-1.1,2.5-1.1h18.5L49.8,27.4z"/>
			<g class="st5">
				<path d="M37.6,38.1c0.1,1.5,0.2,3,0.3,4.5c0,0.7,0.1,1.5,0.2,2.2c0.1,0.7,0,1.5,0,2.2L38,47.6l-0.4-0.1
					c-0.7-0.1-1.4-0.2-2.1-0.4c0,0,0,0,0-0.1l0,0c0.7-0.2,1.4-0.4,2.1-0.4L37,47c-0.1-0.7-0.1-1.5,0-2.2s0.1-1.5,0.2-2.2
					C37.3,41.1,37.4,39.6,37.6,38.1C37.5,38,37.5,38,37.6,38.1C37.6,38,37.6,38,37.6,38.1z"/>
			</g>
		</g>
	</g>
</g>
</svg>
