<?xml version="1.0" encoding="utf-8"?>
<!-- Generator: Adobe Illustrator 25.0.1, SVG Export Plug-In . SVG Version: 6.00 Build 0)  -->
<svg version="1.1" id="Layer_1" xmlns="http://www.w3.org/2000/svg" xmlns:xlink="http://www.w3.org/1999/xlink" x="0px" y="0px"
	 viewBox="0 0 75 75" style="enable-background:new 0 0 75 75;" xml:space="preserve">
<style type="text/css">
	.st0{fill:#E6E6E6;}
	.st1{fill:#E4BA97;}
	.st2{opacity:0.15;}
	.st3{opacity:0.14;}
	.st4{fill:#685C50;}
</style>
<rect class="st0" width="75" height="75"/>
<g>
	<path class="st1" d="M41,75H27.3V63.5l11.2,0.8l1.7,7.4l0.8,3.3C40.9,75,41,75,41,75z"/>
	<polygon class="st2" points="40.1,71.7 27.3,68.2 27.3,63.5 38.4,64.2 	"/>
	<rect x="26.1" y="22.2" class="st1" width="27.6" height="43.1"/>
	<g class="st3">
		<path d="M41.7,41.4c-0.4-0.3-0.8-0.7-1.3-1c-0.2-0.2-0.4-0.3-0.6-0.5c-0.2-0.2-0.4-0.4-0.5-0.6l0.3,0.1c-1.1,0.5-2,1.3-2.6,2.4
			c-0.5,1.1-0.7,2.3-0.5,3.5c0.2,1.2,0.8,2.3,1.8,2.8c0.3,0.1,0.5,0.2,0.8,0.3c0.3,0,0.6,0,0.9,0.1c0.6,0,1.2-0.1,1.8-0.3
			c-0.5,0.4-1.1,0.6-1.8,0.8c-0.7,0.2-1.4,0-2-0.3c-1.3-0.6-1.9-2-2.1-3.3c-0.2-1.3-0.1-2.7,0.5-3.9c0.6-1.2,1.7-2.1,2.9-2.6
			l0.2-0.1l0.1,0.2c0.2,0.2,0.4,0.4,0.6,0.6c0.2,0.2,0.3,0.4,0.5,0.7C41,40.5,41.4,40.9,41.7,41.4z"/>
	</g>
	<path class="st4" d="M44.5,41.8c0,0.7-0.6,1.3-1.3,1.3l0,0c-0.7,0-1.3-0.6-1.3-1.3v-4.4L36.1,39l-1.7,9.1l-9.9,9.3V18.5l31.7-9
		l-1.1,17.8l-8.9,3.2l-1.8,6.8V41.8z"/>
</g>
</svg>
